<?xml version="1.0" encoding="utf-8" standalone="no"?>
<!DOCTYPE svg PUBLIC "-//W3C//DTD SVG 1.1//EN"
  "http://www.w3.org/Graphics/SVG/1.1/DTD/svg11.dtd">
<svg xmlns:xlink="http://www.w3.org/1999/xlink" width="864pt" height="432pt" viewBox="0 0 864 432" xmlns="http://www.w3.org/2000/svg" version="1.1">
 <metadata>
  <rdf:RDF xmlns:dc="http://purl.org/dc/elements/1.1/" xmlns:cc="http://creativecommons.org/ns#" xmlns:rdf="http://www.w3.org/1999/02/22-rdf-syntax-ns#">
   <cc:Work>
    <dc:type rdf:resource="http://purl.org/dc/dcmitype/StillImage"/>
    <dc:date>2025-08-29T22:56:59.575174</dc:date>
    <dc:format>image/svg+xml</dc:format>
    <dc:creator>
     <cc:Agent>
      <dc:title>Matplotlib v3.10.1, https://matplotlib.org/</dc:title>
     </cc:Agent>
    </dc:creator>
   </cc:Work>
  </rdf:RDF>
 </metadata>
 <defs>
  <style type="text/css">*{stroke-linejoin: round; stroke-linecap: butt}</style>
 </defs>
 <g id="figure_1">
  <g id="patch_1">
   <path d="M 0 432 
L 864 432 
L 864 0 
L 0 0 
z
" style="fill: #ffffff"/>
  </g>
  <g id="axes_1">
   <g id="patch_2">
    <path d="M 51.77 389.32 
L 853.2 389.32 
L 853.2 33.39 
L 51.77 33.39 
z
" style="fill: #ffffff"/>
   </g>
   <g id="matplotlib.axis_1">
    <g id="xtick_1">
     <g id="line2d_1">
      <defs>
       <path id="md1007bf401" d="M 0 0 
L 0 3.5 
" style="stroke: #000000; stroke-width: 0.8"/>
      </defs>
      <g>
       <use xlink:href="#md1007bf401" x="90.246967" y="389.32" style="stroke: #000000; stroke-width: 0.8"/>
      </g>
     </g>
     <g id="text_1">
      <!-- 40 -->
      <g transform="translate(83.884467 403.918437) scale(0.1 -0.1)">
       <defs>
        <path id="DejaVuSans-34" d="M 2419 4116 
L 825 1625 
L 2419 1625 
L 2419 4116 
z
M 2253 4666 
L 3047 4666 
L 3047 1625 
L 3713 1625 
L 3713 1100 
L 3047 1100 
L 3047 0 
L 2419 0 
L 2419 1100 
L 313 1100 
L 313 1709 
L 2253 4666 
z
" transform="scale(0.015625)"/>
        <path id="DejaVuSans-30" d="M 2034 4250 
Q 1547 4250 1301 3770 
Q 1056 3291 1056 2328 
Q 1056 1369 1301 889 
Q 1547 409 2034 409 
Q 2525 409 2770 889 
Q 3016 1369 3016 2328 
Q 3016 3291 2770 3770 
Q 2525 4250 2034 4250 
z
M 2034 4750 
Q 2819 4750 3233 4129 
Q 3647 3509 3647 2328 
Q 3647 1150 3233 529 
Q 2819 -91 2034 -91 
Q 1250 -91 836 529 
Q 422 1150 422 2328 
Q 422 3509 836 4129 
Q 1250 4750 2034 4750 
z
" transform="scale(0.015625)"/>
       </defs>
       <use xlink:href="#DejaVuSans-34"/>
       <use xlink:href="#DejaVuSans-30" transform="translate(63.623047 0)"/>
      </g>
     </g>
    </g>
    <g id="xtick_2">
     <g id="line2d_2">
      <g>
       <use xlink:href="#md1007bf401" x="210.911981" y="389.32" style="stroke: #000000; stroke-width: 0.8"/>
      </g>
     </g>
     <g id="text_2">
      <!-- 60 -->
      <g transform="translate(204.549481 403.918437) scale(0.1 -0.1)">
       <defs>
        <path id="DejaVuSans-36" d="M 2113 2584 
Q 1688 2584 1439 2293 
Q 1191 2003 1191 1497 
Q 1191 994 1439 701 
Q 1688 409 2113 409 
Q 2538 409 2786 701 
Q 3034 994 3034 1497 
Q 3034 2003 2786 2293 
Q 2538 2584 2113 2584 
z
M 3366 4563 
L 3366 3988 
Q 3128 4100 2886 4159 
Q 2644 4219 2406 4219 
Q 1781 4219 1451 3797 
Q 1122 3375 1075 2522 
Q 1259 2794 1537 2939 
Q 1816 3084 2150 3084 
Q 2853 3084 3261 2657 
Q 3669 2231 3669 1497 
Q 3669 778 3244 343 
Q 2819 -91 2113 -91 
Q 1303 -91 875 529 
Q 447 1150 447 2328 
Q 447 3434 972 4092 
Q 1497 4750 2381 4750 
Q 2619 4750 2861 4703 
Q 3103 4656 3366 4563 
z
" transform="scale(0.015625)"/>
       </defs>
       <use xlink:href="#DejaVuSans-36"/>
       <use xlink:href="#DejaVuSans-30" transform="translate(63.623047 0)"/>
      </g>
     </g>
    </g>
    <g id="xtick_3">
     <g id="line2d_3">
      <g>
       <use xlink:href="#md1007bf401" x="331.576994" y="389.32" style="stroke: #000000; stroke-width: 0.8"/>
      </g>
     </g>
     <g id="text_3">
      <!-- 80 -->
      <g transform="translate(325.214494 403.918437) scale(0.1 -0.1)">
       <defs>
        <path id="DejaVuSans-38" d="M 2034 2216 
Q 1584 2216 1326 1975 
Q 1069 1734 1069 1313 
Q 1069 891 1326 650 
Q 1584 409 2034 409 
Q 2484 409 2743 651 
Q 3003 894 3003 1313 
Q 3003 1734 2745 1975 
Q 2488 2216 2034 2216 
z
M 1403 2484 
Q 997 2584 770 2862 
Q 544 3141 544 3541 
Q 544 4100 942 4425 
Q 1341 4750 2034 4750 
Q 2731 4750 3128 4425 
Q 3525 4100 3525 3541 
Q 3525 3141 3298 2862 
Q 3072 2584 2669 2484 
Q 3125 2378 3379 2068 
Q 3634 1759 3634 1313 
Q 3634 634 3220 271 
Q 2806 -91 2034 -91 
Q 1263 -91 848 271 
Q 434 634 434 1313 
Q 434 1759 690 2068 
Q 947 2378 1403 2484 
z
M 1172 3481 
Q 1172 3119 1398 2916 
Q 1625 2713 2034 2713 
Q 2441 2713 2670 2916 
Q 2900 3119 2900 3481 
Q 2900 3844 2670 4047 
Q 2441 4250 2034 4250 
Q 1625 4250 1398 4047 
Q 1172 3844 1172 3481 
z
" transform="scale(0.015625)"/>
       </defs>
       <use xlink:href="#DejaVuSans-38"/>
       <use xlink:href="#DejaVuSans-30" transform="translate(63.623047 0)"/>
      </g>
     </g>
    </g>
    <g id="xtick_4">
     <g id="line2d_4">
      <g>
       <use xlink:href="#md1007bf401" x="452.242008" y="389.32" style="stroke: #000000; stroke-width: 0.8"/>
      </g>
     </g>
     <g id="text_4">
      <!-- 100 -->
      <g transform="translate(442.698258 403.918437) scale(0.1 -0.1)">
       <defs>
        <path id="DejaVuSans-31" d="M 794 531 
L 1825 531 
L 1825 4091 
L 703 3866 
L 703 4441 
L 1819 4666 
L 2450 4666 
L 2450 531 
L 3481 531 
L 3481 0 
L 794 0 
L 794 531 
z
" transform="scale(0.015625)"/>
       </defs>
       <use xlink:href="#DejaVuSans-31"/>
       <use xlink:href="#DejaVuSans-30" transform="translate(63.623047 0)"/>
       <use xlink:href="#DejaVuSans-30" transform="translate(127.246094 0)"/>
      </g>
     </g>
    </g>
    <g id="xtick_5">
     <g id="line2d_5">
      <g>
       <use xlink:href="#md1007bf401" x="572.907022" y="389.32" style="stroke: #000000; stroke-width: 0.8"/>
      </g>
     </g>
     <g id="text_5">
      <!-- 120 -->
      <g transform="translate(563.363272 403.918437) scale(0.1 -0.1)">
       <defs>
        <path id="DejaVuSans-32" d="M 1228 531 
L 3431 531 
L 3431 0 
L 469 0 
L 469 531 
Q 828 903 1448 1529 
Q 2069 2156 2228 2338 
Q 2531 2678 2651 2914 
Q 2772 3150 2772 3378 
Q 2772 3750 2511 3984 
Q 2250 4219 1831 4219 
Q 1534 4219 1204 4116 
Q 875 4013 500 3803 
L 500 4441 
Q 881 4594 1212 4672 
Q 1544 4750 1819 4750 
Q 2544 4750 2975 4387 
Q 3406 4025 3406 3419 
Q 3406 3131 3298 2873 
Q 3191 2616 2906 2266 
Q 2828 2175 2409 1742 
Q 1991 1309 1228 531 
z
" transform="scale(0.015625)"/>
       </defs>
       <use xlink:href="#DejaVuSans-31"/>
       <use xlink:href="#DejaVuSans-32" transform="translate(63.623047 0)"/>
       <use xlink:href="#DejaVuSans-30" transform="translate(127.246094 0)"/>
      </g>
     </g>
    </g>
    <g id="xtick_6">
     <g id="line2d_6">
      <g>
       <use xlink:href="#md1007bf401" x="693.572035" y="389.32" style="stroke: #000000; stroke-width: 0.8"/>
      </g>
     </g>
     <g id="text_6">
      <!-- 140 -->
      <g transform="translate(684.028285 403.918437) scale(0.1 -0.1)">
       <use xlink:href="#DejaVuSans-31"/>
       <use xlink:href="#DejaVuSans-34" transform="translate(63.623047 0)"/>
       <use xlink:href="#DejaVuSans-30" transform="translate(127.246094 0)"/>
      </g>
     </g>
    </g>
    <g id="xtick_7">
     <g id="line2d_7">
      <g>
       <use xlink:href="#md1007bf401" x="814.237049" y="389.32" style="stroke: #000000; stroke-width: 0.8"/>
      </g>
     </g>
     <g id="text_7">
      <!-- 160 -->
      <g transform="translate(804.693299 403.918437) scale(0.1 -0.1)">
       <use xlink:href="#DejaVuSans-31"/>
       <use xlink:href="#DejaVuSans-36" transform="translate(63.623047 0)"/>
       <use xlink:href="#DejaVuSans-30" transform="translate(127.246094 0)"/>
      </g>
     </g>
    </g>
    <g id="text_8">
     <!-- m/z -->
     <g transform="translate(441.470312 419.11625) scale(0.12 -0.12)">
      <defs>
       <path id="DejaVuSans-6d" d="M 3328 2828 
Q 3544 3216 3844 3400 
Q 4144 3584 4550 3584 
Q 5097 3584 5394 3201 
Q 5691 2819 5691 2113 
L 5691 0 
L 5113 0 
L 5113 2094 
Q 5113 2597 4934 2840 
Q 4756 3084 4391 3084 
Q 3944 3084 3684 2787 
Q 3425 2491 3425 1978 
L 3425 0 
L 2847 0 
L 2847 2094 
Q 2847 2600 2669 2842 
Q 2491 3084 2119 3084 
Q 1678 3084 1418 2786 
Q 1159 2488 1159 1978 
L 1159 0 
L 581 0 
L 581 3500 
L 1159 3500 
L 1159 2956 
Q 1356 3278 1631 3431 
Q 1906 3584 2284 3584 
Q 2666 3584 2933 3390 
Q 3200 3197 3328 2828 
z
" transform="scale(0.015625)"/>
       <path id="DejaVuSans-2f" d="M 1625 4666 
L 2156 4666 
L 531 -594 
L 0 -594 
L 1625 4666 
z
" transform="scale(0.015625)"/>
       <path id="DejaVuSans-7a" d="M 353 3500 
L 3084 3500 
L 3084 2975 
L 922 459 
L 3084 459 
L 3084 0 
L 275 0 
L 275 525 
L 2438 3041 
L 353 3041 
L 353 3500 
z
" transform="scale(0.015625)"/>
      </defs>
      <use xlink:href="#DejaVuSans-6d"/>
      <use xlink:href="#DejaVuSans-2f" transform="translate(97.412109 0)"/>
      <use xlink:href="#DejaVuSans-7a" transform="translate(131.103516 0)"/>
     </g>
    </g>
   </g>
   <g id="matplotlib.axis_2">
    <g id="ytick_1">
     <g id="line2d_8">
      <defs>
       <path id="m35c9a83f3a" d="M 0 0 
L -3.5 0 
" style="stroke: #000000; stroke-width: 0.8"/>
      </defs>
      <g>
       <use xlink:href="#m35c9a83f3a" x="51.77" y="389.32" style="stroke: #000000; stroke-width: 0.8"/>
      </g>
     </g>
     <g id="text_9">
      <!-- 0 -->
      <g transform="translate(38.4075 393.119219) scale(0.1 -0.1)">
       <use xlink:href="#DejaVuSans-30"/>
      </g>
     </g>
    </g>
    <g id="ytick_2">
     <g id="line2d_9">
      <g>
       <use xlink:href="#m35c9a83f3a" x="51.77" y="321.52381" style="stroke: #000000; stroke-width: 0.8"/>
      </g>
     </g>
     <g id="text_10">
      <!-- 20 -->
      <g transform="translate(32.045 325.323028) scale(0.1 -0.1)">
       <use xlink:href="#DejaVuSans-32"/>
       <use xlink:href="#DejaVuSans-30" transform="translate(63.623047 0)"/>
      </g>
     </g>
    </g>
    <g id="ytick_3">
     <g id="line2d_10">
      <g>
       <use xlink:href="#m35c9a83f3a" x="51.77" y="253.727619" style="stroke: #000000; stroke-width: 0.8"/>
      </g>
     </g>
     <g id="text_11">
      <!-- 40 -->
      <g transform="translate(32.045 257.526838) scale(0.1 -0.1)">
       <use xlink:href="#DejaVuSans-34"/>
       <use xlink:href="#DejaVuSans-30" transform="translate(63.623047 0)"/>
      </g>
     </g>
    </g>
    <g id="ytick_4">
     <g id="line2d_11">
      <g>
       <use xlink:href="#m35c9a83f3a" x="51.77" y="185.931429" style="stroke: #000000; stroke-width: 0.8"/>
      </g>
     </g>
     <g id="text_12">
      <!-- 60 -->
      <g transform="translate(32.045 189.730647) scale(0.1 -0.1)">
       <use xlink:href="#DejaVuSans-36"/>
       <use xlink:href="#DejaVuSans-30" transform="translate(63.623047 0)"/>
      </g>
     </g>
    </g>
    <g id="ytick_5">
     <g id="line2d_12">
      <g>
       <use xlink:href="#m35c9a83f3a" x="51.77" y="118.135238" style="stroke: #000000; stroke-width: 0.8"/>
      </g>
     </g>
     <g id="text_13">
      <!-- 80 -->
      <g transform="translate(32.045 121.934457) scale(0.1 -0.1)">
       <use xlink:href="#DejaVuSans-38"/>
       <use xlink:href="#DejaVuSans-30" transform="translate(63.623047 0)"/>
      </g>
     </g>
    </g>
    <g id="ytick_6">
     <g id="line2d_13">
      <g>
       <use xlink:href="#m35c9a83f3a" x="51.77" y="50.339048" style="stroke: #000000; stroke-width: 0.8"/>
      </g>
     </g>
     <g id="text_14">
      <!-- 100 -->
      <g transform="translate(25.6825 54.138266) scale(0.1 -0.1)">
       <use xlink:href="#DejaVuSans-31"/>
       <use xlink:href="#DejaVuSans-30" transform="translate(63.623047 0)"/>
       <use xlink:href="#DejaVuSans-30" transform="translate(127.246094 0)"/>
      </g>
     </g>
    </g>
    <g id="text_15">
     <!-- Relative Intensity (%) -->
     <g transform="translate(19.186875 275.863438) rotate(-90) scale(0.12 -0.12)">
      <defs>
       <path id="DejaVuSans-52" d="M 2841 2188 
Q 3044 2119 3236 1894 
Q 3428 1669 3622 1275 
L 4263 0 
L 3584 0 
L 2988 1197 
Q 2756 1666 2539 1819 
Q 2322 1972 1947 1972 
L 1259 1972 
L 1259 0 
L 628 0 
L 628 4666 
L 2053 4666 
Q 2853 4666 3247 4331 
Q 3641 3997 3641 3322 
Q 3641 2881 3436 2590 
Q 3231 2300 2841 2188 
z
M 1259 4147 
L 1259 2491 
L 2053 2491 
Q 2509 2491 2742 2702 
Q 2975 2913 2975 3322 
Q 2975 3731 2742 3939 
Q 2509 4147 2053 4147 
L 1259 4147 
z
" transform="scale(0.015625)"/>
       <path id="DejaVuSans-65" d="M 3597 1894 
L 3597 1613 
L 953 1613 
Q 991 1019 1311 708 
Q 1631 397 2203 397 
Q 2534 397 2845 478 
Q 3156 559 3463 722 
L 3463 178 
Q 3153 47 2828 -22 
Q 2503 -91 2169 -91 
Q 1331 -91 842 396 
Q 353 884 353 1716 
Q 353 2575 817 3079 
Q 1281 3584 2069 3584 
Q 2775 3584 3186 3129 
Q 3597 2675 3597 1894 
z
M 3022 2063 
Q 3016 2534 2758 2815 
Q 2500 3097 2075 3097 
Q 1594 3097 1305 2825 
Q 1016 2553 972 2059 
L 3022 2063 
z
" transform="scale(0.015625)"/>
       <path id="DejaVuSans-6c" d="M 603 4863 
L 1178 4863 
L 1178 0 
L 603 0 
L 603 4863 
z
" transform="scale(0.015625)"/>
       <path id="DejaVuSans-61" d="M 2194 1759 
Q 1497 1759 1228 1600 
Q 959 1441 959 1056 
Q 959 750 1161 570 
Q 1363 391 1709 391 
Q 2188 391 2477 730 
Q 2766 1069 2766 1631 
L 2766 1759 
L 2194 1759 
z
M 3341 1997 
L 3341 0 
L 2766 0 
L 2766 531 
Q 2569 213 2275 61 
Q 1981 -91 1556 -91 
Q 1019 -91 701 211 
Q 384 513 384 1019 
Q 384 1609 779 1909 
Q 1175 2209 1959 2209 
L 2766 2209 
L 2766 2266 
Q 2766 2663 2505 2880 
Q 2244 3097 1772 3097 
Q 1472 3097 1187 3025 
Q 903 2953 641 2809 
L 641 3341 
Q 956 3463 1253 3523 
Q 1550 3584 1831 3584 
Q 2591 3584 2966 3190 
Q 3341 2797 3341 1997 
z
" transform="scale(0.015625)"/>
       <path id="DejaVuSans-74" d="M 1172 4494 
L 1172 3500 
L 2356 3500 
L 2356 3053 
L 1172 3053 
L 1172 1153 
Q 1172 725 1289 603 
Q 1406 481 1766 481 
L 2356 481 
L 2356 0 
L 1766 0 
Q 1100 0 847 248 
Q 594 497 594 1153 
L 594 3053 
L 172 3053 
L 172 3500 
L 594 3500 
L 594 4494 
L 1172 4494 
z
" transform="scale(0.015625)"/>
       <path id="DejaVuSans-69" d="M 603 3500 
L 1178 3500 
L 1178 0 
L 603 0 
L 603 3500 
z
M 603 4863 
L 1178 4863 
L 1178 4134 
L 603 4134 
L 603 4863 
z
" transform="scale(0.015625)"/>
       <path id="DejaVuSans-76" d="M 191 3500 
L 800 3500 
L 1894 563 
L 2988 3500 
L 3597 3500 
L 2284 0 
L 1503 0 
L 191 3500 
z
" transform="scale(0.015625)"/>
       <path id="DejaVuSans-20" transform="scale(0.015625)"/>
       <path id="DejaVuSans-49" d="M 628 4666 
L 1259 4666 
L 1259 0 
L 628 0 
L 628 4666 
z
" transform="scale(0.015625)"/>
       <path id="DejaVuSans-6e" d="M 3513 2113 
L 3513 0 
L 2938 0 
L 2938 2094 
Q 2938 2591 2744 2837 
Q 2550 3084 2163 3084 
Q 1697 3084 1428 2787 
Q 1159 2491 1159 1978 
L 1159 0 
L 581 0 
L 581 3500 
L 1159 3500 
L 1159 2956 
Q 1366 3272 1645 3428 
Q 1925 3584 2291 3584 
Q 2894 3584 3203 3211 
Q 3513 2838 3513 2113 
z
" transform="scale(0.015625)"/>
       <path id="DejaVuSans-73" d="M 2834 3397 
L 2834 2853 
Q 2591 2978 2328 3040 
Q 2066 3103 1784 3103 
Q 1356 3103 1142 2972 
Q 928 2841 928 2578 
Q 928 2378 1081 2264 
Q 1234 2150 1697 2047 
L 1894 2003 
Q 2506 1872 2764 1633 
Q 3022 1394 3022 966 
Q 3022 478 2636 193 
Q 2250 -91 1575 -91 
Q 1294 -91 989 -36 
Q 684 19 347 128 
L 347 722 
Q 666 556 975 473 
Q 1284 391 1588 391 
Q 1994 391 2212 530 
Q 2431 669 2431 922 
Q 2431 1156 2273 1281 
Q 2116 1406 1581 1522 
L 1381 1569 
Q 847 1681 609 1914 
Q 372 2147 372 2553 
Q 372 3047 722 3315 
Q 1072 3584 1716 3584 
Q 2034 3584 2315 3537 
Q 2597 3491 2834 3397 
z
" transform="scale(0.015625)"/>
       <path id="DejaVuSans-79" d="M 2059 -325 
Q 1816 -950 1584 -1140 
Q 1353 -1331 966 -1331 
L 506 -1331 
L 506 -850 
L 844 -850 
Q 1081 -850 1212 -737 
Q 1344 -625 1503 -206 
L 1606 56 
L 191 3500 
L 800 3500 
L 1894 763 
L 2988 3500 
L 3597 3500 
L 2059 -325 
z
" transform="scale(0.015625)"/>
       <path id="DejaVuSans-28" d="M 1984 4856 
Q 1566 4138 1362 3434 
Q 1159 2731 1159 2009 
Q 1159 1288 1364 580 
Q 1569 -128 1984 -844 
L 1484 -844 
Q 1016 -109 783 600 
Q 550 1309 550 2009 
Q 550 2706 781 3412 
Q 1013 4119 1484 4856 
L 1984 4856 
z
" transform="scale(0.015625)"/>
       <path id="DejaVuSans-25" d="M 4653 2053 
Q 4381 2053 4226 1822 
Q 4072 1591 4072 1178 
Q 4072 772 4226 539 
Q 4381 306 4653 306 
Q 4919 306 5073 539 
Q 5228 772 5228 1178 
Q 5228 1588 5073 1820 
Q 4919 2053 4653 2053 
z
M 4653 2450 
Q 5147 2450 5437 2106 
Q 5728 1763 5728 1178 
Q 5728 594 5436 251 
Q 5144 -91 4653 -91 
Q 4153 -91 3862 251 
Q 3572 594 3572 1178 
Q 3572 1766 3864 2108 
Q 4156 2450 4653 2450 
z
M 1428 4353 
Q 1159 4353 1004 4120 
Q 850 3888 850 3481 
Q 850 3069 1003 2837 
Q 1156 2606 1428 2606 
Q 1700 2606 1854 2837 
Q 2009 3069 2009 3481 
Q 2009 3884 1853 4118 
Q 1697 4353 1428 4353 
z
M 4250 4750 
L 4750 4750 
L 1831 -91 
L 1331 -91 
L 4250 4750 
z
M 1428 4750 
Q 1922 4750 2215 4408 
Q 2509 4066 2509 3481 
Q 2509 2891 2217 2550 
Q 1925 2209 1428 2209 
Q 931 2209 642 2551 
Q 353 2894 353 3481 
Q 353 4063 643 4406 
Q 934 4750 1428 4750 
z
" transform="scale(0.015625)"/>
       <path id="DejaVuSans-29" d="M 513 4856 
L 1013 4856 
Q 1481 4119 1714 3412 
Q 1947 2706 1947 2009 
Q 1947 1309 1714 600 
Q 1481 -109 1013 -844 
L 513 -844 
Q 928 -128 1133 580 
Q 1338 1288 1338 2009 
Q 1338 2731 1133 3434 
Q 928 4138 513 4856 
z
" transform="scale(0.015625)"/>
      </defs>
      <use xlink:href="#DejaVuSans-52"/>
      <use xlink:href="#DejaVuSans-65" transform="translate(64.982422 0)"/>
      <use xlink:href="#DejaVuSans-6c" transform="translate(126.505859 0)"/>
      <use xlink:href="#DejaVuSans-61" transform="translate(154.289062 0)"/>
      <use xlink:href="#DejaVuSans-74" transform="translate(215.568359 0)"/>
      <use xlink:href="#DejaVuSans-69" transform="translate(254.777344 0)"/>
      <use xlink:href="#DejaVuSans-76" transform="translate(282.560547 0)"/>
      <use xlink:href="#DejaVuSans-65" transform="translate(341.740234 0)"/>
      <use xlink:href="#DejaVuSans-20" transform="translate(403.263672 0)"/>
      <use xlink:href="#DejaVuSans-49" transform="translate(435.050781 0)"/>
      <use xlink:href="#DejaVuSans-6e" transform="translate(464.542969 0)"/>
      <use xlink:href="#DejaVuSans-74" transform="translate(527.921875 0)"/>
      <use xlink:href="#DejaVuSans-65" transform="translate(567.130859 0)"/>
      <use xlink:href="#DejaVuSans-6e" transform="translate(628.654297 0)"/>
      <use xlink:href="#DejaVuSans-73" transform="translate(692.033203 0)"/>
      <use xlink:href="#DejaVuSans-69" transform="translate(744.132812 0)"/>
      <use xlink:href="#DejaVuSans-74" transform="translate(771.916016 0)"/>
      <use xlink:href="#DejaVuSans-79" transform="translate(811.125 0)"/>
      <use xlink:href="#DejaVuSans-20" transform="translate(870.304688 0)"/>
      <use xlink:href="#DejaVuSans-28" transform="translate(902.091797 0)"/>
      <use xlink:href="#DejaVuSans-25" transform="translate(941.105469 0)"/>
      <use xlink:href="#DejaVuSans-29" transform="translate(1036.125 0)"/>
     </g>
    </g>
   </g>
   <g id="LineCollection_1">
    <path d="M 88.198636 389.32 
L 88.198636 389.160781 
" clip-path="url(#p3b246f6c5d)" style="fill: none; stroke: #1f77b4"/>
   </g>
   <g id="LineCollection_2">
    <path d="M 91.415088 389.32 
L 91.415088 387.495485 
" clip-path="url(#p3b246f6c5d)" style="fill: none; stroke: #1f77b4"/>
   </g>
   <g id="LineCollection_3">
    <path d="M 96.273474 389.32 
L 96.273474 383.661521 
" clip-path="url(#p3b246f6c5d)" style="fill: none; stroke: #1f77b4"/>
   </g>
   <g id="LineCollection_4">
    <path d="M 101.793145 389.32 
L 101.793145 387.737485 
" clip-path="url(#p3b246f6c5d)" style="fill: none; stroke: #1f77b4"/>
   </g>
   <g id="LineCollection_5">
    <path d="M 108.318714 389.32 
L 108.318714 385.73106 
" clip-path="url(#p3b246f6c5d)" style="fill: none; stroke: #1f77b4"/>
   </g>
   <g id="LineCollection_6">
    <path d="M 113.653612 389.32 
L 113.653612 387.603344 
" clip-path="url(#p3b246f6c5d)" style="fill: none; stroke: #1f77b4"/>
   </g>
   <g id="LineCollection_7">
    <path d="M 116.71187 389.32 
L 116.71187 387.623183 
" clip-path="url(#p3b246f6c5d)" style="fill: none; stroke: #1f77b4"/>
   </g>
   <g id="LineCollection_8">
    <path d="M 120.483706 389.32 
L 120.483706 374.024899 
" clip-path="url(#p3b246f6c5d)" style="fill: none; stroke: #1f77b4"/>
   </g>
   <g id="LineCollection_9">
    <path d="M 128.814253 389.32 
L 128.814253 387.642148 
" clip-path="url(#p3b246f6c5d)" style="fill: none; stroke: #1f77b4"/>
   </g>
   <g id="LineCollection_10">
    <path d="M 134.389783 389.32 
L 134.389783 387.610463 
" clip-path="url(#p3b246f6c5d)" style="fill: none; stroke: #1f77b4"/>
   </g>
   <g id="LineCollection_11">
    <path d="M 143.31333 389.32 
L 143.31333 387.696349 
" clip-path="url(#p3b246f6c5d)" style="fill: none; stroke: #1f77b4"/>
   </g>
   <g id="LineCollection_12">
    <path d="M 146.94268 389.32 
L 146.94268 387.692755 
" clip-path="url(#p3b246f6c5d)" style="fill: none; stroke: #1f77b4"/>
   </g>
   <g id="LineCollection_13">
    <path d="M 150.633871 389.32 
L 150.633871 387.53187 
" clip-path="url(#p3b246f6c5d)" style="fill: none; stroke: #1f77b4"/>
   </g>
   <g id="LineCollection_14">
    <path d="M 161.612989 389.32 
L 161.612989 387.695049 
" clip-path="url(#p3b246f6c5d)" style="fill: none; stroke: #1f77b4"/>
   </g>
   <g id="LineCollection_15">
    <path d="M 165.00133 389.32 
L 165.00133 387.733624 
" clip-path="url(#p3b246f6c5d)" style="fill: none; stroke: #1f77b4"/>
   </g>
   <g id="LineCollection_16">
    <path d="M 171.458197 389.32 
L 171.458197 387.607795 
" clip-path="url(#p3b246f6c5d)" style="fill: none; stroke: #1f77b4"/>
   </g>
   <g id="LineCollection_17">
    <path d="M 177.479502 389.32 
L 177.479502 387.462743 
" clip-path="url(#p3b246f6c5d)" style="fill: none; stroke: #1f77b4"/>
   </g>
   <g id="LineCollection_18">
    <path d="M 180.813228 389.32 
L 180.813228 386.627925 
" clip-path="url(#p3b246f6c5d)" style="fill: none; stroke: #1f77b4"/>
   </g>
   <g id="LineCollection_19">
    <path d="M 185.167073 389.32 
L 185.167073 387.328268 
" clip-path="url(#p3b246f6c5d)" style="fill: none; stroke: #1f77b4"/>
   </g>
   <g id="LineCollection_20">
    <path d="M 189.476582 389.32 
L 189.476582 387.684441 
" clip-path="url(#p3b246f6c5d)" style="fill: none; stroke: #1f77b4"/>
   </g>
   <g id="LineCollection_21">
    <path d="M 192.955561 389.32 
L 192.955561 369.632805 
" clip-path="url(#p3b246f6c5d)" style="fill: none; stroke: #1f77b4"/>
   </g>
   <g id="LineCollection_22">
    <path d="M 201.025553 389.32 
L 201.025553 387.554139 
" clip-path="url(#p3b246f6c5d)" style="fill: none; stroke: #1f77b4"/>
   </g>
   <g id="LineCollection_23">
    <path d="M 205.014819 389.32 
L 205.014819 212.607096 
" clip-path="url(#p3b246f6c5d)" style="fill: none; stroke: #1f77b4"/>
   </g>
   <g id="LineCollection_24">
    <path d="M 211.172103 389.32 
L 211.172103 382.632274 
" clip-path="url(#p3b246f6c5d)" style="fill: none; stroke: #1f77b4"/>
   </g>
   <g id="LineCollection_25">
    <path d="M 225.278471 389.32 
L 225.278471 387.474675 
" clip-path="url(#p3b246f6c5d)" style="fill: none; stroke: #1f77b4"/>
   </g>
   <g id="LineCollection_26">
    <path d="M 228.728321 389.32 
L 228.728321 387.362984 
" clip-path="url(#p3b246f6c5d)" style="fill: none; stroke: #1f77b4"/>
   </g>
   <g id="LineCollection_27">
    <path d="M 242.07579 389.32 
L 242.07579 387.460662 
" clip-path="url(#p3b246f6c5d)" style="fill: none; stroke: #1f77b4"/>
   </g>
   <g id="LineCollection_28">
    <path d="M 246.536483 389.32 
L 246.536483 387.606977 
" clip-path="url(#p3b246f6c5d)" style="fill: none; stroke: #1f77b4"/>
   </g>
   <g id="LineCollection_29">
    <path d="M 251.764485 389.32 
L 251.764485 387.809166 
" clip-path="url(#p3b246f6c5d)" style="fill: none; stroke: #1f77b4"/>
   </g>
   <g id="LineCollection_30">
    <path d="M 255.511361 389.32 
L 255.511361 387.818947 
" clip-path="url(#p3b246f6c5d)" style="fill: none; stroke: #1f77b4"/>
   </g>
   <g id="LineCollection_31">
    <path d="M 260.876019 389.32 
L 260.876019 387.572683 
" clip-path="url(#p3b246f6c5d)" style="fill: none; stroke: #1f77b4"/>
   </g>
   <g id="LineCollection_32">
    <path d="M 264.600718 389.32 
L 264.600718 387.600679 
" clip-path="url(#p3b246f6c5d)" style="fill: none; stroke: #1f77b4"/>
   </g>
   <g id="LineCollection_33">
    <path d="M 270.359106 389.32 
L 270.359106 387.474992 
" clip-path="url(#p3b246f6c5d)" style="fill: none; stroke: #1f77b4"/>
   </g>
   <g id="LineCollection_34">
    <path d="M 273.928992 389.32 
L 273.928992 387.70539 
" clip-path="url(#p3b246f6c5d)" style="fill: none; stroke: #1f77b4"/>
   </g>
   <g id="LineCollection_35">
    <path d="M 277.293692 389.32 
L 277.293692 386.939944 
" clip-path="url(#p3b246f6c5d)" style="fill: none; stroke: #1f77b4"/>
   </g>
   <g id="LineCollection_36">
    <path d="M 282.651595 389.32 
L 282.651595 387.322351 
" clip-path="url(#p3b246f6c5d)" style="fill: none; stroke: #1f77b4"/>
   </g>
   <g id="LineCollection_37">
    <path d="M 289.738222 389.32 
L 289.738222 383.126965 
" clip-path="url(#p3b246f6c5d)" style="fill: none; stroke: #1f77b4"/>
   </g>
   <g id="LineCollection_38">
    <path d="M 294.748219 389.32 
L 294.748219 387.292437 
" clip-path="url(#p3b246f6c5d)" style="fill: none; stroke: #1f77b4"/>
   </g>
   <g id="LineCollection_39">
    <path d="M 301.493172 389.32 
L 301.493172 353.798006 
" clip-path="url(#p3b246f6c5d)" style="fill: none; stroke: #1f77b4"/>
   </g>
   <g id="LineCollection_40">
    <path d="M 306.88278 389.32 
L 306.88278 387.561943 
" clip-path="url(#p3b246f6c5d)" style="fill: none; stroke: #1f77b4"/>
   </g>
   <g id="LineCollection_41">
    <path d="M 310.22996 389.32 
L 310.22996 387.689216 
" clip-path="url(#p3b246f6c5d)" style="fill: none; stroke: #1f77b4"/>
   </g>
   <g id="LineCollection_42">
    <path d="M 313.756456 389.32 
L 313.756456 186.503712 
" clip-path="url(#p3b246f6c5d)" style="fill: none; stroke: #1f77b4"/>
   </g>
   <g id="LineCollection_43">
    <path d="M 319.890192 389.32 
L 319.890192 380.043844 
" clip-path="url(#p3b246f6c5d)" style="fill: none; stroke: #1f77b4"/>
   </g>
   <g id="LineCollection_44">
    <path d="M 327.460986 389.32 
L 327.460986 387.493881 
" clip-path="url(#p3b246f6c5d)" style="fill: none; stroke: #1f77b4"/>
   </g>
   <g id="LineCollection_45">
    <path d="M 339.375007 389.32 
L 339.375007 387.595305 
" clip-path="url(#p3b246f6c5d)" style="fill: none; stroke: #1f77b4"/>
   </g>
   <g id="LineCollection_46">
    <path d="M 344.461332 389.32 
L 344.461332 387.551533 
" clip-path="url(#p3b246f6c5d)" style="fill: none; stroke: #1f77b4"/>
   </g>
   <g id="LineCollection_47">
    <path d="M 347.951147 389.32 
L 347.951147 387.573331 
" clip-path="url(#p3b246f6c5d)" style="fill: none; stroke: #1f77b4"/>
   </g>
   <g id="LineCollection_48">
    <path d="M 353.685388 389.32 
L 353.685388 388.007314 
" clip-path="url(#p3b246f6c5d)" style="fill: none; stroke: #1f77b4"/>
   </g>
   <g id="LineCollection_49">
    <path d="M 362.751314 389.32 
L 362.751314 387.468908 
" clip-path="url(#p3b246f6c5d)" style="fill: none; stroke: #1f77b4"/>
   </g>
   <g id="LineCollection_50">
    <path d="M 367.207289 389.32 
L 367.207289 387.9012 
" clip-path="url(#p3b246f6c5d)" style="fill: none; stroke: #1f77b4"/>
   </g>
   <g id="LineCollection_51">
    <path d="M 371.364126 389.32 
L 371.364126 387.433755 
" clip-path="url(#p3b246f6c5d)" style="fill: none; stroke: #1f77b4"/>
   </g>
   <g id="LineCollection_52">
    <path d="M 376.728314 389.32 
L 376.728314 387.289675 
" clip-path="url(#p3b246f6c5d)" style="fill: none; stroke: #1f77b4"/>
   </g>
   <g id="LineCollection_53">
    <path d="M 381.949561 389.32 
L 381.949561 387.459848 
" clip-path="url(#p3b246f6c5d)" style="fill: none; stroke: #1f77b4"/>
   </g>
   <g id="LineCollection_54">
    <path d="M 386.207819 389.32 
L 386.207819 239.16424 
" clip-path="url(#p3b246f6c5d)" style="fill: none; stroke: #1f77b4"/>
   </g>
   <g id="LineCollection_55">
    <path d="M 392.098043 389.32 
L 392.098043 383.08994 
" clip-path="url(#p3b246f6c5d)" style="fill: none; stroke: #1f77b4"/>
   </g>
   <g id="LineCollection_56">
    <path d="M 397.541842 389.32 
L 397.541842 387.516479 
" clip-path="url(#p3b246f6c5d)" style="fill: none; stroke: #1f77b4"/>
   </g>
   <g id="LineCollection_57">
    <path d="M 400.62964 389.32 
L 400.62964 387.898021 
" clip-path="url(#p3b246f6c5d)" style="fill: none; stroke: #1f77b4"/>
   </g>
   <g id="LineCollection_58">
    <path d="M 409.142986 389.32 
L 409.142986 387.944805 
" clip-path="url(#p3b246f6c5d)" style="fill: none; stroke: #1f77b4"/>
   </g>
   <g id="LineCollection_59">
    <path d="M 412.3303 389.32 
L 412.3303 387.986591 
" clip-path="url(#p3b246f6c5d)" style="fill: none; stroke: #1f77b4"/>
   </g>
   <g id="LineCollection_60">
    <path d="M 418.332223 389.32 
L 418.332223 387.58597 
" clip-path="url(#p3b246f6c5d)" style="fill: none; stroke: #1f77b4"/>
   </g>
   <g id="LineCollection_61">
    <path d="M 424.861261 389.32 
L 424.861261 387.229374 
" clip-path="url(#p3b246f6c5d)" style="fill: none; stroke: #1f77b4"/>
   </g>
   <g id="LineCollection_62">
    <path d="M 435.220208 389.32 
L 435.220208 387.430739 
" clip-path="url(#p3b246f6c5d)" style="fill: none; stroke: #1f77b4"/>
   </g>
   <g id="LineCollection_63">
    <path d="M 441.559177 389.32 
L 441.559177 387.45873 
" clip-path="url(#p3b246f6c5d)" style="fill: none; stroke: #1f77b4"/>
   </g>
   <g id="LineCollection_64">
    <path d="M 446.673597 389.32 
L 446.673597 380.904703 
" clip-path="url(#p3b246f6c5d)" style="fill: none; stroke: #1f77b4"/>
   </g>
   <g id="LineCollection_65">
    <path d="M 451.610034 389.32 
L 451.610034 387.475674 
" clip-path="url(#p3b246f6c5d)" style="fill: none; stroke: #1f77b4"/>
   </g>
   <g id="LineCollection_66">
    <path d="M 457.383289 389.32 
L 457.383289 387.732896 
" clip-path="url(#p3b246f6c5d)" style="fill: none; stroke: #1f77b4"/>
   </g>
   <g id="LineCollection_67">
    <path d="M 460.64791 389.32 
L 460.64791 387.685896 
" clip-path="url(#p3b246f6c5d)" style="fill: none; stroke: #1f77b4"/>
   </g>
   <g id="LineCollection_68">
    <path d="M 464.274985 389.32 
L 464.274985 387.105214 
" clip-path="url(#p3b246f6c5d)" style="fill: none; stroke: #1f77b4"/>
   </g>
   <g id="LineCollection_69">
    <path d="M 470.154623 389.32 
L 470.154623 387.621938 
" clip-path="url(#p3b246f6c5d)" style="fill: none; stroke: #1f77b4"/>
   </g>
   <g id="LineCollection_70">
    <path d="M 476.621411 389.32 
L 476.621411 387.678727 
" clip-path="url(#p3b246f6c5d)" style="fill: none; stroke: #1f77b4"/>
   </g>
   <g id="LineCollection_71">
    <path d="M 485.329734 389.32 
L 485.329734 387.602572 
" clip-path="url(#p3b246f6c5d)" style="fill: none; stroke: #1f77b4"/>
   </g>
   <g id="LineCollection_72">
    <path d="M 488.801993 389.32 
L 488.801993 387.562145 
" clip-path="url(#p3b246f6c5d)" style="fill: none; stroke: #1f77b4"/>
   </g>
   <g id="LineCollection_73">
    <path d="M 498.392925 389.32 
L 498.392925 387.598921 
" clip-path="url(#p3b246f6c5d)" style="fill: none; stroke: #1f77b4"/>
   </g>
   <g id="LineCollection_74">
    <path d="M 504.030501 389.32 
L 504.030501 387.86059 
" clip-path="url(#p3b246f6c5d)" style="fill: none; stroke: #1f77b4"/>
   </g>
   <g id="LineCollection_75">
    <path d="M 507.175093 389.32 
L 507.175093 387.514248 
" clip-path="url(#p3b246f6c5d)" style="fill: none; stroke: #1f77b4"/>
   </g>
   <g id="LineCollection_76">
    <path d="M 511.574313 389.32 
L 511.574313 387.439794 
" clip-path="url(#p3b246f6c5d)" style="fill: none; stroke: #1f77b4"/>
   </g>
   <g id="LineCollection_77">
    <path d="M 516.855431 389.32 
L 516.855431 387.310952 
" clip-path="url(#p3b246f6c5d)" style="fill: none; stroke: #1f77b4"/>
   </g>
   <g id="LineCollection_78">
    <path d="M 520.943093 389.32 
L 520.943093 387.710483 
" clip-path="url(#p3b246f6c5d)" style="fill: none; stroke: #1f77b4"/>
   </g>
   <g id="LineCollection_79">
    <path d="M 523.986734 389.32 
L 523.986734 387.5504 
" clip-path="url(#p3b246f6c5d)" style="fill: none; stroke: #1f77b4"/>
   </g>
   <g id="LineCollection_80">
    <path d="M 532.594071 389.32 
L 532.594071 387.462749 
" clip-path="url(#p3b246f6c5d)" style="fill: none; stroke: #1f77b4"/>
   </g>
   <g id="LineCollection_81">
    <path d="M 548.907436 389.32 
L 548.907436 387.831536 
" clip-path="url(#p3b246f6c5d)" style="fill: none; stroke: #1f77b4"/>
   </g>
   <g id="LineCollection_82">
    <path d="M 552.023181 389.32 
L 552.023181 387.352358 
" clip-path="url(#p3b246f6c5d)" style="fill: none; stroke: #1f77b4"/>
   </g>
   <g id="LineCollection_83">
    <path d="M 555.310384 389.32 
L 555.310384 129.621374 
" clip-path="url(#p3b246f6c5d)" style="fill: none; stroke: #1f77b4"/>
   </g>
   <g id="LineCollection_84">
    <path d="M 561.272636 389.32 
L 561.272636 364.044875 
" clip-path="url(#p3b246f6c5d)" style="fill: none; stroke: #1f77b4"/>
   </g>
   <g id="LineCollection_85">
    <path d="M 569.283138 389.32 
L 569.283138 387.410148 
" clip-path="url(#p3b246f6c5d)" style="fill: none; stroke: #1f77b4"/>
   </g>
   <g id="LineCollection_86">
    <path d="M 577.682995 389.32 
L 577.682995 387.778474 
" clip-path="url(#p3b246f6c5d)" style="fill: none; stroke: #1f77b4"/>
   </g>
   <g id="LineCollection_87">
    <path d="M 580.92656 389.32 
L 580.92656 387.72223 
" clip-path="url(#p3b246f6c5d)" style="fill: none; stroke: #1f77b4"/>
   </g>
   <g id="LineCollection_88">
    <path d="M 584.642176 389.32 
L 584.642176 387.353493 
" clip-path="url(#p3b246f6c5d)" style="fill: none; stroke: #1f77b4"/>
   </g>
   <g id="LineCollection_89">
    <path d="M 595.451443 389.32 
L 595.451443 387.645895 
" clip-path="url(#p3b246f6c5d)" style="fill: none; stroke: #1f77b4"/>
   </g>
   <g id="LineCollection_90">
    <path d="M 604.124274 389.32 
L 604.124274 387.348362 
" clip-path="url(#p3b246f6c5d)" style="fill: none; stroke: #1f77b4"/>
   </g>
   <g id="LineCollection_91">
    <path d="M 607.70451 389.32 
L 607.70451 387.735773 
" clip-path="url(#p3b246f6c5d)" style="fill: none; stroke: #1f77b4"/>
   </g>
   <g id="LineCollection_92">
    <path d="M 612.019646 389.32 
L 612.019646 387.766384 
" clip-path="url(#p3b246f6c5d)" style="fill: none; stroke: #1f77b4"/>
   </g>
   <g id="LineCollection_93">
    <path d="M 617.614024 389.32 
L 617.614024 387.456461 
" clip-path="url(#p3b246f6c5d)" style="fill: none; stroke: #1f77b4"/>
   </g>
   <g id="LineCollection_94">
    <path d="M 626.052057 389.32 
L 626.052057 387.351991 
" clip-path="url(#p3b246f6c5d)" style="fill: none; stroke: #1f77b4"/>
   </g>
   <g id="LineCollection_95">
    <path d="M 629.515966 389.32 
L 629.515966 387.589689 
" clip-path="url(#p3b246f6c5d)" style="fill: none; stroke: #1f77b4"/>
   </g>
   <g id="LineCollection_96">
    <path d="M 633.161696 389.32 
L 633.161696 387.880998 
" clip-path="url(#p3b246f6c5d)" style="fill: none; stroke: #1f77b4"/>
   </g>
   <g id="LineCollection_97">
    <path d="M 638.3541 389.32 
L 638.3541 387.263423 
" clip-path="url(#p3b246f6c5d)" style="fill: none; stroke: #1f77b4"/>
   </g>
   <g id="LineCollection_98">
    <path d="M 647.055666 389.32 
L 647.055666 387.573498 
" clip-path="url(#p3b246f6c5d)" style="fill: none; stroke: #1f77b4"/>
   </g>
   <g id="LineCollection_99">
    <path d="M 650.99659 389.32 
L 650.99659 387.621328 
" clip-path="url(#p3b246f6c5d)" style="fill: none; stroke: #1f77b4"/>
   </g>
   <g id="LineCollection_100">
    <path d="M 656.267817 389.32 
L 656.267817 387.721861 
" clip-path="url(#p3b246f6c5d)" style="fill: none; stroke: #1f77b4"/>
   </g>
   <g id="LineCollection_101">
    <path d="M 659.592389 389.32 
L 659.592389 387.476537 
" clip-path="url(#p3b246f6c5d)" style="fill: none; stroke: #1f77b4"/>
   </g>
   <g id="LineCollection_102">
    <path d="M 663.988076 389.32 
L 663.988076 50.339048 
" clip-path="url(#p3b246f6c5d)" style="fill: none; stroke: #1f77b4"/>
   </g>
   <g id="LineCollection_103">
    <path d="M 670.079974 389.32 
L 670.079974 355.791659 
" clip-path="url(#p3b246f6c5d)" style="fill: none; stroke: #1f77b4"/>
   </g>
   <g id="LineCollection_104">
    <path d="M 677.674482 389.32 
L 677.674482 387.679165 
" clip-path="url(#p3b246f6c5d)" style="fill: none; stroke: #1f77b4"/>
   </g>
   <g id="LineCollection_105">
    <path d="M 682.588907 389.32 
L 682.588907 387.611886 
" clip-path="url(#p3b246f6c5d)" style="fill: none; stroke: #1f77b4"/>
   </g>
   <g id="LineCollection_106">
    <path d="M 689.675035 389.32 
L 689.675035 387.382964 
" clip-path="url(#p3b246f6c5d)" style="fill: none; stroke: #1f77b4"/>
   </g>
   <g id="LineCollection_107">
    <path d="M 692.744401 389.32 
L 692.744401 387.817901 
" clip-path="url(#p3b246f6c5d)" style="fill: none; stroke: #1f77b4"/>
   </g>
   <g id="LineCollection_108">
    <path d="M 696.251422 389.32 
L 696.251422 387.717205 
" clip-path="url(#p3b246f6c5d)" style="fill: none; stroke: #1f77b4"/>
   </g>
   <g id="LineCollection_109">
    <path d="M 700.447841 389.32 
L 700.447841 387.324344 
" clip-path="url(#p3b246f6c5d)" style="fill: none; stroke: #1f77b4"/>
   </g>
   <g id="LineCollection_110">
    <path d="M 712.395818 389.32 
L 712.395818 387.326752 
" clip-path="url(#p3b246f6c5d)" style="fill: none; stroke: #1f77b4"/>
   </g>
   <g id="LineCollection_111">
    <path d="M 725.939537 389.32 
L 725.939537 387.432014 
" clip-path="url(#p3b246f6c5d)" style="fill: none; stroke: #1f77b4"/>
   </g>
   <g id="LineCollection_112">
    <path d="M 731.718113 389.32 
L 731.718113 387.832795 
" clip-path="url(#p3b246f6c5d)" style="fill: none; stroke: #1f77b4"/>
   </g>
   <g id="LineCollection_113">
    <path d="M 737.78864 389.32 
L 737.78864 387.557182 
" clip-path="url(#p3b246f6c5d)" style="fill: none; stroke: #1f77b4"/>
   </g>
   <g id="LineCollection_114">
    <path d="M 741.371779 389.32 
L 741.371779 387.399031 
" clip-path="url(#p3b246f6c5d)" style="fill: none; stroke: #1f77b4"/>
   </g>
   <g id="LineCollection_115">
    <path d="M 752.794523 389.32 
L 752.794523 387.465503 
" clip-path="url(#p3b246f6c5d)" style="fill: none; stroke: #1f77b4"/>
   </g>
   <g id="LineCollection_116">
    <path d="M 758.291134 389.32 
L 758.291134 387.963776 
" clip-path="url(#p3b246f6c5d)" style="fill: none; stroke: #1f77b4"/>
   </g>
   <g id="LineCollection_117">
    <path d="M 762.356607 389.32 
L 762.356607 387.625784 
" clip-path="url(#p3b246f6c5d)" style="fill: none; stroke: #1f77b4"/>
   </g>
   <g id="LineCollection_118">
    <path d="M 767.248208 389.32 
L 767.248208 387.698777 
" clip-path="url(#p3b246f6c5d)" style="fill: none; stroke: #1f77b4"/>
   </g>
   <g id="LineCollection_119">
    <path d="M 770.805794 389.32 
L 770.805794 387.260527 
" clip-path="url(#p3b246f6c5d)" style="fill: none; stroke: #1f77b4"/>
   </g>
   <g id="LineCollection_120">
    <path d="M 779.962566 389.32 
L 779.962566 387.512704 
" clip-path="url(#p3b246f6c5d)" style="fill: none; stroke: #1f77b4"/>
   </g>
   <g id="LineCollection_121">
    <path d="M 785.332438 389.32 
L 785.332438 387.646518 
" clip-path="url(#p3b246f6c5d)" style="fill: none; stroke: #1f77b4"/>
   </g>
   <g id="LineCollection_122">
    <path d="M 794.252242 389.32 
L 794.252242 387.768397 
" clip-path="url(#p3b246f6c5d)" style="fill: none; stroke: #1f77b4"/>
   </g>
   <g id="LineCollection_123">
    <path d="M 803.001149 389.32 
L 803.001149 387.646034 
" clip-path="url(#p3b246f6c5d)" style="fill: none; stroke: #1f77b4"/>
   </g>
   <g id="LineCollection_124">
    <path d="M 816.771364 389.32 
L 816.771364 389.32 
" clip-path="url(#p3b246f6c5d)" style="fill: none; stroke: #1f77b4"/>
   </g>
   <g id="patch_3">
    <path d="M 51.77 389.32 
L 51.77 33.39 
" style="fill: none; stroke: #000000; stroke-width: 0.8; stroke-linejoin: miter; stroke-linecap: square"/>
   </g>
   <g id="patch_4">
    <path d="M 853.2 389.32 
L 853.2 33.39 
" style="fill: none; stroke: #000000; stroke-width: 0.8; stroke-linejoin: miter; stroke-linecap: square"/>
   </g>
   <g id="patch_5">
    <path d="M 51.77 389.32 
L 853.2 389.32 
" style="fill: none; stroke: #000000; stroke-width: 0.8; stroke-linejoin: miter; stroke-linecap: square"/>
   </g>
   <g id="text_16">
    <!-- 59.0226 -->
    <g transform="translate(207.222319 212.607096) rotate(-90) scale(0.08 -0.08)">
     <defs>
      <path id="DejaVuSans-35" d="M 691 4666 
L 3169 4666 
L 3169 4134 
L 1269 4134 
L 1269 2991 
Q 1406 3038 1543 3061 
Q 1681 3084 1819 3084 
Q 2600 3084 3056 2656 
Q 3513 2228 3513 1497 
Q 3513 744 3044 326 
Q 2575 -91 1722 -91 
Q 1428 -91 1123 -41 
Q 819 9 494 109 
L 494 744 
Q 775 591 1075 516 
Q 1375 441 1709 441 
Q 2250 441 2565 725 
Q 2881 1009 2881 1497 
Q 2881 1984 2565 2268 
Q 2250 2553 1709 2553 
Q 1456 2553 1204 2497 
Q 953 2441 691 2322 
L 691 4666 
z
" transform="scale(0.015625)"/>
      <path id="DejaVuSans-39" d="M 703 97 
L 703 672 
Q 941 559 1184 500 
Q 1428 441 1663 441 
Q 2288 441 2617 861 
Q 2947 1281 2994 2138 
Q 2813 1869 2534 1725 
Q 2256 1581 1919 1581 
Q 1219 1581 811 2004 
Q 403 2428 403 3163 
Q 403 3881 828 4315 
Q 1253 4750 1959 4750 
Q 2769 4750 3195 4129 
Q 3622 3509 3622 2328 
Q 3622 1225 3098 567 
Q 2575 -91 1691 -91 
Q 1453 -91 1209 -44 
Q 966 3 703 97 
z
M 1959 2075 
Q 2384 2075 2632 2365 
Q 2881 2656 2881 3163 
Q 2881 3666 2632 3958 
Q 2384 4250 1959 4250 
Q 1534 4250 1286 3958 
Q 1038 3666 1038 3163 
Q 1038 2656 1286 2365 
Q 1534 2075 1959 2075 
z
" transform="scale(0.015625)"/>
      <path id="DejaVuSans-2e" d="M 684 794 
L 1344 794 
L 1344 0 
L 684 0 
L 684 794 
z
" transform="scale(0.015625)"/>
     </defs>
     <use xlink:href="#DejaVuSans-35"/>
     <use xlink:href="#DejaVuSans-39" transform="translate(63.623047 0)"/>
     <use xlink:href="#DejaVuSans-2e" transform="translate(127.246094 0)"/>
     <use xlink:href="#DejaVuSans-30" transform="translate(159.033203 0)"/>
     <use xlink:href="#DejaVuSans-32" transform="translate(222.65625 0)"/>
     <use xlink:href="#DejaVuSans-32" transform="translate(286.279297 0)"/>
     <use xlink:href="#DejaVuSans-36" transform="translate(349.902344 0)"/>
    </g>
   </g>
   <g id="text_17">
    <!-- 77.0463 -->
    <g transform="translate(315.963956 186.503712) rotate(-90) scale(0.08 -0.08)">
     <defs>
      <path id="DejaVuSans-37" d="M 525 4666 
L 3525 4666 
L 3525 4397 
L 1831 0 
L 1172 0 
L 2766 4134 
L 525 4134 
L 525 4666 
z
" transform="scale(0.015625)"/>
      <path id="DejaVuSans-33" d="M 2597 2516 
Q 3050 2419 3304 2112 
Q 3559 1806 3559 1356 
Q 3559 666 3084 287 
Q 2609 -91 1734 -91 
Q 1441 -91 1130 -33 
Q 819 25 488 141 
L 488 750 
Q 750 597 1062 519 
Q 1375 441 1716 441 
Q 2309 441 2620 675 
Q 2931 909 2931 1356 
Q 2931 1769 2642 2001 
Q 2353 2234 1838 2234 
L 1294 2234 
L 1294 2753 
L 1863 2753 
Q 2328 2753 2575 2939 
Q 2822 3125 2822 3475 
Q 2822 3834 2567 4026 
Q 2313 4219 1838 4219 
Q 1578 4219 1281 4162 
Q 984 4106 628 3988 
L 628 4550 
Q 988 4650 1302 4700 
Q 1616 4750 1894 4750 
Q 2613 4750 3031 4423 
Q 3450 4097 3450 3541 
Q 3450 3153 3228 2886 
Q 3006 2619 2597 2516 
z
" transform="scale(0.015625)"/>
     </defs>
     <use xlink:href="#DejaVuSans-37"/>
     <use xlink:href="#DejaVuSans-37" transform="translate(63.623047 0)"/>
     <use xlink:href="#DejaVuSans-2e" transform="translate(127.246094 0)"/>
     <use xlink:href="#DejaVuSans-30" transform="translate(159.033203 0)"/>
     <use xlink:href="#DejaVuSans-34" transform="translate(222.65625 0)"/>
     <use xlink:href="#DejaVuSans-36" transform="translate(286.279297 0)"/>
     <use xlink:href="#DejaVuSans-33" transform="translate(349.902344 0)"/>
    </g>
   </g>
   <g id="text_18">
    <!-- 89.0550 -->
    <g transform="translate(388.415319 239.16424) rotate(-90) scale(0.08 -0.08)">
     <use xlink:href="#DejaVuSans-38"/>
     <use xlink:href="#DejaVuSans-39" transform="translate(63.623047 0)"/>
     <use xlink:href="#DejaVuSans-2e" transform="translate(127.246094 0)"/>
     <use xlink:href="#DejaVuSans-30" transform="translate(159.033203 0)"/>
     <use xlink:href="#DejaVuSans-35" transform="translate(222.65625 0)"/>
     <use xlink:href="#DejaVuSans-35" transform="translate(286.279297 0)"/>
     <use xlink:href="#DejaVuSans-30" transform="translate(349.902344 0)"/>
    </g>
   </g>
   <g id="text_19">
    <!-- 117.0834 -->
    <g transform="translate(557.517884 129.621374) rotate(-90) scale(0.08 -0.08)">
     <use xlink:href="#DejaVuSans-31"/>
     <use xlink:href="#DejaVuSans-31" transform="translate(63.623047 0)"/>
     <use xlink:href="#DejaVuSans-37" transform="translate(127.246094 0)"/>
     <use xlink:href="#DejaVuSans-2e" transform="translate(190.869141 0)"/>
     <use xlink:href="#DejaVuSans-30" transform="translate(222.65625 0)"/>
     <use xlink:href="#DejaVuSans-38" transform="translate(286.279297 0)"/>
     <use xlink:href="#DejaVuSans-33" transform="translate(349.902344 0)"/>
     <use xlink:href="#DejaVuSans-34" transform="translate(413.525391 0)"/>
    </g>
   </g>
   <g id="text_20">
    <!-- 135.0965 -->
    <g transform="translate(666.195576 50.339048) rotate(-90) scale(0.08 -0.08)">
     <use xlink:href="#DejaVuSans-31"/>
     <use xlink:href="#DejaVuSans-33" transform="translate(63.623047 0)"/>
     <use xlink:href="#DejaVuSans-35" transform="translate(127.246094 0)"/>
     <use xlink:href="#DejaVuSans-2e" transform="translate(190.869141 0)"/>
     <use xlink:href="#DejaVuSans-30" transform="translate(222.65625 0)"/>
     <use xlink:href="#DejaVuSans-39" transform="translate(286.279297 0)"/>
     <use xlink:href="#DejaVuSans-36" transform="translate(349.902344 0)"/>
     <use xlink:href="#DejaVuSans-35" transform="translate(413.525391 0)"/>
    </g>
   </g>
  </g>
 </g>
 <defs>
  <clipPath id="p3b246f6c5d">
   <rect x="51.77" y="33.39" width="801.43" height="355.93"/>
  </clipPath>
 </defs>
</svg>
