<?xml version="1.0" encoding="utf-8" standalone="no"?>
<!DOCTYPE svg PUBLIC "-//W3C//DTD SVG 1.1//EN"
  "http://www.w3.org/Graphics/SVG/1.1/DTD/svg11.dtd">
<svg xmlns:xlink="http://www.w3.org/1999/xlink" width="720pt" height="432pt" viewBox="0 0 720 432" xmlns="http://www.w3.org/2000/svg" version="1.1">
 <metadata>
  <rdf:RDF xmlns:dc="http://purl.org/dc/elements/1.1/" xmlns:cc="http://creativecommons.org/ns#" xmlns:rdf="http://www.w3.org/1999/02/22-rdf-syntax-ns#">
   <cc:Work>
    <dc:type rdf:resource="http://purl.org/dc/dcmitype/StillImage"/>
    <dc:date>2025-08-29T23:51:50.102813</dc:date>
    <dc:format>image/svg+xml</dc:format>
    <dc:creator>
     <cc:Agent>
      <dc:title>Matplotlib v3.10.1, https://matplotlib.org/</dc:title>
     </cc:Agent>
    </dc:creator>
   </cc:Work>
  </rdf:RDF>
 </metadata>
 <defs>
  <style type="text/css">*{stroke-linejoin: round; stroke-linecap: butt}</style>
 </defs>
 <g id="figure_1">
  <g id="patch_1">
   <path d="M 0 432 
L 720 432 
L 720 0 
L 0 0 
z
" style="fill: #ffffff"/>
  </g>
  <g id="axes_1">
   <g id="patch_2">
    <path d="M 86.4 384.48 
L 468 384.48 
L 468 51.84 
L 86.4 51.84 
z
" style="fill: #ffffff"/>
   </g>
   <g id="matplotlib.axis_1">
    <g id="xtick_1">
     <g id="line2d_1">
      <path d="M 127.102103 384.48 
L 127.102103 51.84 
" clip-path="url(#pc6cb151a3c)" style="fill: none; stroke: #b0b0b0; stroke-width: 0.8; stroke-linecap: square"/>
     </g>
     <g id="line2d_2">
      <defs>
       <path id="m0820fdffbc" d="M 0 0 
L 0 3.5 
" style="stroke: #000000; stroke-width: 0.8"/>
      </defs>
      <g>
       <use xlink:href="#m0820fdffbc" x="127.102103" y="384.48" style="stroke: #000000; stroke-width: 0.8"/>
      </g>
     </g>
     <g id="text_1">
      <!-- 1.25 -->
      <g transform="translate(115.96929 399.078438) scale(0.1 -0.1)">
       <defs>
        <path id="DejaVuSans-31" d="M 794 531 
L 1825 531 
L 1825 4091 
L 703 3866 
L 703 4441 
L 1819 4666 
L 2450 4666 
L 2450 531 
L 3481 531 
L 3481 0 
L 794 0 
L 794 531 
z
" transform="scale(0.015625)"/>
        <path id="DejaVuSans-2e" d="M 684 794 
L 1344 794 
L 1344 0 
L 684 0 
L 684 794 
z
" transform="scale(0.015625)"/>
        <path id="DejaVuSans-32" d="M 1228 531 
L 3431 531 
L 3431 0 
L 469 0 
L 469 531 
Q 828 903 1448 1529 
Q 2069 2156 2228 2338 
Q 2531 2678 2651 2914 
Q 2772 3150 2772 3378 
Q 2772 3750 2511 3984 
Q 2250 4219 1831 4219 
Q 1534 4219 1204 4116 
Q 875 4013 500 3803 
L 500 4441 
Q 881 4594 1212 4672 
Q 1544 4750 1819 4750 
Q 2544 4750 2975 4387 
Q 3406 4025 3406 3419 
Q 3406 3131 3298 2873 
Q 3191 2616 2906 2266 
Q 2828 2175 2409 1742 
Q 1991 1309 1228 531 
z
" transform="scale(0.015625)"/>
        <path id="DejaVuSans-35" d="M 691 4666 
L 3169 4666 
L 3169 4134 
L 1269 4134 
L 1269 2991 
Q 1406 3038 1543 3061 
Q 1681 3084 1819 3084 
Q 2600 3084 3056 2656 
Q 3513 2228 3513 1497 
Q 3513 744 3044 326 
Q 2575 -91 1722 -91 
Q 1428 -91 1123 -41 
Q 819 9 494 109 
L 494 744 
Q 775 591 1075 516 
Q 1375 441 1709 441 
Q 2250 441 2565 725 
Q 2881 1009 2881 1497 
Q 2881 1984 2565 2268 
Q 2250 2553 1709 2553 
Q 1456 2553 1204 2497 
Q 953 2441 691 2322 
L 691 4666 
z
" transform="scale(0.015625)"/>
       </defs>
       <use xlink:href="#DejaVuSans-31"/>
       <use xlink:href="#DejaVuSans-2e" transform="translate(63.623047 0)"/>
       <use xlink:href="#DejaVuSans-32" transform="translate(95.410156 0)"/>
       <use xlink:href="#DejaVuSans-35" transform="translate(159.033203 0)"/>
      </g>
     </g>
    </g>
    <g id="xtick_2">
     <g id="line2d_3">
      <path d="M 173.77791 384.48 
L 173.77791 51.84 
" clip-path="url(#pc6cb151a3c)" style="fill: none; stroke: #b0b0b0; stroke-width: 0.8; stroke-linecap: square"/>
     </g>
     <g id="line2d_4">
      <g>
       <use xlink:href="#m0820fdffbc" x="173.77791" y="384.48" style="stroke: #000000; stroke-width: 0.8"/>
      </g>
     </g>
     <g id="text_2">
      <!-- 1.50 -->
      <g transform="translate(162.645097 399.078438) scale(0.1 -0.1)">
       <defs>
        <path id="DejaVuSans-30" d="M 2034 4250 
Q 1547 4250 1301 3770 
Q 1056 3291 1056 2328 
Q 1056 1369 1301 889 
Q 1547 409 2034 409 
Q 2525 409 2770 889 
Q 3016 1369 3016 2328 
Q 3016 3291 2770 3770 
Q 2525 4250 2034 4250 
z
M 2034 4750 
Q 2819 4750 3233 4129 
Q 3647 3509 3647 2328 
Q 3647 1150 3233 529 
Q 2819 -91 2034 -91 
Q 1250 -91 836 529 
Q 422 1150 422 2328 
Q 422 3509 836 4129 
Q 1250 4750 2034 4750 
z
" transform="scale(0.015625)"/>
       </defs>
       <use xlink:href="#DejaVuSans-31"/>
       <use xlink:href="#DejaVuSans-2e" transform="translate(63.623047 0)"/>
       <use xlink:href="#DejaVuSans-35" transform="translate(95.410156 0)"/>
       <use xlink:href="#DejaVuSans-30" transform="translate(159.033203 0)"/>
      </g>
     </g>
    </g>
    <g id="xtick_3">
     <g id="line2d_5">
      <path d="M 220.453717 384.48 
L 220.453717 51.84 
" clip-path="url(#pc6cb151a3c)" style="fill: none; stroke: #b0b0b0; stroke-width: 0.8; stroke-linecap: square"/>
     </g>
     <g id="line2d_6">
      <g>
       <use xlink:href="#m0820fdffbc" x="220.453717" y="384.48" style="stroke: #000000; stroke-width: 0.8"/>
      </g>
     </g>
     <g id="text_3">
      <!-- 1.75 -->
      <g transform="translate(209.320905 399.078438) scale(0.1 -0.1)">
       <defs>
        <path id="DejaVuSans-37" d="M 525 4666 
L 3525 4666 
L 3525 4397 
L 1831 0 
L 1172 0 
L 2766 4134 
L 525 4134 
L 525 4666 
z
" transform="scale(0.015625)"/>
       </defs>
       <use xlink:href="#DejaVuSans-31"/>
       <use xlink:href="#DejaVuSans-2e" transform="translate(63.623047 0)"/>
       <use xlink:href="#DejaVuSans-37" transform="translate(95.410156 0)"/>
       <use xlink:href="#DejaVuSans-35" transform="translate(159.033203 0)"/>
      </g>
     </g>
    </g>
    <g id="xtick_4">
     <g id="line2d_7">
      <path d="M 267.129524 384.48 
L 267.129524 51.84 
" clip-path="url(#pc6cb151a3c)" style="fill: none; stroke: #b0b0b0; stroke-width: 0.8; stroke-linecap: square"/>
     </g>
     <g id="line2d_8">
      <g>
       <use xlink:href="#m0820fdffbc" x="267.129524" y="384.48" style="stroke: #000000; stroke-width: 0.8"/>
      </g>
     </g>
     <g id="text_4">
      <!-- 2.00 -->
      <g transform="translate(255.996712 399.078438) scale(0.1 -0.1)">
       <use xlink:href="#DejaVuSans-32"/>
       <use xlink:href="#DejaVuSans-2e" transform="translate(63.623047 0)"/>
       <use xlink:href="#DejaVuSans-30" transform="translate(95.410156 0)"/>
       <use xlink:href="#DejaVuSans-30" transform="translate(159.033203 0)"/>
      </g>
     </g>
    </g>
    <g id="xtick_5">
     <g id="line2d_9">
      <path d="M 313.805332 384.48 
L 313.805332 51.84 
" clip-path="url(#pc6cb151a3c)" style="fill: none; stroke: #b0b0b0; stroke-width: 0.8; stroke-linecap: square"/>
     </g>
     <g id="line2d_10">
      <g>
       <use xlink:href="#m0820fdffbc" x="313.805332" y="384.48" style="stroke: #000000; stroke-width: 0.8"/>
      </g>
     </g>
     <g id="text_5">
      <!-- 2.25 -->
      <g transform="translate(302.672519 399.078438) scale(0.1 -0.1)">
       <use xlink:href="#DejaVuSans-32"/>
       <use xlink:href="#DejaVuSans-2e" transform="translate(63.623047 0)"/>
       <use xlink:href="#DejaVuSans-32" transform="translate(95.410156 0)"/>
       <use xlink:href="#DejaVuSans-35" transform="translate(159.033203 0)"/>
      </g>
     </g>
    </g>
    <g id="xtick_6">
     <g id="line2d_11">
      <path d="M 360.481139 384.48 
L 360.481139 51.84 
" clip-path="url(#pc6cb151a3c)" style="fill: none; stroke: #b0b0b0; stroke-width: 0.8; stroke-linecap: square"/>
     </g>
     <g id="line2d_12">
      <g>
       <use xlink:href="#m0820fdffbc" x="360.481139" y="384.48" style="stroke: #000000; stroke-width: 0.8"/>
      </g>
     </g>
     <g id="text_6">
      <!-- 2.50 -->
      <g transform="translate(349.348326 399.078438) scale(0.1 -0.1)">
       <use xlink:href="#DejaVuSans-32"/>
       <use xlink:href="#DejaVuSans-2e" transform="translate(63.623047 0)"/>
       <use xlink:href="#DejaVuSans-35" transform="translate(95.410156 0)"/>
       <use xlink:href="#DejaVuSans-30" transform="translate(159.033203 0)"/>
      </g>
     </g>
    </g>
    <g id="xtick_7">
     <g id="line2d_13">
      <path d="M 407.156946 384.48 
L 407.156946 51.84 
" clip-path="url(#pc6cb151a3c)" style="fill: none; stroke: #b0b0b0; stroke-width: 0.8; stroke-linecap: square"/>
     </g>
     <g id="line2d_14">
      <g>
       <use xlink:href="#m0820fdffbc" x="407.156946" y="384.48" style="stroke: #000000; stroke-width: 0.8"/>
      </g>
     </g>
     <g id="text_7">
      <!-- 2.75 -->
      <g transform="translate(396.024134 399.078438) scale(0.1 -0.1)">
       <use xlink:href="#DejaVuSans-32"/>
       <use xlink:href="#DejaVuSans-2e" transform="translate(63.623047 0)"/>
       <use xlink:href="#DejaVuSans-37" transform="translate(95.410156 0)"/>
       <use xlink:href="#DejaVuSans-35" transform="translate(159.033203 0)"/>
      </g>
     </g>
    </g>
    <g id="xtick_8">
     <g id="line2d_15">
      <path d="M 453.832753 384.48 
L 453.832753 51.84 
" clip-path="url(#pc6cb151a3c)" style="fill: none; stroke: #b0b0b0; stroke-width: 0.8; stroke-linecap: square"/>
     </g>
     <g id="line2d_16">
      <g>
       <use xlink:href="#m0820fdffbc" x="453.832753" y="384.48" style="stroke: #000000; stroke-width: 0.8"/>
      </g>
     </g>
     <g id="text_8">
      <!-- 3.00 -->
      <g transform="translate(442.699941 399.078438) scale(0.1 -0.1)">
       <defs>
        <path id="DejaVuSans-33" d="M 2597 2516 
Q 3050 2419 3304 2112 
Q 3559 1806 3559 1356 
Q 3559 666 3084 287 
Q 2609 -91 1734 -91 
Q 1441 -91 1130 -33 
Q 819 25 488 141 
L 488 750 
Q 750 597 1062 519 
Q 1375 441 1716 441 
Q 2309 441 2620 675 
Q 2931 909 2931 1356 
Q 2931 1769 2642 2001 
Q 2353 2234 1838 2234 
L 1294 2234 
L 1294 2753 
L 1863 2753 
Q 2328 2753 2575 2939 
Q 2822 3125 2822 3475 
Q 2822 3834 2567 4026 
Q 2313 4219 1838 4219 
Q 1578 4219 1281 4162 
Q 984 4106 628 3988 
L 628 4550 
Q 988 4650 1302 4700 
Q 1616 4750 1894 4750 
Q 2613 4750 3031 4423 
Q 3450 4097 3450 3541 
Q 3450 3153 3228 2886 
Q 3006 2619 2597 2516 
z
" transform="scale(0.015625)"/>
       </defs>
       <use xlink:href="#DejaVuSans-33"/>
       <use xlink:href="#DejaVuSans-2e" transform="translate(63.623047 0)"/>
       <use xlink:href="#DejaVuSans-30" transform="translate(95.410156 0)"/>
       <use xlink:href="#DejaVuSans-30" transform="translate(159.033203 0)"/>
      </g>
     </g>
    </g>
    <g id="text_9">
     <!-- CE$_{\mathrm{COM}}$ (eV) -->
     <g transform="translate(250.15 412.756563) scale(0.1 -0.1)">
      <defs>
       <path id="DejaVuSans-43" d="M 4122 4306 
L 4122 3641 
Q 3803 3938 3442 4084 
Q 3081 4231 2675 4231 
Q 1875 4231 1450 3742 
Q 1025 3253 1025 2328 
Q 1025 1406 1450 917 
Q 1875 428 2675 428 
Q 3081 428 3442 575 
Q 3803 722 4122 1019 
L 4122 359 
Q 3791 134 3420 21 
Q 3050 -91 2638 -91 
Q 1578 -91 968 557 
Q 359 1206 359 2328 
Q 359 3453 968 4101 
Q 1578 4750 2638 4750 
Q 3056 4750 3426 4639 
Q 3797 4528 4122 4306 
z
" transform="scale(0.015625)"/>
       <path id="DejaVuSans-45" d="M 628 4666 
L 3578 4666 
L 3578 4134 
L 1259 4134 
L 1259 2753 
L 3481 2753 
L 3481 2222 
L 1259 2222 
L 1259 531 
L 3634 531 
L 3634 0 
L 628 0 
L 628 4666 
z
" transform="scale(0.015625)"/>
       <path id="DejaVuSans-4f" d="M 2522 4238 
Q 1834 4238 1429 3725 
Q 1025 3213 1025 2328 
Q 1025 1447 1429 934 
Q 1834 422 2522 422 
Q 3209 422 3611 934 
Q 4013 1447 4013 2328 
Q 4013 3213 3611 3725 
Q 3209 4238 2522 4238 
z
M 2522 4750 
Q 3503 4750 4090 4092 
Q 4678 3434 4678 2328 
Q 4678 1225 4090 567 
Q 3503 -91 2522 -91 
Q 1538 -91 948 565 
Q 359 1222 359 2328 
Q 359 3434 948 4092 
Q 1538 4750 2522 4750 
z
" transform="scale(0.015625)"/>
       <path id="DejaVuSans-4d" d="M 628 4666 
L 1569 4666 
L 2759 1491 
L 3956 4666 
L 4897 4666 
L 4897 0 
L 4281 0 
L 4281 4097 
L 3078 897 
L 2444 897 
L 1241 4097 
L 1241 0 
L 628 0 
L 628 4666 
z
" transform="scale(0.015625)"/>
       <path id="DejaVuSans-20" transform="scale(0.015625)"/>
       <path id="DejaVuSans-28" d="M 1984 4856 
Q 1566 4138 1362 3434 
Q 1159 2731 1159 2009 
Q 1159 1288 1364 580 
Q 1569 -128 1984 -844 
L 1484 -844 
Q 1016 -109 783 600 
Q 550 1309 550 2009 
Q 550 2706 781 3412 
Q 1013 4119 1484 4856 
L 1984 4856 
z
" transform="scale(0.015625)"/>
       <path id="DejaVuSans-65" d="M 3597 1894 
L 3597 1613 
L 953 1613 
Q 991 1019 1311 708 
Q 1631 397 2203 397 
Q 2534 397 2845 478 
Q 3156 559 3463 722 
L 3463 178 
Q 3153 47 2828 -22 
Q 2503 -91 2169 -91 
Q 1331 -91 842 396 
Q 353 884 353 1716 
Q 353 2575 817 3079 
Q 1281 3584 2069 3584 
Q 2775 3584 3186 3129 
Q 3597 2675 3597 1894 
z
M 3022 2063 
Q 3016 2534 2758 2815 
Q 2500 3097 2075 3097 
Q 1594 3097 1305 2825 
Q 1016 2553 972 2059 
L 3022 2063 
z
" transform="scale(0.015625)"/>
       <path id="DejaVuSans-56" d="M 1831 0 
L 50 4666 
L 709 4666 
L 2188 738 
L 3669 4666 
L 4325 4666 
L 2547 0 
L 1831 0 
z
" transform="scale(0.015625)"/>
       <path id="DejaVuSans-29" d="M 513 4856 
L 1013 4856 
Q 1481 4119 1714 3412 
Q 1947 2706 1947 2009 
Q 1947 1309 1714 600 
Q 1481 -109 1013 -844 
L 513 -844 
Q 928 -128 1133 580 
Q 1338 1288 1338 2009 
Q 1338 2731 1133 3434 
Q 928 4138 513 4856 
z
" transform="scale(0.015625)"/>
      </defs>
      <use xlink:href="#DejaVuSans-43" transform="translate(0 0.125)"/>
      <use xlink:href="#DejaVuSans-45" transform="translate(69.824219 0.125)"/>
      <use xlink:href="#DejaVuSans-43" transform="translate(133.964844 -16.28125) scale(0.7)"/>
      <use xlink:href="#DejaVuSans-4f" transform="translate(182.841797 -16.28125) scale(0.7)"/>
      <use xlink:href="#DejaVuSans-4d" transform="translate(237.939453 -16.28125) scale(0.7)"/>
      <use xlink:href="#DejaVuSans-20" transform="translate(301.069336 0.125)"/>
      <use xlink:href="#DejaVuSans-28" transform="translate(332.856445 0.125)"/>
      <use xlink:href="#DejaVuSans-65" transform="translate(371.870117 0.125)"/>
      <use xlink:href="#DejaVuSans-56" transform="translate(433.393555 0.125)"/>
      <use xlink:href="#DejaVuSans-29" transform="translate(501.801758 0.125)"/>
     </g>
    </g>
   </g>
   <g id="matplotlib.axis_2">
    <g id="ytick_1">
     <g id="line2d_17">
      <path d="M 86.4 369.327327 
L 468 369.327327 
" clip-path="url(#pc6cb151a3c)" style="fill: none; stroke: #b0b0b0; stroke-width: 0.8; stroke-linecap: square"/>
     </g>
     <g id="line2d_18">
      <defs>
       <path id="m91b10bbba6" d="M 0 0 
L -3.5 0 
" style="stroke: #000000; stroke-width: 0.8"/>
      </defs>
      <g>
       <use xlink:href="#m91b10bbba6" x="86.4" y="369.327327" style="stroke: #000000; stroke-width: 0.8"/>
      </g>
     </g>
     <g id="text_10">
      <!-- 0 -->
      <g transform="translate(73.0375 373.126546) scale(0.1 -0.1)">
       <use xlink:href="#DejaVuSans-30"/>
      </g>
     </g>
    </g>
    <g id="ytick_2">
     <g id="line2d_19">
      <path d="M 86.4 315.153133 
L 468 315.153133 
" clip-path="url(#pc6cb151a3c)" style="fill: none; stroke: #b0b0b0; stroke-width: 0.8; stroke-linecap: square"/>
     </g>
     <g id="line2d_20">
      <g>
       <use xlink:href="#m91b10bbba6" x="86.4" y="315.153133" style="stroke: #000000; stroke-width: 0.8"/>
      </g>
     </g>
     <g id="text_11">
      <!-- 1 -->
      <g transform="translate(73.0375 318.952352) scale(0.1 -0.1)">
       <use xlink:href="#DejaVuSans-31"/>
      </g>
     </g>
    </g>
    <g id="ytick_3">
     <g id="line2d_21">
      <path d="M 86.4 260.97894 
L 468 260.97894 
" clip-path="url(#pc6cb151a3c)" style="fill: none; stroke: #b0b0b0; stroke-width: 0.8; stroke-linecap: square"/>
     </g>
     <g id="line2d_22">
      <g>
       <use xlink:href="#m91b10bbba6" x="86.4" y="260.97894" style="stroke: #000000; stroke-width: 0.8"/>
      </g>
     </g>
     <g id="text_12">
      <!-- 2 -->
      <g transform="translate(73.0375 264.778158) scale(0.1 -0.1)">
       <use xlink:href="#DejaVuSans-32"/>
      </g>
     </g>
    </g>
    <g id="ytick_4">
     <g id="line2d_23">
      <path d="M 86.4 206.804746 
L 468 206.804746 
" clip-path="url(#pc6cb151a3c)" style="fill: none; stroke: #b0b0b0; stroke-width: 0.8; stroke-linecap: square"/>
     </g>
     <g id="line2d_24">
      <g>
       <use xlink:href="#m91b10bbba6" x="86.4" y="206.804746" style="stroke: #000000; stroke-width: 0.8"/>
      </g>
     </g>
     <g id="text_13">
      <!-- 3 -->
      <g transform="translate(73.0375 210.603964) scale(0.1 -0.1)">
       <use xlink:href="#DejaVuSans-33"/>
      </g>
     </g>
    </g>
    <g id="ytick_5">
     <g id="line2d_25">
      <path d="M 86.4 152.630552 
L 468 152.630552 
" clip-path="url(#pc6cb151a3c)" style="fill: none; stroke: #b0b0b0; stroke-width: 0.8; stroke-linecap: square"/>
     </g>
     <g id="line2d_26">
      <g>
       <use xlink:href="#m91b10bbba6" x="86.4" y="152.630552" style="stroke: #000000; stroke-width: 0.8"/>
      </g>
     </g>
     <g id="text_14">
      <!-- 4 -->
      <g transform="translate(73.0375 156.429771) scale(0.1 -0.1)">
       <defs>
        <path id="DejaVuSans-34" d="M 2419 4116 
L 825 1625 
L 2419 1625 
L 2419 4116 
z
M 2253 4666 
L 3047 4666 
L 3047 1625 
L 3713 1625 
L 3713 1100 
L 3047 1100 
L 3047 0 
L 2419 0 
L 2419 1100 
L 313 1100 
L 313 1709 
L 2253 4666 
z
" transform="scale(0.015625)"/>
       </defs>
       <use xlink:href="#DejaVuSans-34"/>
      </g>
     </g>
    </g>
    <g id="ytick_6">
     <g id="line2d_27">
      <path d="M 86.4 98.456358 
L 468 98.456358 
" clip-path="url(#pc6cb151a3c)" style="fill: none; stroke: #b0b0b0; stroke-width: 0.8; stroke-linecap: square"/>
     </g>
     <g id="line2d_28">
      <g>
       <use xlink:href="#m91b10bbba6" x="86.4" y="98.456358" style="stroke: #000000; stroke-width: 0.8"/>
      </g>
     </g>
     <g id="text_15">
      <!-- 5 -->
      <g transform="translate(73.0375 102.255577) scale(0.1 -0.1)">
       <use xlink:href="#DejaVuSans-35"/>
      </g>
     </g>
    </g>
    <g id="text_16">
     <!-- Intensity (Absolute) -->
     <g transform="translate(66.957812 267.26625) rotate(-90) scale(0.1 -0.1)">
      <defs>
       <path id="DejaVuSans-49" d="M 628 4666 
L 1259 4666 
L 1259 0 
L 628 0 
L 628 4666 
z
" transform="scale(0.015625)"/>
       <path id="DejaVuSans-6e" d="M 3513 2113 
L 3513 0 
L 2938 0 
L 2938 2094 
Q 2938 2591 2744 2837 
Q 2550 3084 2163 3084 
Q 1697 3084 1428 2787 
Q 1159 2491 1159 1978 
L 1159 0 
L 581 0 
L 581 3500 
L 1159 3500 
L 1159 2956 
Q 1366 3272 1645 3428 
Q 1925 3584 2291 3584 
Q 2894 3584 3203 3211 
Q 3513 2838 3513 2113 
z
" transform="scale(0.015625)"/>
       <path id="DejaVuSans-74" d="M 1172 4494 
L 1172 3500 
L 2356 3500 
L 2356 3053 
L 1172 3053 
L 1172 1153 
Q 1172 725 1289 603 
Q 1406 481 1766 481 
L 2356 481 
L 2356 0 
L 1766 0 
Q 1100 0 847 248 
Q 594 497 594 1153 
L 594 3053 
L 172 3053 
L 172 3500 
L 594 3500 
L 594 4494 
L 1172 4494 
z
" transform="scale(0.015625)"/>
       <path id="DejaVuSans-73" d="M 2834 3397 
L 2834 2853 
Q 2591 2978 2328 3040 
Q 2066 3103 1784 3103 
Q 1356 3103 1142 2972 
Q 928 2841 928 2578 
Q 928 2378 1081 2264 
Q 1234 2150 1697 2047 
L 1894 2003 
Q 2506 1872 2764 1633 
Q 3022 1394 3022 966 
Q 3022 478 2636 193 
Q 2250 -91 1575 -91 
Q 1294 -91 989 -36 
Q 684 19 347 128 
L 347 722 
Q 666 556 975 473 
Q 1284 391 1588 391 
Q 1994 391 2212 530 
Q 2431 669 2431 922 
Q 2431 1156 2273 1281 
Q 2116 1406 1581 1522 
L 1381 1569 
Q 847 1681 609 1914 
Q 372 2147 372 2553 
Q 372 3047 722 3315 
Q 1072 3584 1716 3584 
Q 2034 3584 2315 3537 
Q 2597 3491 2834 3397 
z
" transform="scale(0.015625)"/>
       <path id="DejaVuSans-69" d="M 603 3500 
L 1178 3500 
L 1178 0 
L 603 0 
L 603 3500 
z
M 603 4863 
L 1178 4863 
L 1178 4134 
L 603 4134 
L 603 4863 
z
" transform="scale(0.015625)"/>
       <path id="DejaVuSans-79" d="M 2059 -325 
Q 1816 -950 1584 -1140 
Q 1353 -1331 966 -1331 
L 506 -1331 
L 506 -850 
L 844 -850 
Q 1081 -850 1212 -737 
Q 1344 -625 1503 -206 
L 1606 56 
L 191 3500 
L 800 3500 
L 1894 763 
L 2988 3500 
L 3597 3500 
L 2059 -325 
z
" transform="scale(0.015625)"/>
       <path id="DejaVuSans-41" d="M 2188 4044 
L 1331 1722 
L 3047 1722 
L 2188 4044 
z
M 1831 4666 
L 2547 4666 
L 4325 0 
L 3669 0 
L 3244 1197 
L 1141 1197 
L 716 0 
L 50 0 
L 1831 4666 
z
" transform="scale(0.015625)"/>
       <path id="DejaVuSans-62" d="M 3116 1747 
Q 3116 2381 2855 2742 
Q 2594 3103 2138 3103 
Q 1681 3103 1420 2742 
Q 1159 2381 1159 1747 
Q 1159 1113 1420 752 
Q 1681 391 2138 391 
Q 2594 391 2855 752 
Q 3116 1113 3116 1747 
z
M 1159 2969 
Q 1341 3281 1617 3432 
Q 1894 3584 2278 3584 
Q 2916 3584 3314 3078 
Q 3713 2572 3713 1747 
Q 3713 922 3314 415 
Q 2916 -91 2278 -91 
Q 1894 -91 1617 61 
Q 1341 213 1159 525 
L 1159 0 
L 581 0 
L 581 4863 
L 1159 4863 
L 1159 2969 
z
" transform="scale(0.015625)"/>
       <path id="DejaVuSans-6f" d="M 1959 3097 
Q 1497 3097 1228 2736 
Q 959 2375 959 1747 
Q 959 1119 1226 758 
Q 1494 397 1959 397 
Q 2419 397 2687 759 
Q 2956 1122 2956 1747 
Q 2956 2369 2687 2733 
Q 2419 3097 1959 3097 
z
M 1959 3584 
Q 2709 3584 3137 3096 
Q 3566 2609 3566 1747 
Q 3566 888 3137 398 
Q 2709 -91 1959 -91 
Q 1206 -91 779 398 
Q 353 888 353 1747 
Q 353 2609 779 3096 
Q 1206 3584 1959 3584 
z
" transform="scale(0.015625)"/>
       <path id="DejaVuSans-6c" d="M 603 4863 
L 1178 4863 
L 1178 0 
L 603 0 
L 603 4863 
z
" transform="scale(0.015625)"/>
       <path id="DejaVuSans-75" d="M 544 1381 
L 544 3500 
L 1119 3500 
L 1119 1403 
Q 1119 906 1312 657 
Q 1506 409 1894 409 
Q 2359 409 2629 706 
Q 2900 1003 2900 1516 
L 2900 3500 
L 3475 3500 
L 3475 0 
L 2900 0 
L 2900 538 
Q 2691 219 2414 64 
Q 2138 -91 1772 -91 
Q 1169 -91 856 284 
Q 544 659 544 1381 
z
M 1991 3584 
L 1991 3584 
z
" transform="scale(0.015625)"/>
      </defs>
      <use xlink:href="#DejaVuSans-49"/>
      <use xlink:href="#DejaVuSans-6e" transform="translate(29.492188 0)"/>
      <use xlink:href="#DejaVuSans-74" transform="translate(92.871094 0)"/>
      <use xlink:href="#DejaVuSans-65" transform="translate(132.080078 0)"/>
      <use xlink:href="#DejaVuSans-6e" transform="translate(193.603516 0)"/>
      <use xlink:href="#DejaVuSans-73" transform="translate(256.982422 0)"/>
      <use xlink:href="#DejaVuSans-69" transform="translate(309.082031 0)"/>
      <use xlink:href="#DejaVuSans-74" transform="translate(336.865234 0)"/>
      <use xlink:href="#DejaVuSans-79" transform="translate(376.074219 0)"/>
      <use xlink:href="#DejaVuSans-20" transform="translate(435.253906 0)"/>
      <use xlink:href="#DejaVuSans-28" transform="translate(467.041016 0)"/>
      <use xlink:href="#DejaVuSans-41" transform="translate(506.054688 0)"/>
      <use xlink:href="#DejaVuSans-62" transform="translate(574.462891 0)"/>
      <use xlink:href="#DejaVuSans-73" transform="translate(637.939453 0)"/>
      <use xlink:href="#DejaVuSans-6f" transform="translate(690.039062 0)"/>
      <use xlink:href="#DejaVuSans-6c" transform="translate(751.220703 0)"/>
      <use xlink:href="#DejaVuSans-75" transform="translate(779.003906 0)"/>
      <use xlink:href="#DejaVuSans-74" transform="translate(842.382812 0)"/>
      <use xlink:href="#DejaVuSans-65" transform="translate(881.591797 0)"/>
      <use xlink:href="#DejaVuSans-29" transform="translate(943.115234 0)"/>
     </g>
    </g>
    <g id="text_17">
     <!-- 1e8 -->
     <g transform="translate(86.4 48.84) scale(0.1 -0.1)">
      <defs>
       <path id="DejaVuSans-38" d="M 2034 2216 
Q 1584 2216 1326 1975 
Q 1069 1734 1069 1313 
Q 1069 891 1326 650 
Q 1584 409 2034 409 
Q 2484 409 2743 651 
Q 3003 894 3003 1313 
Q 3003 1734 2745 1975 
Q 2488 2216 2034 2216 
z
M 1403 2484 
Q 997 2584 770 2862 
Q 544 3141 544 3541 
Q 544 4100 942 4425 
Q 1341 4750 2034 4750 
Q 2731 4750 3128 4425 
Q 3525 4100 3525 3541 
Q 3525 3141 3298 2862 
Q 3072 2584 2669 2484 
Q 3125 2378 3379 2068 
Q 3634 1759 3634 1313 
Q 3634 634 3220 271 
Q 2806 -91 2034 -91 
Q 1263 -91 848 271 
Q 434 634 434 1313 
Q 434 1759 690 2068 
Q 947 2378 1403 2484 
z
M 1172 3481 
Q 1172 3119 1398 2916 
Q 1625 2713 2034 2713 
Q 2441 2713 2670 2916 
Q 2900 3119 2900 3481 
Q 2900 3844 2670 4047 
Q 2441 4250 2034 4250 
Q 1625 4250 1398 4047 
Q 1172 3844 1172 3481 
z
" transform="scale(0.015625)"/>
      </defs>
      <use xlink:href="#DejaVuSans-31"/>
      <use xlink:href="#DejaVuSans-65" transform="translate(63.623047 0)"/>
      <use xlink:href="#DejaVuSans-38" transform="translate(125.146484 0)"/>
     </g>
    </g>
   </g>
   <g id="line2d_29">
    <defs>
     <path id="m3ed40cf580" d="M 0 3 
C 0.795609 3 1.55874 2.683901 2.12132 2.12132 
C 2.683901 1.55874 3 0.795609 3 0 
C 3 -0.795609 2.683901 -1.55874 2.12132 -2.12132 
C 1.55874 -2.683901 0.795609 -3 0 -3 
C -0.795609 -3 -1.55874 -2.683901 -2.12132 -2.12132 
C -2.683901 -1.55874 -3 -0.795609 -3 0 
C -3 0.795609 -2.683901 1.55874 -2.12132 2.12132 
C -1.55874 2.683901 -0.795609 3 0 3 
z
" style="stroke: #1f77b4"/>
    </defs>
    <g clip-path="url(#pc6cb151a3c)">
     <use xlink:href="#m3ed40cf580" x="103.745455" y="74.144882" style="fill: #1f77b4; stroke: #1f77b4"/>
     <use xlink:href="#m3ed40cf580" x="112.418182" y="81.387356" style="fill: #1f77b4; stroke: #1f77b4"/>
     <use xlink:href="#m3ed40cf580" x="121.090909" y="80.623186" style="fill: #1f77b4; stroke: #1f77b4"/>
     <use xlink:href="#m3ed40cf580" x="138.436364" y="67.33914" style="fill: #1f77b4; stroke: #1f77b4"/>
     <use xlink:href="#m3ed40cf580" x="147.109091" y="94.925508" style="fill: #1f77b4; stroke: #1f77b4"/>
     <use xlink:href="#m3ed40cf580" x="155.781818" y="123.376906" style="fill: #1f77b4; stroke: #1f77b4"/>
     <use xlink:href="#m3ed40cf580" x="164.454545" y="175.116195" style="fill: #1f77b4; stroke: #1f77b4"/>
     <use xlink:href="#m3ed40cf580" x="173.127273" y="232.166121" style="fill: #1f77b4; stroke: #1f77b4"/>
     <use xlink:href="#m3ed40cf580" x="181.8" y="274.760579" style="fill: #1f77b4; stroke: #1f77b4"/>
     <use xlink:href="#m3ed40cf580" x="190.472727" y="306.614742" style="fill: #1f77b4; stroke: #1f77b4"/>
     <use xlink:href="#m3ed40cf580" x="199.145455" y="328.442715" style="fill: #1f77b4; stroke: #1f77b4"/>
     <use xlink:href="#m3ed40cf580" x="207.818182" y="341.512058" style="fill: #1f77b4; stroke: #1f77b4"/>
     <use xlink:href="#m3ed40cf580" x="216.490909" y="352.397696" style="fill: #1f77b4; stroke: #1f77b4"/>
     <use xlink:href="#m3ed40cf580" x="225.163636" y="358.54989" style="fill: #1f77b4; stroke: #1f77b4"/>
     <use xlink:href="#m3ed40cf580" x="233.836364" y="362.776526" style="fill: #1f77b4; stroke: #1f77b4"/>
     <use xlink:href="#m3ed40cf580" x="251.181818" y="367.023091" style="fill: #1f77b4; stroke: #1f77b4"/>
     <use xlink:href="#m3ed40cf580" x="259.854545" y="367.961867" style="fill: #1f77b4; stroke: #1f77b4"/>
     <use xlink:href="#m3ed40cf580" x="268.527273" y="368.470512" style="fill: #1f77b4; stroke: #1f77b4"/>
     <use xlink:href="#m3ed40cf580" x="277.2" y="368.821011" style="fill: #1f77b4; stroke: #1f77b4"/>
     <use xlink:href="#m3ed40cf580" x="285.872727" y="369.030138" style="fill: #1f77b4; stroke: #1f77b4"/>
     <use xlink:href="#m3ed40cf580" x="294.545455" y="369.145017" style="fill: #1f77b4; stroke: #1f77b4"/>
     <use xlink:href="#m3ed40cf580" x="303.218182" y="369.227579" style="fill: #1f77b4; stroke: #1f77b4"/>
     <use xlink:href="#m3ed40cf580" x="311.890909" y="369.262591" style="fill: #1f77b4; stroke: #1f77b4"/>
     <use xlink:href="#m3ed40cf580" x="320.563636" y="369.278896" style="fill: #1f77b4; stroke: #1f77b4"/>
     <use xlink:href="#m3ed40cf580" x="329.236364" y="369.30233" style="fill: #1f77b4; stroke: #1f77b4"/>
     <use xlink:href="#m3ed40cf580" x="337.909091" y="369.316878" style="fill: #1f77b4; stroke: #1f77b4"/>
     <use xlink:href="#m3ed40cf580" x="346.581818" y="369.323948" style="fill: #1f77b4; stroke: #1f77b4"/>
     <use xlink:href="#m3ed40cf580" x="355.254545" y="369.324632" style="fill: #1f77b4; stroke: #1f77b4"/>
     <use xlink:href="#m3ed40cf580" x="363.927273" y="369.326527" style="fill: #1f77b4; stroke: #1f77b4"/>
     <use xlink:href="#m3ed40cf580" x="372.6" y="369.326608" style="fill: #1f77b4; stroke: #1f77b4"/>
     <use xlink:href="#m3ed40cf580" x="381.272727" y="369.326704" style="fill: #1f77b4; stroke: #1f77b4"/>
     <use xlink:href="#m3ed40cf580" x="389.945455" y="369.327327" style="fill: #1f77b4; stroke: #1f77b4"/>
     <use xlink:href="#m3ed40cf580" x="398.618182" y="369.327327" style="fill: #1f77b4; stroke: #1f77b4"/>
     <use xlink:href="#m3ed40cf580" x="407.290909" y="369.327327" style="fill: #1f77b4; stroke: #1f77b4"/>
     <use xlink:href="#m3ed40cf580" x="415.963636" y="369.327327" style="fill: #1f77b4; stroke: #1f77b4"/>
     <use xlink:href="#m3ed40cf580" x="424.636364" y="369.326866" style="fill: #1f77b4; stroke: #1f77b4"/>
     <use xlink:href="#m3ed40cf580" x="441.981818" y="369.327327" style="fill: #1f77b4; stroke: #1f77b4"/>
     <use xlink:href="#m3ed40cf580" x="450.654545" y="369.327327" style="fill: #1f77b4; stroke: #1f77b4"/>
    </g>
   </g>
   <g id="line2d_30">
    <path d="M 103.745455 66.96 
L 108.386379 67.543364 
L 111.867072 68.165989 
L 115.347765 69.004932 
L 118.828458 70.128097 
L 121.148921 71.076427 
L 123.469383 72.219551 
L 125.789845 73.592783 
L 128.110307 75.236432 
L 130.430769 77.196026 
L 132.751231 79.522354 
L 135.071694 82.271233 
L 137.392156 85.502893 
L 139.712618 89.280877 
L 142.03308 93.670324 
L 144.353542 98.735539 
L 146.674004 104.536789 
L 148.994466 111.126327 
L 151.314929 118.543771 
L 153.635391 126.811095 
L 155.955853 135.927659 
L 158.276315 145.865848 
L 160.596777 156.567985 
L 164.07747 173.850905 
L 168.718395 198.500174 
L 176.840012 242.339734 
L 180.320705 259.950642 
L 183.801399 276.215809 
L 186.121861 286.175389 
L 188.442323 295.373835 
L 190.762785 303.793879 
L 193.083247 311.440112 
L 195.403709 318.334727 
L 197.724171 324.513167 
L 200.044634 330.020072 
L 202.365096 334.905725 
L 204.685558 339.223116 
L 207.00602 343.025642 
L 209.326482 346.365402 
L 211.646944 349.291999 
L 213.967407 351.851781 
L 216.287869 354.087409 
L 218.608331 356.037682 
L 220.928793 357.737549 
L 223.249255 359.218243 
L 225.569717 360.507499 
L 229.05041 362.135214 
L 232.531104 363.457173 
L 236.011797 364.531169 
L 239.49249 365.40429 
L 244.133414 366.320968 
L 248.774339 367.018752 
L 254.575494 367.66338 
L 261.536881 368.200278 
L 270.818729 368.65455 
L 282.42104 368.97491 
L 299.824506 369.199683 
L 329.990514 369.321957 
L 415.847613 369.359235 
L 450.654545 369.36 
L 450.654545 369.36 
" clip-path="url(#pc6cb151a3c)" style="fill: none; stroke: #ff7f0e; stroke-width: 1.5; stroke-linecap: square"/>
   </g>
   <g id="patch_3">
    <path d="M 86.4 384.48 
L 86.4 51.84 
" style="fill: none; stroke: #000000; stroke-width: 0.8; stroke-linejoin: miter; stroke-linecap: square"/>
   </g>
   <g id="patch_4">
    <path d="M 468 384.48 
L 468 51.84 
" style="fill: none; stroke: #000000; stroke-width: 0.8; stroke-linejoin: miter; stroke-linecap: square"/>
   </g>
   <g id="patch_5">
    <path d="M 86.4 384.48 
L 468 384.48 
" style="fill: none; stroke: #000000; stroke-width: 0.8; stroke-linejoin: miter; stroke-linecap: square"/>
   </g>
   <g id="patch_6">
    <path d="M 86.4 51.84 
L 468 51.84 
" style="fill: none; stroke: #000000; stroke-width: 0.8; stroke-linejoin: miter; stroke-linecap: square"/>
   </g>
   <g id="text_18">
    <!-- Ion Intensity vs. CE$_{\mathrm{COM}}$ (m/z 77.04) -->
    <g transform="translate(172.86 45.84) scale(0.12 -0.12)">
     <defs>
      <path id="DejaVuSans-76" d="M 191 3500 
L 800 3500 
L 1894 563 
L 2988 3500 
L 3597 3500 
L 2284 0 
L 1503 0 
L 191 3500 
z
" transform="scale(0.015625)"/>
      <path id="DejaVuSans-6d" d="M 3328 2828 
Q 3544 3216 3844 3400 
Q 4144 3584 4550 3584 
Q 5097 3584 5394 3201 
Q 5691 2819 5691 2113 
L 5691 0 
L 5113 0 
L 5113 2094 
Q 5113 2597 4934 2840 
Q 4756 3084 4391 3084 
Q 3944 3084 3684 2787 
Q 3425 2491 3425 1978 
L 3425 0 
L 2847 0 
L 2847 2094 
Q 2847 2600 2669 2842 
Q 2491 3084 2119 3084 
Q 1678 3084 1418 2786 
Q 1159 2488 1159 1978 
L 1159 0 
L 581 0 
L 581 3500 
L 1159 3500 
L 1159 2956 
Q 1356 3278 1631 3431 
Q 1906 3584 2284 3584 
Q 2666 3584 2933 3390 
Q 3200 3197 3328 2828 
z
" transform="scale(0.015625)"/>
      <path id="DejaVuSans-2f" d="M 1625 4666 
L 2156 4666 
L 531 -594 
L 0 -594 
L 1625 4666 
z
" transform="scale(0.015625)"/>
      <path id="DejaVuSans-7a" d="M 353 3500 
L 3084 3500 
L 3084 2975 
L 922 459 
L 3084 459 
L 3084 0 
L 275 0 
L 275 525 
L 2438 3041 
L 353 3041 
L 353 3500 
z
" transform="scale(0.015625)"/>
     </defs>
     <use xlink:href="#DejaVuSans-49" transform="translate(0 0.015625)"/>
     <use xlink:href="#DejaVuSans-6f" transform="translate(29.492188 0.015625)"/>
     <use xlink:href="#DejaVuSans-6e" transform="translate(90.673828 0.015625)"/>
     <use xlink:href="#DejaVuSans-20" transform="translate(154.052734 0.015625)"/>
     <use xlink:href="#DejaVuSans-49" transform="translate(185.839844 0.015625)"/>
     <use xlink:href="#DejaVuSans-6e" transform="translate(215.332031 0.015625)"/>
     <use xlink:href="#DejaVuSans-74" transform="translate(278.710938 0.015625)"/>
     <use xlink:href="#DejaVuSans-65" transform="translate(317.919922 0.015625)"/>
     <use xlink:href="#DejaVuSans-6e" transform="translate(379.443359 0.015625)"/>
     <use xlink:href="#DejaVuSans-73" transform="translate(442.822266 0.015625)"/>
     <use xlink:href="#DejaVuSans-69" transform="translate(494.921875 0.015625)"/>
     <use xlink:href="#DejaVuSans-74" transform="translate(522.705078 0.015625)"/>
     <use xlink:href="#DejaVuSans-79" transform="translate(561.914062 0.015625)"/>
     <use xlink:href="#DejaVuSans-20" transform="translate(621.09375 0.015625)"/>
     <use xlink:href="#DejaVuSans-76" transform="translate(652.880859 0.015625)"/>
     <use xlink:href="#DejaVuSans-73" transform="translate(712.060547 0.015625)"/>
     <use xlink:href="#DejaVuSans-2e" transform="translate(764.160156 0.015625)"/>
     <use xlink:href="#DejaVuSans-20" transform="translate(795.947266 0.015625)"/>
     <use xlink:href="#DejaVuSans-43" transform="translate(827.734375 0.015625)"/>
     <use xlink:href="#DejaVuSans-45" transform="translate(897.558594 0.015625)"/>
     <use xlink:href="#DejaVuSans-43" transform="translate(961.699219 -16.390625) scale(0.7)"/>
     <use xlink:href="#DejaVuSans-4f" transform="translate(1010.576172 -16.390625) scale(0.7)"/>
     <use xlink:href="#DejaVuSans-4d" transform="translate(1065.673828 -16.390625) scale(0.7)"/>
     <use xlink:href="#DejaVuSans-20" transform="translate(1128.803711 0.015625)"/>
     <use xlink:href="#DejaVuSans-28" transform="translate(1160.59082 0.015625)"/>
     <use xlink:href="#DejaVuSans-6d" transform="translate(1199.604492 0.015625)"/>
     <use xlink:href="#DejaVuSans-2f" transform="translate(1297.016602 0.015625)"/>
     <use xlink:href="#DejaVuSans-7a" transform="translate(1330.708008 0.015625)"/>
     <use xlink:href="#DejaVuSans-20" transform="translate(1383.198242 0.015625)"/>
     <use xlink:href="#DejaVuSans-37" transform="translate(1414.985352 0.015625)"/>
     <use xlink:href="#DejaVuSans-37" transform="translate(1476.858398 0.015625)"/>
     <use xlink:href="#DejaVuSans-2e" transform="translate(1540.481445 0.015625)"/>
     <use xlink:href="#DejaVuSans-30" transform="translate(1572.268555 0.015625)"/>
     <use xlink:href="#DejaVuSans-34" transform="translate(1635.891602 0.015625)"/>
     <use xlink:href="#DejaVuSans-29" transform="translate(1699.514648 0.015625)"/>
    </g>
   </g>
  </g>
  <g id="text_19">
   <g id="patch_7">
    <path d="M 524.88 240.882047 
L 705.6 240.882047 
Q 708.3 240.882047 708.3 238.182047 
L 708.3 190.289672 
Q 708.3 187.589672 705.6 187.589672 
L 524.88 187.589672 
Q 522.18 187.589672 522.18 190.289672 
L 522.18 238.182047 
Q 522.18 240.882047 524.88 240.882047 
z
" style="fill: #ffffff; opacity: 0.9; stroke: #000000; stroke-linejoin: miter"/>
   </g>
   <!-- $y= -6.085e+04 + \frac{5.601e+08- -6.085e+04}{1+(x/1.492)^{20}}$ -->
   <g transform="translate(524.88 202.547953) scale(0.09 -0.09)">
    <defs>
     <path id="DejaVuSans-Oblique-79" d="M 1588 -325 
Q 1188 -997 936 -1164 
Q 684 -1331 294 -1331 
L -159 -1331 
L -63 -850 
L 269 -850 
Q 509 -850 678 -719 
Q 847 -588 1056 -206 
L 1234 128 
L 459 3500 
L 1069 3500 
L 1650 819 
L 3256 3500 
L 3859 3500 
L 1588 -325 
z
" transform="scale(0.015625)"/>
     <path id="DejaVuSans-3d" d="M 678 2906 
L 4684 2906 
L 4684 2381 
L 678 2381 
L 678 2906 
z
M 678 1631 
L 4684 1631 
L 4684 1100 
L 678 1100 
L 678 1631 
z
" transform="scale(0.015625)"/>
     <path id="DejaVuSans-2212" d="M 678 2272 
L 4684 2272 
L 4684 1741 
L 678 1741 
L 678 2272 
z
" transform="scale(0.015625)"/>
     <path id="DejaVuSans-36" d="M 2113 2584 
Q 1688 2584 1439 2293 
Q 1191 2003 1191 1497 
Q 1191 994 1439 701 
Q 1688 409 2113 409 
Q 2538 409 2786 701 
Q 3034 994 3034 1497 
Q 3034 2003 2786 2293 
Q 2538 2584 2113 2584 
z
M 3366 4563 
L 3366 3988 
Q 3128 4100 2886 4159 
Q 2644 4219 2406 4219 
Q 1781 4219 1451 3797 
Q 1122 3375 1075 2522 
Q 1259 2794 1537 2939 
Q 1816 3084 2150 3084 
Q 2853 3084 3261 2657 
Q 3669 2231 3669 1497 
Q 3669 778 3244 343 
Q 2819 -91 2113 -91 
Q 1303 -91 875 529 
Q 447 1150 447 2328 
Q 447 3434 972 4092 
Q 1497 4750 2381 4750 
Q 2619 4750 2861 4703 
Q 3103 4656 3366 4563 
z
" transform="scale(0.015625)"/>
     <path id="DejaVuSans-Oblique-65" d="M 3078 2063 
Q 3088 2113 3092 2166 
Q 3097 2219 3097 2272 
Q 3097 2653 2873 2875 
Q 2650 3097 2266 3097 
Q 1838 3097 1509 2826 
Q 1181 2556 1013 2059 
L 3078 2063 
z
M 3578 1613 
L 903 1613 
Q 884 1494 878 1425 
Q 872 1356 872 1306 
Q 872 872 1139 634 
Q 1406 397 1894 397 
Q 2269 397 2603 481 
Q 2938 566 3225 728 
L 3116 159 
Q 2806 34 2476 -28 
Q 2147 -91 1806 -91 
Q 1078 -91 686 257 
Q 294 606 294 1247 
Q 294 1794 489 2264 
Q 684 2734 1063 3103 
Q 1306 3334 1642 3459 
Q 1978 3584 2356 3584 
Q 2950 3584 3301 3228 
Q 3653 2872 3653 2272 
Q 3653 2128 3634 1964 
Q 3616 1800 3578 1613 
z
" transform="scale(0.015625)"/>
     <path id="DejaVuSans-2b" d="M 2944 4013 
L 2944 2272 
L 4684 2272 
L 4684 1741 
L 2944 1741 
L 2944 0 
L 2419 0 
L 2419 1741 
L 678 1741 
L 678 2272 
L 2419 2272 
L 2419 4013 
L 2944 4013 
z
" transform="scale(0.015625)"/>
     <path id="DejaVuSans-Oblique-78" d="M 3841 3500 
L 2234 1784 
L 3219 0 
L 2559 0 
L 1819 1388 
L 531 0 
L -166 0 
L 1556 1844 
L 641 3500 
L 1300 3500 
L 1972 2234 
L 3144 3500 
L 3841 3500 
z
" transform="scale(0.015625)"/>
     <path id="DejaVuSans-39" d="M 703 97 
L 703 672 
Q 941 559 1184 500 
Q 1428 441 1663 441 
Q 2288 441 2617 861 
Q 2947 1281 2994 2138 
Q 2813 1869 2534 1725 
Q 2256 1581 1919 1581 
Q 1219 1581 811 2004 
Q 403 2428 403 3163 
Q 403 3881 828 4315 
Q 1253 4750 1959 4750 
Q 2769 4750 3195 4129 
Q 3622 3509 3622 2328 
Q 3622 1225 3098 567 
Q 2575 -91 1691 -91 
Q 1453 -91 1209 -44 
Q 966 3 703 97 
z
M 1959 2075 
Q 2384 2075 2632 2365 
Q 2881 2656 2881 3163 
Q 2881 3666 2632 3958 
Q 2384 4250 1959 4250 
Q 1534 4250 1286 3958 
Q 1038 3666 1038 3163 
Q 1038 2656 1286 2365 
Q 1534 2075 1959 2075 
z
" transform="scale(0.015625)"/>
    </defs>
    <use xlink:href="#DejaVuSans-Oblique-79" transform="translate(0 0.254687)"/>
    <use xlink:href="#DejaVuSans-3d" transform="translate(78.662109 0.254687)"/>
    <use xlink:href="#DejaVuSans-2212" transform="translate(181.933594 0.254687)"/>
    <use xlink:href="#DejaVuSans-36" transform="translate(265.722656 0.254687)"/>
    <use xlink:href="#DejaVuSans-2e" transform="translate(329.345703 0.254687)"/>
    <use xlink:href="#DejaVuSans-30" transform="translate(361.132812 0.254687)"/>
    <use xlink:href="#DejaVuSans-38" transform="translate(424.755859 0.254687)"/>
    <use xlink:href="#DejaVuSans-35" transform="translate(488.378906 0.254687)"/>
    <use xlink:href="#DejaVuSans-Oblique-65" transform="translate(552.001953 0.254687)"/>
    <use xlink:href="#DejaVuSans-2b" transform="translate(633.007812 0.254687)"/>
    <use xlink:href="#DejaVuSans-30" transform="translate(736.279297 0.254687)"/>
    <use xlink:href="#DejaVuSans-34" transform="translate(799.902344 0.254687)"/>
    <use xlink:href="#DejaVuSans-2b" transform="translate(883.007812 0.254687)"/>
    <use xlink:href="#DejaVuSans-35" transform="translate(986.279297 45.046875) scale(0.7)"/>
    <use xlink:href="#DejaVuSans-2e" transform="translate(1030.81543 45.046875) scale(0.7)"/>
    <use xlink:href="#DejaVuSans-36" transform="translate(1053.066406 45.046875) scale(0.7)"/>
    <use xlink:href="#DejaVuSans-30" transform="translate(1097.602539 45.046875) scale(0.7)"/>
    <use xlink:href="#DejaVuSans-31" transform="translate(1142.138672 45.046875) scale(0.7)"/>
    <use xlink:href="#DejaVuSans-Oblique-65" transform="translate(1186.674805 45.046875) scale(0.7)"/>
    <use xlink:href="#DejaVuSans-2b" transform="translate(1243.378906 45.046875) scale(0.7)"/>
    <use xlink:href="#DejaVuSans-30" transform="translate(1315.668945 45.046875) scale(0.7)"/>
    <use xlink:href="#DejaVuSans-38" transform="translate(1360.205078 45.046875) scale(0.7)"/>
    <use xlink:href="#DejaVuSans-2212" transform="translate(1418.378906 45.046875) scale(0.7)"/>
    <use xlink:href="#DejaVuSans-2212" transform="translate(1504.306641 45.046875) scale(0.7)"/>
    <use xlink:href="#DejaVuSans-36" transform="translate(1576.59668 45.046875) scale(0.7)"/>
    <use xlink:href="#DejaVuSans-2e" transform="translate(1621.132812 45.046875) scale(0.7)"/>
    <use xlink:href="#DejaVuSans-30" transform="translate(1643.383789 45.046875) scale(0.7)"/>
    <use xlink:href="#DejaVuSans-38" transform="translate(1687.919922 45.046875) scale(0.7)"/>
    <use xlink:href="#DejaVuSans-35" transform="translate(1732.456055 45.046875) scale(0.7)"/>
    <use xlink:href="#DejaVuSans-Oblique-65" transform="translate(1776.992188 45.046875) scale(0.7)"/>
    <use xlink:href="#DejaVuSans-2b" transform="translate(1833.696289 45.046875) scale(0.7)"/>
    <use xlink:href="#DejaVuSans-30" transform="translate(1905.986328 45.046875) scale(0.7)"/>
    <use xlink:href="#DejaVuSans-34" transform="translate(1950.522461 45.046875) scale(0.7)"/>
    <use xlink:href="#DejaVuSans-31" transform="translate(1233.279297 -50.3625) scale(0.7)"/>
    <use xlink:href="#DejaVuSans-2b" transform="translate(1291.453125 -50.3625) scale(0.7)"/>
    <use xlink:href="#DejaVuSans-28" transform="translate(1363.743164 -50.3625) scale(0.7)"/>
    <use xlink:href="#DejaVuSans-Oblique-78" transform="translate(1391.052734 -50.3625) scale(0.7)"/>
    <use xlink:href="#DejaVuSans-2f" transform="translate(1432.478516 -50.3625) scale(0.7)"/>
    <use xlink:href="#DejaVuSans-31" transform="translate(1456.0625 -50.3625) scale(0.7)"/>
    <use xlink:href="#DejaVuSans-2e" transform="translate(1500.598633 -50.3625) scale(0.7)"/>
    <use xlink:href="#DejaVuSans-34" transform="translate(1522.849609 -50.3625) scale(0.7)"/>
    <use xlink:href="#DejaVuSans-39" transform="translate(1567.385742 -50.3625) scale(0.7)"/>
    <use xlink:href="#DejaVuSans-32" transform="translate(1610.696875 -50.3625) scale(0.7)"/>
    <use xlink:href="#DejaVuSans-29" transform="translate(1655.233008 -50.3625) scale(0.7)"/>
    <use xlink:href="#DejaVuSans-32" transform="translate(1683.2125 -23.565625) scale(0.49)"/>
    <use xlink:href="#DejaVuSans-30" transform="translate(1714.387793 -23.565625) scale(0.49)"/>
    <path d="M 986.279297 19.051563 
L 986.279297 25.301563 
L 1995.058594 25.301563 
L 1995.058594 19.051563 
L 986.279297 19.051563 
z
"/>
   </g>
   <!-- $R^2$ = 0.9972 -->
   <g transform="translate(649.62 216.154266) scale(0.09 -0.09)">
    <defs>
     <path id="DejaVuSans-Oblique-52" d="M 1613 4147 
L 1294 2491 
L 2106 2491 
Q 2584 2491 2879 2755 
Q 3175 3019 3175 3444 
Q 3175 3784 2976 3965 
Q 2778 4147 2406 4147 
L 1613 4147 
z
M 2772 2241 
Q 2972 2194 3105 2009 
Q 3238 1825 3413 1275 
L 3809 0 
L 3144 0 
L 2778 1197 
Q 2638 1659 2453 1815 
Q 2269 1972 1888 1972 
L 1191 1972 
L 806 0 
L 172 0 
L 1081 4666 
L 2503 4666 
Q 3150 4666 3495 4373 
Q 3841 4081 3841 3531 
Q 3841 3044 3547 2687 
Q 3253 2331 2772 2241 
z
" transform="scale(0.015625)"/>
    </defs>
    <use xlink:href="#DejaVuSans-Oblique-52" transform="translate(0 0.765625)"/>
    <use xlink:href="#DejaVuSans-32" transform="translate(76.499193 39.046875) scale(0.7)"/>
    <use xlink:href="#DejaVuSans-20" transform="translate(123.769701 0.765625)"/>
    <use xlink:href="#DejaVuSans-3d" transform="translate(155.55681 0.765625)"/>
    <use xlink:href="#DejaVuSans-20" transform="translate(239.345872 0.765625)"/>
    <use xlink:href="#DejaVuSans-30" transform="translate(271.132982 0.765625)"/>
    <use xlink:href="#DejaVuSans-2e" transform="translate(334.756029 0.765625)"/>
    <use xlink:href="#DejaVuSans-39" transform="translate(366.543138 0.765625)"/>
    <use xlink:href="#DejaVuSans-39" transform="translate(430.166185 0.765625)"/>
    <use xlink:href="#DejaVuSans-37" transform="translate(493.789232 0.765625)"/>
    <use xlink:href="#DejaVuSans-32" transform="translate(557.412279 0.765625)"/>
   </g>
   <!-- AIC = 1234.02 -->
   <g transform="translate(640.02375 226.232297) scale(0.09 -0.09)">
    <use xlink:href="#DejaVuSans-41"/>
    <use xlink:href="#DejaVuSans-49" transform="translate(68.408203 0)"/>
    <use xlink:href="#DejaVuSans-43" transform="translate(97.900391 0)"/>
    <use xlink:href="#DejaVuSans-20" transform="translate(167.724609 0)"/>
    <use xlink:href="#DejaVuSans-3d" transform="translate(199.511719 0)"/>
    <use xlink:href="#DejaVuSans-20" transform="translate(283.300781 0)"/>
    <use xlink:href="#DejaVuSans-31" transform="translate(315.087891 0)"/>
    <use xlink:href="#DejaVuSans-32" transform="translate(378.710938 0)"/>
    <use xlink:href="#DejaVuSans-33" transform="translate(442.333984 0)"/>
    <use xlink:href="#DejaVuSans-34" transform="translate(505.957031 0)"/>
    <use xlink:href="#DejaVuSans-2e" transform="translate(569.580078 0)"/>
    <use xlink:href="#DejaVuSans-30" transform="translate(601.367188 0)"/>
    <use xlink:href="#DejaVuSans-32" transform="translate(664.990234 0)"/>
   </g>
   <!-- $EC_{50}$ ≈ 1.492 -->
   <g transform="translate(646.47 236.310328) scale(0.09 -0.09)">
    <defs>
     <path id="DejaVuSans-Oblique-45" d="M 1081 4666 
L 4031 4666 
L 3928 4134 
L 1606 4134 
L 1338 2753 
L 3566 2753 
L 3463 2222 
L 1234 2222 
L 909 531 
L 3284 531 
L 3181 0 
L 172 0 
L 1081 4666 
z
" transform="scale(0.015625)"/>
     <path id="DejaVuSans-Oblique-43" d="M 4447 4306 
L 4319 3641 
Q 4019 3944 3683 4091 
Q 3347 4238 2956 4238 
Q 2422 4238 2017 3981 
Q 1613 3725 1319 3200 
Q 1131 2863 1032 2486 
Q 934 2109 934 1728 
Q 934 1091 1264 756 
Q 1594 422 2222 422 
Q 2656 422 3056 561 
Q 3456 700 3834 978 
L 3688 231 
Q 3316 72 2936 -9 
Q 2556 -91 2175 -91 
Q 1278 -91 773 396 
Q 269 884 269 1753 
Q 269 2309 461 2846 
Q 653 3384 1013 3828 
Q 1394 4300 1883 4525 
Q 2372 4750 3022 4750 
Q 3422 4750 3780 4639 
Q 4138 4528 4447 4306 
z
" transform="scale(0.015625)"/>
     <path id="DejaVuSans-2248" d="M 4684 1947 
L 4684 1388 
Q 4356 1144 4076 1036 
Q 3797 928 3494 928 
Q 3150 928 2694 1113 
Q 2663 1125 2641 1134 
Q 2622 1141 2575 1159 
Q 2091 1350 1797 1350 
Q 1522 1350 1253 1231 
Q 984 1113 678 850 
L 678 1409 
Q 1006 1653 1286 1761 
Q 1566 1869 1869 1869 
Q 2213 1869 2672 1684 
Q 2706 1669 2722 1663 
Q 2741 1656 2788 1638 
Q 3272 1447 3566 1447 
Q 3834 1447 4098 1564 
Q 4363 1681 4684 1947 
z
M 4684 3163 
L 4684 2606 
Q 4356 2359 4076 2251 
Q 3797 2144 3494 2144 
Q 3150 2144 2694 2328 
Q 2663 2341 2641 2350 
Q 2622 2356 2575 2375 
Q 2091 2566 1797 2566 
Q 1522 2566 1253 2447 
Q 984 2328 678 2069 
L 678 2625 
Q 1006 2869 1286 2976 
Q 1566 3084 1869 3084 
Q 2213 3084 2672 2900 
Q 2703 2888 2719 2881 
Q 2741 2872 2788 2853 
Q 3272 2663 3566 2663 
Q 3834 2663 4098 2780 
Q 4363 2897 4684 3163 
z
" transform="scale(0.015625)"/>
    </defs>
    <use xlink:href="#DejaVuSans-Oblique-45" transform="translate(0 0.78125)"/>
    <use xlink:href="#DejaVuSans-Oblique-43" transform="translate(63.183594 0.78125)"/>
    <use xlink:href="#DejaVuSans-35" transform="translate(133.007812 -15.625) scale(0.7)"/>
    <use xlink:href="#DejaVuSans-30" transform="translate(177.543945 -15.625) scale(0.7)"/>
    <use xlink:href="#DejaVuSans-20" transform="translate(224.814453 0.78125)"/>
    <use xlink:href="#DejaVuSans-2248" transform="translate(256.601562 0.78125)"/>
    <use xlink:href="#DejaVuSans-20" transform="translate(340.390625 0.78125)"/>
    <use xlink:href="#DejaVuSans-31" transform="translate(372.177734 0.78125)"/>
    <use xlink:href="#DejaVuSans-2e" transform="translate(435.800781 0.78125)"/>
    <use xlink:href="#DejaVuSans-34" transform="translate(467.587891 0.78125)"/>
    <use xlink:href="#DejaVuSans-39" transform="translate(531.210938 0.78125)"/>
    <use xlink:href="#DejaVuSans-32" transform="translate(593.083984 0.78125)"/>
   </g>
  </g>
  <g id="legend_1">
   <g id="patch_8">
    <path d="M 635.239063 102.578125 
L 698.6 102.578125 
Q 700.6 102.578125 700.6 100.578125 
L 700.6 72.221875 
Q 700.6 70.221875 698.6 70.221875 
L 635.239063 70.221875 
Q 633.239063 70.221875 633.239063 72.221875 
L 633.239063 100.578125 
Q 633.239063 102.578125 635.239063 102.578125 
z
" style="fill: #ffffff; opacity: 0.8; stroke: #cccccc; stroke-linejoin: miter"/>
   </g>
   <g id="line2d_31">
    <g>
     <use xlink:href="#m3ed40cf580" x="647.239063" y="78.320312" style="fill: #1f77b4; stroke: #1f77b4"/>
    </g>
   </g>
   <g id="text_20">
    <!-- Data -->
    <g transform="translate(665.239063 81.820312) scale(0.1 -0.1)">
     <defs>
      <path id="DejaVuSans-44" d="M 1259 4147 
L 1259 519 
L 2022 519 
Q 2988 519 3436 956 
Q 3884 1394 3884 2338 
Q 3884 3275 3436 3711 
Q 2988 4147 2022 4147 
L 1259 4147 
z
M 628 4666 
L 1925 4666 
Q 3281 4666 3915 4102 
Q 4550 3538 4550 2338 
Q 4550 1131 3912 565 
Q 3275 0 1925 0 
L 628 0 
L 628 4666 
z
" transform="scale(0.015625)"/>
      <path id="DejaVuSans-61" d="M 2194 1759 
Q 1497 1759 1228 1600 
Q 959 1441 959 1056 
Q 959 750 1161 570 
Q 1363 391 1709 391 
Q 2188 391 2477 730 
Q 2766 1069 2766 1631 
L 2766 1759 
L 2194 1759 
z
M 3341 1997 
L 3341 0 
L 2766 0 
L 2766 531 
Q 2569 213 2275 61 
Q 1981 -91 1556 -91 
Q 1019 -91 701 211 
Q 384 513 384 1019 
Q 384 1609 779 1909 
Q 1175 2209 1959 2209 
L 2766 2209 
L 2766 2266 
Q 2766 2663 2505 2880 
Q 2244 3097 1772 3097 
Q 1472 3097 1187 3025 
Q 903 2953 641 2809 
L 641 3341 
Q 956 3463 1253 3523 
Q 1550 3584 1831 3584 
Q 2591 3584 2966 3190 
Q 3341 2797 3341 1997 
z
" transform="scale(0.015625)"/>
     </defs>
     <use xlink:href="#DejaVuSans-44"/>
     <use xlink:href="#DejaVuSans-61" transform="translate(77.001953 0)"/>
     <use xlink:href="#DejaVuSans-74" transform="translate(138.28125 0)"/>
     <use xlink:href="#DejaVuSans-61" transform="translate(177.490234 0)"/>
    </g>
   </g>
   <g id="line2d_32">
    <path d="M 637.239063 92.998438 
L 647.239063 92.998438 
L 657.239063 92.998438 
" style="fill: none; stroke: #ff7f0e; stroke-width: 1.5; stroke-linecap: square"/>
   </g>
   <g id="text_21">
    <!-- 4PL fit -->
    <g transform="translate(665.239063 96.498438) scale(0.1 -0.1)">
     <defs>
      <path id="DejaVuSans-50" d="M 1259 4147 
L 1259 2394 
L 2053 2394 
Q 2494 2394 2734 2622 
Q 2975 2850 2975 3272 
Q 2975 3691 2734 3919 
Q 2494 4147 2053 4147 
L 1259 4147 
z
M 628 4666 
L 2053 4666 
Q 2838 4666 3239 4311 
Q 3641 3956 3641 3272 
Q 3641 2581 3239 2228 
Q 2838 1875 2053 1875 
L 1259 1875 
L 1259 0 
L 628 0 
L 628 4666 
z
" transform="scale(0.015625)"/>
      <path id="DejaVuSans-4c" d="M 628 4666 
L 1259 4666 
L 1259 531 
L 3531 531 
L 3531 0 
L 628 0 
L 628 4666 
z
" transform="scale(0.015625)"/>
      <path id="DejaVuSans-66" d="M 2375 4863 
L 2375 4384 
L 1825 4384 
Q 1516 4384 1395 4259 
Q 1275 4134 1275 3809 
L 1275 3500 
L 2222 3500 
L 2222 3053 
L 1275 3053 
L 1275 0 
L 697 0 
L 697 3053 
L 147 3053 
L 147 3500 
L 697 3500 
L 697 3744 
Q 697 4328 969 4595 
Q 1241 4863 1831 4863 
L 2375 4863 
z
" transform="scale(0.015625)"/>
     </defs>
     <use xlink:href="#DejaVuSans-34"/>
     <use xlink:href="#DejaVuSans-50" transform="translate(63.623047 0)"/>
     <use xlink:href="#DejaVuSans-4c" transform="translate(123.925781 0)"/>
     <use xlink:href="#DejaVuSans-20" transform="translate(179.638672 0)"/>
     <use xlink:href="#DejaVuSans-66" transform="translate(211.425781 0)"/>
     <use xlink:href="#DejaVuSans-69" transform="translate(246.630859 0)"/>
     <use xlink:href="#DejaVuSans-74" transform="translate(274.414062 0)"/>
    </g>
   </g>
  </g>
 </g>
 <defs>
  <clipPath id="pc6cb151a3c">
   <rect x="86.4" y="51.84" width="381.6" height="332.64"/>
  </clipPath>
 </defs>
</svg>
