<?xml version="1.0" encoding="utf-8" standalone="no"?>
<!DOCTYPE svg PUBLIC "-//W3C//DTD SVG 1.1//EN"
  "http://www.w3.org/Graphics/SVG/1.1/DTD/svg11.dtd">
<svg xmlns:xlink="http://www.w3.org/1999/xlink" width="720pt" height="432pt" viewBox="0 0 720 432" xmlns="http://www.w3.org/2000/svg" version="1.1">
 <metadata>
  <rdf:RDF xmlns:dc="http://purl.org/dc/elements/1.1/" xmlns:cc="http://creativecommons.org/ns#" xmlns:rdf="http://www.w3.org/1999/02/22-rdf-syntax-ns#">
   <cc:Work>
    <dc:type rdf:resource="http://purl.org/dc/dcmitype/StillImage"/>
    <dc:date>2025-08-29T23:24:18.986469</dc:date>
    <dc:format>image/svg+xml</dc:format>
    <dc:creator>
     <cc:Agent>
      <dc:title>Matplotlib v3.10.1, https://matplotlib.org/</dc:title>
     </cc:Agent>
    </dc:creator>
   </cc:Work>
  </rdf:RDF>
 </metadata>
 <defs>
  <style type="text/css">*{stroke-linejoin: round; stroke-linecap: butt}</style>
 </defs>
 <g id="figure_1">
  <g id="patch_1">
   <path d="M 0 432 
L 720 432 
L 720 0 
L 0 0 
z
" style="fill: #ffffff"/>
  </g>
  <g id="axes_1">
   <g id="patch_2">
    <path d="M 51.05 387.592 
L 605.2 387.592 
L 605.2 10.8 
L 51.05 10.8 
z
" style="fill: #ffffff"/>
   </g>
   <g id="matplotlib.axis_1">
    <g id="xtick_1">
     <g id="line2d_1">
      <path d="M 108.028858 387.592 
L 108.028858 10.8 
" clip-path="url(#pf03cc75ea3)" style="fill: none; stroke: #b0b0b0; stroke-width: 0.8; stroke-linecap: square"/>
     </g>
     <g id="line2d_2">
      <defs>
       <path id="m87a8d3c415" d="M 0 0 
L 0 3.5 
" style="stroke: #000000; stroke-width: 0.8"/>
      </defs>
      <g>
       <use xlink:href="#m87a8d3c415" x="108.028858" y="387.592" style="stroke: #000000; stroke-width: 0.8"/>
      </g>
     </g>
     <g id="text_1">
      <!-- 0.8 -->
      <g transform="translate(100.077296 402.190438) scale(0.1 -0.1)">
       <defs>
        <path id="DejaVuSans-30" d="M 2034 4250 
Q 1547 4250 1301 3770 
Q 1056 3291 1056 2328 
Q 1056 1369 1301 889 
Q 1547 409 2034 409 
Q 2525 409 2770 889 
Q 3016 1369 3016 2328 
Q 3016 3291 2770 3770 
Q 2525 4250 2034 4250 
z
M 2034 4750 
Q 2819 4750 3233 4129 
Q 3647 3509 3647 2328 
Q 3647 1150 3233 529 
Q 2819 -91 2034 -91 
Q 1250 -91 836 529 
Q 422 1150 422 2328 
Q 422 3509 836 4129 
Q 1250 4750 2034 4750 
z
" transform="scale(0.015625)"/>
        <path id="DejaVuSans-2e" d="M 684 794 
L 1344 794 
L 1344 0 
L 684 0 
L 684 794 
z
" transform="scale(0.015625)"/>
        <path id="DejaVuSans-38" d="M 2034 2216 
Q 1584 2216 1326 1975 
Q 1069 1734 1069 1313 
Q 1069 891 1326 650 
Q 1584 409 2034 409 
Q 2484 409 2743 651 
Q 3003 894 3003 1313 
Q 3003 1734 2745 1975 
Q 2488 2216 2034 2216 
z
M 1403 2484 
Q 997 2584 770 2862 
Q 544 3141 544 3541 
Q 544 4100 942 4425 
Q 1341 4750 2034 4750 
Q 2731 4750 3128 4425 
Q 3525 4100 3525 3541 
Q 3525 3141 3298 2862 
Q 3072 2584 2669 2484 
Q 3125 2378 3379 2068 
Q 3634 1759 3634 1313 
Q 3634 634 3220 271 
Q 2806 -91 2034 -91 
Q 1263 -91 848 271 
Q 434 634 434 1313 
Q 434 1759 690 2068 
Q 947 2378 1403 2484 
z
M 1172 3481 
Q 1172 3119 1398 2916 
Q 1625 2713 2034 2713 
Q 2441 2713 2670 2916 
Q 2900 3119 2900 3481 
Q 2900 3844 2670 4047 
Q 2441 4250 2034 4250 
Q 1625 4250 1398 4047 
Q 1172 3844 1172 3481 
z
" transform="scale(0.015625)"/>
       </defs>
       <use xlink:href="#DejaVuSans-30"/>
       <use xlink:href="#DejaVuSans-2e" transform="translate(63.623047 0)"/>
       <use xlink:href="#DejaVuSans-38" transform="translate(95.410156 0)"/>
      </g>
     </g>
    </g>
    <g id="xtick_2">
     <g id="line2d_3">
      <path d="M 192.223732 387.592 
L 192.223732 10.8 
" clip-path="url(#pf03cc75ea3)" style="fill: none; stroke: #b0b0b0; stroke-width: 0.8; stroke-linecap: square"/>
     </g>
     <g id="line2d_4">
      <g>
       <use xlink:href="#m87a8d3c415" x="192.223732" y="387.592" style="stroke: #000000; stroke-width: 0.8"/>
      </g>
     </g>
     <g id="text_2">
      <!-- 1.0 -->
      <g transform="translate(184.272169 402.190438) scale(0.1 -0.1)">
       <defs>
        <path id="DejaVuSans-31" d="M 794 531 
L 1825 531 
L 1825 4091 
L 703 3866 
L 703 4441 
L 1819 4666 
L 2450 4666 
L 2450 531 
L 3481 531 
L 3481 0 
L 794 0 
L 794 531 
z
" transform="scale(0.015625)"/>
       </defs>
       <use xlink:href="#DejaVuSans-31"/>
       <use xlink:href="#DejaVuSans-2e" transform="translate(63.623047 0)"/>
       <use xlink:href="#DejaVuSans-30" transform="translate(95.410156 0)"/>
      </g>
     </g>
    </g>
    <g id="xtick_3">
     <g id="line2d_5">
      <path d="M 276.418605 387.592 
L 276.418605 10.8 
" clip-path="url(#pf03cc75ea3)" style="fill: none; stroke: #b0b0b0; stroke-width: 0.8; stroke-linecap: square"/>
     </g>
     <g id="line2d_6">
      <g>
       <use xlink:href="#m87a8d3c415" x="276.418605" y="387.592" style="stroke: #000000; stroke-width: 0.8"/>
      </g>
     </g>
     <g id="text_3">
      <!-- 1.2 -->
      <g transform="translate(268.467043 402.190438) scale(0.1 -0.1)">
       <defs>
        <path id="DejaVuSans-32" d="M 1228 531 
L 3431 531 
L 3431 0 
L 469 0 
L 469 531 
Q 828 903 1448 1529 
Q 2069 2156 2228 2338 
Q 2531 2678 2651 2914 
Q 2772 3150 2772 3378 
Q 2772 3750 2511 3984 
Q 2250 4219 1831 4219 
Q 1534 4219 1204 4116 
Q 875 4013 500 3803 
L 500 4441 
Q 881 4594 1212 4672 
Q 1544 4750 1819 4750 
Q 2544 4750 2975 4387 
Q 3406 4025 3406 3419 
Q 3406 3131 3298 2873 
Q 3191 2616 2906 2266 
Q 2828 2175 2409 1742 
Q 1991 1309 1228 531 
z
" transform="scale(0.015625)"/>
       </defs>
       <use xlink:href="#DejaVuSans-31"/>
       <use xlink:href="#DejaVuSans-2e" transform="translate(63.623047 0)"/>
       <use xlink:href="#DejaVuSans-32" transform="translate(95.410156 0)"/>
      </g>
     </g>
    </g>
    <g id="xtick_4">
     <g id="line2d_7">
      <path d="M 360.613479 387.592 
L 360.613479 10.8 
" clip-path="url(#pf03cc75ea3)" style="fill: none; stroke: #b0b0b0; stroke-width: 0.8; stroke-linecap: square"/>
     </g>
     <g id="line2d_8">
      <g>
       <use xlink:href="#m87a8d3c415" x="360.613479" y="387.592" style="stroke: #000000; stroke-width: 0.8"/>
      </g>
     </g>
     <g id="text_4">
      <!-- 1.4 -->
      <g transform="translate(352.661916 402.190438) scale(0.1 -0.1)">
       <defs>
        <path id="DejaVuSans-34" d="M 2419 4116 
L 825 1625 
L 2419 1625 
L 2419 4116 
z
M 2253 4666 
L 3047 4666 
L 3047 1625 
L 3713 1625 
L 3713 1100 
L 3047 1100 
L 3047 0 
L 2419 0 
L 2419 1100 
L 313 1100 
L 313 1709 
L 2253 4666 
z
" transform="scale(0.015625)"/>
       </defs>
       <use xlink:href="#DejaVuSans-31"/>
       <use xlink:href="#DejaVuSans-2e" transform="translate(63.623047 0)"/>
       <use xlink:href="#DejaVuSans-34" transform="translate(95.410156 0)"/>
      </g>
     </g>
    </g>
    <g id="xtick_5">
     <g id="line2d_9">
      <path d="M 444.808352 387.592 
L 444.808352 10.8 
" clip-path="url(#pf03cc75ea3)" style="fill: none; stroke: #b0b0b0; stroke-width: 0.8; stroke-linecap: square"/>
     </g>
     <g id="line2d_10">
      <g>
       <use xlink:href="#m87a8d3c415" x="444.808352" y="387.592" style="stroke: #000000; stroke-width: 0.8"/>
      </g>
     </g>
     <g id="text_5">
      <!-- 1.6 -->
      <g transform="translate(436.85679 402.190438) scale(0.1 -0.1)">
       <defs>
        <path id="DejaVuSans-36" d="M 2113 2584 
Q 1688 2584 1439 2293 
Q 1191 2003 1191 1497 
Q 1191 994 1439 701 
Q 1688 409 2113 409 
Q 2538 409 2786 701 
Q 3034 994 3034 1497 
Q 3034 2003 2786 2293 
Q 2538 2584 2113 2584 
z
M 3366 4563 
L 3366 3988 
Q 3128 4100 2886 4159 
Q 2644 4219 2406 4219 
Q 1781 4219 1451 3797 
Q 1122 3375 1075 2522 
Q 1259 2794 1537 2939 
Q 1816 3084 2150 3084 
Q 2853 3084 3261 2657 
Q 3669 2231 3669 1497 
Q 3669 778 3244 343 
Q 2819 -91 2113 -91 
Q 1303 -91 875 529 
Q 447 1150 447 2328 
Q 447 3434 972 4092 
Q 1497 4750 2381 4750 
Q 2619 4750 2861 4703 
Q 3103 4656 3366 4563 
z
" transform="scale(0.015625)"/>
       </defs>
       <use xlink:href="#DejaVuSans-31"/>
       <use xlink:href="#DejaVuSans-2e" transform="translate(63.623047 0)"/>
       <use xlink:href="#DejaVuSans-36" transform="translate(95.410156 0)"/>
      </g>
     </g>
    </g>
    <g id="xtick_6">
     <g id="line2d_11">
      <path d="M 529.003226 387.592 
L 529.003226 10.8 
" clip-path="url(#pf03cc75ea3)" style="fill: none; stroke: #b0b0b0; stroke-width: 0.8; stroke-linecap: square"/>
     </g>
     <g id="line2d_12">
      <g>
       <use xlink:href="#m87a8d3c415" x="529.003226" y="387.592" style="stroke: #000000; stroke-width: 0.8"/>
      </g>
     </g>
     <g id="text_6">
      <!-- 1.8 -->
      <g transform="translate(521.051663 402.190438) scale(0.1 -0.1)">
       <use xlink:href="#DejaVuSans-31"/>
       <use xlink:href="#DejaVuSans-2e" transform="translate(63.623047 0)"/>
       <use xlink:href="#DejaVuSans-38" transform="translate(95.410156 0)"/>
      </g>
     </g>
    </g>
    <g id="text_7">
     <!-- CE$_{\mathrm{COM}}$ (eV) -->
     <g transform="translate(301.075 415.868562) scale(0.1 -0.1)">
      <defs>
       <path id="DejaVuSans-43" d="M 4122 4306 
L 4122 3641 
Q 3803 3938 3442 4084 
Q 3081 4231 2675 4231 
Q 1875 4231 1450 3742 
Q 1025 3253 1025 2328 
Q 1025 1406 1450 917 
Q 1875 428 2675 428 
Q 3081 428 3442 575 
Q 3803 722 4122 1019 
L 4122 359 
Q 3791 134 3420 21 
Q 3050 -91 2638 -91 
Q 1578 -91 968 557 
Q 359 1206 359 2328 
Q 359 3453 968 4101 
Q 1578 4750 2638 4750 
Q 3056 4750 3426 4639 
Q 3797 4528 4122 4306 
z
" transform="scale(0.015625)"/>
       <path id="DejaVuSans-45" d="M 628 4666 
L 3578 4666 
L 3578 4134 
L 1259 4134 
L 1259 2753 
L 3481 2753 
L 3481 2222 
L 1259 2222 
L 1259 531 
L 3634 531 
L 3634 0 
L 628 0 
L 628 4666 
z
" transform="scale(0.015625)"/>
       <path id="DejaVuSans-4f" d="M 2522 4238 
Q 1834 4238 1429 3725 
Q 1025 3213 1025 2328 
Q 1025 1447 1429 934 
Q 1834 422 2522 422 
Q 3209 422 3611 934 
Q 4013 1447 4013 2328 
Q 4013 3213 3611 3725 
Q 3209 4238 2522 4238 
z
M 2522 4750 
Q 3503 4750 4090 4092 
Q 4678 3434 4678 2328 
Q 4678 1225 4090 567 
Q 3503 -91 2522 -91 
Q 1538 -91 948 565 
Q 359 1222 359 2328 
Q 359 3434 948 4092 
Q 1538 4750 2522 4750 
z
" transform="scale(0.015625)"/>
       <path id="DejaVuSans-4d" d="M 628 4666 
L 1569 4666 
L 2759 1491 
L 3956 4666 
L 4897 4666 
L 4897 0 
L 4281 0 
L 4281 4097 
L 3078 897 
L 2444 897 
L 1241 4097 
L 1241 0 
L 628 0 
L 628 4666 
z
" transform="scale(0.015625)"/>
       <path id="DejaVuSans-20" transform="scale(0.015625)"/>
       <path id="DejaVuSans-28" d="M 1984 4856 
Q 1566 4138 1362 3434 
Q 1159 2731 1159 2009 
Q 1159 1288 1364 580 
Q 1569 -128 1984 -844 
L 1484 -844 
Q 1016 -109 783 600 
Q 550 1309 550 2009 
Q 550 2706 781 3412 
Q 1013 4119 1484 4856 
L 1984 4856 
z
" transform="scale(0.015625)"/>
       <path id="DejaVuSans-65" d="M 3597 1894 
L 3597 1613 
L 953 1613 
Q 991 1019 1311 708 
Q 1631 397 2203 397 
Q 2534 397 2845 478 
Q 3156 559 3463 722 
L 3463 178 
Q 3153 47 2828 -22 
Q 2503 -91 2169 -91 
Q 1331 -91 842 396 
Q 353 884 353 1716 
Q 353 2575 817 3079 
Q 1281 3584 2069 3584 
Q 2775 3584 3186 3129 
Q 3597 2675 3597 1894 
z
M 3022 2063 
Q 3016 2534 2758 2815 
Q 2500 3097 2075 3097 
Q 1594 3097 1305 2825 
Q 1016 2553 972 2059 
L 3022 2063 
z
" transform="scale(0.015625)"/>
       <path id="DejaVuSans-56" d="M 1831 0 
L 50 4666 
L 709 4666 
L 2188 738 
L 3669 4666 
L 4325 4666 
L 2547 0 
L 1831 0 
z
" transform="scale(0.015625)"/>
       <path id="DejaVuSans-29" d="M 513 4856 
L 1013 4856 
Q 1481 4119 1714 3412 
Q 1947 2706 1947 2009 
Q 1947 1309 1714 600 
Q 1481 -109 1013 -844 
L 513 -844 
Q 928 -128 1133 580 
Q 1338 1288 1338 2009 
Q 1338 2731 1133 3434 
Q 928 4138 513 4856 
z
" transform="scale(0.015625)"/>
      </defs>
      <use xlink:href="#DejaVuSans-43" transform="translate(0 0.125)"/>
      <use xlink:href="#DejaVuSans-45" transform="translate(69.824219 0.125)"/>
      <use xlink:href="#DejaVuSans-43" transform="translate(133.964844 -16.28125) scale(0.7)"/>
      <use xlink:href="#DejaVuSans-4f" transform="translate(182.841797 -16.28125) scale(0.7)"/>
      <use xlink:href="#DejaVuSans-4d" transform="translate(237.939453 -16.28125) scale(0.7)"/>
      <use xlink:href="#DejaVuSans-20" transform="translate(301.069336 0.125)"/>
      <use xlink:href="#DejaVuSans-28" transform="translate(332.856445 0.125)"/>
      <use xlink:href="#DejaVuSans-65" transform="translate(371.870117 0.125)"/>
      <use xlink:href="#DejaVuSans-56" transform="translate(433.393555 0.125)"/>
      <use xlink:href="#DejaVuSans-29" transform="translate(501.801758 0.125)"/>
     </g>
    </g>
   </g>
   <g id="matplotlib.axis_2">
    <g id="ytick_1">
     <g id="line2d_13">
      <path d="M 51.05 370.465091 
L 605.2 370.465091 
" clip-path="url(#pf03cc75ea3)" style="fill: none; stroke: #b0b0b0; stroke-width: 0.8; stroke-linecap: square"/>
     </g>
     <g id="line2d_14">
      <defs>
       <path id="m6115eba035" d="M 0 0 
L -3.5 0 
" style="stroke: #000000; stroke-width: 0.8"/>
      </defs>
      <g>
       <use xlink:href="#m6115eba035" x="51.05" y="370.465091" style="stroke: #000000; stroke-width: 0.8"/>
      </g>
     </g>
     <g id="text_8">
      <!-- 0 -->
      <g transform="translate(37.6875 374.26431) scale(0.1 -0.1)">
       <use xlink:href="#DejaVuSans-30"/>
      </g>
     </g>
    </g>
    <g id="ytick_2">
     <g id="line2d_15">
      <path d="M 51.05 301.957455 
L 605.2 301.957455 
" clip-path="url(#pf03cc75ea3)" style="fill: none; stroke: #b0b0b0; stroke-width: 0.8; stroke-linecap: square"/>
     </g>
     <g id="line2d_16">
      <g>
       <use xlink:href="#m6115eba035" x="51.05" y="301.957455" style="stroke: #000000; stroke-width: 0.8"/>
      </g>
     </g>
     <g id="text_9">
      <!-- 20 -->
      <g transform="translate(31.325 305.756673) scale(0.1 -0.1)">
       <use xlink:href="#DejaVuSans-32"/>
       <use xlink:href="#DejaVuSans-30" transform="translate(63.623047 0)"/>
      </g>
     </g>
    </g>
    <g id="ytick_3">
     <g id="line2d_17">
      <path d="M 51.05 233.449818 
L 605.2 233.449818 
" clip-path="url(#pf03cc75ea3)" style="fill: none; stroke: #b0b0b0; stroke-width: 0.8; stroke-linecap: square"/>
     </g>
     <g id="line2d_18">
      <g>
       <use xlink:href="#m6115eba035" x="51.05" y="233.449818" style="stroke: #000000; stroke-width: 0.8"/>
      </g>
     </g>
     <g id="text_10">
      <!-- 40 -->
      <g transform="translate(31.325 237.249037) scale(0.1 -0.1)">
       <use xlink:href="#DejaVuSans-34"/>
       <use xlink:href="#DejaVuSans-30" transform="translate(63.623047 0)"/>
      </g>
     </g>
    </g>
    <g id="ytick_4">
     <g id="line2d_19">
      <path d="M 51.05 164.942182 
L 605.2 164.942182 
" clip-path="url(#pf03cc75ea3)" style="fill: none; stroke: #b0b0b0; stroke-width: 0.8; stroke-linecap: square"/>
     </g>
     <g id="line2d_20">
      <g>
       <use xlink:href="#m6115eba035" x="51.05" y="164.942182" style="stroke: #000000; stroke-width: 0.8"/>
      </g>
     </g>
     <g id="text_11">
      <!-- 60 -->
      <g transform="translate(31.325 168.741401) scale(0.1 -0.1)">
       <use xlink:href="#DejaVuSans-36"/>
       <use xlink:href="#DejaVuSans-30" transform="translate(63.623047 0)"/>
      </g>
     </g>
    </g>
    <g id="ytick_5">
     <g id="line2d_21">
      <path d="M 51.05 96.434545 
L 605.2 96.434545 
" clip-path="url(#pf03cc75ea3)" style="fill: none; stroke: #b0b0b0; stroke-width: 0.8; stroke-linecap: square"/>
     </g>
     <g id="line2d_22">
      <g>
       <use xlink:href="#m6115eba035" x="51.05" y="96.434545" style="stroke: #000000; stroke-width: 0.8"/>
      </g>
     </g>
     <g id="text_12">
      <!-- 80 -->
      <g transform="translate(31.325 100.233764) scale(0.1 -0.1)">
       <use xlink:href="#DejaVuSans-38"/>
       <use xlink:href="#DejaVuSans-30" transform="translate(63.623047 0)"/>
      </g>
     </g>
    </g>
    <g id="ytick_6">
     <g id="line2d_23">
      <path d="M 51.05 27.926909 
L 605.2 27.926909 
" clip-path="url(#pf03cc75ea3)" style="fill: none; stroke: #b0b0b0; stroke-width: 0.8; stroke-linecap: square"/>
     </g>
     <g id="line2d_24">
      <g>
       <use xlink:href="#m6115eba035" x="51.05" y="27.926909" style="stroke: #000000; stroke-width: 0.8"/>
      </g>
     </g>
     <g id="text_13">
      <!-- 100 -->
      <g transform="translate(24.9625 31.726128) scale(0.1 -0.1)">
       <use xlink:href="#DejaVuSans-31"/>
       <use xlink:href="#DejaVuSans-30" transform="translate(63.623047 0)"/>
       <use xlink:href="#DejaVuSans-30" transform="translate(127.246094 0)"/>
      </g>
     </g>
    </g>
    <g id="text_14">
     <!-- Intensity (Relative) -->
     <g transform="translate(18.882812 246.613188) rotate(-90) scale(0.1 -0.1)">
      <defs>
       <path id="DejaVuSans-49" d="M 628 4666 
L 1259 4666 
L 1259 0 
L 628 0 
L 628 4666 
z
" transform="scale(0.015625)"/>
       <path id="DejaVuSans-6e" d="M 3513 2113 
L 3513 0 
L 2938 0 
L 2938 2094 
Q 2938 2591 2744 2837 
Q 2550 3084 2163 3084 
Q 1697 3084 1428 2787 
Q 1159 2491 1159 1978 
L 1159 0 
L 581 0 
L 581 3500 
L 1159 3500 
L 1159 2956 
Q 1366 3272 1645 3428 
Q 1925 3584 2291 3584 
Q 2894 3584 3203 3211 
Q 3513 2838 3513 2113 
z
" transform="scale(0.015625)"/>
       <path id="DejaVuSans-74" d="M 1172 4494 
L 1172 3500 
L 2356 3500 
L 2356 3053 
L 1172 3053 
L 1172 1153 
Q 1172 725 1289 603 
Q 1406 481 1766 481 
L 2356 481 
L 2356 0 
L 1766 0 
Q 1100 0 847 248 
Q 594 497 594 1153 
L 594 3053 
L 172 3053 
L 172 3500 
L 594 3500 
L 594 4494 
L 1172 4494 
z
" transform="scale(0.015625)"/>
       <path id="DejaVuSans-73" d="M 2834 3397 
L 2834 2853 
Q 2591 2978 2328 3040 
Q 2066 3103 1784 3103 
Q 1356 3103 1142 2972 
Q 928 2841 928 2578 
Q 928 2378 1081 2264 
Q 1234 2150 1697 2047 
L 1894 2003 
Q 2506 1872 2764 1633 
Q 3022 1394 3022 966 
Q 3022 478 2636 193 
Q 2250 -91 1575 -91 
Q 1294 -91 989 -36 
Q 684 19 347 128 
L 347 722 
Q 666 556 975 473 
Q 1284 391 1588 391 
Q 1994 391 2212 530 
Q 2431 669 2431 922 
Q 2431 1156 2273 1281 
Q 2116 1406 1581 1522 
L 1381 1569 
Q 847 1681 609 1914 
Q 372 2147 372 2553 
Q 372 3047 722 3315 
Q 1072 3584 1716 3584 
Q 2034 3584 2315 3537 
Q 2597 3491 2834 3397 
z
" transform="scale(0.015625)"/>
       <path id="DejaVuSans-69" d="M 603 3500 
L 1178 3500 
L 1178 0 
L 603 0 
L 603 3500 
z
M 603 4863 
L 1178 4863 
L 1178 4134 
L 603 4134 
L 603 4863 
z
" transform="scale(0.015625)"/>
       <path id="DejaVuSans-79" d="M 2059 -325 
Q 1816 -950 1584 -1140 
Q 1353 -1331 966 -1331 
L 506 -1331 
L 506 -850 
L 844 -850 
Q 1081 -850 1212 -737 
Q 1344 -625 1503 -206 
L 1606 56 
L 191 3500 
L 800 3500 
L 1894 763 
L 2988 3500 
L 3597 3500 
L 2059 -325 
z
" transform="scale(0.015625)"/>
       <path id="DejaVuSans-52" d="M 2841 2188 
Q 3044 2119 3236 1894 
Q 3428 1669 3622 1275 
L 4263 0 
L 3584 0 
L 2988 1197 
Q 2756 1666 2539 1819 
Q 2322 1972 1947 1972 
L 1259 1972 
L 1259 0 
L 628 0 
L 628 4666 
L 2053 4666 
Q 2853 4666 3247 4331 
Q 3641 3997 3641 3322 
Q 3641 2881 3436 2590 
Q 3231 2300 2841 2188 
z
M 1259 4147 
L 1259 2491 
L 2053 2491 
Q 2509 2491 2742 2702 
Q 2975 2913 2975 3322 
Q 2975 3731 2742 3939 
Q 2509 4147 2053 4147 
L 1259 4147 
z
" transform="scale(0.015625)"/>
       <path id="DejaVuSans-6c" d="M 603 4863 
L 1178 4863 
L 1178 0 
L 603 0 
L 603 4863 
z
" transform="scale(0.015625)"/>
       <path id="DejaVuSans-61" d="M 2194 1759 
Q 1497 1759 1228 1600 
Q 959 1441 959 1056 
Q 959 750 1161 570 
Q 1363 391 1709 391 
Q 2188 391 2477 730 
Q 2766 1069 2766 1631 
L 2766 1759 
L 2194 1759 
z
M 3341 1997 
L 3341 0 
L 2766 0 
L 2766 531 
Q 2569 213 2275 61 
Q 1981 -91 1556 -91 
Q 1019 -91 701 211 
Q 384 513 384 1019 
Q 384 1609 779 1909 
Q 1175 2209 1959 2209 
L 2766 2209 
L 2766 2266 
Q 2766 2663 2505 2880 
Q 2244 3097 1772 3097 
Q 1472 3097 1187 3025 
Q 903 2953 641 2809 
L 641 3341 
Q 956 3463 1253 3523 
Q 1550 3584 1831 3584 
Q 2591 3584 2966 3190 
Q 3341 2797 3341 1997 
z
" transform="scale(0.015625)"/>
       <path id="DejaVuSans-76" d="M 191 3500 
L 800 3500 
L 1894 563 
L 2988 3500 
L 3597 3500 
L 2284 0 
L 1503 0 
L 191 3500 
z
" transform="scale(0.015625)"/>
      </defs>
      <use xlink:href="#DejaVuSans-49"/>
      <use xlink:href="#DejaVuSans-6e" transform="translate(29.492188 0)"/>
      <use xlink:href="#DejaVuSans-74" transform="translate(92.871094 0)"/>
      <use xlink:href="#DejaVuSans-65" transform="translate(132.080078 0)"/>
      <use xlink:href="#DejaVuSans-6e" transform="translate(193.603516 0)"/>
      <use xlink:href="#DejaVuSans-73" transform="translate(256.982422 0)"/>
      <use xlink:href="#DejaVuSans-69" transform="translate(309.082031 0)"/>
      <use xlink:href="#DejaVuSans-74" transform="translate(336.865234 0)"/>
      <use xlink:href="#DejaVuSans-79" transform="translate(376.074219 0)"/>
      <use xlink:href="#DejaVuSans-20" transform="translate(435.253906 0)"/>
      <use xlink:href="#DejaVuSans-28" transform="translate(467.041016 0)"/>
      <use xlink:href="#DejaVuSans-52" transform="translate(506.054688 0)"/>
      <use xlink:href="#DejaVuSans-65" transform="translate(571.037109 0)"/>
      <use xlink:href="#DejaVuSans-6c" transform="translate(632.560547 0)"/>
      <use xlink:href="#DejaVuSans-61" transform="translate(660.34375 0)"/>
      <use xlink:href="#DejaVuSans-74" transform="translate(721.623047 0)"/>
      <use xlink:href="#DejaVuSans-69" transform="translate(760.832031 0)"/>
      <use xlink:href="#DejaVuSans-76" transform="translate(788.615234 0)"/>
      <use xlink:href="#DejaVuSans-65" transform="translate(847.794922 0)"/>
      <use xlink:href="#DejaVuSans-29" transform="translate(909.318359 0)"/>
     </g>
    </g>
   </g>
   <g id="line2d_25">
    <path d="M 76.238636 229.57962 
L 88.832955 228.362457 
L 101.427273 228.783786 
L 126.615909 174.260967 
L 139.210227 42.471053 
L 151.804545 27.926909 
L 164.398864 27.926909 
L 176.993182 27.926909 
L 189.5875 27.926909 
L 202.181818 27.926909 
L 214.776136 27.926909 
L 227.370455 27.926909 
L 239.964773 27.926909 
L 252.559091 27.926909 
L 265.153409 27.926909 
L 290.342045 27.926909 
L 302.936364 27.926909 
L 315.530682 28.196106 
L 328.125 52.312468 
L 340.719318 83.596541 
L 353.313636 122.268918 
L 365.907955 155.515932 
L 378.502273 179.86593 
L 391.096591 204.627824 
L 403.690909 223.003072 
L 416.285227 239.743641 
L 428.879545 255.268515 
L 441.473864 266.200243 
L 454.068182 280.506693 
L 466.6625 289.268587 
L 479.256818 298.229803 
L 491.851136 309.261542 
L 504.445455 326.252211 
L 517.039773 334.495375 
L 529.634091 342.936461 
L 542.228409 348.633924 
L 567.417045 355.474236 
L 580.011364 357.287722 
" clip-path="url(#pf03cc75ea3)" style="fill: none; stroke: #1f77b4; stroke-width: 1.5; stroke-linecap: square"/>
    <defs>
     <path id="m42574da3c8" d="M 0 3 
C 0.795609 3 1.55874 2.683901 2.12132 2.12132 
C 2.683901 1.55874 3 0.795609 3 0 
C 3 -0.795609 2.683901 -1.55874 2.12132 -2.12132 
C 1.55874 -2.683901 0.795609 -3 0 -3 
C -0.795609 -3 -1.55874 -2.683901 -2.12132 -2.12132 
C -2.683901 -1.55874 -3 -0.795609 -3 0 
C -3 0.795609 -2.683901 1.55874 -2.12132 2.12132 
C -1.55874 2.683901 -0.795609 3 0 3 
z
" style="stroke: #1f77b4"/>
    </defs>
    <g clip-path="url(#pf03cc75ea3)">
     <use xlink:href="#m42574da3c8" x="76.238636" y="229.57962" style="fill: #1f77b4; stroke: #1f77b4"/>
     <use xlink:href="#m42574da3c8" x="88.832955" y="228.362457" style="fill: #1f77b4; stroke: #1f77b4"/>
     <use xlink:href="#m42574da3c8" x="101.427273" y="228.783786" style="fill: #1f77b4; stroke: #1f77b4"/>
     <use xlink:href="#m42574da3c8" x="126.615909" y="174.260967" style="fill: #1f77b4; stroke: #1f77b4"/>
     <use xlink:href="#m42574da3c8" x="139.210227" y="42.471053" style="fill: #1f77b4; stroke: #1f77b4"/>
     <use xlink:href="#m42574da3c8" x="151.804545" y="27.926909" style="fill: #1f77b4; stroke: #1f77b4"/>
     <use xlink:href="#m42574da3c8" x="164.398864" y="27.926909" style="fill: #1f77b4; stroke: #1f77b4"/>
     <use xlink:href="#m42574da3c8" x="176.993182" y="27.926909" style="fill: #1f77b4; stroke: #1f77b4"/>
     <use xlink:href="#m42574da3c8" x="189.5875" y="27.926909" style="fill: #1f77b4; stroke: #1f77b4"/>
     <use xlink:href="#m42574da3c8" x="202.181818" y="27.926909" style="fill: #1f77b4; stroke: #1f77b4"/>
     <use xlink:href="#m42574da3c8" x="214.776136" y="27.926909" style="fill: #1f77b4; stroke: #1f77b4"/>
     <use xlink:href="#m42574da3c8" x="227.370455" y="27.926909" style="fill: #1f77b4; stroke: #1f77b4"/>
     <use xlink:href="#m42574da3c8" x="239.964773" y="27.926909" style="fill: #1f77b4; stroke: #1f77b4"/>
     <use xlink:href="#m42574da3c8" x="252.559091" y="27.926909" style="fill: #1f77b4; stroke: #1f77b4"/>
     <use xlink:href="#m42574da3c8" x="265.153409" y="27.926909" style="fill: #1f77b4; stroke: #1f77b4"/>
     <use xlink:href="#m42574da3c8" x="290.342045" y="27.926909" style="fill: #1f77b4; stroke: #1f77b4"/>
     <use xlink:href="#m42574da3c8" x="302.936364" y="27.926909" style="fill: #1f77b4; stroke: #1f77b4"/>
     <use xlink:href="#m42574da3c8" x="315.530682" y="28.196106" style="fill: #1f77b4; stroke: #1f77b4"/>
     <use xlink:href="#m42574da3c8" x="328.125" y="52.312468" style="fill: #1f77b4; stroke: #1f77b4"/>
     <use xlink:href="#m42574da3c8" x="340.719318" y="83.596541" style="fill: #1f77b4; stroke: #1f77b4"/>
     <use xlink:href="#m42574da3c8" x="353.313636" y="122.268918" style="fill: #1f77b4; stroke: #1f77b4"/>
     <use xlink:href="#m42574da3c8" x="365.907955" y="155.515932" style="fill: #1f77b4; stroke: #1f77b4"/>
     <use xlink:href="#m42574da3c8" x="378.502273" y="179.86593" style="fill: #1f77b4; stroke: #1f77b4"/>
     <use xlink:href="#m42574da3c8" x="391.096591" y="204.627824" style="fill: #1f77b4; stroke: #1f77b4"/>
     <use xlink:href="#m42574da3c8" x="403.690909" y="223.003072" style="fill: #1f77b4; stroke: #1f77b4"/>
     <use xlink:href="#m42574da3c8" x="416.285227" y="239.743641" style="fill: #1f77b4; stroke: #1f77b4"/>
     <use xlink:href="#m42574da3c8" x="428.879545" y="255.268515" style="fill: #1f77b4; stroke: #1f77b4"/>
     <use xlink:href="#m42574da3c8" x="441.473864" y="266.200243" style="fill: #1f77b4; stroke: #1f77b4"/>
     <use xlink:href="#m42574da3c8" x="454.068182" y="280.506693" style="fill: #1f77b4; stroke: #1f77b4"/>
     <use xlink:href="#m42574da3c8" x="466.6625" y="289.268587" style="fill: #1f77b4; stroke: #1f77b4"/>
     <use xlink:href="#m42574da3c8" x="479.256818" y="298.229803" style="fill: #1f77b4; stroke: #1f77b4"/>
     <use xlink:href="#m42574da3c8" x="491.851136" y="309.261542" style="fill: #1f77b4; stroke: #1f77b4"/>
     <use xlink:href="#m42574da3c8" x="504.445455" y="326.252211" style="fill: #1f77b4; stroke: #1f77b4"/>
     <use xlink:href="#m42574da3c8" x="517.039773" y="334.495375" style="fill: #1f77b4; stroke: #1f77b4"/>
     <use xlink:href="#m42574da3c8" x="529.634091" y="342.936461" style="fill: #1f77b4; stroke: #1f77b4"/>
     <use xlink:href="#m42574da3c8" x="542.228409" y="348.633924" style="fill: #1f77b4; stroke: #1f77b4"/>
     <use xlink:href="#m42574da3c8" x="567.417045" y="355.474236" style="fill: #1f77b4; stroke: #1f77b4"/>
     <use xlink:href="#m42574da3c8" x="580.011364" y="357.287722" style="fill: #1f77b4; stroke: #1f77b4"/>
    </g>
   </g>
   <g id="line2d_26">
    <path d="M 76.238636 27.926909 
L 88.832955 27.926909 
L 101.427273 27.926909 
L 126.615909 78.238025 
L 139.210227 185.255008 
L 151.804545 294.655886 
L 164.398864 340.320593 
L 176.993182 358.364046 
L 189.5875 366.075395 
L 202.181818 368.780401 
L 214.776136 370.009755 
L 227.370455 370.37 
L 239.964773 370.465091 
L 252.559091 370.465091 
L 265.153409 370.448606 
L 290.342045 370.465091 
L 302.936364 370.465091 
L 315.530682 370.465091 
L 328.125 370.465091 
L 340.719318 370.465091 
L 353.313636 370.465091 
L 365.907955 370.465091 
L 378.502273 370.465091 
L 391.096591 370.426717 
L 403.690909 370.465091 
L 416.285227 370.465091 
L 428.879545 370.465091 
L 441.473864 370.444311 
L 454.068182 370.465091 
L 466.6625 370.465091 
L 479.256818 370.465091 
L 491.851136 370.465091 
L 504.445455 370.465091 
L 517.039773 370.465091 
L 529.634091 370.465091 
L 542.228409 370.465091 
L 567.417045 370.465091 
L 580.011364 370.465091 
" clip-path="url(#pf03cc75ea3)" style="fill: none; stroke: #ff7f0e; stroke-width: 1.5; stroke-linecap: square"/>
    <defs>
     <path id="m1dfe011f2f" d="M 0 3 
C 0.795609 3 1.55874 2.683901 2.12132 2.12132 
C 2.683901 1.55874 3 0.795609 3 0 
C 3 -0.795609 2.683901 -1.55874 2.12132 -2.12132 
C 1.55874 -2.683901 0.795609 -3 0 -3 
C -0.795609 -3 -1.55874 -2.683901 -2.12132 -2.12132 
C -2.683901 -1.55874 -3 -0.795609 -3 0 
C -3 0.795609 -2.683901 1.55874 -2.12132 2.12132 
C -1.55874 2.683901 -0.795609 3 0 3 
z
" style="stroke: #ff7f0e"/>
    </defs>
    <g clip-path="url(#pf03cc75ea3)">
     <use xlink:href="#m1dfe011f2f" x="76.238636" y="27.926909" style="fill: #ff7f0e; stroke: #ff7f0e"/>
     <use xlink:href="#m1dfe011f2f" x="88.832955" y="27.926909" style="fill: #ff7f0e; stroke: #ff7f0e"/>
     <use xlink:href="#m1dfe011f2f" x="101.427273" y="27.926909" style="fill: #ff7f0e; stroke: #ff7f0e"/>
     <use xlink:href="#m1dfe011f2f" x="126.615909" y="78.238025" style="fill: #ff7f0e; stroke: #ff7f0e"/>
     <use xlink:href="#m1dfe011f2f" x="139.210227" y="185.255008" style="fill: #ff7f0e; stroke: #ff7f0e"/>
     <use xlink:href="#m1dfe011f2f" x="151.804545" y="294.655886" style="fill: #ff7f0e; stroke: #ff7f0e"/>
     <use xlink:href="#m1dfe011f2f" x="164.398864" y="340.320593" style="fill: #ff7f0e; stroke: #ff7f0e"/>
     <use xlink:href="#m1dfe011f2f" x="176.993182" y="358.364046" style="fill: #ff7f0e; stroke: #ff7f0e"/>
     <use xlink:href="#m1dfe011f2f" x="189.5875" y="366.075395" style="fill: #ff7f0e; stroke: #ff7f0e"/>
     <use xlink:href="#m1dfe011f2f" x="202.181818" y="368.780401" style="fill: #ff7f0e; stroke: #ff7f0e"/>
     <use xlink:href="#m1dfe011f2f" x="214.776136" y="370.009755" style="fill: #ff7f0e; stroke: #ff7f0e"/>
     <use xlink:href="#m1dfe011f2f" x="227.370455" y="370.37" style="fill: #ff7f0e; stroke: #ff7f0e"/>
     <use xlink:href="#m1dfe011f2f" x="239.964773" y="370.465091" style="fill: #ff7f0e; stroke: #ff7f0e"/>
     <use xlink:href="#m1dfe011f2f" x="252.559091" y="370.465091" style="fill: #ff7f0e; stroke: #ff7f0e"/>
     <use xlink:href="#m1dfe011f2f" x="265.153409" y="370.448606" style="fill: #ff7f0e; stroke: #ff7f0e"/>
     <use xlink:href="#m1dfe011f2f" x="290.342045" y="370.465091" style="fill: #ff7f0e; stroke: #ff7f0e"/>
     <use xlink:href="#m1dfe011f2f" x="302.936364" y="370.465091" style="fill: #ff7f0e; stroke: #ff7f0e"/>
     <use xlink:href="#m1dfe011f2f" x="315.530682" y="370.465091" style="fill: #ff7f0e; stroke: #ff7f0e"/>
     <use xlink:href="#m1dfe011f2f" x="328.125" y="370.465091" style="fill: #ff7f0e; stroke: #ff7f0e"/>
     <use xlink:href="#m1dfe011f2f" x="340.719318" y="370.465091" style="fill: #ff7f0e; stroke: #ff7f0e"/>
     <use xlink:href="#m1dfe011f2f" x="353.313636" y="370.465091" style="fill: #ff7f0e; stroke: #ff7f0e"/>
     <use xlink:href="#m1dfe011f2f" x="365.907955" y="370.465091" style="fill: #ff7f0e; stroke: #ff7f0e"/>
     <use xlink:href="#m1dfe011f2f" x="378.502273" y="370.465091" style="fill: #ff7f0e; stroke: #ff7f0e"/>
     <use xlink:href="#m1dfe011f2f" x="391.096591" y="370.426717" style="fill: #ff7f0e; stroke: #ff7f0e"/>
     <use xlink:href="#m1dfe011f2f" x="403.690909" y="370.465091" style="fill: #ff7f0e; stroke: #ff7f0e"/>
     <use xlink:href="#m1dfe011f2f" x="416.285227" y="370.465091" style="fill: #ff7f0e; stroke: #ff7f0e"/>
     <use xlink:href="#m1dfe011f2f" x="428.879545" y="370.465091" style="fill: #ff7f0e; stroke: #ff7f0e"/>
     <use xlink:href="#m1dfe011f2f" x="441.473864" y="370.444311" style="fill: #ff7f0e; stroke: #ff7f0e"/>
     <use xlink:href="#m1dfe011f2f" x="454.068182" y="370.465091" style="fill: #ff7f0e; stroke: #ff7f0e"/>
     <use xlink:href="#m1dfe011f2f" x="466.6625" y="370.465091" style="fill: #ff7f0e; stroke: #ff7f0e"/>
     <use xlink:href="#m1dfe011f2f" x="479.256818" y="370.465091" style="fill: #ff7f0e; stroke: #ff7f0e"/>
     <use xlink:href="#m1dfe011f2f" x="491.851136" y="370.465091" style="fill: #ff7f0e; stroke: #ff7f0e"/>
     <use xlink:href="#m1dfe011f2f" x="504.445455" y="370.465091" style="fill: #ff7f0e; stroke: #ff7f0e"/>
     <use xlink:href="#m1dfe011f2f" x="517.039773" y="370.465091" style="fill: #ff7f0e; stroke: #ff7f0e"/>
     <use xlink:href="#m1dfe011f2f" x="529.634091" y="370.465091" style="fill: #ff7f0e; stroke: #ff7f0e"/>
     <use xlink:href="#m1dfe011f2f" x="542.228409" y="370.465091" style="fill: #ff7f0e; stroke: #ff7f0e"/>
     <use xlink:href="#m1dfe011f2f" x="567.417045" y="370.465091" style="fill: #ff7f0e; stroke: #ff7f0e"/>
     <use xlink:href="#m1dfe011f2f" x="580.011364" y="370.465091" style="fill: #ff7f0e; stroke: #ff7f0e"/>
    </g>
   </g>
   <g id="line2d_27">
    <path d="M 76.238636 47.764997 
L 88.832955 49.781432 
L 101.427273 47.021198 
L 126.615909 27.926909 
L 139.210227 28.182844 
L 151.804545 160.97945 
L 164.398864 247.67683 
L 176.993182 302.839829 
L 189.5875 334.313224 
L 202.181818 351.683389 
L 214.776136 361.401639 
L 227.370455 365.702707 
L 239.964773 368.007857 
L 252.559091 369.290897 
L 265.153409 369.955434 
L 290.342045 370.44603 
L 302.936364 370.293187 
L 315.530682 370.44341 
L 328.125 370.441608 
L 340.719318 370.447185 
L 353.313636 370.465091 
L 365.907955 370.465091 
L 378.502273 370.465091 
L 391.096591 370.446003 
L 403.690909 370.445696 
L 416.285227 370.444169 
L 428.879545 370.420979 
L 441.473864 370.403469 
L 454.068182 370.465091 
L 466.6625 370.442601 
L 479.256818 370.465091 
L 491.851136 370.435287 
L 504.445455 370.465091 
L 517.039773 370.465091 
L 529.634091 370.465091 
L 542.228409 370.465091 
L 567.417045 370.465091 
L 580.011364 370.465091 
" clip-path="url(#pf03cc75ea3)" style="fill: none; stroke: #2ca02c; stroke-width: 1.5; stroke-linecap: square"/>
    <defs>
     <path id="md22ac4abfa" d="M 0 3 
C 0.795609 3 1.55874 2.683901 2.12132 2.12132 
C 2.683901 1.55874 3 0.795609 3 0 
C 3 -0.795609 2.683901 -1.55874 2.12132 -2.12132 
C 1.55874 -2.683901 0.795609 -3 0 -3 
C -0.795609 -3 -1.55874 -2.683901 -2.12132 -2.12132 
C -2.683901 -1.55874 -3 -0.795609 -3 0 
C -3 0.795609 -2.683901 1.55874 -2.12132 2.12132 
C -1.55874 2.683901 -0.795609 3 0 3 
z
" style="stroke: #2ca02c"/>
    </defs>
    <g clip-path="url(#pf03cc75ea3)">
     <use xlink:href="#md22ac4abfa" x="76.238636" y="47.764997" style="fill: #2ca02c; stroke: #2ca02c"/>
     <use xlink:href="#md22ac4abfa" x="88.832955" y="49.781432" style="fill: #2ca02c; stroke: #2ca02c"/>
     <use xlink:href="#md22ac4abfa" x="101.427273" y="47.021198" style="fill: #2ca02c; stroke: #2ca02c"/>
     <use xlink:href="#md22ac4abfa" x="126.615909" y="27.926909" style="fill: #2ca02c; stroke: #2ca02c"/>
     <use xlink:href="#md22ac4abfa" x="139.210227" y="28.182844" style="fill: #2ca02c; stroke: #2ca02c"/>
     <use xlink:href="#md22ac4abfa" x="151.804545" y="160.97945" style="fill: #2ca02c; stroke: #2ca02c"/>
     <use xlink:href="#md22ac4abfa" x="164.398864" y="247.67683" style="fill: #2ca02c; stroke: #2ca02c"/>
     <use xlink:href="#md22ac4abfa" x="176.993182" y="302.839829" style="fill: #2ca02c; stroke: #2ca02c"/>
     <use xlink:href="#md22ac4abfa" x="189.5875" y="334.313224" style="fill: #2ca02c; stroke: #2ca02c"/>
     <use xlink:href="#md22ac4abfa" x="202.181818" y="351.683389" style="fill: #2ca02c; stroke: #2ca02c"/>
     <use xlink:href="#md22ac4abfa" x="214.776136" y="361.401639" style="fill: #2ca02c; stroke: #2ca02c"/>
     <use xlink:href="#md22ac4abfa" x="227.370455" y="365.702707" style="fill: #2ca02c; stroke: #2ca02c"/>
     <use xlink:href="#md22ac4abfa" x="239.964773" y="368.007857" style="fill: #2ca02c; stroke: #2ca02c"/>
     <use xlink:href="#md22ac4abfa" x="252.559091" y="369.290897" style="fill: #2ca02c; stroke: #2ca02c"/>
     <use xlink:href="#md22ac4abfa" x="265.153409" y="369.955434" style="fill: #2ca02c; stroke: #2ca02c"/>
     <use xlink:href="#md22ac4abfa" x="290.342045" y="370.44603" style="fill: #2ca02c; stroke: #2ca02c"/>
     <use xlink:href="#md22ac4abfa" x="302.936364" y="370.293187" style="fill: #2ca02c; stroke: #2ca02c"/>
     <use xlink:href="#md22ac4abfa" x="315.530682" y="370.44341" style="fill: #2ca02c; stroke: #2ca02c"/>
     <use xlink:href="#md22ac4abfa" x="328.125" y="370.441608" style="fill: #2ca02c; stroke: #2ca02c"/>
     <use xlink:href="#md22ac4abfa" x="340.719318" y="370.447185" style="fill: #2ca02c; stroke: #2ca02c"/>
     <use xlink:href="#md22ac4abfa" x="353.313636" y="370.465091" style="fill: #2ca02c; stroke: #2ca02c"/>
     <use xlink:href="#md22ac4abfa" x="365.907955" y="370.465091" style="fill: #2ca02c; stroke: #2ca02c"/>
     <use xlink:href="#md22ac4abfa" x="378.502273" y="370.465091" style="fill: #2ca02c; stroke: #2ca02c"/>
     <use xlink:href="#md22ac4abfa" x="391.096591" y="370.446003" style="fill: #2ca02c; stroke: #2ca02c"/>
     <use xlink:href="#md22ac4abfa" x="403.690909" y="370.445696" style="fill: #2ca02c; stroke: #2ca02c"/>
     <use xlink:href="#md22ac4abfa" x="416.285227" y="370.444169" style="fill: #2ca02c; stroke: #2ca02c"/>
     <use xlink:href="#md22ac4abfa" x="428.879545" y="370.420979" style="fill: #2ca02c; stroke: #2ca02c"/>
     <use xlink:href="#md22ac4abfa" x="441.473864" y="370.403469" style="fill: #2ca02c; stroke: #2ca02c"/>
     <use xlink:href="#md22ac4abfa" x="454.068182" y="370.465091" style="fill: #2ca02c; stroke: #2ca02c"/>
     <use xlink:href="#md22ac4abfa" x="466.6625" y="370.442601" style="fill: #2ca02c; stroke: #2ca02c"/>
     <use xlink:href="#md22ac4abfa" x="479.256818" y="370.465091" style="fill: #2ca02c; stroke: #2ca02c"/>
     <use xlink:href="#md22ac4abfa" x="491.851136" y="370.435287" style="fill: #2ca02c; stroke: #2ca02c"/>
     <use xlink:href="#md22ac4abfa" x="504.445455" y="370.465091" style="fill: #2ca02c; stroke: #2ca02c"/>
     <use xlink:href="#md22ac4abfa" x="517.039773" y="370.465091" style="fill: #2ca02c; stroke: #2ca02c"/>
     <use xlink:href="#md22ac4abfa" x="529.634091" y="370.465091" style="fill: #2ca02c; stroke: #2ca02c"/>
     <use xlink:href="#md22ac4abfa" x="542.228409" y="370.465091" style="fill: #2ca02c; stroke: #2ca02c"/>
     <use xlink:href="#md22ac4abfa" x="567.417045" y="370.465091" style="fill: #2ca02c; stroke: #2ca02c"/>
     <use xlink:href="#md22ac4abfa" x="580.011364" y="370.465091" style="fill: #2ca02c; stroke: #2ca02c"/>
    </g>
   </g>
   <g id="line2d_28">
    <path d="M 76.238636 176.533384 
L 88.832955 175.627185 
L 101.427273 175.279027 
L 126.615909 141.752869 
L 139.210227 97.350769 
L 151.804545 159.774902 
L 164.398864 214.664191 
L 176.993182 254.143045 
L 189.5875 286.277023 
L 202.181818 308.944762 
L 214.776136 325.73708 
L 227.370455 337.928513 
L 239.964773 346.234233 
L 252.559091 352.326441 
L 265.153409 357.508522 
L 290.342045 363.14607 
L 302.936364 364.89414 
L 315.530682 366.08018 
L 328.125 367.255659 
L 340.719318 368.18824 
L 353.313636 368.88543 
L 365.907955 369.480272 
L 378.502273 369.727103 
L 391.096591 369.805577 
L 403.690909 370.082361 
L 416.285227 370.271579 
L 428.879545 370.391464 
L 441.473864 370.395467 
L 454.068182 370.441242 
L 466.6625 370.4399 
L 479.256818 370.437583 
L 491.851136 370.465091 
L 504.445455 370.465091 
L 517.039773 370.465091 
L 529.634091 370.465091 
L 542.228409 370.447354 
L 567.417045 370.465091 
L 580.011364 370.465091 
" clip-path="url(#pf03cc75ea3)" style="fill: none; stroke: #d62728; stroke-width: 1.5; stroke-linecap: square"/>
    <defs>
     <path id="m4ddfd4d264" d="M 0 3 
C 0.795609 3 1.55874 2.683901 2.12132 2.12132 
C 2.683901 1.55874 3 0.795609 3 0 
C 3 -0.795609 2.683901 -1.55874 2.12132 -2.12132 
C 1.55874 -2.683901 0.795609 -3 0 -3 
C -0.795609 -3 -1.55874 -2.683901 -2.12132 -2.12132 
C -2.683901 -1.55874 -3 -0.795609 -3 0 
C -3 0.795609 -2.683901 1.55874 -2.12132 2.12132 
C -1.55874 2.683901 -0.795609 3 0 3 
z
" style="stroke: #d62728"/>
    </defs>
    <g clip-path="url(#pf03cc75ea3)">
     <use xlink:href="#m4ddfd4d264" x="76.238636" y="176.533384" style="fill: #d62728; stroke: #d62728"/>
     <use xlink:href="#m4ddfd4d264" x="88.832955" y="175.627185" style="fill: #d62728; stroke: #d62728"/>
     <use xlink:href="#m4ddfd4d264" x="101.427273" y="175.279027" style="fill: #d62728; stroke: #d62728"/>
     <use xlink:href="#m4ddfd4d264" x="126.615909" y="141.752869" style="fill: #d62728; stroke: #d62728"/>
     <use xlink:href="#m4ddfd4d264" x="139.210227" y="97.350769" style="fill: #d62728; stroke: #d62728"/>
     <use xlink:href="#m4ddfd4d264" x="151.804545" y="159.774902" style="fill: #d62728; stroke: #d62728"/>
     <use xlink:href="#m4ddfd4d264" x="164.398864" y="214.664191" style="fill: #d62728; stroke: #d62728"/>
     <use xlink:href="#m4ddfd4d264" x="176.993182" y="254.143045" style="fill: #d62728; stroke: #d62728"/>
     <use xlink:href="#m4ddfd4d264" x="189.5875" y="286.277023" style="fill: #d62728; stroke: #d62728"/>
     <use xlink:href="#m4ddfd4d264" x="202.181818" y="308.944762" style="fill: #d62728; stroke: #d62728"/>
     <use xlink:href="#m4ddfd4d264" x="214.776136" y="325.73708" style="fill: #d62728; stroke: #d62728"/>
     <use xlink:href="#m4ddfd4d264" x="227.370455" y="337.928513" style="fill: #d62728; stroke: #d62728"/>
     <use xlink:href="#m4ddfd4d264" x="239.964773" y="346.234233" style="fill: #d62728; stroke: #d62728"/>
     <use xlink:href="#m4ddfd4d264" x="252.559091" y="352.326441" style="fill: #d62728; stroke: #d62728"/>
     <use xlink:href="#m4ddfd4d264" x="265.153409" y="357.508522" style="fill: #d62728; stroke: #d62728"/>
     <use xlink:href="#m4ddfd4d264" x="290.342045" y="363.14607" style="fill: #d62728; stroke: #d62728"/>
     <use xlink:href="#m4ddfd4d264" x="302.936364" y="364.89414" style="fill: #d62728; stroke: #d62728"/>
     <use xlink:href="#m4ddfd4d264" x="315.530682" y="366.08018" style="fill: #d62728; stroke: #d62728"/>
     <use xlink:href="#m4ddfd4d264" x="328.125" y="367.255659" style="fill: #d62728; stroke: #d62728"/>
     <use xlink:href="#m4ddfd4d264" x="340.719318" y="368.18824" style="fill: #d62728; stroke: #d62728"/>
     <use xlink:href="#m4ddfd4d264" x="353.313636" y="368.88543" style="fill: #d62728; stroke: #d62728"/>
     <use xlink:href="#m4ddfd4d264" x="365.907955" y="369.480272" style="fill: #d62728; stroke: #d62728"/>
     <use xlink:href="#m4ddfd4d264" x="378.502273" y="369.727103" style="fill: #d62728; stroke: #d62728"/>
     <use xlink:href="#m4ddfd4d264" x="391.096591" y="369.805577" style="fill: #d62728; stroke: #d62728"/>
     <use xlink:href="#m4ddfd4d264" x="403.690909" y="370.082361" style="fill: #d62728; stroke: #d62728"/>
     <use xlink:href="#m4ddfd4d264" x="416.285227" y="370.271579" style="fill: #d62728; stroke: #d62728"/>
     <use xlink:href="#m4ddfd4d264" x="428.879545" y="370.391464" style="fill: #d62728; stroke: #d62728"/>
     <use xlink:href="#m4ddfd4d264" x="441.473864" y="370.395467" style="fill: #d62728; stroke: #d62728"/>
     <use xlink:href="#m4ddfd4d264" x="454.068182" y="370.441242" style="fill: #d62728; stroke: #d62728"/>
     <use xlink:href="#m4ddfd4d264" x="466.6625" y="370.4399" style="fill: #d62728; stroke: #d62728"/>
     <use xlink:href="#m4ddfd4d264" x="479.256818" y="370.437583" style="fill: #d62728; stroke: #d62728"/>
     <use xlink:href="#m4ddfd4d264" x="491.851136" y="370.465091" style="fill: #d62728; stroke: #d62728"/>
     <use xlink:href="#m4ddfd4d264" x="504.445455" y="370.465091" style="fill: #d62728; stroke: #d62728"/>
     <use xlink:href="#m4ddfd4d264" x="517.039773" y="370.465091" style="fill: #d62728; stroke: #d62728"/>
     <use xlink:href="#m4ddfd4d264" x="529.634091" y="370.465091" style="fill: #d62728; stroke: #d62728"/>
     <use xlink:href="#m4ddfd4d264" x="542.228409" y="370.447354" style="fill: #d62728; stroke: #d62728"/>
     <use xlink:href="#m4ddfd4d264" x="567.417045" y="370.465091" style="fill: #d62728; stroke: #d62728"/>
     <use xlink:href="#m4ddfd4d264" x="580.011364" y="370.465091" style="fill: #d62728; stroke: #d62728"/>
    </g>
   </g>
   <g id="line2d_29">
    <path d="M 76.238636 361.326433 
L 88.832955 361.93821 
L 101.427273 361.724846 
L 126.615909 355.816932 
L 139.210227 335.401042 
L 151.804545 318.290145 
L 164.398864 304.049646 
L 176.993182 286.688457 
L 189.5875 271.90232 
L 202.181818 257.11152 
L 214.776136 246.08179 
L 227.370455 232.563775 
L 239.964773 216.442332 
L 252.559091 194.55439 
L 265.153409 173.699713 
L 290.342045 119.065964 
L 302.936364 89.464758 
L 315.530682 52.156218 
L 328.125 27.926909 
L 340.719318 27.926909 
L 353.313636 27.926909 
L 365.907955 27.926909 
L 378.502273 27.926909 
L 391.096591 27.926909 
L 403.690909 27.926909 
L 416.285227 27.926909 
L 428.879545 27.926909 
L 441.473864 27.926909 
L 454.068182 27.926909 
L 466.6625 27.926909 
L 479.256818 27.926909 
L 491.851136 53.210874 
L 504.445455 116.914516 
L 517.039773 150.064234 
L 529.634091 192.666164 
L 542.228409 222.051547 
L 567.417045 270.146414 
L 580.011364 287.095984 
" clip-path="url(#pf03cc75ea3)" style="fill: none; stroke: #9467bd; stroke-width: 1.5; stroke-linecap: square"/>
    <defs>
     <path id="me5400ede95" d="M 0 3 
C 0.795609 3 1.55874 2.683901 2.12132 2.12132 
C 2.683901 1.55874 3 0.795609 3 0 
C 3 -0.795609 2.683901 -1.55874 2.12132 -2.12132 
C 1.55874 -2.683901 0.795609 -3 0 -3 
C -0.795609 -3 -1.55874 -2.683901 -2.12132 -2.12132 
C -2.683901 -1.55874 -3 -0.795609 -3 0 
C -3 0.795609 -2.683901 1.55874 -2.12132 2.12132 
C -1.55874 2.683901 -0.795609 3 0 3 
z
" style="stroke: #9467bd"/>
    </defs>
    <g clip-path="url(#pf03cc75ea3)">
     <use xlink:href="#me5400ede95" x="76.238636" y="361.326433" style="fill: #9467bd; stroke: #9467bd"/>
     <use xlink:href="#me5400ede95" x="88.832955" y="361.93821" style="fill: #9467bd; stroke: #9467bd"/>
     <use xlink:href="#me5400ede95" x="101.427273" y="361.724846" style="fill: #9467bd; stroke: #9467bd"/>
     <use xlink:href="#me5400ede95" x="126.615909" y="355.816932" style="fill: #9467bd; stroke: #9467bd"/>
     <use xlink:href="#me5400ede95" x="139.210227" y="335.401042" style="fill: #9467bd; stroke: #9467bd"/>
     <use xlink:href="#me5400ede95" x="151.804545" y="318.290145" style="fill: #9467bd; stroke: #9467bd"/>
     <use xlink:href="#me5400ede95" x="164.398864" y="304.049646" style="fill: #9467bd; stroke: #9467bd"/>
     <use xlink:href="#me5400ede95" x="176.993182" y="286.688457" style="fill: #9467bd; stroke: #9467bd"/>
     <use xlink:href="#me5400ede95" x="189.5875" y="271.90232" style="fill: #9467bd; stroke: #9467bd"/>
     <use xlink:href="#me5400ede95" x="202.181818" y="257.11152" style="fill: #9467bd; stroke: #9467bd"/>
     <use xlink:href="#me5400ede95" x="214.776136" y="246.08179" style="fill: #9467bd; stroke: #9467bd"/>
     <use xlink:href="#me5400ede95" x="227.370455" y="232.563775" style="fill: #9467bd; stroke: #9467bd"/>
     <use xlink:href="#me5400ede95" x="239.964773" y="216.442332" style="fill: #9467bd; stroke: #9467bd"/>
     <use xlink:href="#me5400ede95" x="252.559091" y="194.55439" style="fill: #9467bd; stroke: #9467bd"/>
     <use xlink:href="#me5400ede95" x="265.153409" y="173.699713" style="fill: #9467bd; stroke: #9467bd"/>
     <use xlink:href="#me5400ede95" x="290.342045" y="119.065964" style="fill: #9467bd; stroke: #9467bd"/>
     <use xlink:href="#me5400ede95" x="302.936364" y="89.464758" style="fill: #9467bd; stroke: #9467bd"/>
     <use xlink:href="#me5400ede95" x="315.530682" y="52.156218" style="fill: #9467bd; stroke: #9467bd"/>
     <use xlink:href="#me5400ede95" x="328.125" y="27.926909" style="fill: #9467bd; stroke: #9467bd"/>
     <use xlink:href="#me5400ede95" x="340.719318" y="27.926909" style="fill: #9467bd; stroke: #9467bd"/>
     <use xlink:href="#me5400ede95" x="353.313636" y="27.926909" style="fill: #9467bd; stroke: #9467bd"/>
     <use xlink:href="#me5400ede95" x="365.907955" y="27.926909" style="fill: #9467bd; stroke: #9467bd"/>
     <use xlink:href="#me5400ede95" x="378.502273" y="27.926909" style="fill: #9467bd; stroke: #9467bd"/>
     <use xlink:href="#me5400ede95" x="391.096591" y="27.926909" style="fill: #9467bd; stroke: #9467bd"/>
     <use xlink:href="#me5400ede95" x="403.690909" y="27.926909" style="fill: #9467bd; stroke: #9467bd"/>
     <use xlink:href="#me5400ede95" x="416.285227" y="27.926909" style="fill: #9467bd; stroke: #9467bd"/>
     <use xlink:href="#me5400ede95" x="428.879545" y="27.926909" style="fill: #9467bd; stroke: #9467bd"/>
     <use xlink:href="#me5400ede95" x="441.473864" y="27.926909" style="fill: #9467bd; stroke: #9467bd"/>
     <use xlink:href="#me5400ede95" x="454.068182" y="27.926909" style="fill: #9467bd; stroke: #9467bd"/>
     <use xlink:href="#me5400ede95" x="466.6625" y="27.926909" style="fill: #9467bd; stroke: #9467bd"/>
     <use xlink:href="#me5400ede95" x="479.256818" y="27.926909" style="fill: #9467bd; stroke: #9467bd"/>
     <use xlink:href="#me5400ede95" x="491.851136" y="53.210874" style="fill: #9467bd; stroke: #9467bd"/>
     <use xlink:href="#me5400ede95" x="504.445455" y="116.914516" style="fill: #9467bd; stroke: #9467bd"/>
     <use xlink:href="#me5400ede95" x="517.039773" y="150.064234" style="fill: #9467bd; stroke: #9467bd"/>
     <use xlink:href="#me5400ede95" x="529.634091" y="192.666164" style="fill: #9467bd; stroke: #9467bd"/>
     <use xlink:href="#me5400ede95" x="542.228409" y="222.051547" style="fill: #9467bd; stroke: #9467bd"/>
     <use xlink:href="#me5400ede95" x="567.417045" y="270.146414" style="fill: #9467bd; stroke: #9467bd"/>
     <use xlink:href="#me5400ede95" x="580.011364" y="287.095984" style="fill: #9467bd; stroke: #9467bd"/>
    </g>
   </g>
   <g id="patch_3">
    <path d="M 51.05 387.592 
L 51.05 10.8 
" style="fill: none; stroke: #000000; stroke-width: 0.8; stroke-linejoin: miter; stroke-linecap: square"/>
   </g>
   <g id="patch_4">
    <path d="M 605.2 387.592 
L 605.2 10.8 
" style="fill: none; stroke: #000000; stroke-width: 0.8; stroke-linejoin: miter; stroke-linecap: square"/>
   </g>
   <g id="patch_5">
    <path d="M 51.05 387.592 
L 605.2 387.592 
" style="fill: none; stroke: #000000; stroke-width: 0.8; stroke-linejoin: miter; stroke-linecap: square"/>
   </g>
   <g id="patch_6">
    <path d="M 51.05 10.8 
L 605.2 10.8 
" style="fill: none; stroke: #000000; stroke-width: 0.8; stroke-linejoin: miter; stroke-linecap: square"/>
   </g>
   <g id="legend_1">
    <g id="patch_7">
     <path d="M 612.2 237.391313 
L 707.089063 237.391313 
Q 709.089063 237.391313 709.089063 235.391313 
L 709.089063 163.000688 
Q 709.089063 161.000688 707.089063 161.000688 
L 612.2 161.000688 
Q 610.2 161.000688 610.2 163.000688 
L 610.2 235.391313 
Q 610.2 237.391313 612.2 237.391313 
z
" style="fill: #ffffff; opacity: 0.8; stroke: #cccccc; stroke-linejoin: miter"/>
    </g>
    <g id="line2d_30">
     <path d="M 614.2 169.099125 
L 624.2 169.099125 
L 634.2 169.099125 
" style="fill: none; stroke: #1f77b4; stroke-width: 1.5; stroke-linecap: square"/>
     <g>
      <use xlink:href="#m42574da3c8" x="624.2" y="169.099125" style="fill: #1f77b4; stroke: #1f77b4"/>
     </g>
    </g>
    <g id="text_15">
     <!-- m/z 59.0 -->
     <g transform="translate(642.2 172.599125) scale(0.1 -0.1)">
      <defs>
       <path id="DejaVuSans-6d" d="M 3328 2828 
Q 3544 3216 3844 3400 
Q 4144 3584 4550 3584 
Q 5097 3584 5394 3201 
Q 5691 2819 5691 2113 
L 5691 0 
L 5113 0 
L 5113 2094 
Q 5113 2597 4934 2840 
Q 4756 3084 4391 3084 
Q 3944 3084 3684 2787 
Q 3425 2491 3425 1978 
L 3425 0 
L 2847 0 
L 2847 2094 
Q 2847 2600 2669 2842 
Q 2491 3084 2119 3084 
Q 1678 3084 1418 2786 
Q 1159 2488 1159 1978 
L 1159 0 
L 581 0 
L 581 3500 
L 1159 3500 
L 1159 2956 
Q 1356 3278 1631 3431 
Q 1906 3584 2284 3584 
Q 2666 3584 2933 3390 
Q 3200 3197 3328 2828 
z
" transform="scale(0.015625)"/>
       <path id="DejaVuSans-2f" d="M 1625 4666 
L 2156 4666 
L 531 -594 
L 0 -594 
L 1625 4666 
z
" transform="scale(0.015625)"/>
       <path id="DejaVuSans-7a" d="M 353 3500 
L 3084 3500 
L 3084 2975 
L 922 459 
L 3084 459 
L 3084 0 
L 275 0 
L 275 525 
L 2438 3041 
L 353 3041 
L 353 3500 
z
" transform="scale(0.015625)"/>
       <path id="DejaVuSans-35" d="M 691 4666 
L 3169 4666 
L 3169 4134 
L 1269 4134 
L 1269 2991 
Q 1406 3038 1543 3061 
Q 1681 3084 1819 3084 
Q 2600 3084 3056 2656 
Q 3513 2228 3513 1497 
Q 3513 744 3044 326 
Q 2575 -91 1722 -91 
Q 1428 -91 1123 -41 
Q 819 9 494 109 
L 494 744 
Q 775 591 1075 516 
Q 1375 441 1709 441 
Q 2250 441 2565 725 
Q 2881 1009 2881 1497 
Q 2881 1984 2565 2268 
Q 2250 2553 1709 2553 
Q 1456 2553 1204 2497 
Q 953 2441 691 2322 
L 691 4666 
z
" transform="scale(0.015625)"/>
       <path id="DejaVuSans-39" d="M 703 97 
L 703 672 
Q 941 559 1184 500 
Q 1428 441 1663 441 
Q 2288 441 2617 861 
Q 2947 1281 2994 2138 
Q 2813 1869 2534 1725 
Q 2256 1581 1919 1581 
Q 1219 1581 811 2004 
Q 403 2428 403 3163 
Q 403 3881 828 4315 
Q 1253 4750 1959 4750 
Q 2769 4750 3195 4129 
Q 3622 3509 3622 2328 
Q 3622 1225 3098 567 
Q 2575 -91 1691 -91 
Q 1453 -91 1209 -44 
Q 966 3 703 97 
z
M 1959 2075 
Q 2384 2075 2632 2365 
Q 2881 2656 2881 3163 
Q 2881 3666 2632 3958 
Q 2384 4250 1959 4250 
Q 1534 4250 1286 3958 
Q 1038 3666 1038 3163 
Q 1038 2656 1286 2365 
Q 1534 2075 1959 2075 
z
" transform="scale(0.015625)"/>
      </defs>
      <use xlink:href="#DejaVuSans-6d"/>
      <use xlink:href="#DejaVuSans-2f" transform="translate(97.412109 0)"/>
      <use xlink:href="#DejaVuSans-7a" transform="translate(131.103516 0)"/>
      <use xlink:href="#DejaVuSans-20" transform="translate(183.59375 0)"/>
      <use xlink:href="#DejaVuSans-35" transform="translate(215.380859 0)"/>
      <use xlink:href="#DejaVuSans-39" transform="translate(279.003906 0)"/>
      <use xlink:href="#DejaVuSans-2e" transform="translate(342.626953 0)"/>
      <use xlink:href="#DejaVuSans-30" transform="translate(374.414062 0)"/>
     </g>
    </g>
    <g id="line2d_31">
     <path d="M 614.2 183.77725 
L 624.2 183.77725 
L 634.2 183.77725 
" style="fill: none; stroke: #ff7f0e; stroke-width: 1.5; stroke-linecap: square"/>
     <g>
      <use xlink:href="#m1dfe011f2f" x="624.2" y="183.77725" style="fill: #ff7f0e; stroke: #ff7f0e"/>
     </g>
    </g>
    <g id="text_16">
     <!-- m/z 135.102 -->
     <g transform="translate(642.2 187.27725) scale(0.1 -0.1)">
      <defs>
       <path id="DejaVuSans-33" d="M 2597 2516 
Q 3050 2419 3304 2112 
Q 3559 1806 3559 1356 
Q 3559 666 3084 287 
Q 2609 -91 1734 -91 
Q 1441 -91 1130 -33 
Q 819 25 488 141 
L 488 750 
Q 750 597 1062 519 
Q 1375 441 1716 441 
Q 2309 441 2620 675 
Q 2931 909 2931 1356 
Q 2931 1769 2642 2001 
Q 2353 2234 1838 2234 
L 1294 2234 
L 1294 2753 
L 1863 2753 
Q 2328 2753 2575 2939 
Q 2822 3125 2822 3475 
Q 2822 3834 2567 4026 
Q 2313 4219 1838 4219 
Q 1578 4219 1281 4162 
Q 984 4106 628 3988 
L 628 4550 
Q 988 4650 1302 4700 
Q 1616 4750 1894 4750 
Q 2613 4750 3031 4423 
Q 3450 4097 3450 3541 
Q 3450 3153 3228 2886 
Q 3006 2619 2597 2516 
z
" transform="scale(0.015625)"/>
      </defs>
      <use xlink:href="#DejaVuSans-6d"/>
      <use xlink:href="#DejaVuSans-2f" transform="translate(97.412109 0)"/>
      <use xlink:href="#DejaVuSans-7a" transform="translate(131.103516 0)"/>
      <use xlink:href="#DejaVuSans-20" transform="translate(183.59375 0)"/>
      <use xlink:href="#DejaVuSans-31" transform="translate(215.380859 0)"/>
      <use xlink:href="#DejaVuSans-33" transform="translate(279.003906 0)"/>
      <use xlink:href="#DejaVuSans-35" transform="translate(342.626953 0)"/>
      <use xlink:href="#DejaVuSans-2e" transform="translate(406.25 0)"/>
      <use xlink:href="#DejaVuSans-31" transform="translate(438.037109 0)"/>
      <use xlink:href="#DejaVuSans-30" transform="translate(501.660156 0)"/>
      <use xlink:href="#DejaVuSans-32" transform="translate(565.283203 0)"/>
     </g>
    </g>
    <g id="line2d_32">
     <path d="M 614.2 198.455375 
L 624.2 198.455375 
L 634.2 198.455375 
" style="fill: none; stroke: #2ca02c; stroke-width: 1.5; stroke-linecap: square"/>
     <g>
      <use xlink:href="#md22ac4abfa" x="624.2" y="198.455375" style="fill: #2ca02c; stroke: #2ca02c"/>
     </g>
    </g>
    <g id="text_17">
     <!-- m/z 117.092 -->
     <g transform="translate(642.2 201.955375) scale(0.1 -0.1)">
      <defs>
       <path id="DejaVuSans-37" d="M 525 4666 
L 3525 4666 
L 3525 4397 
L 1831 0 
L 1172 0 
L 2766 4134 
L 525 4134 
L 525 4666 
z
" transform="scale(0.015625)"/>
      </defs>
      <use xlink:href="#DejaVuSans-6d"/>
      <use xlink:href="#DejaVuSans-2f" transform="translate(97.412109 0)"/>
      <use xlink:href="#DejaVuSans-7a" transform="translate(131.103516 0)"/>
      <use xlink:href="#DejaVuSans-20" transform="translate(183.59375 0)"/>
      <use xlink:href="#DejaVuSans-31" transform="translate(215.380859 0)"/>
      <use xlink:href="#DejaVuSans-31" transform="translate(279.003906 0)"/>
      <use xlink:href="#DejaVuSans-37" transform="translate(342.626953 0)"/>
      <use xlink:href="#DejaVuSans-2e" transform="translate(406.25 0)"/>
      <use xlink:href="#DejaVuSans-30" transform="translate(438.037109 0)"/>
      <use xlink:href="#DejaVuSans-39" transform="translate(501.660156 0)"/>
      <use xlink:href="#DejaVuSans-32" transform="translate(565.283203 0)"/>
     </g>
    </g>
    <g id="line2d_33">
     <path d="M 614.2 213.1335 
L 624.2 213.1335 
L 634.2 213.1335 
" style="fill: none; stroke: #d62728; stroke-width: 1.5; stroke-linecap: square"/>
     <g>
      <use xlink:href="#m4ddfd4d264" x="624.2" y="213.1335" style="fill: #d62728; stroke: #d62728"/>
     </g>
    </g>
    <g id="text_18">
     <!-- m/z 77.04 -->
     <g transform="translate(642.2 216.6335) scale(0.1 -0.1)">
      <use xlink:href="#DejaVuSans-6d"/>
      <use xlink:href="#DejaVuSans-2f" transform="translate(97.412109 0)"/>
      <use xlink:href="#DejaVuSans-7a" transform="translate(131.103516 0)"/>
      <use xlink:href="#DejaVuSans-20" transform="translate(183.59375 0)"/>
      <use xlink:href="#DejaVuSans-37" transform="translate(215.380859 0)"/>
      <use xlink:href="#DejaVuSans-37" transform="translate(279.003906 0)"/>
      <use xlink:href="#DejaVuSans-2e" transform="translate(342.626953 0)"/>
      <use xlink:href="#DejaVuSans-30" transform="translate(374.414062 0)"/>
      <use xlink:href="#DejaVuSans-34" transform="translate(438.037109 0)"/>
     </g>
    </g>
    <g id="line2d_34">
     <path d="M 614.2 227.811625 
L 624.2 227.811625 
L 634.2 227.811625 
" style="fill: none; stroke: #9467bd; stroke-width: 1.5; stroke-linecap: square"/>
     <g>
      <use xlink:href="#me5400ede95" x="624.2" y="227.811625" style="fill: #9467bd; stroke: #9467bd"/>
     </g>
    </g>
    <g id="text_19">
     <!-- m/z 45.01 -->
     <g transform="translate(642.2 231.311625) scale(0.1 -0.1)">
      <use xlink:href="#DejaVuSans-6d"/>
      <use xlink:href="#DejaVuSans-2f" transform="translate(97.412109 0)"/>
      <use xlink:href="#DejaVuSans-7a" transform="translate(131.103516 0)"/>
      <use xlink:href="#DejaVuSans-20" transform="translate(183.59375 0)"/>
      <use xlink:href="#DejaVuSans-34" transform="translate(215.380859 0)"/>
      <use xlink:href="#DejaVuSans-35" transform="translate(279.003906 0)"/>
      <use xlink:href="#DejaVuSans-2e" transform="translate(342.626953 0)"/>
      <use xlink:href="#DejaVuSans-30" transform="translate(374.414062 0)"/>
      <use xlink:href="#DejaVuSans-31" transform="translate(438.037109 0)"/>
     </g>
    </g>
   </g>
  </g>
 </g>
 <defs>
  <clipPath id="pf03cc75ea3">
   <rect x="51.05" y="10.8" width="554.15" height="376.792"/>
  </clipPath>
 </defs>
</svg>
