<?xml version="1.0" encoding="utf-8" standalone="no"?>
<!DOCTYPE svg PUBLIC "-//W3C//DTD SVG 1.1//EN"
  "http://www.w3.org/Graphics/SVG/1.1/DTD/svg11.dtd">
<svg xmlns:xlink="http://www.w3.org/1999/xlink" width="720pt" height="432pt" viewBox="0 0 720 432" xmlns="http://www.w3.org/2000/svg" version="1.1">
 <metadata>
  <rdf:RDF xmlns:dc="http://purl.org/dc/elements/1.1/" xmlns:cc="http://creativecommons.org/ns#" xmlns:rdf="http://www.w3.org/1999/02/22-rdf-syntax-ns#">
   <cc:Work>
    <dc:type rdf:resource="http://purl.org/dc/dcmitype/StillImage"/>
    <dc:date>2025-06-07T15:10:00.099745</dc:date>
    <dc:format>image/svg+xml</dc:format>
    <dc:creator>
     <cc:Agent>
      <dc:title>Matplotlib v3.10.1, https://matplotlib.org/</dc:title>
     </cc:Agent>
    </dc:creator>
   </cc:Work>
  </rdf:RDF>
 </metadata>
 <defs>
  <style type="text/css">*{stroke-linejoin: round; stroke-linecap: butt}</style>
 </defs>
 <g id="figure_1">
  <g id="patch_1">
   <path d="M 0 432 
L 720 432 
L 720 0 
L 0 0 
z
" style="fill: #ffffff"/>
  </g>
  <g id="axes_1">
   <g id="patch_2">
    <path d="M 47.81 334.656 
L 709.2 334.656 
L 709.2 10.8 
L 47.81 10.8 
z
" style="fill: #ffffff"/>
   </g>
   <g id="matplotlib.axis_1">
    <g id="xtick_1">
     <g id="line2d_1">
      <path d="M 679.177048 334.656 
L 679.177048 10.8 
" clip-path="url(#p60dd91c4d6)" style="fill: none; stroke: #b0b0b0; stroke-width: 0.8; stroke-linecap: square"/>
     </g>
     <g id="line2d_2">
      <defs>
       <path id="m53de1a04fc" d="M 0 0 
L 0 3.5 
" style="stroke: #000000; stroke-width: 0.8"/>
      </defs>
      <g>
       <use xlink:href="#m53de1a04fc" x="679.177048" y="334.656" style="stroke: #000000; stroke-width: 0.8"/>
      </g>
     </g>
     <g id="text_1">
      <!-- 2600 -->
      <g transform="translate(666.452048 349.254437) scale(0.1 -0.1)">
       <defs>
        <path id="DejaVuSans-32" d="M 1228 531 
L 3431 531 
L 3431 0 
L 469 0 
L 469 531 
Q 828 903 1448 1529 
Q 2069 2156 2228 2338 
Q 2531 2678 2651 2914 
Q 2772 3150 2772 3378 
Q 2772 3750 2511 3984 
Q 2250 4219 1831 4219 
Q 1534 4219 1204 4116 
Q 875 4013 500 3803 
L 500 4441 
Q 881 4594 1212 4672 
Q 1544 4750 1819 4750 
Q 2544 4750 2975 4387 
Q 3406 4025 3406 3419 
Q 3406 3131 3298 2873 
Q 3191 2616 2906 2266 
Q 2828 2175 2409 1742 
Q 1991 1309 1228 531 
z
" transform="scale(0.015625)"/>
        <path id="DejaVuSans-36" d="M 2113 2584 
Q 1688 2584 1439 2293 
Q 1191 2003 1191 1497 
Q 1191 994 1439 701 
Q 1688 409 2113 409 
Q 2538 409 2786 701 
Q 3034 994 3034 1497 
Q 3034 2003 2786 2293 
Q 2538 2584 2113 2584 
z
M 3366 4563 
L 3366 3988 
Q 3128 4100 2886 4159 
Q 2644 4219 2406 4219 
Q 1781 4219 1451 3797 
Q 1122 3375 1075 2522 
Q 1259 2794 1537 2939 
Q 1816 3084 2150 3084 
Q 2853 3084 3261 2657 
Q 3669 2231 3669 1497 
Q 3669 778 3244 343 
Q 2819 -91 2113 -91 
Q 1303 -91 875 529 
Q 447 1150 447 2328 
Q 447 3434 972 4092 
Q 1497 4750 2381 4750 
Q 2619 4750 2861 4703 
Q 3103 4656 3366 4563 
z
" transform="scale(0.015625)"/>
        <path id="DejaVuSans-30" d="M 2034 4250 
Q 1547 4250 1301 3770 
Q 1056 3291 1056 2328 
Q 1056 1369 1301 889 
Q 1547 409 2034 409 
Q 2525 409 2770 889 
Q 3016 1369 3016 2328 
Q 3016 3291 2770 3770 
Q 2525 4250 2034 4250 
z
M 2034 4750 
Q 2819 4750 3233 4129 
Q 3647 3509 3647 2328 
Q 3647 1150 3233 529 
Q 2819 -91 2034 -91 
Q 1250 -91 836 529 
Q 422 1150 422 2328 
Q 422 3509 836 4129 
Q 1250 4750 2034 4750 
z
" transform="scale(0.015625)"/>
       </defs>
       <use xlink:href="#DejaVuSans-32"/>
       <use xlink:href="#DejaVuSans-36" transform="translate(63.623047 0)"/>
       <use xlink:href="#DejaVuSans-30" transform="translate(127.246094 0)"/>
       <use xlink:href="#DejaVuSans-30" transform="translate(190.869141 0)"/>
      </g>
     </g>
    </g>
    <g id="xtick_2">
     <g id="line2d_3">
      <path d="M 569.647284 334.656 
L 569.647284 10.8 
" clip-path="url(#p60dd91c4d6)" style="fill: none; stroke: #b0b0b0; stroke-width: 0.8; stroke-linecap: square"/>
     </g>
     <g id="line2d_4">
      <g>
       <use xlink:href="#m53de1a04fc" x="569.647284" y="334.656" style="stroke: #000000; stroke-width: 0.8"/>
      </g>
     </g>
     <g id="text_2">
      <!-- 2800 -->
      <g transform="translate(556.922284 349.254437) scale(0.1 -0.1)">
       <defs>
        <path id="DejaVuSans-38" d="M 2034 2216 
Q 1584 2216 1326 1975 
Q 1069 1734 1069 1313 
Q 1069 891 1326 650 
Q 1584 409 2034 409 
Q 2484 409 2743 651 
Q 3003 894 3003 1313 
Q 3003 1734 2745 1975 
Q 2488 2216 2034 2216 
z
M 1403 2484 
Q 997 2584 770 2862 
Q 544 3141 544 3541 
Q 544 4100 942 4425 
Q 1341 4750 2034 4750 
Q 2731 4750 3128 4425 
Q 3525 4100 3525 3541 
Q 3525 3141 3298 2862 
Q 3072 2584 2669 2484 
Q 3125 2378 3379 2068 
Q 3634 1759 3634 1313 
Q 3634 634 3220 271 
Q 2806 -91 2034 -91 
Q 1263 -91 848 271 
Q 434 634 434 1313 
Q 434 1759 690 2068 
Q 947 2378 1403 2484 
z
M 1172 3481 
Q 1172 3119 1398 2916 
Q 1625 2713 2034 2713 
Q 2441 2713 2670 2916 
Q 2900 3119 2900 3481 
Q 2900 3844 2670 4047 
Q 2441 4250 2034 4250 
Q 1625 4250 1398 4047 
Q 1172 3844 1172 3481 
z
" transform="scale(0.015625)"/>
       </defs>
       <use xlink:href="#DejaVuSans-32"/>
       <use xlink:href="#DejaVuSans-38" transform="translate(63.623047 0)"/>
       <use xlink:href="#DejaVuSans-30" transform="translate(127.246094 0)"/>
       <use xlink:href="#DejaVuSans-30" transform="translate(190.869141 0)"/>
      </g>
     </g>
    </g>
    <g id="xtick_3">
     <g id="line2d_5">
      <path d="M 460.11752 334.656 
L 460.11752 10.8 
" clip-path="url(#p60dd91c4d6)" style="fill: none; stroke: #b0b0b0; stroke-width: 0.8; stroke-linecap: square"/>
     </g>
     <g id="line2d_6">
      <g>
       <use xlink:href="#m53de1a04fc" x="460.11752" y="334.656" style="stroke: #000000; stroke-width: 0.8"/>
      </g>
     </g>
     <g id="text_3">
      <!-- 3000 -->
      <g transform="translate(447.39252 349.254437) scale(0.1 -0.1)">
       <defs>
        <path id="DejaVuSans-33" d="M 2597 2516 
Q 3050 2419 3304 2112 
Q 3559 1806 3559 1356 
Q 3559 666 3084 287 
Q 2609 -91 1734 -91 
Q 1441 -91 1130 -33 
Q 819 25 488 141 
L 488 750 
Q 750 597 1062 519 
Q 1375 441 1716 441 
Q 2309 441 2620 675 
Q 2931 909 2931 1356 
Q 2931 1769 2642 2001 
Q 2353 2234 1838 2234 
L 1294 2234 
L 1294 2753 
L 1863 2753 
Q 2328 2753 2575 2939 
Q 2822 3125 2822 3475 
Q 2822 3834 2567 4026 
Q 2313 4219 1838 4219 
Q 1578 4219 1281 4162 
Q 984 4106 628 3988 
L 628 4550 
Q 988 4650 1302 4700 
Q 1616 4750 1894 4750 
Q 2613 4750 3031 4423 
Q 3450 4097 3450 3541 
Q 3450 3153 3228 2886 
Q 3006 2619 2597 2516 
z
" transform="scale(0.015625)"/>
       </defs>
       <use xlink:href="#DejaVuSans-33"/>
       <use xlink:href="#DejaVuSans-30" transform="translate(63.623047 0)"/>
       <use xlink:href="#DejaVuSans-30" transform="translate(127.246094 0)"/>
       <use xlink:href="#DejaVuSans-30" transform="translate(190.869141 0)"/>
      </g>
     </g>
    </g>
    <g id="xtick_4">
     <g id="line2d_7">
      <path d="M 350.587755 334.656 
L 350.587755 10.8 
" clip-path="url(#p60dd91c4d6)" style="fill: none; stroke: #b0b0b0; stroke-width: 0.8; stroke-linecap: square"/>
     </g>
     <g id="line2d_8">
      <g>
       <use xlink:href="#m53de1a04fc" x="350.587755" y="334.656" style="stroke: #000000; stroke-width: 0.8"/>
      </g>
     </g>
     <g id="text_4">
      <!-- 3200 -->
      <g transform="translate(337.862755 349.254437) scale(0.1 -0.1)">
       <use xlink:href="#DejaVuSans-33"/>
       <use xlink:href="#DejaVuSans-32" transform="translate(63.623047 0)"/>
       <use xlink:href="#DejaVuSans-30" transform="translate(127.246094 0)"/>
       <use xlink:href="#DejaVuSans-30" transform="translate(190.869141 0)"/>
      </g>
     </g>
    </g>
    <g id="xtick_5">
     <g id="line2d_9">
      <path d="M 241.057991 334.656 
L 241.057991 10.8 
" clip-path="url(#p60dd91c4d6)" style="fill: none; stroke: #b0b0b0; stroke-width: 0.8; stroke-linecap: square"/>
     </g>
     <g id="line2d_10">
      <g>
       <use xlink:href="#m53de1a04fc" x="241.057991" y="334.656" style="stroke: #000000; stroke-width: 0.8"/>
      </g>
     </g>
     <g id="text_5">
      <!-- 3400 -->
      <g transform="translate(228.332991 349.254437) scale(0.1 -0.1)">
       <defs>
        <path id="DejaVuSans-34" d="M 2419 4116 
L 825 1625 
L 2419 1625 
L 2419 4116 
z
M 2253 4666 
L 3047 4666 
L 3047 1625 
L 3713 1625 
L 3713 1100 
L 3047 1100 
L 3047 0 
L 2419 0 
L 2419 1100 
L 313 1100 
L 313 1709 
L 2253 4666 
z
" transform="scale(0.015625)"/>
       </defs>
       <use xlink:href="#DejaVuSans-33"/>
       <use xlink:href="#DejaVuSans-34" transform="translate(63.623047 0)"/>
       <use xlink:href="#DejaVuSans-30" transform="translate(127.246094 0)"/>
       <use xlink:href="#DejaVuSans-30" transform="translate(190.869141 0)"/>
      </g>
     </g>
    </g>
    <g id="xtick_6">
     <g id="line2d_11">
      <path d="M 131.528226 334.656 
L 131.528226 10.8 
" clip-path="url(#p60dd91c4d6)" style="fill: none; stroke: #b0b0b0; stroke-width: 0.8; stroke-linecap: square"/>
     </g>
     <g id="line2d_12">
      <g>
       <use xlink:href="#m53de1a04fc" x="131.528226" y="334.656" style="stroke: #000000; stroke-width: 0.8"/>
      </g>
     </g>
     <g id="text_6">
      <!-- 3600 -->
      <g transform="translate(118.803226 349.254437) scale(0.1 -0.1)">
       <use xlink:href="#DejaVuSans-33"/>
       <use xlink:href="#DejaVuSans-36" transform="translate(63.623047 0)"/>
       <use xlink:href="#DejaVuSans-30" transform="translate(127.246094 0)"/>
       <use xlink:href="#DejaVuSans-30" transform="translate(190.869141 0)"/>
      </g>
     </g>
    </g>
    <g id="text_7">
     <!-- Wavenumber (cm⁻¹) -->
     <g transform="translate(327.512031 362.932562) scale(0.1 -0.1)">
      <defs>
       <path id="DejaVuSans-57" d="M 213 4666 
L 850 4666 
L 1831 722 
L 2809 4666 
L 3519 4666 
L 4500 722 
L 5478 4666 
L 6119 4666 
L 4947 0 
L 4153 0 
L 3169 4050 
L 2175 0 
L 1381 0 
L 213 4666 
z
" transform="scale(0.015625)"/>
       <path id="DejaVuSans-61" d="M 2194 1759 
Q 1497 1759 1228 1600 
Q 959 1441 959 1056 
Q 959 750 1161 570 
Q 1363 391 1709 391 
Q 2188 391 2477 730 
Q 2766 1069 2766 1631 
L 2766 1759 
L 2194 1759 
z
M 3341 1997 
L 3341 0 
L 2766 0 
L 2766 531 
Q 2569 213 2275 61 
Q 1981 -91 1556 -91 
Q 1019 -91 701 211 
Q 384 513 384 1019 
Q 384 1609 779 1909 
Q 1175 2209 1959 2209 
L 2766 2209 
L 2766 2266 
Q 2766 2663 2505 2880 
Q 2244 3097 1772 3097 
Q 1472 3097 1187 3025 
Q 903 2953 641 2809 
L 641 3341 
Q 956 3463 1253 3523 
Q 1550 3584 1831 3584 
Q 2591 3584 2966 3190 
Q 3341 2797 3341 1997 
z
" transform="scale(0.015625)"/>
       <path id="DejaVuSans-76" d="M 191 3500 
L 800 3500 
L 1894 563 
L 2988 3500 
L 3597 3500 
L 2284 0 
L 1503 0 
L 191 3500 
z
" transform="scale(0.015625)"/>
       <path id="DejaVuSans-65" d="M 3597 1894 
L 3597 1613 
L 953 1613 
Q 991 1019 1311 708 
Q 1631 397 2203 397 
Q 2534 397 2845 478 
Q 3156 559 3463 722 
L 3463 178 
Q 3153 47 2828 -22 
Q 2503 -91 2169 -91 
Q 1331 -91 842 396 
Q 353 884 353 1716 
Q 353 2575 817 3079 
Q 1281 3584 2069 3584 
Q 2775 3584 3186 3129 
Q 3597 2675 3597 1894 
z
M 3022 2063 
Q 3016 2534 2758 2815 
Q 2500 3097 2075 3097 
Q 1594 3097 1305 2825 
Q 1016 2553 972 2059 
L 3022 2063 
z
" transform="scale(0.015625)"/>
       <path id="DejaVuSans-6e" d="M 3513 2113 
L 3513 0 
L 2938 0 
L 2938 2094 
Q 2938 2591 2744 2837 
Q 2550 3084 2163 3084 
Q 1697 3084 1428 2787 
Q 1159 2491 1159 1978 
L 1159 0 
L 581 0 
L 581 3500 
L 1159 3500 
L 1159 2956 
Q 1366 3272 1645 3428 
Q 1925 3584 2291 3584 
Q 2894 3584 3203 3211 
Q 3513 2838 3513 2113 
z
" transform="scale(0.015625)"/>
       <path id="DejaVuSans-75" d="M 544 1381 
L 544 3500 
L 1119 3500 
L 1119 1403 
Q 1119 906 1312 657 
Q 1506 409 1894 409 
Q 2359 409 2629 706 
Q 2900 1003 2900 1516 
L 2900 3500 
L 3475 3500 
L 3475 0 
L 2900 0 
L 2900 538 
Q 2691 219 2414 64 
Q 2138 -91 1772 -91 
Q 1169 -91 856 284 
Q 544 659 544 1381 
z
M 1991 3584 
L 1991 3584 
z
" transform="scale(0.015625)"/>
       <path id="DejaVuSans-6d" d="M 3328 2828 
Q 3544 3216 3844 3400 
Q 4144 3584 4550 3584 
Q 5097 3584 5394 3201 
Q 5691 2819 5691 2113 
L 5691 0 
L 5113 0 
L 5113 2094 
Q 5113 2597 4934 2840 
Q 4756 3084 4391 3084 
Q 3944 3084 3684 2787 
Q 3425 2491 3425 1978 
L 3425 0 
L 2847 0 
L 2847 2094 
Q 2847 2600 2669 2842 
Q 2491 3084 2119 3084 
Q 1678 3084 1418 2786 
Q 1159 2488 1159 1978 
L 1159 0 
L 581 0 
L 581 3500 
L 1159 3500 
L 1159 2956 
Q 1356 3278 1631 3431 
Q 1906 3584 2284 3584 
Q 2666 3584 2933 3390 
Q 3200 3197 3328 2828 
z
" transform="scale(0.015625)"/>
       <path id="DejaVuSans-62" d="M 3116 1747 
Q 3116 2381 2855 2742 
Q 2594 3103 2138 3103 
Q 1681 3103 1420 2742 
Q 1159 2381 1159 1747 
Q 1159 1113 1420 752 
Q 1681 391 2138 391 
Q 2594 391 2855 752 
Q 3116 1113 3116 1747 
z
M 1159 2969 
Q 1341 3281 1617 3432 
Q 1894 3584 2278 3584 
Q 2916 3584 3314 3078 
Q 3713 2572 3713 1747 
Q 3713 922 3314 415 
Q 2916 -91 2278 -91 
Q 1894 -91 1617 61 
Q 1341 213 1159 525 
L 1159 0 
L 581 0 
L 581 4863 
L 1159 4863 
L 1159 2969 
z
" transform="scale(0.015625)"/>
       <path id="DejaVuSans-72" d="M 2631 2963 
Q 2534 3019 2420 3045 
Q 2306 3072 2169 3072 
Q 1681 3072 1420 2755 
Q 1159 2438 1159 1844 
L 1159 0 
L 581 0 
L 581 3500 
L 1159 3500 
L 1159 2956 
Q 1341 3275 1631 3429 
Q 1922 3584 2338 3584 
Q 2397 3584 2469 3576 
Q 2541 3569 2628 3553 
L 2631 2963 
z
" transform="scale(0.015625)"/>
       <path id="DejaVuSans-20" transform="scale(0.015625)"/>
       <path id="DejaVuSans-28" d="M 1984 4856 
Q 1566 4138 1362 3434 
Q 1159 2731 1159 2009 
Q 1159 1288 1364 580 
Q 1569 -128 1984 -844 
L 1484 -844 
Q 1016 -109 783 600 
Q 550 1309 550 2009 
Q 550 2706 781 3412 
Q 1013 4119 1484 4856 
L 1984 4856 
z
" transform="scale(0.015625)"/>
       <path id="DejaVuSans-63" d="M 3122 3366 
L 3122 2828 
Q 2878 2963 2633 3030 
Q 2388 3097 2138 3097 
Q 1578 3097 1268 2742 
Q 959 2388 959 1747 
Q 959 1106 1268 751 
Q 1578 397 2138 397 
Q 2388 397 2633 464 
Q 2878 531 3122 666 
L 3122 134 
Q 2881 22 2623 -34 
Q 2366 -91 2075 -91 
Q 1284 -91 818 406 
Q 353 903 353 1747 
Q 353 2603 823 3093 
Q 1294 3584 2113 3584 
Q 2378 3584 2631 3529 
Q 2884 3475 3122 3366 
z
" transform="scale(0.015625)"/>
       <path id="DejaVuSans-207b" d="M 428 3359 
L 2950 3359 
L 2950 3063 
L 428 3063 
L 428 3359 
z
" transform="scale(0.015625)"/>
       <path id="DejaVuSans-b9" d="M 488 2431 
L 1125 2431 
L 1125 4341 
L 428 4213 
L 428 4575 
L 1147 4697 
L 1575 4697 
L 1575 2431 
L 2216 2431 
L 2216 2088 
L 488 2088 
L 488 2431 
z
" transform="scale(0.015625)"/>
       <path id="DejaVuSans-29" d="M 513 4856 
L 1013 4856 
Q 1481 4119 1714 3412 
Q 1947 2706 1947 2009 
Q 1947 1309 1714 600 
Q 1481 -109 1013 -844 
L 513 -844 
Q 928 -128 1133 580 
Q 1338 1288 1338 2009 
Q 1338 2731 1133 3434 
Q 928 4138 513 4856 
z
" transform="scale(0.015625)"/>
      </defs>
      <use xlink:href="#DejaVuSans-57"/>
      <use xlink:href="#DejaVuSans-61" transform="translate(92.501953 0)"/>
      <use xlink:href="#DejaVuSans-76" transform="translate(153.78125 0)"/>
      <use xlink:href="#DejaVuSans-65" transform="translate(212.960938 0)"/>
      <use xlink:href="#DejaVuSans-6e" transform="translate(274.484375 0)"/>
      <use xlink:href="#DejaVuSans-75" transform="translate(337.863281 0)"/>
      <use xlink:href="#DejaVuSans-6d" transform="translate(401.242188 0)"/>
      <use xlink:href="#DejaVuSans-62" transform="translate(498.654297 0)"/>
      <use xlink:href="#DejaVuSans-65" transform="translate(562.130859 0)"/>
      <use xlink:href="#DejaVuSans-72" transform="translate(623.654297 0)"/>
      <use xlink:href="#DejaVuSans-20" transform="translate(664.767578 0)"/>
      <use xlink:href="#DejaVuSans-28" transform="translate(696.554688 0)"/>
      <use xlink:href="#DejaVuSans-63" transform="translate(735.568359 0)"/>
      <use xlink:href="#DejaVuSans-6d" transform="translate(790.548828 0)"/>
      <use xlink:href="#DejaVuSans-207b" transform="translate(887.960938 0)"/>
      <use xlink:href="#DejaVuSans-b9" transform="translate(940.744141 0)"/>
      <use xlink:href="#DejaVuSans-29" transform="translate(980.832031 0)"/>
     </g>
    </g>
   </g>
   <g id="matplotlib.axis_2">
    <g id="ytick_1">
     <g id="line2d_13">
      <path d="M 47.81 311.586289 
L 709.2 311.586289 
" clip-path="url(#p60dd91c4d6)" style="fill: none; stroke: #b0b0b0; stroke-width: 0.8; stroke-linecap: square"/>
     </g>
     <g id="line2d_14">
      <defs>
       <path id="m6a68e347f7" d="M 0 0 
L -3.5 0 
" style="stroke: #000000; stroke-width: 0.8"/>
      </defs>
      <g>
       <use xlink:href="#m6a68e347f7" x="47.81" y="311.586289" style="stroke: #000000; stroke-width: 0.8"/>
      </g>
     </g>
     <g id="text_8">
      <!-- 0.6 -->
      <g transform="translate(24.906875 315.385508) scale(0.1 -0.1)">
       <defs>
        <path id="DejaVuSans-2e" d="M 684 794 
L 1344 794 
L 1344 0 
L 684 0 
L 684 794 
z
" transform="scale(0.015625)"/>
       </defs>
       <use xlink:href="#DejaVuSans-30"/>
       <use xlink:href="#DejaVuSans-2e" transform="translate(63.623047 0)"/>
       <use xlink:href="#DejaVuSans-36" transform="translate(95.410156 0)"/>
      </g>
     </g>
    </g>
    <g id="ytick_2">
     <g id="line2d_15">
      <path d="M 47.81 239.921194 
L 709.2 239.921194 
" clip-path="url(#p60dd91c4d6)" style="fill: none; stroke: #b0b0b0; stroke-width: 0.8; stroke-linecap: square"/>
     </g>
     <g id="line2d_16">
      <g>
       <use xlink:href="#m6a68e347f7" x="47.81" y="239.921194" style="stroke: #000000; stroke-width: 0.8"/>
      </g>
     </g>
     <g id="text_9">
      <!-- 0.7 -->
      <g transform="translate(24.906875 243.720412) scale(0.1 -0.1)">
       <defs>
        <path id="DejaVuSans-37" d="M 525 4666 
L 3525 4666 
L 3525 4397 
L 1831 0 
L 1172 0 
L 2766 4134 
L 525 4134 
L 525 4666 
z
" transform="scale(0.015625)"/>
       </defs>
       <use xlink:href="#DejaVuSans-30"/>
       <use xlink:href="#DejaVuSans-2e" transform="translate(63.623047 0)"/>
       <use xlink:href="#DejaVuSans-37" transform="translate(95.410156 0)"/>
      </g>
     </g>
    </g>
    <g id="ytick_3">
     <g id="line2d_17">
      <path d="M 47.81 168.256098 
L 709.2 168.256098 
" clip-path="url(#p60dd91c4d6)" style="fill: none; stroke: #b0b0b0; stroke-width: 0.8; stroke-linecap: square"/>
     </g>
     <g id="line2d_18">
      <g>
       <use xlink:href="#m6a68e347f7" x="47.81" y="168.256098" style="stroke: #000000; stroke-width: 0.8"/>
      </g>
     </g>
     <g id="text_10">
      <!-- 0.8 -->
      <g transform="translate(24.906875 172.055317) scale(0.1 -0.1)">
       <use xlink:href="#DejaVuSans-30"/>
       <use xlink:href="#DejaVuSans-2e" transform="translate(63.623047 0)"/>
       <use xlink:href="#DejaVuSans-38" transform="translate(95.410156 0)"/>
      </g>
     </g>
    </g>
    <g id="ytick_4">
     <g id="line2d_19">
      <path d="M 47.81 96.591003 
L 709.2 96.591003 
" clip-path="url(#p60dd91c4d6)" style="fill: none; stroke: #b0b0b0; stroke-width: 0.8; stroke-linecap: square"/>
     </g>
     <g id="line2d_20">
      <g>
       <use xlink:href="#m6a68e347f7" x="47.81" y="96.591003" style="stroke: #000000; stroke-width: 0.8"/>
      </g>
     </g>
     <g id="text_11">
      <!-- 0.9 -->
      <g transform="translate(24.906875 100.390221) scale(0.1 -0.1)">
       <defs>
        <path id="DejaVuSans-39" d="M 703 97 
L 703 672 
Q 941 559 1184 500 
Q 1428 441 1663 441 
Q 2288 441 2617 861 
Q 2947 1281 2994 2138 
Q 2813 1869 2534 1725 
Q 2256 1581 1919 1581 
Q 1219 1581 811 2004 
Q 403 2428 403 3163 
Q 403 3881 828 4315 
Q 1253 4750 1959 4750 
Q 2769 4750 3195 4129 
Q 3622 3509 3622 2328 
Q 3622 1225 3098 567 
Q 2575 -91 1691 -91 
Q 1453 -91 1209 -44 
Q 966 3 703 97 
z
M 1959 2075 
Q 2384 2075 2632 2365 
Q 2881 2656 2881 3163 
Q 2881 3666 2632 3958 
Q 2384 4250 1959 4250 
Q 1534 4250 1286 3958 
Q 1038 3666 1038 3163 
Q 1038 2656 1286 2365 
Q 1534 2075 1959 2075 
z
" transform="scale(0.015625)"/>
       </defs>
       <use xlink:href="#DejaVuSans-30"/>
       <use xlink:href="#DejaVuSans-2e" transform="translate(63.623047 0)"/>
       <use xlink:href="#DejaVuSans-39" transform="translate(95.410156 0)"/>
      </g>
     </g>
    </g>
    <g id="ytick_5">
     <g id="line2d_21">
      <path d="M 47.81 24.925907 
L 709.2 24.925907 
" clip-path="url(#p60dd91c4d6)" style="fill: none; stroke: #b0b0b0; stroke-width: 0.8; stroke-linecap: square"/>
     </g>
     <g id="line2d_22">
      <g>
       <use xlink:href="#m6a68e347f7" x="47.81" y="24.925907" style="stroke: #000000; stroke-width: 0.8"/>
      </g>
     </g>
     <g id="text_12">
      <!-- 1.0 -->
      <g transform="translate(24.906875 28.725126) scale(0.1 -0.1)">
       <defs>
        <path id="DejaVuSans-31" d="M 794 531 
L 1825 531 
L 1825 4091 
L 703 3866 
L 703 4441 
L 1819 4666 
L 2450 4666 
L 2450 531 
L 3481 531 
L 3481 0 
L 794 0 
L 794 531 
z
" transform="scale(0.015625)"/>
       </defs>
       <use xlink:href="#DejaVuSans-31"/>
       <use xlink:href="#DejaVuSans-2e" transform="translate(63.623047 0)"/>
       <use xlink:href="#DejaVuSans-30" transform="translate(95.410156 0)"/>
      </g>
     </g>
    </g>
    <g id="text_13">
     <!-- Intensity -->
     <g transform="translate(18.827187 194.4905) rotate(-90) scale(0.1 -0.1)">
      <defs>
       <path id="DejaVuSans-49" d="M 628 4666 
L 1259 4666 
L 1259 0 
L 628 0 
L 628 4666 
z
" transform="scale(0.015625)"/>
       <path id="DejaVuSans-74" d="M 1172 4494 
L 1172 3500 
L 2356 3500 
L 2356 3053 
L 1172 3053 
L 1172 1153 
Q 1172 725 1289 603 
Q 1406 481 1766 481 
L 2356 481 
L 2356 0 
L 1766 0 
Q 1100 0 847 248 
Q 594 497 594 1153 
L 594 3053 
L 172 3053 
L 172 3500 
L 594 3500 
L 594 4494 
L 1172 4494 
z
" transform="scale(0.015625)"/>
       <path id="DejaVuSans-73" d="M 2834 3397 
L 2834 2853 
Q 2591 2978 2328 3040 
Q 2066 3103 1784 3103 
Q 1356 3103 1142 2972 
Q 928 2841 928 2578 
Q 928 2378 1081 2264 
Q 1234 2150 1697 2047 
L 1894 2003 
Q 2506 1872 2764 1633 
Q 3022 1394 3022 966 
Q 3022 478 2636 193 
Q 2250 -91 1575 -91 
Q 1294 -91 989 -36 
Q 684 19 347 128 
L 347 722 
Q 666 556 975 473 
Q 1284 391 1588 391 
Q 1994 391 2212 530 
Q 2431 669 2431 922 
Q 2431 1156 2273 1281 
Q 2116 1406 1581 1522 
L 1381 1569 
Q 847 1681 609 1914 
Q 372 2147 372 2553 
Q 372 3047 722 3315 
Q 1072 3584 1716 3584 
Q 2034 3584 2315 3537 
Q 2597 3491 2834 3397 
z
" transform="scale(0.015625)"/>
       <path id="DejaVuSans-69" d="M 603 3500 
L 1178 3500 
L 1178 0 
L 603 0 
L 603 3500 
z
M 603 4863 
L 1178 4863 
L 1178 4134 
L 603 4134 
L 603 4863 
z
" transform="scale(0.015625)"/>
       <path id="DejaVuSans-79" d="M 2059 -325 
Q 1816 -950 1584 -1140 
Q 1353 -1331 966 -1331 
L 506 -1331 
L 506 -850 
L 844 -850 
Q 1081 -850 1212 -737 
Q 1344 -625 1503 -206 
L 1606 56 
L 191 3500 
L 800 3500 
L 1894 763 
L 2988 3500 
L 3597 3500 
L 2059 -325 
z
" transform="scale(0.015625)"/>
      </defs>
      <use xlink:href="#DejaVuSans-49"/>
      <use xlink:href="#DejaVuSans-6e" transform="translate(29.492188 0)"/>
      <use xlink:href="#DejaVuSans-74" transform="translate(92.871094 0)"/>
      <use xlink:href="#DejaVuSans-65" transform="translate(132.080078 0)"/>
      <use xlink:href="#DejaVuSans-6e" transform="translate(193.603516 0)"/>
      <use xlink:href="#DejaVuSans-73" transform="translate(256.982422 0)"/>
      <use xlink:href="#DejaVuSans-69" transform="translate(309.082031 0)"/>
      <use xlink:href="#DejaVuSans-74" transform="translate(336.865234 0)"/>
      <use xlink:href="#DejaVuSans-79" transform="translate(376.074219 0)"/>
     </g>
    </g>
   </g>
   <g id="line2d_23">
    <path d="M 77.873182 25.72139 
L 78.997034 26.17288 
L 80.120891 26.344876 
L 86.864037 26.266044 
L 87.987894 26.108381 
L 89.111752 26.086882 
L 91.359467 26.610037 
L 92.483324 26.653036 
L 93.607182 26.344876 
L 94.731039 25.900552 
L 95.854897 25.84322 
L 98.102612 26.251711 
L 99.226469 26.373542 
L 101.474184 26.796366 
L 102.598037 26.975529 
L 104.845752 28.215335 
L 105.969609 28.251167 
L 107.093467 28.072005 
L 108.217324 28.057672 
L 110.465039 28.466163 
L 116.084327 30.035628 
L 118.332042 30.107293 
L 119.455899 30.236291 
L 120.579757 30.494285 
L 121.703615 31.146437 
L 122.827472 32.006418 
L 123.95133 32.694403 
L 126.199045 33.704881 
L 127.322897 34.349867 
L 130.694469 35.403344 
L 134.066042 36.95131 
L 137.437614 39.036764 
L 138.561472 39.882412 
L 140.809187 41.050553 
L 141.933045 41.903368 
L 145.304617 45.121131 
L 146.428475 45.952446 
L 152.047757 51.126666 
L 154.295472 53.333951 
L 155.41933 54.315763 
L 156.543187 55.541236 
L 158.790902 58.493838 
L 159.91476 59.891307 
L 161.038617 61.553937 
L 162.162475 62.994406 
L 164.41019 65.144359 
L 165.534047 66.806989 
L 167.781762 70.669737 
L 171.153335 75.908456 
L 173.40105 79.047387 
L 175.64876 83.347293 
L 176.772617 85.568911 
L 179.020332 89.259663 
L 180.14419 91.173121 
L 182.391905 95.480194 
L 184.63962 99.357275 
L 186.887335 103.936675 
L 190.258907 110.859523 
L 192.506623 115.338591 
L 199.249762 130.45276 
L 203.745192 140.915864 
L 205.992907 145.81059 
L 213.85991 164.923671 
L 216.107625 170.398884 
L 219.479198 178.97003 
L 236.337055 219.439309 
L 241.956343 232.597021 
L 245.327916 240.623512 
L 252.071055 256.146171 
L 255.442628 264.165495 
L 258.8142 271.281839 
L 261.061915 276.262564 
L 270.052776 293.512352 
L 272.300485 297.195938 
L 276.795915 303.882291 
L 279.04363 306.834893 
L 283.539061 312.109444 
L 284.662918 313.377916 
L 285.786776 314.366895 
L 288.034491 315.6712 
L 290.282206 316.932505 
L 291.406063 317.677822 
L 292.529921 318.243976 
L 295.901488 319.498116 
L 298.149203 319.806276 
L 302.644633 319.877941 
L 304.892348 319.555448 
L 306.016206 319.268787 
L 307.140063 318.810131 
L 310.511636 316.724676 
L 315.007066 313.886739 
L 316.130923 313.041091 
L 318.378633 310.719141 
L 320.626348 308.067533 
L 323.997921 303.918124 
L 328.493351 297.597262 
L 334.112639 288.180469 
L 338.608069 279.824319 
L 344.227351 267.340259 
L 347.598923 259.113106 
L 349.846638 253.874388 
L 361.085214 224.334035 
L 365.580644 212.459129 
L 368.952211 203.758986 
L 372.323784 194.464023 
L 374.571499 188.479988 
L 381.314644 171.767688 
L 383.562359 166.313974 
L 392.553214 146.462742 
L 397.048644 136.902619 
L 398.172501 134.924662 
L 399.296359 133.176034 
L 401.544074 129.062457 
L 404.915646 123.028256 
L 407.163362 119.316004 
L 412.782649 110.443865 
L 415.030359 107.512763 
L 421.773504 98.948784 
L 429.640507 90.649966 
L 435.259794 85.712241 
L 442.002934 80.867681 
L 444.250649 79.699539 
L 446.498364 78.560064 
L 448.746079 77.363257 
L 449.869937 76.78277 
L 450.993794 76.47461 
L 457.736939 75.980121 
L 459.984655 76.374279 
L 461.108512 76.840102 
L 462.232364 77.714416 
L 463.356222 78.832392 
L 464.480079 80.172529 
L 465.603937 82.028655 
L 466.727794 84.465268 
L 467.851652 87.503868 
L 468.975509 91.287785 
L 470.099367 95.924517 
L 471.223224 101.449896 
L 472.347082 107.921254 
L 474.594797 123.357916 
L 482.4618 182.216459 
L 486.957224 213.942596 
L 488.081082 220.750781 
L 489.204939 226.462489 
L 490.328797 230.475734 
L 491.452654 232.518189 
L 492.576512 232.876515 
L 493.700369 232.038033 
L 494.824227 230.554566 
L 495.948085 228.884769 
L 497.071942 226.899646 
L 498.1958 224.248037 
L 499.319657 220.908444 
L 501.567372 213.039616 
L 504.938945 200.354894 
L 506.062802 196.972302 
L 507.18666 194.30636 
L 508.310517 192.063243 
L 509.434375 190.128285 
L 510.558227 188.68065 
L 511.682084 187.842169 
L 512.805942 187.720338 
L 513.9298 188.608985 
L 515.053657 190.794771 
L 516.177515 194.249028 
L 517.301372 198.799762 
L 518.42523 204.274975 
L 521.796802 222.664239 
L 522.92066 227.652129 
L 524.044517 231.299883 
L 525.168375 233.270673 
L 526.292232 233.39967 
L 527.41609 231.930535 
L 528.539947 229.27176 
L 529.663805 225.616841 
L 530.787663 221.015941 
L 533.035378 209.922185 
L 535.283087 197.918281 
L 536.406945 192.557732 
L 538.65466 183.599595 
L 542.026232 171.1872 
L 544.273947 161.978236 
L 546.521662 152.704772 
L 548.769378 144.663949 
L 551.017093 137.7411 
L 553.264808 131.592235 
L 555.512523 125.909193 
L 558.88409 116.857892 
L 562.255662 108.809901 
L 564.503377 103.893676 
L 566.751093 99.608103 
L 568.998808 95.623524 
L 570.122665 93.867729 
L 572.37038 90.950959 
L 574.618095 88.578845 
L 576.86581 86.278395 
L 577.989668 85.074422 
L 579.113525 84.07111 
L 583.60895 81.233173 
L 585.856665 79.971867 
L 588.10438 79.08322 
L 590.352095 78.230405 
L 594.847525 77.062264 
L 600.466813 74.869312 
L 602.714528 73.980665 
L 604.962243 73.242514 
L 611.705383 70.139416 
L 618.448528 64.757367 
L 620.696243 63.008739 
L 624.067816 61.13828 
L 626.315531 60.063303 
L 629.687098 58.844997 
L 631.934813 58.09968 
L 636.430243 56.329552 
L 637.554101 56.035725 
L 644.297246 55.053913 
L 646.544961 54.745753 
L 653.288106 53.21212 
L 655.535816 52.839462 
L 664.526676 50.553345 
L 666.774391 50.209353 
L 669.022106 49.671864 
L 671.269821 49.299206 
L 672.393678 49.055545 
L 675.765251 48.0594 
L 676.889109 47.880237 
L 679.136818 47.192252 
L 679.136818 47.192252 
" clip-path="url(#p60dd91c4d6)" style="fill: none; stroke: #1f77b4; stroke-width: 1.5; stroke-linecap: square"/>
   </g>
   <g id="line2d_24">
    <path d="M 77.873182 27.599015 
L 78.997034 27.849843 
L 80.120891 27.871342 
L 82.368606 26.430874 
L 83.492464 26.681702 
L 84.616322 27.491517 
L 85.740179 28.021839 
L 86.864037 28.079171 
L 89.111752 28.014673 
L 91.359467 28.236834 
L 92.483324 28.050505 
L 93.607182 28.072005 
L 94.731039 28.401664 
L 96.978754 28.695491 
L 99.226469 29.318977 
L 101.474184 29.455141 
L 102.598037 29.361976 
L 103.721894 28.989318 
L 104.845752 29.010817 
L 105.969609 29.627137 
L 107.093467 30.049961 
L 112.712754 31.210936 
L 114.960469 31.261101 
L 116.084327 31.805756 
L 117.208184 32.823401 
L 118.332042 33.46122 
L 119.455899 33.647549 
L 120.579757 33.690548 
L 121.703615 34.213703 
L 122.827472 35.088018 
L 123.95133 35.618339 
L 125.075187 35.826168 
L 126.199045 36.184493 
L 128.446754 37.983287 
L 129.570612 38.449111 
L 130.694469 38.484943 
L 131.818327 38.714271 
L 132.942184 39.509754 
L 135.189899 41.602375 
L 136.313757 42.26886 
L 137.437614 42.641519 
L 138.561472 43.236339 
L 141.933045 46.260606 
L 149.800047 52.839462 
L 152.047757 55.426572 
L 154.295472 58.207177 
L 155.41933 59.446983 
L 157.667045 61.654268 
L 159.91476 64.449207 
L 161.038617 65.717679 
L 163.286332 68.892443 
L 165.534047 72.418366 
L 167.781762 75.951455 
L 171.153335 80.681351 
L 173.40105 84.472435 
L 175.64876 88.801007 
L 183.515762 103.141192 
L 185.763477 107.713425 
L 188.011192 111.848501 
L 191.382765 118.993511 
L 193.63048 123.680409 
L 205.992907 151.135307 
L 209.36448 159.133131 
L 212.736053 166.722465 
L 216.107625 174.784788 
L 218.35534 180.238502 
L 220.603055 185.699382 
L 234.08934 216.228713 
L 236.337055 221.195104 
L 239.708628 228.755772 
L 244.204058 238.251397 
L 246.451768 243.404117 
L 250.947198 253.014407 
L 253.194913 257.393144 
L 256.566485 264.265827 
L 264.433488 278.85684 
L 270.052776 287.779144 
L 272.300485 290.953908 
L 276.795915 296.744448 
L 277.919773 298.084585 
L 280.167488 300.191539 
L 284.662918 303.839292 
L 286.910633 305.107764 
L 289.158348 306.297405 
L 291.406063 307.049889 
L 293.653778 307.594543 
L 295.901488 307.952869 
L 297.025345 308.0532 
L 299.273061 307.866871 
L 301.520776 307.608876 
L 302.644633 307.365215 
L 304.892348 306.505234 
L 309.387778 304.061454 
L 311.635493 302.226828 
L 313.883208 300.592863 
L 316.130923 298.77257 
L 317.254781 297.611595 
L 319.502491 295.010153 
L 321.750206 292.394377 
L 326.245636 286.14518 
L 331.864923 277.165544 
L 335.236496 270.823183 
L 337.484211 266.566276 
L 341.979636 257.572307 
L 345.351208 249.846809 
L 347.598923 244.758588 
L 349.846638 239.412371 
L 350.970496 236.904093 
L 356.589784 223.230393 
L 357.713641 220.550118 
L 362.209071 208.92604 
L 364.456786 203.27883 
L 367.828353 194.94418 
L 371.199926 186.523531 
L 373.447641 180.876321 
L 377.943071 170.413217 
L 381.314644 163.003047 
L 383.562359 157.871826 
L 388.057789 148.526697 
L 391.429356 141.740013 
L 398.172501 129.091123 
L 404.915646 118.0117 
L 409.411077 111.29668 
L 412.782649 106.910776 
L 416.154216 102.596538 
L 419.525789 98.748122 
L 424.021219 93.624068 
L 427.392792 90.463637 
L 429.640507 88.521513 
L 430.764364 87.683031 
L 435.259794 83.863282 
L 437.507509 82.401314 
L 439.755219 80.659852 
L 442.002934 79.491711 
L 447.622222 76.911767 
L 448.746079 76.653773 
L 452.117652 75.471299 
L 455.489224 74.933811 
L 458.860797 75.478465 
L 459.984655 75.815291 
L 461.108512 76.424445 
L 462.232364 77.348924 
L 463.356222 78.538565 
L 464.480079 79.893035 
L 465.603937 81.577165 
L 466.727794 83.834616 
L 467.851652 86.737052 
L 468.975509 90.341806 
L 470.099367 94.835208 
L 471.223224 100.274588 
L 472.347082 106.545284 
L 473.470939 113.640129 
L 475.718654 129.793441 
L 479.090227 155.428046 
L 485.833367 203.020836 
L 486.957224 210.517005 
L 488.081082 217.110194 
L 489.204939 222.270081 
L 490.328797 225.80317 
L 491.452654 227.652129 
L 492.576512 227.953123 
L 493.700369 227.171973 
L 494.824227 225.788837 
L 495.948085 224.047375 
L 497.071942 221.98342 
L 498.1958 219.410643 
L 499.319657 216.149881 
L 501.567372 208.130557 
L 503.815087 200.1184 
L 504.938945 196.535145 
L 506.062802 193.338881 
L 507.18666 190.608441 
L 508.310517 188.286492 
L 509.434375 186.244037 
L 510.558227 184.588573 
L 511.682084 183.628261 
L 512.805942 183.678427 
L 513.9298 184.896733 
L 515.053657 187.268848 
L 516.177515 190.751772 
L 517.301372 195.388503 
L 518.42523 201.028546 
L 521.796802 219.403477 
L 522.92066 224.412867 
L 524.044517 228.168118 
L 525.168375 230.5259 
L 526.292232 231.414547 
L 527.41609 230.783894 
L 528.539947 228.82027 
L 529.663805 225.867668 
L 530.787663 222.019253 
L 531.91152 217.332355 
L 534.15923 206.310264 
L 536.406945 195.080343 
L 538.65466 185.319557 
L 542.026232 171.509693 
L 547.64552 147.200893 
L 548.769378 143.230647 
L 551.017093 136.357964 
L 554.388665 127.027169 
L 557.760232 118.205195 
L 561.131805 110.601529 
L 563.37952 105.807134 
L 565.627235 101.535894 
L 567.87495 97.587147 
L 570.122665 94.333552 
L 572.37038 91.173121 
L 574.618095 88.621844 
L 577.989668 84.99559 
L 581.36124 81.870992 
L 582.485092 81.147174 
L 585.856665 79.384213 
L 586.980523 78.789393 
L 589.228238 77.99391 
L 592.59981 76.811436 
L 594.847525 76.445944 
L 599.342955 75.148806 
L 606.086095 72.131705 
L 609.457668 71.056729 
L 615.076955 67.709969 
L 616.200813 66.821322 
L 618.448528 64.786033 
L 620.696243 63.180735 
L 621.820101 62.542916 
L 624.067816 61.654268 
L 631.934813 58.314675 
L 633.05867 57.676856 
L 634.182528 57.246865 
L 636.430243 56.852707 
L 638.677958 56.136056 
L 640.925673 55.885228 
L 643.173388 55.555569 
L 645.421103 55.03958 
L 651.040391 54.014769 
L 652.164248 53.778274 
L 654.411958 53.54178 
L 657.783531 52.502636 
L 660.031246 51.979481 
L 662.278961 51.341661 
L 666.774391 50.324017 
L 667.898248 49.858194 
L 669.022106 49.5572 
L 671.269821 49.528534 
L 673.517536 48.776051 
L 675.765251 48.503723 
L 679.136818 47.328416 
L 679.136818 47.328416 
" clip-path="url(#p60dd91c4d6)" style="fill: none; stroke: #ff7f0e; stroke-width: 1.5; stroke-linecap: square"/>
   </g>
   <g id="line2d_25">
    <path d="M 77.873182 27.634848 
L 78.997034 28.036172 
L 80.120891 27.871342 
L 81.244749 26.903864 
L 82.368606 26.208712 
L 83.492464 26.803532 
L 84.616322 27.570349 
L 85.740179 27.857009 
L 89.111752 27.792511 
L 90.235609 27.778178 
L 91.359467 27.950174 
L 93.607182 27.484351 
L 95.854897 28.566494 
L 96.978754 28.838821 
L 99.226469 28.910486 
L 101.474184 29.060983 
L 102.598037 28.702658 
L 103.721894 27.943008 
L 104.845752 27.97884 
L 105.969609 29.017984 
L 107.093467 29.727468 
L 109.341182 30.451286 
L 112.712754 31.268268 
L 113.836612 31.253935 
L 114.960469 30.773779 
L 116.084327 31.024607 
L 117.208184 32.22858 
L 118.332042 32.966731 
L 119.455899 33.095728 
L 120.579757 33.016896 
L 121.703615 33.396721 
L 122.827472 34.034541 
L 125.075187 34.923188 
L 126.199045 35.532341 
L 129.570612 38.248448 
L 131.818327 39.036764 
L 132.942184 39.445255 
L 134.066042 40.140407 
L 135.189899 41.186717 
L 136.313757 41.989366 
L 137.437614 42.362025 
L 138.561472 43.222006 
L 139.68533 44.56931 
L 140.809187 45.436457 
L 141.933045 46.153108 
L 144.18076 48.0379 
L 146.428475 49.987191 
L 147.552332 50.739674 
L 148.67619 51.348828 
L 149.800047 52.194476 
L 152.047757 54.795919 
L 154.295472 57.655356 
L 156.543187 60.04897 
L 161.038617 65.689013 
L 162.162475 67.100816 
L 164.41019 70.641071 
L 167.781762 75.944288 
L 171.153335 80.58102 
L 173.40105 84.429436 
L 182.391905 100.783411 
L 184.63962 104.732157 
L 188.011192 111.698005 
L 189.13505 114.263615 
L 192.506623 120.677641 
L 194.754338 125.816028 
L 197.002053 130.338096 
L 199.249762 134.809998 
L 204.86905 147.122061 
L 208.240622 154.202573 
L 211.612195 161.734574 
L 213.85991 166.600634 
L 216.107625 171.158534 
L 221.726913 183.484931 
L 228.470053 197.165798 
L 231.841625 204.253476 
L 236.337055 212.996617 
L 237.460913 215.368732 
L 239.708628 219.338978 
L 241.956343 223.488387 
L 244.204058 227.831292 
L 256.566485 249.595981 
L 258.8142 252.799411 
L 261.061915 256.196337 
L 263.309631 259.306602 
L 264.433488 261.033731 
L 265.557346 262.553031 
L 267.805061 265.089975 
L 270.052776 268.064077 
L 277.919773 275.080089 
L 280.167488 276.563557 
L 283.539061 278.40535 
L 285.786776 279.258165 
L 286.910633 279.623656 
L 289.158348 280.053647 
L 290.282206 280.153978 
L 293.653778 280.046481 
L 294.77763 280.075147 
L 297.025345 279.709655 
L 298.149203 279.487493 
L 300.396918 278.641845 
L 302.644633 277.710198 
L 304.892348 276.470392 
L 306.016206 275.775241 
L 310.511636 272.442814 
L 316.130923 266.84577 
L 319.502491 263.04752 
L 322.874063 258.94111 
L 325.121778 255.494019 
L 327.369493 252.218924 
L 329.617208 248.578337 
L 336.360354 236.452603 
L 344.227351 220.972942 
L 348.722781 211.606314 
L 359.961356 186.373034 
L 362.209071 181.327811 
L 364.456786 176.490418 
L 366.704496 171.524026 
L 372.323784 159.763784 
L 375.695356 152.66894 
L 382.438501 139.719057 
L 390.305499 126.03819 
L 392.553214 122.40477 
L 394.800929 118.556354 
L 406.039504 103.033695 
L 408.287219 100.64008 
L 410.534934 98.224967 
L 412.782649 95.494527 
L 418.401931 89.818651 
L 419.525789 88.980169 
L 420.649646 87.919526 
L 422.897361 85.59041 
L 427.392792 82.114653 
L 429.640507 80.466356 
L 431.888222 78.89689 
L 434.135937 77.327425 
L 436.383652 76.073286 
L 438.631361 74.876479 
L 442.002934 73.421677 
L 444.250649 72.24637 
L 445.374507 71.809212 
L 447.622222 71.343389 
L 449.869937 70.805901 
L 450.993794 70.476242 
L 452.117652 70.332912 
L 455.489224 70.196748 
L 458.860797 70.834567 
L 459.984655 71.257391 
L 461.108512 71.802046 
L 462.232364 72.53303 
L 463.356222 73.686838 
L 464.480079 75.184638 
L 465.603937 77.012098 
L 466.727794 79.355547 
L 467.851652 82.279483 
L 468.975509 85.905737 
L 470.099367 90.47797 
L 471.223224 95.860019 
L 472.347082 101.915719 
L 474.594797 116.112575 
L 476.842512 132.452216 
L 480.214085 157.34867 
L 484.709515 188.86698 
L 486.957224 203.371995 
L 488.081082 209.54236 
L 489.204939 214.315255 
L 490.328797 217.468519 
L 491.452654 218.951987 
L 492.576512 218.930487 
L 493.700369 218.034673 
L 494.824227 216.823533 
L 495.948085 215.368732 
L 497.071942 213.64877 
L 498.1958 211.563315 
L 499.319657 208.940373 
L 500.443515 205.751276 
L 502.69123 198.26944 
L 504.938945 190.680106 
L 506.062802 187.405012 
L 508.310517 181.951298 
L 509.434375 179.70818 
L 510.558227 178.009718 
L 511.682084 177.12107 
L 512.805942 177.250068 
L 513.9298 178.49704 
L 515.053657 180.869155 
L 516.177515 184.316246 
L 517.301372 188.780981 
L 518.42523 194.234695 
L 522.92066 218.808656 
L 524.044517 223.294891 
L 525.168375 226.84948 
L 526.292232 229.321926 
L 527.41609 230.547399 
L 528.539947 230.597565 
L 529.663805 229.565587 
L 530.787663 227.394135 
L 531.91152 224.190705 
L 533.035378 220.134461 
L 535.283087 210.30201 
L 540.902375 182.897277 
L 546.521662 152.238949 
L 547.64552 146.885567 
L 549.893235 137.805599 
L 552.14095 130.302263 
L 554.388665 123.63741 
L 556.63638 117.775205 
L 557.760232 115.137929 
L 560.007947 110.630195 
L 562.255662 106.530951 
L 573.494238 89.395827 
L 575.741953 86.142232 
L 576.86581 84.751929 
L 579.113525 82.444313 
L 581.36124 80.337359 
L 582.485092 79.463045 
L 584.732808 78.337903 
L 588.10438 76.703938 
L 589.228238 76.266781 
L 591.475953 75.127306 
L 592.59981 74.81198 
L 594.847525 74.518153 
L 597.09524 73.858834 
L 599.342955 73.450343 
L 606.086095 70.641071 
L 609.457668 69.580428 
L 610.581525 69.128938 
L 611.705383 68.541284 
L 616.200813 65.545683 
L 618.448528 63.818554 
L 622.943958 60.987783 
L 624.067816 60.529126 
L 626.315531 59.826809 
L 628.563246 58.866496 
L 630.810955 58.049514 
L 633.05867 56.967371 
L 634.182528 56.630545 
L 635.306385 56.429883 
L 636.430243 56.093057 
L 638.677958 55.118412 
L 639.801816 54.903416 
L 642.049531 54.60959 
L 644.297246 54.036269 
L 646.544961 53.749608 
L 651.040391 52.574301 
L 653.288106 52.194476 
L 654.411958 52.086978 
L 655.535816 51.828984 
L 657.783531 51.176831 
L 666.774391 49.084211 
L 667.898248 48.668553 
L 669.022106 48.568222 
L 670.145963 48.647054 
L 671.269821 48.51089 
L 673.517536 47.636576 
L 679.136818 46.432602 
L 679.136818 46.432602 
" clip-path="url(#p60dd91c4d6)" style="fill: none; stroke: #2ca02c; stroke-width: 1.5; stroke-linecap: square"/>
   </g>
   <g id="line2d_26">
    <path d="M 77.873182 27.032861 
L 78.997034 27.305188 
L 80.120891 27.298022 
L 82.368606 26.423707 
L 83.492464 26.45954 
L 85.740179 27.21919 
L 87.987894 27.38402 
L 89.111752 27.427019 
L 91.359467 27.935841 
L 92.483324 27.771011 
L 93.607182 27.728012 
L 94.731039 28.179502 
L 95.854897 28.444663 
L 99.226469 28.888987 
L 102.598037 28.609493 
L 103.721894 27.97884 
L 104.845752 27.986007 
L 105.969609 29.003651 
L 107.093467 29.734635 
L 109.341182 30.300789 
L 111.588897 30.788112 
L 112.712754 30.895609 
L 113.836612 30.773779 
L 114.960469 30.522951 
L 116.084327 31.046106 
L 117.208184 32.22858 
L 118.332042 32.959564 
L 119.455899 33.002563 
L 120.579757 32.68007 
L 121.703615 32.916565 
L 123.95133 34.428699 
L 127.322897 35.983831 
L 128.446754 36.865312 
L 129.570612 37.510298 
L 131.818327 38.226949 
L 132.942184 38.986599 
L 135.189899 40.971722 
L 136.313757 41.580875 
L 137.437614 41.738538 
L 138.561472 42.182862 
L 140.809187 44.339981 
L 141.933045 45.14263 
L 145.304617 48.281562 
L 147.552332 49.858194 
L 148.67619 50.567678 
L 149.800047 51.585323 
L 153.171614 56.007059 
L 154.295472 57.232532 
L 156.543187 59.28932 
L 157.667045 60.579292 
L 158.790902 62.084259 
L 161.038617 64.757367 
L 167.781762 74.890812 
L 170.029477 77.857747 
L 172.277192 81.34067 
L 173.40105 83.318627 
L 175.64876 87.647199 
L 185.763477 106.480786 
L 197.002053 129.664444 
L 199.249762 134.587836 
L 201.497477 139.253234 
L 211.612195 161.999735 
L 219.479198 179.464519 
L 221.726913 184.688904 
L 226.222337 193.9982 
L 229.59391 201.401205 
L 232.965483 208.775543 
L 237.460913 217.963008 
L 243.0802 229.035266 
L 247.575625 237.979069 
L 249.82334 242.157145 
L 259.938058 260.15225 
L 261.061915 261.994043 
L 263.309631 265.297804 
L 264.433488 267.146763 
L 265.557346 268.744895 
L 267.805061 271.489668 
L 270.052776 274.556934 
L 273.424343 278.434016 
L 276.795915 281.802275 
L 279.04363 283.851897 
L 281.291346 285.421363 
L 284.662918 287.23449 
L 285.786776 287.736145 
L 288.034491 288.467129 
L 289.158348 288.689291 
L 292.529921 288.495795 
L 294.77763 289.155114 
L 295.901488 289.04045 
L 299.273061 288.158969 
L 300.396918 287.728979 
L 302.644633 287.220157 
L 303.768491 286.768667 
L 304.892348 286.195346 
L 306.016206 285.428529 
L 308.263921 283.57957 
L 312.759351 279.630823 
L 313.883208 278.735009 
L 316.130923 276.427393 
L 318.378633 273.718453 
L 323.997921 266.172118 
L 328.493351 259.213437 
L 329.617208 257.407477 
L 334.112639 249.022661 
L 338.608069 240.315352 
L 340.855784 235.635621 
L 343.103493 230.683563 
L 345.351208 225.595341 
L 347.598923 221.023108 
L 358.837499 194.550022 
L 361.085214 188.831147 
L 363.332929 183.635428 
L 370.076069 168.471093 
L 373.447641 160.817261 
L 375.695356 156.266528 
L 379.066929 148.906522 
L 382.438501 142.184336 
L 390.305499 127.765319 
L 392.553214 123.78074 
L 394.800929 119.79616 
L 397.048644 116.227239 
L 400.420216 111.389845 
L 403.791789 106.444953 
L 407.163362 101.629059 
L 408.287219 100.260255 
L 411.658792 96.72 
L 416.154216 91.366617 
L 417.278074 90.191309 
L 419.525789 88.478514 
L 420.649646 87.29604 
L 421.773504 85.905737 
L 422.897361 84.737596 
L 425.145077 83.0033 
L 433.012079 77.356091 
L 436.383652 75.28497 
L 439.755219 73.407344 
L 443.126792 71.723214 
L 444.250649 71.350556 
L 446.498364 70.404577 
L 449.869937 69.594761 
L 450.993794 69.20777 
L 452.117652 69.057273 
L 454.365367 69.093105 
L 455.489224 69.014274 
L 456.613082 69.071606 
L 458.860797 69.752424 
L 461.108512 70.633905 
L 462.232364 71.515386 
L 464.480079 74.181327 
L 465.603937 75.922789 
L 466.727794 78.32357 
L 467.851652 81.36217 
L 468.975509 85.081588 
L 470.099367 89.632322 
L 471.223224 94.949872 
L 472.347082 100.962573 
L 473.470939 107.727758 
L 475.718654 123.408081 
L 480.214085 156.961679 
L 485.833367 197.144298 
L 486.957224 204.425472 
L 488.081082 210.832331 
L 489.204939 215.963552 
L 490.328797 219.403477 
L 491.452654 221.008775 
L 492.576512 221.159272 
L 493.700369 220.48562 
L 494.824227 219.367644 
L 495.948085 217.884177 
L 497.071942 216.042384 
L 498.1958 213.799266 
L 499.319657 211.047327 
L 500.443515 207.736399 
L 502.69123 200.175732 
L 504.938945 192.35707 
L 506.062802 188.931478 
L 507.18666 185.95021 
L 508.310517 183.327268 
L 509.434375 181.08415 
L 510.558227 179.292523 
L 511.682084 178.231879 
L 512.805942 178.217546 
L 513.9298 179.321189 
L 515.053657 181.549973 
L 516.177515 184.968398 
L 517.301372 189.633796 
L 519.549087 201.659199 
L 521.796802 214.515917 
L 522.92066 220.17746 
L 524.044517 224.792692 
L 525.168375 228.254116 
L 526.292232 230.447068 
L 527.41609 231.321382 
L 528.539947 230.948724 
L 529.663805 229.45809 
L 530.787663 226.892479 
L 531.91152 223.352223 
L 533.035378 219.016485 
L 535.283087 208.59638 
L 542.026232 175.322276 
L 547.64552 146.104417 
L 548.769378 141.41752 
L 551.017093 133.505693 
L 553.264808 126.410849 
L 555.512523 120.254817 
L 557.760232 114.621941 
L 560.007947 109.705715 
L 563.37952 103.377687 
L 567.87495 96.096513 
L 572.37038 89.116333 
L 574.618095 85.941569 
L 577.989668 81.677496 
L 579.113525 80.559521 
L 581.36124 78.760727 
L 582.485092 77.958078 
L 588.10438 74.905145 
L 590.352095 73.951999 
L 591.475953 73.60084 
L 599.342955 71.966876 
L 604.962243 69.580428 
L 607.209953 68.727613 
L 609.457668 68.247457 
L 610.581525 67.803134 
L 616.200813 64.262878 
L 619.572386 61.353275 
L 621.820101 59.891307 
L 622.943958 59.346652 
L 627.439388 57.712688 
L 631.934813 55.749065 
L 633.05867 55.075413 
L 634.182528 54.781586 
L 635.306385 54.738587 
L 636.430243 54.480592 
L 638.677958 53.491614 
L 639.801816 53.290952 
L 642.049531 53.111789 
L 647.668818 51.943648 
L 649.916533 51.778818 
L 653.288106 50.868672 
L 654.411958 50.782673 
L 657.783531 49.793695 
L 658.907388 49.679031 
L 661.155103 49.191708 
L 662.278961 49.026879 
L 664.526676 48.20273 
L 666.774391 47.858738 
L 669.022106 47.206585 
L 671.269821 47.056088 
L 672.393678 46.762262 
L 673.517536 46.310771 
L 674.641394 46.095776 
L 675.765251 46.009778 
L 678.012961 45.321793 
L 679.136818 45.199963 
L 679.136818 45.199963 
" clip-path="url(#p60dd91c4d6)" style="fill: none; stroke: #d62728; stroke-width: 1.5; stroke-linecap: square"/>
   </g>
   <g id="line2d_27">
    <path d="M 77.873182 27.290855 
L 78.997034 27.376853 
L 80.120891 27.204857 
L 81.244749 26.631536 
L 82.368606 26.373542 
L 84.616322 27.642014 
L 85.740179 27.971674 
L 86.864037 27.81401 
L 87.987894 27.319521 
L 89.111752 26.968362 
L 90.235609 27.24069 
L 91.359467 27.857009 
L 92.483324 27.993173 
L 93.607182 28.007506 
L 94.731039 28.279833 
L 95.854897 28.365832 
L 98.102612 28.00034 
L 99.226469 28.043339 
L 101.474184 28.272667 
L 102.598037 27.986007 
L 103.721894 27.341021 
L 104.845752 27.348187 
L 105.969609 28.566494 
L 107.093467 29.533973 
L 108.217324 29.849299 
L 109.341182 29.820633 
L 110.465039 29.963963 
L 111.588897 30.322289 
L 112.712754 30.530117 
L 113.836612 30.386787 
L 114.960469 30.035628 
L 116.084327 30.515784 
L 117.208184 31.705425 
L 118.332042 32.221414 
L 120.579757 32.006418 
L 121.703615 32.307412 
L 126.199045 34.170704 
L 127.322897 34.880189 
L 128.446754 35.869167 
L 129.570612 36.528486 
L 131.818327 36.743481 
L 132.942184 37.11614 
L 136.313757 39.194427 
L 137.437614 39.430922 
L 138.561472 40.204905 
L 139.68533 41.473378 
L 140.809187 42.390691 
L 145.304617 45.149797 
L 146.428475 46.23194 
L 147.552332 47.048922 
L 148.67619 47.600743 
L 149.800047 48.532389 
L 154.295472 53.814107 
L 155.41933 54.87475 
L 156.543187 55.6559 
L 157.667045 56.788208 
L 158.790902 58.300342 
L 163.286332 63.646558 
L 165.534047 66.864321 
L 167.781762 70.024752 
L 170.029477 73.156516 
L 172.277192 76.338447 
L 179.020332 87.525368 
L 185.763477 99.443273 
L 186.887335 101.414063 
L 191.382765 110.157205 
L 193.63048 114.127451 
L 199.249762 125.386038 
L 204.86905 134.552004 
L 209.36448 142.420831 
L 216.107625 153.751083 
L 217.231483 155.263216 
L 219.479198 158.918136 
L 223.974622 165.977148 
L 228.470053 171.889518 
L 230.717768 175.264944 
L 232.965483 178.074216 
L 235.213198 180.754491 
L 236.337055 182.245125 
L 237.460913 183.52793 
L 238.58477 184.552741 
L 239.708628 185.756714 
L 241.956343 188.616152 
L 246.451768 193.460712 
L 249.82334 196.613976 
L 252.071055 198.670765 
L 256.566485 202.325684 
L 258.8142 203.60849 
L 261.061915 205.407284 
L 264.433488 207.24191 
L 265.557346 207.851063 
L 268.928918 209.169701 
L 270.052776 209.499361 
L 272.300485 209.936518 
L 273.424343 210.273344 
L 274.5482 210.459673 
L 276.795915 210.509838 
L 277.919773 210.7535 
L 279.04363 210.810832 
L 283.539061 210.13718 
L 288.034491 208.78271 
L 289.158348 208.180723 
L 291.406063 206.50376 
L 293.653778 205.464616 
L 294.77763 204.919961 
L 299.273061 201.859861 
L 303.768491 198.513101 
L 306.016206 196.191152 
L 308.263921 193.740206 
L 310.511636 191.389591 
L 316.130923 185.004231 
L 317.254781 183.793091 
L 319.502491 180.790323 
L 321.750206 177.637059 
L 323.997921 174.648625 
L 329.617208 166.493137 
L 331.864923 162.816717 
L 336.360354 155.9942 
L 343.103493 144.921943 
L 345.351208 141.324355 
L 347.598923 137.984762 
L 355.465926 125.264207 
L 365.580644 110.214537 
L 370.076069 104.295 
L 372.323784 101.2779 
L 375.695356 97.106991 
L 379.066929 93.129578 
L 385.810074 85.977402 
L 392.553214 79.362714 
L 394.800929 77.370424 
L 399.296359 73.866001 
L 401.544074 71.995542 
L 403.791789 70.626738 
L 407.163362 68.254624 
L 410.534934 66.720991 
L 412.782649 65.130026 
L 422.897361 60.063303 
L 433.012079 56.501548 
L 435.259794 55.921061 
L 444.250649 54.072101 
L 448.746079 53.921605 
L 453.241509 54.021936 
L 455.489224 54.373095 
L 458.860797 55.419405 
L 459.984655 55.870895 
L 461.108512 56.594713 
L 462.232364 57.734188 
L 464.480079 60.543459 
L 465.603937 62.306421 
L 466.727794 64.649869 
L 467.851652 67.580972 
L 468.975509 71.149894 
L 470.099367 75.492798 
L 471.223224 80.573854 
L 473.470939 92.434427 
L 474.594797 99.400274 
L 476.842512 115.202428 
L 485.833367 180.926487 
L 486.957224 188.214827 
L 488.081082 194.313527 
L 489.204939 198.713764 
L 490.328797 201.372539 
L 491.452654 202.433182 
L 492.576512 202.239686 
L 493.700369 201.379705 
L 495.948085 199.430415 
L 498.1958 197.832283 
L 499.319657 196.549478 
L 500.443515 194.679019 
L 501.567372 192.242406 
L 502.69123 189.275471 
L 503.815087 185.720882 
L 508.310517 169.531737 
L 509.434375 166.192143 
L 510.558227 163.569201 
L 511.682084 161.920904 
L 512.805942 161.612744 
L 513.9298 162.773718 
L 515.053657 165.238998 
L 516.177515 168.922583 
L 517.301372 173.77431 
L 518.42523 179.572017 
L 520.672945 193.131053 
L 524.044517 214.788245 
L 526.292232 227.351136 
L 527.41609 232.525356 
L 528.539947 236.853927 
L 529.663805 240.272353 
L 530.787663 242.615801 
L 531.91152 243.812608 
L 533.035378 243.855607 
L 534.15923 242.723299 
L 535.283087 240.207854 
L 536.406945 236.352272 
L 537.530802 231.357215 
L 538.65466 225.201183 
L 539.778517 217.869844 
L 542.026232 200.319062 
L 547.64552 153.041598 
L 548.769378 145.19427 
L 549.893235 138.307255 
L 552.14095 126.539846 
L 553.264808 121.580621 
L 554.388665 117.295049 
L 555.512523 113.532631 
L 556.63638 110.200204 
L 557.760232 107.426765 
L 558.88409 105.283979 
L 560.007947 103.642848 
L 561.131805 102.403042 
L 562.255662 101.514395 
L 564.503377 100.410752 
L 565.627235 99.844598 
L 566.751093 99.070615 
L 567.87495 98.031471 
L 568.998808 96.669834 
L 570.122665 94.899706 
L 571.246523 92.663755 
L 576.86581 79.9862 
L 577.989668 77.836247 
L 579.113525 76.008787 
L 581.36124 73.013186 
L 582.485092 71.909544 
L 583.60895 71.121228 
L 586.980523 69.257935 
L 589.228238 68.276123 
L 593.723668 67.000485 
L 597.09524 66.470163 
L 599.342955 65.918342 
L 608.33381 63.137736 
L 610.581525 62.413918 
L 612.82924 61.346109 
L 616.200813 59.489983 
L 619.572386 57.311364 
L 621.820101 55.992726 
L 622.943958 55.247409 
L 624.067816 54.810252 
L 625.191673 54.580924 
L 626.315531 54.143766 
L 628.563246 53.004291 
L 630.810955 52.237475 
L 634.182528 50.539012 
L 636.430243 49.815195 
L 639.801816 48.231396 
L 644.297246 47.063255 
L 647.668818 46.353771 
L 649.916533 45.916613 
L 652.164248 45.486623 
L 656.659673 44.540644 
L 658.907388 44.361481 
L 660.031246 44.017488 
L 661.155103 43.795327 
L 662.278961 43.716495 
L 666.774391 42.670185 
L 667.898248 42.369191 
L 669.022106 42.276027 
L 671.269821 42.354858 
L 672.393678 42.12553 
L 673.517536 41.731372 
L 674.641394 41.502044 
L 676.889109 41.265549 
L 679.136818 41.029054 
L 679.136818 41.029054 
" clip-path="url(#p60dd91c4d6)" style="fill: none; stroke: #9467bd; stroke-width: 1.5; stroke-linecap: square"/>
   </g>
   <g id="line2d_28">
    <path d="M 77.873182 26.180046 
L 78.997034 26.531205 
L 80.120891 26.724701 
L 82.368606 26.079715 
L 83.492464 26.180046 
L 86.864037 27.083026 
L 90.235609 27.247856 
L 91.359467 27.591849 
L 92.483324 27.642014 
L 93.607182 27.412686 
L 94.731039 27.541683 
L 95.854897 27.878509 
L 100.350327 28.458996 
L 101.474184 28.552161 
L 103.721894 28.387331 
L 104.845752 28.616659 
L 105.969609 29.247312 
L 107.093467 29.727468 
L 109.341182 30.236291 
L 111.588897 30.87411 
L 112.712754 31.225269 
L 113.836612 31.354266 
L 114.960469 31.253935 
L 116.084327 31.676759 
L 117.208184 32.622738 
L 118.332042 33.239058 
L 119.455899 33.382388 
L 120.579757 33.396721 
L 121.703615 33.998708 
L 122.827472 34.772691 
L 126.199045 35.955165 
L 130.694469 38.821769 
L 132.942184 39.82508 
L 134.066042 40.60623 
L 135.189899 41.523543 
L 137.437614 42.913846 
L 138.561472 43.666329 
L 141.933045 46.5401 
L 143.056902 47.414414 
L 150.923899 54.781586 
L 153.171614 57.347196 
L 155.41933 59.833975 
L 156.543187 61.016449 
L 157.667045 62.464084 
L 161.038617 67.365977 
L 164.41019 71.544052 
L 170.029477 80.409024 
L 171.153335 82.071654 
L 173.40105 85.955902 
L 175.64876 90.241475 
L 179.020332 96.146679 
L 181.268047 100.919574 
L 183.515762 104.717824 
L 189.13505 116.098242 
L 191.382765 120.842471 
L 193.63048 125.543701 
L 199.249762 137.583437 
L 201.497477 142.112671 
L 207.116765 154.568065 
L 209.36448 159.477124 
L 211.612195 164.422015 
L 214.983768 172.262177 
L 225.09848 195.144842 
L 229.59391 204.905628 
L 231.841625 209.886352 
L 236.337055 219.324645 
L 238.58477 223.918378 
L 240.832485 228.404613 
L 244.204058 235.470791 
L 246.451768 240.035858 
L 248.699483 244.722755 
L 252.071055 250.742623 
L 254.31877 255.107027 
L 261.061915 266.738272 
L 265.557346 273.725619 
L 267.805061 276.929049 
L 270.052776 280.225643 
L 272.300485 282.877252 
L 274.5482 285.270866 
L 277.919773 288.653459 
L 280.167488 290.445086 
L 282.415203 291.971552 
L 285.786776 294.085673 
L 286.910633 294.551496 
L 289.158348 295.067485 
L 295.901488 295.71247 
L 297.025345 295.698137 
L 298.149203 295.540474 
L 303.768491 293.76318 
L 304.892348 293.254358 
L 306.016206 292.580706 
L 311.635493 288.452796 
L 312.759351 287.728979 
L 313.883208 286.718501 
L 318.378633 281.974272 
L 320.626348 279.250998 
L 322.874063 276.699721 
L 327.369493 270.077866 
L 330.741066 264.530987 
L 336.360354 254.290045 
L 339.731926 247.266866 
L 343.103493 240.444349 
L 348.722781 228.06062 
L 354.342069 214.917242 
L 357.713641 207.105746 
L 361.085214 198.548934 
L 365.580644 188.08583 
L 371.199926 174.849287 
L 373.447641 169.632068 
L 376.819214 162.264896 
L 379.066929 157.477668 
L 382.438501 150.597819 
L 385.810074 143.517307 
L 389.181647 137.060282 
L 397.048644 122.99959 
L 401.544074 115.861747 
L 403.791789 112.665483 
L 406.039504 109.555218 
L 408.287219 106.258624 
L 410.534934 103.41352 
L 416.154216 96.612502 
L 417.278074 95.1792 
L 421.773504 90.399138 
L 426.268934 86.378726 
L 428.516649 84.493934 
L 430.764364 82.666474 
L 433.012079 80.982345 
L 437.507509 77.965244 
L 442.002934 75.127306 
L 443.126792 74.50382 
L 445.374507 73.701171 
L 447.622222 72.977354 
L 450.993794 72.181871 
L 452.117652 71.77338 
L 453.241509 71.493886 
L 455.489224 71.350556 
L 456.613082 71.479553 
L 459.984655 72.318035 
L 461.108512 72.712193 
L 462.232364 73.493342 
L 463.356222 74.697316 
L 464.480079 76.152117 
L 465.603937 77.965244 
L 466.727794 80.251361 
L 467.851652 83.096465 
L 468.975509 86.708386 
L 470.099367 91.287785 
L 471.223224 96.755832 
L 472.347082 102.911864 
L 473.470939 109.763047 
L 475.718654 125.708531 
L 480.214085 159.118798 
L 486.957224 205.973438 
L 488.081082 212.330132 
L 489.204939 217.103027 
L 490.328797 220.170293 
L 491.452654 221.703926 
L 492.576512 221.997753 
L 493.700369 221.381433 
L 494.824227 220.026963 
L 497.071942 216.185714 
L 498.1958 213.921097 
L 499.319657 211.04016 
L 501.567372 203.737487 
L 504.938945 192.084742 
L 506.062802 188.716483 
L 507.18666 185.778214 
L 508.310517 183.226936 
L 509.434375 181.112816 
L 510.558227 179.579183 
L 511.682084 178.841033 
L 512.805942 179.034528 
L 513.9298 180.238502 
L 515.053657 182.510286 
L 516.177515 185.957377 
L 517.301372 190.65144 
L 519.549087 202.562179 
L 521.796802 214.953074 
L 522.92066 220.249125 
L 524.044517 224.384201 
L 525.168375 227.279471 
L 526.292232 228.934934 
L 527.41609 229.264594 
L 528.539947 228.325781 
L 529.663805 226.319158 
L 530.787663 223.287725 
L 531.91152 219.27448 
L 534.15923 209.305865 
L 538.65466 187.792003 
L 540.902375 177.565394 
L 546.521662 149.959999 
L 548.769378 140.593371 
L 549.893235 136.594459 
L 552.14095 129.800608 
L 554.388665 123.379415 
L 557.760232 114.822603 
L 560.007947 109.784547 
L 562.255662 105.291145 
L 568.998808 93.882062 
L 571.246523 90.606967 
L 574.618095 85.963069 
L 576.86581 83.325793 
L 579.113525 81.061176 
L 582.485092 78.230405 
L 583.60895 77.571086 
L 585.856665 76.61794 
L 588.10438 75.578797 
L 592.59981 74.080996 
L 599.342955 72.353867 
L 601.59067 71.329056 
L 603.838386 70.289912 
L 606.086095 69.573261 
L 608.33381 68.827945 
L 610.581525 67.774468 
L 615.076955 65.07986 
L 617.32467 63.295399 
L 619.572386 61.582603 
L 622.943958 59.661979 
L 624.067816 59.260654 
L 625.191673 59.031326 
L 626.315531 58.579836 
L 627.439388 57.906184 
L 628.563246 57.375862 
L 630.810955 56.623379 
L 633.05867 55.333407 
L 634.182528 55.06108 
L 635.306385 54.975082 
L 636.430243 54.73142 
L 639.801816 53.441448 
L 642.049531 53.441448 
L 643.173388 53.197787 
L 644.297246 52.803629 
L 645.421103 52.545635 
L 649.916533 51.864816 
L 656.659673 50.488847 
L 660.031246 49.485535 
L 661.155103 49.363705 
L 662.278961 49.363705 
L 663.402818 49.120043 
L 666.774391 47.901737 
L 667.898248 47.521912 
L 669.022106 47.371415 
L 670.145963 47.400081 
L 671.269821 47.306916 
L 673.517536 46.568766 
L 674.641394 46.446935 
L 675.765251 46.439769 
L 678.012961 45.938113 
L 679.136818 45.694452 
L 679.136818 45.694452 
" clip-path="url(#p60dd91c4d6)" style="fill: none; stroke: #8c564b; stroke-width: 1.5; stroke-linecap: square"/>
   </g>
   <g id="line2d_29">
    <path d="M 77.873182 26.610037 
L 78.997034 26.882364 
L 80.120891 26.810699 
L 82.368606 25.520727 
L 83.492464 25.871886 
L 84.616322 26.631536 
L 85.740179 27.104526 
L 89.111752 27.154691 
L 90.235609 27.355354 
L 91.359467 27.341021 
L 92.483324 27.05436 
L 93.607182 26.961196 
L 98.102612 28.322833 
L 99.226469 28.602326 
L 100.350327 28.673991 
L 101.474184 28.494829 
L 102.598037 28.036172 
L 103.721894 27.455685 
L 104.845752 27.563182 
L 105.969609 28.494829 
L 107.093467 29.182814 
L 110.465039 30.293623 
L 113.836612 30.895609 
L 114.960469 30.788112 
L 116.084327 31.046106 
L 117.208184 31.956253 
L 118.332042 32.644238 
L 119.455899 32.830567 
L 120.579757 32.859233 
L 121.703615 33.418221 
L 122.827472 34.134872 
L 125.075187 34.887355 
L 126.199045 35.281513 
L 127.322897 35.940832 
L 128.446754 36.879645 
L 129.570612 37.653628 
L 132.942184 38.972266 
L 134.066042 39.696083 
L 135.189899 40.756727 
L 136.313757 41.616708 
L 137.437614 42.053865 
L 138.561472 42.74185 
L 139.68533 43.78816 
L 141.933045 45.594121 
L 143.056902 46.597432 
L 145.304617 48.274395 
L 147.552332 50.345516 
L 148.67619 51.112333 
L 149.800047 52.172976 
L 153.171614 56.257887 
L 155.41933 58.780498 
L 156.543187 59.747977 
L 157.667045 60.959117 
L 161.038617 65.509851 
L 162.162475 66.771156 
L 163.286332 68.211625 
L 165.534047 71.845045 
L 167.781762 75.521464 
L 171.153335 80.387524 
L 180.14419 96.017682 
L 184.63962 105.018818 
L 190.258907 116.220072 
L 197.002053 130.00127 
L 200.37362 137.368442 
L 204.86905 146.71357 
L 207.116765 151.672795 
L 211.612195 161.290251 
L 214.983768 168.700422 
L 222.850765 185.742381 
L 225.09848 189.963455 
L 227.346195 194.843848 
L 229.59391 199.423248 
L 231.841625 204.20331 
L 234.08934 208.47455 
L 237.460913 215.297067 
L 240.832485 221.503264 
L 243.0802 225.953666 
L 250.947198 240.308185 
L 257.690343 251.358943 
L 261.061915 256.253669 
L 262.185773 257.787302 
L 264.433488 261.270226 
L 265.557346 262.73936 
L 267.805061 265.32647 
L 270.052776 268.071243 
L 273.424343 271.525501 
L 277.919773 275.452748 
L 280.167488 276.972048 
L 283.539061 278.821007 
L 285.786776 279.831485 
L 286.910633 280.146812 
L 289.158348 280.433472 
L 292.529921 280.447805 
L 293.653778 280.512304 
L 295.901488 280.325974 
L 298.149203 279.766987 
L 303.768491 278.090023 
L 304.892348 277.423538 
L 309.387778 273.983613 
L 317.254781 266.465945 
L 319.502491 263.735505 
L 323.997921 257.737136 
L 329.617208 249.180324 
L 336.360354 237.283918 
L 340.855784 228.175284 
L 343.103493 223.939877 
L 356.589784 194.729184 
L 359.961356 186.960688 
L 362.209071 181.786468 
L 365.580644 174.576959 
L 370.076069 164.80184 
L 374.571499 155.506878 
L 379.066929 146.391077 
L 386.933931 131.764231 
L 397.048644 115.431756 
L 399.296359 112.163828 
L 404.915646 104.517162 
L 408.287219 100.346254 
L 417.278074 90.341806 
L 420.649646 87.224375 
L 421.773504 86.056233 
L 425.145077 83.175297 
L 427.392792 81.519833 
L 430.764364 79.176384 
L 431.888222 78.359402 
L 438.631361 74.596985 
L 442.002934 72.776691 
L 445.374507 71.357722 
L 446.498364 70.99223 
L 448.746079 70.555073 
L 450.993794 69.78109 
L 452.117652 69.594761 
L 454.365367 69.49443 
L 455.489224 69.415598 
L 456.613082 69.566095 
L 459.984655 70.598072 
L 461.108512 71.056729 
L 462.232364 71.873711 
L 463.356222 73.092018 
L 464.480079 74.50382 
L 465.603937 76.238115 
L 466.727794 78.624563 
L 467.851652 81.67033 
L 468.975509 85.318083 
L 470.099367 89.761319 
L 471.223224 95.028703 
L 472.347082 101.027072 
L 473.470939 107.799423 
L 475.718654 123.594411 
L 480.214085 156.832682 
L 485.833367 195.911658 
L 486.957224 203.078168 
L 488.081082 209.141035 
L 489.204939 213.698935 
L 490.328797 216.651537 
L 491.452654 218.049006 
L 492.576512 218.120672 
L 493.700369 217.353855 
L 494.824227 216.235879 
L 495.948085 214.888576 
L 497.071942 213.211612 
L 498.1958 211.06166 
L 499.319657 208.388552 
L 500.443515 205.263953 
L 502.69123 197.875282 
L 504.938945 190.228616 
L 506.062802 186.881856 
L 508.310517 181.270479 
L 509.434375 179.005862 
L 510.558227 177.3074 
L 511.682084 176.404419 
L 512.805942 176.511917 
L 513.9298 177.766056 
L 515.053657 180.209836 
L 516.177515 183.771591 
L 517.301372 188.39399 
L 518.42523 193.962368 
L 522.92066 218.092005 
L 524.044517 222.700071 
L 525.168375 226.211661 
L 526.292232 228.547943 
L 527.41609 229.637252 
L 528.539947 229.544088 
L 529.663805 228.383113 
L 530.787663 226.147162 
L 531.91152 222.900733 
L 533.035378 218.851655 
L 534.15923 214.136092 
L 539.778517 187.261681 
L 542.026232 175.508606 
L 546.521662 151.142473 
L 547.64552 145.824923 
L 549.893235 136.766455 
L 552.14095 129.284619 
L 554.388665 122.770262 
L 556.63638 117.187551 
L 558.88409 111.913 
L 560.007947 109.562385 
L 561.131805 107.476931 
L 564.503377 102.152214 
L 570.122665 93.538069 
L 575.741953 85.28225 
L 576.86581 83.791616 
L 577.989668 82.494478 
L 580.237383 80.387524 
L 582.485092 78.395235 
L 583.60895 77.714416 
L 585.856665 76.718272 
L 588.10438 75.614629 
L 590.352095 74.95531 
L 592.59981 74.159828 
L 595.971383 73.385845 
L 597.09524 73.013186 
L 599.342955 72.554529 
L 608.33381 68.964108 
L 609.457668 68.620116 
L 610.581525 68.13996 
L 613.953098 66.190669 
L 615.076955 65.481185 
L 618.448528 62.808076 
L 621.820101 60.865952 
L 624.067816 59.826809 
L 626.315531 58.923828 
L 628.563246 57.863185 
L 630.810955 57.03187 
L 633.05867 55.827896 
L 634.182528 55.548402 
L 636.430243 55.240242 
L 639.801816 53.921605 
L 655.535816 50.926004 
L 656.659673 50.453014 
L 657.783531 50.17352 
L 662.278961 49.585866 
L 664.526676 48.919381 
L 665.650533 48.611221 
L 669.022106 47.328416 
L 671.269821 47.321249 
L 673.517536 46.82676 
L 675.765251 46.296438 
L 676.889109 45.945279 
L 679.136818 45.629953 
L 679.136818 45.629953 
" clip-path="url(#p60dd91c4d6)" style="fill: none; stroke: #e377c2; stroke-width: 1.5; stroke-linecap: square"/>
   </g>
   <g id="line2d_30">
    <path d="M 77.873182 27.842676 
L 78.997034 28.029006 
L 80.120891 27.986007 
L 81.244749 27.599015 
L 82.368606 27.38402 
L 83.492464 27.477184 
L 84.616322 27.756678 
L 85.740179 28.201002 
L 86.864037 28.401664 
L 89.111752 28.458996 
L 91.359467 28.810155 
L 93.607182 28.372998 
L 96.978754 29.139815 
L 99.226469 29.204313 
L 103.721894 28.810155 
L 104.845752 29.075316 
L 105.969609 29.741801 
L 108.217324 30.673448 
L 109.341182 31.03894 
L 112.712754 31.547762 
L 114.960469 31.49043 
L 116.084327 31.812923 
L 117.208184 32.443576 
L 118.332042 32.859233 
L 120.579757 32.794734 
L 121.703615 33.360889 
L 122.827472 34.106206 
L 123.95133 34.572029 
L 126.199045 35.188349 
L 127.322897 35.733003 
L 129.570612 37.266636 
L 131.818327 38.32728 
L 135.189899 40.075908 
L 137.437614 41.229716 
L 138.561472 42.003699 
L 140.809187 43.945823 
L 143.056902 45.522455 
L 145.304617 46.855426 
L 150.923899 51.843317 
L 153.171614 54.193932 
L 154.295472 55.555569 
L 155.41933 56.623379 
L 156.543187 57.476193 
L 157.667045 58.730333 
L 159.91476 61.826265 
L 164.41019 67.337311 
L 171.153335 77.248593 
L 173.40105 81.21884 
L 176.772617 87.016546 
L 179.020332 90.664299 
L 183.515762 98.898619 
L 191.382765 114.256449 
L 192.506623 116.083908 
L 193.63048 118.413024 
L 195.878195 123.515579 
L 199.249762 130.323763 
L 209.36448 150.619318 
L 212.736053 157.549333 
L 214.983768 161.849238 
L 217.231483 166.213643 
L 222.850765 176.533417 
L 225.09848 180.46783 
L 227.346195 184.724737 
L 229.59391 188.644818 
L 231.841625 192.894558 
L 234.08934 196.542311 
L 237.460913 201.931526 
L 239.708628 205.134956 
L 245.327916 213.849432 
L 248.699483 218.529163 
L 250.947198 221.682427 
L 253.194913 224.807025 
L 256.566485 228.927768 
L 258.8142 231.643875 
L 259.938058 233.048511 
L 265.557346 238.674221 
L 270.052776 242.501137 
L 272.300485 244.027604 
L 275.672058 245.726066 
L 277.919773 246.593214 
L 280.167488 247.274032 
L 284.662918 248.033682 
L 285.786776 248.012183 
L 286.910633 247.825854 
L 289.158348 247.123536 
L 291.406063 246.249222 
L 294.77763 245.468072 
L 297.025345 244.235432 
L 299.273061 242.952627 
L 302.644633 240.759675 
L 303.768491 239.856695 
L 306.016206 237.64941 
L 309.387778 234.209485 
L 312.759351 230.826893 
L 313.883208 229.529755 
L 316.130923 226.605819 
L 318.378633 223.732048 
L 321.750206 218.772824 
L 322.874063 217.224858 
L 329.617208 206.202766 
L 339.731926 187.505343 
L 345.351208 176.390086 
L 347.598923 171.868019 
L 349.846638 167.396117 
L 352.094354 162.99588 
L 354.342069 158.337649 
L 357.713641 151.873457 
L 359.961356 147.179393 
L 364.456786 138.52225 
L 367.828353 132.56688 
L 371.199926 126.195853 
L 372.323784 124.217897 
L 375.695356 118.907513 
L 377.943071 115.130763 
L 381.314644 110.236037 
L 382.438501 108.42291 
L 384.686216 105.369977 
L 391.429356 96.354508 
L 393.677071 93.530903 
L 394.800929 92.061768 
L 397.048644 89.625155 
L 400.420216 86.242563 
L 401.544074 84.895259 
L 407.163362 79.541876 
L 408.287219 78.595897 
L 410.534934 76.997765 
L 412.782649 75.163139 
L 417.278074 71.923877 
L 419.525789 70.68407 
L 426.268934 66.212169 
L 431.888222 63.854387 
L 436.383652 62.04126 
L 439.755219 60.980617 
L 444.250649 59.819642 
L 447.622222 59.317986 
L 449.869937 59.016993 
L 450.993794 58.823497 
L 453.241509 58.880829 
L 454.365367 58.952494 
L 456.613082 59.439817 
L 458.860797 60.127802 
L 461.108512 61.539604 
L 462.232364 62.471251 
L 463.356222 63.696724 
L 464.480079 65.108526 
L 465.603937 66.76399 
L 466.727794 68.999941 
L 467.851652 72.002708 
L 468.975509 75.700627 
L 470.099367 80.179696 
L 471.223224 85.411248 
L 472.347082 91.287785 
L 473.470939 97.802143 
L 475.718654 112.880479 
L 483.585657 171.445195 
L 485.833367 187.505343 
L 486.957224 194.94418 
L 488.081082 201.236375 
L 489.204939 205.966271 
L 490.328797 209.141035 
L 491.452654 210.689001 
L 492.576512 210.703334 
L 493.700369 209.793187 
L 495.948085 207.679067 
L 497.071942 206.661423 
L 498.1958 205.242454 
L 499.319657 203.207165 
L 500.443515 200.734719 
L 501.567372 197.853782 
L 502.69123 194.385192 
L 507.18666 179.027362 
L 508.310517 175.752267 
L 509.434375 172.87133 
L 510.558227 170.61388 
L 511.682084 169.280909 
L 512.805942 169.108913 
L 513.9298 170.076391 
L 515.053657 172.169012 
L 516.177515 175.60177 
L 517.301372 180.446331 
L 518.42523 186.322869 
L 520.672945 199.709908 
L 522.92066 213.498273 
L 524.044517 219.740303 
L 525.168375 225.287181 
L 526.292232 229.938246 
L 527.41609 233.528667 
L 528.539947 236.051278 
L 529.663805 237.520413 
L 530.787663 237.928904 
L 531.91152 237.212253 
L 533.035378 235.277295 
L 534.15923 232.16703 
L 535.283087 228.039121 
L 536.406945 223.079896 
L 537.530802 217.42552 
L 539.778517 204.454138 
L 542.026232 189.332803 
L 546.521662 156.710851 
L 548.769378 142.678825 
L 549.893235 136.83812 
L 552.14095 127.199165 
L 554.388665 119.072343 
L 555.512523 115.704083 
L 557.760232 110.028208 
L 558.88409 107.591595 
L 560.007947 105.556306 
L 561.131805 103.872176 
L 563.37952 101.127403 
L 567.87495 96.146679 
L 568.998808 94.541381 
L 571.246523 90.743131 
L 576.86581 80.251361 
L 579.113525 77.11243 
L 581.36124 74.518153 
L 582.485092 73.543508 
L 583.60895 72.84119 
L 589.228238 70.196748 
L 592.59981 69.007107 
L 598.219098 67.874799 
L 599.342955 67.709969 
L 604.962243 65.753512 
L 607.209953 64.893531 
L 609.457668 64.391875 
L 611.705383 63.474562 
L 613.953098 62.163091 
L 616.200813 60.708289 
L 618.448528 59.009826 
L 622.943958 56.451383 
L 625.191673 55.749065 
L 626.315531 55.354907 
L 629.687098 53.80694 
L 630.810955 53.434282 
L 634.182528 51.821817 
L 636.430243 51.226997 
L 639.801816 49.972858 
L 645.421103 48.811883 
L 653.288106 47.213752 
L 655.535816 47.063255 
L 658.907388 46.360937 
L 661.155103 45.744617 
L 662.278961 45.579788 
L 665.650533 44.612309 
L 670.145963 44.017488 
L 672.393678 43.866992 
L 675.765251 43.222006 
L 676.889109 42.792015 
L 678.012961 42.541187 
L 679.136818 42.498188 
L 679.136818 42.498188 
" clip-path="url(#p60dd91c4d6)" style="fill: none; stroke: #7f7f7f; stroke-width: 1.5; stroke-linecap: square"/>
   </g>
   <g id="line2d_31">
    <path d="M 77.873182 27.176191 
L 78.997034 27.276522 
L 80.120891 27.255023 
L 82.368606 26.452374 
L 83.492464 26.696035 
L 84.616322 27.262189 
L 85.740179 27.548849 
L 90.235609 27.591849 
L 91.359467 27.81401 
L 93.607182 27.391186 
L 95.854897 27.935841 
L 96.978754 28.029006 
L 100.350327 28.931986 
L 101.474184 28.788656 
L 102.598037 28.387331 
L 103.721894 27.821177 
L 104.845752 27.792511 
L 105.969609 28.580827 
L 107.093467 29.168481 
L 111.588897 30.42262 
L 112.712754 30.429786 
L 114.960469 29.727468 
L 116.084327 30.229124 
L 117.208184 31.504763 
L 118.332042 32.264413 
L 119.455899 32.171248 
L 120.579757 31.748424 
L 121.703615 32.035084 
L 122.827472 32.665737 
L 125.075187 33.396721 
L 126.199045 33.970042 
L 128.446754 35.496509 
L 129.570612 35.962332 
L 131.818327 36.084162 
L 132.942184 36.420988 
L 134.066042 37.345468 
L 135.189899 38.513609 
L 136.313757 39.08693 
L 137.437614 39.094096 
L 138.561472 39.473921 
L 140.809187 41.709872 
L 141.933045 42.534021 
L 145.304617 44.368647 
L 150.923899 48.776051 
L 152.047757 49.772196 
L 155.41933 53.219287 
L 156.543187 54.050602 
L 157.667045 55.34774 
L 158.790902 56.895706 
L 162.162475 60.600792 
L 164.41019 63.682391 
L 166.657905 67.086483 
L 168.90562 69.895754 
L 171.153335 72.669194 
L 173.40105 75.965788 
L 180.14419 87.6042 
L 181.268047 89.646655 
L 184.63962 95.164867 
L 186.887335 99.192445 
L 189.13505 103.728846 
L 190.258907 105.685303 
L 192.506623 109.204059 
L 197.002053 117.560209 
L 198.12591 119.781827 
L 200.37362 123.479746 
L 204.86905 130.92575 
L 209.36448 138.464918 
L 212.736053 143.617638 
L 216.107625 148.519531 
L 218.35534 151.407634 
L 222.850765 157.735662 
L 226.222337 161.791906 
L 228.470053 164.794674 
L 230.717768 167.259953 
L 231.841625 168.635923 
L 235.213198 172.140346 
L 236.337055 173.494817 
L 237.460913 174.662958 
L 238.58477 175.616103 
L 241.956343 178.962863 
L 244.204058 180.589661 
L 248.699483 184.495409 
L 253.194913 187.713171 
L 254.31877 188.673484 
L 255.442628 189.404468 
L 264.433488 193.467879 
L 271.176628 195.25234 
L 279.04363 195.008678 
L 280.167488 194.822349 
L 283.539061 193.761706 
L 285.786776 193.088054 
L 286.910633 192.579231 
L 291.406063 189.755627 
L 293.653778 188.422656 
L 295.901488 186.860357 
L 299.273061 184.14425 
L 301.520776 182.431454 
L 303.768491 180.439164 
L 306.016206 178.475541 
L 315.007066 168.843752 
L 319.502491 163.225208 
L 322.874063 159.469957 
L 329.617208 149.902667 
L 331.864923 146.885567 
L 335.236496 141.603849 
L 337.484211 138.314421 
L 345.351208 126.604345 
L 347.598923 123.608744 
L 353.218211 115.410257 
L 354.342069 113.941122 
L 356.589784 111.325346 
L 358.837499 107.885422 
L 361.085214 104.552995 
L 363.332929 101.72939 
L 371.199926 92.75692 
L 375.695356 87.876527 
L 377.943071 85.353916 
L 381.314644 82.186318 
L 383.562359 79.900202 
L 388.057789 75.865457 
L 395.924786 70.168082 
L 399.296359 68.039628 
L 401.544074 66.62066 
L 403.791789 65.158692 
L 407.163362 63.302566 
L 408.287219 62.65758 
L 416.154216 59.153157 
L 417.278074 58.536837 
L 420.649646 57.454694 
L 421.773504 56.845541 
L 422.897361 56.365384 
L 426.268934 55.340574 
L 428.516649 54.437593 
L 429.640507 54.172432 
L 430.764364 54.036269 
L 435.259794 52.839462 
L 443.126792 51.477825 
L 445.374507 51.298662 
L 447.622222 51.38466 
L 455.489224 52.051146 
L 456.613082 52.323473 
L 457.736939 52.731964 
L 459.984655 53.914438 
L 461.108512 54.652589 
L 462.232364 55.612901 
L 464.480079 58.200011 
L 465.603937 59.898474 
L 466.727794 62.277755 
L 467.851652 65.316355 
L 468.975509 68.885277 
L 470.099367 73.113517 
L 471.223224 78.13724 
L 473.470939 90.155477 
L 475.718654 104.352332 
L 477.96637 120.43398 
L 485.833367 178.482707 
L 486.957224 185.634884 
L 488.081082 191.626086 
L 489.204939 196.083655 
L 490.328797 198.814095 
L 491.452654 199.78874 
L 492.576512 199.423248 
L 495.948085 196.707141 
L 498.1958 195.352671 
L 499.319657 194.270528 
L 500.443515 192.636564 
L 501.567372 190.50811 
L 502.69123 187.784837 
L 503.815087 184.330579 
L 506.062802 175.967262 
L 508.310517 167.338785 
L 509.434375 163.676698 
L 510.558227 160.924759 
L 511.682084 159.405459 
L 512.805942 159.305128 
L 513.9298 160.580766 
L 515.053657 163.038879 
L 516.177515 166.579135 
L 517.301372 171.237366 
L 518.42523 176.956241 
L 519.549087 183.513597 
L 526.292232 226.942645 
L 527.41609 232.898014 
L 528.539947 237.928904 
L 529.663805 241.999481 
L 530.787663 245.116913 
L 531.91152 247.302698 
L 533.035378 248.377675 
L 534.15923 248.076681 
L 535.283087 246.249222 
L 536.406945 242.96696 
L 537.530802 238.344561 
L 538.65466 232.389192 
L 539.778517 225.122351 
L 540.902375 216.558372 
L 543.15009 196.879137 
L 547.64552 156.280861 
L 548.769378 147.645217 
L 549.893235 139.883887 
L 551.017093 133.025537 
L 552.14095 126.912504 
L 553.264808 121.465957 
L 554.388665 116.77906 
L 555.512523 112.887645 
L 556.63638 109.555218 
L 557.760232 106.588283 
L 558.88409 104.209002 
L 560.007947 102.610871 
L 561.131805 101.621892 
L 562.255662 101.062904 
L 564.503377 100.64008 
L 565.627235 100.446585 
L 566.751093 99.995095 
L 567.87495 99.113614 
L 568.998808 97.837975 
L 570.122665 96.132346 
L 571.246523 93.910728 
L 573.494238 88.32085 
L 575.741953 82.501645 
L 576.86581 79.907368 
L 577.989668 77.621252 
L 579.113525 75.600296 
L 580.237383 73.858834 
L 581.36124 72.404033 
L 582.485092 71.221559 
L 583.60895 70.311412 
L 585.856665 69.02144 
L 588.10438 68.003796 
L 591.475953 66.799822 
L 597.09524 65.416686 
L 599.342955 65.173025 
L 602.714528 64.105215 
L 606.086095 63.152069 
L 607.209953 62.772244 
L 609.457668 62.313587 
L 610.581525 61.89793 
L 612.82924 60.772788 
L 615.076955 59.819642 
L 621.820101 55.304741 
L 622.943958 54.717087 
L 626.315531 53.548946 
L 628.563246 52.409471 
L 630.810955 51.707153 
L 634.182528 49.987191 
L 635.306385 49.693364 
L 636.430243 49.27054 
L 639.801816 47.478913 
L 644.297246 46.196107 
L 653.288106 44.676807 
L 654.411958 44.583643 
L 657.783531 43.680662 
L 658.907388 43.62333 
L 663.402818 42.878013 
L 666.774391 41.975033 
L 667.898248 41.659707 
L 669.022106 41.631041 
L 670.145963 41.81737 
L 671.269821 41.874702 
L 673.517536 41.086386 
L 676.889109 40.806892 
L 679.136818 40.341069 
L 679.136818 40.341069 
" clip-path="url(#p60dd91c4d6)" style="fill: none; stroke: #bcbd22; stroke-width: 1.5; stroke-linecap: square"/>
   </g>
   <g id="line2d_32">
    <path d="M 295.822873 334.656 
L 295.822873 10.8 
" clip-path="url(#p60dd91c4d6)" style="fill: none; stroke-dasharray: 5.55,2.4; stroke-dashoffset: 0; stroke: #808080; stroke-width: 1.5"/>
   </g>
   <g id="line2d_33">
    <path d="M 262.963944 334.656 
L 262.963944 10.8 
" clip-path="url(#p60dd91c4d6)" style="fill: none; stroke-dasharray: 5.55,2.4; stroke-dashoffset: 0; stroke: #808080; stroke-width: 1.5"/>
   </g>
   <g id="patch_3">
    <path d="M 47.81 334.656 
L 47.81 10.8 
" style="fill: none; stroke: #000000; stroke-width: 0.8; stroke-linejoin: miter; stroke-linecap: square"/>
   </g>
   <g id="patch_4">
    <path d="M 709.2 334.656 
L 709.2 10.8 
" style="fill: none; stroke: #000000; stroke-width: 0.8; stroke-linejoin: miter; stroke-linecap: square"/>
   </g>
   <g id="patch_5">
    <path d="M 47.81 334.656 
L 709.2 334.656 
" style="fill: none; stroke: #000000; stroke-width: 0.8; stroke-linejoin: miter; stroke-linecap: square"/>
   </g>
   <g id="patch_6">
    <path d="M 47.81 10.8 
L 709.2 10.8 
" style="fill: none; stroke: #000000; stroke-width: 0.8; stroke-linejoin: miter; stroke-linecap: square"/>
   </g>
   <g id="text_14">
    <!-- 3300 cm⁻¹ -->
    <g style="fill: #808080" transform="translate(293.743185 420.196287) rotate(-90) scale(0.1 -0.1)">
     <use xlink:href="#DejaVuSans-33"/>
     <use xlink:href="#DejaVuSans-33" transform="translate(63.623047 0)"/>
     <use xlink:href="#DejaVuSans-30" transform="translate(127.246094 0)"/>
     <use xlink:href="#DejaVuSans-30" transform="translate(190.869141 0)"/>
     <use xlink:href="#DejaVuSans-20" transform="translate(254.492188 0)"/>
     <use xlink:href="#DejaVuSans-63" transform="translate(286.279297 0)"/>
     <use xlink:href="#DejaVuSans-6d" transform="translate(341.259766 0)"/>
     <use xlink:href="#DejaVuSans-207b" transform="translate(438.671875 0)"/>
     <use xlink:href="#DejaVuSans-b9" transform="translate(491.455078 0)"/>
    </g>
   </g>
   <g id="text_15">
    <!-- 3360 cm⁻¹ -->
    <g style="fill: #808080" transform="translate(260.884256 420.196287) rotate(-90) scale(0.1 -0.1)">
     <use xlink:href="#DejaVuSans-33"/>
     <use xlink:href="#DejaVuSans-33" transform="translate(63.623047 0)"/>
     <use xlink:href="#DejaVuSans-36" transform="translate(127.246094 0)"/>
     <use xlink:href="#DejaVuSans-30" transform="translate(190.869141 0)"/>
     <use xlink:href="#DejaVuSans-20" transform="translate(254.492188 0)"/>
     <use xlink:href="#DejaVuSans-63" transform="translate(286.279297 0)"/>
     <use xlink:href="#DejaVuSans-6d" transform="translate(341.259766 0)"/>
     <use xlink:href="#DejaVuSans-207b" transform="translate(438.671875 0)"/>
     <use xlink:href="#DejaVuSans-b9" transform="translate(491.455078 0)"/>
    </g>
   </g>
  </g>
 </g>
 <defs>
  <clipPath id="p60dd91c4d6">
   <rect x="47.81" y="10.8" width="661.39" height="323.856"/>
  </clipPath>
 </defs>
</svg>
