<?xml version="1.0" encoding="utf-8" standalone="no"?>
<!DOCTYPE svg PUBLIC "-//W3C//DTD SVG 1.1//EN"
  "http://www.w3.org/Graphics/SVG/1.1/DTD/svg11.dtd">
<svg xmlns:xlink="http://www.w3.org/1999/xlink" width="720pt" height="432pt" viewBox="0 0 720 432" xmlns="http://www.w3.org/2000/svg" version="1.1">
 <metadata>
  <rdf:RDF xmlns:dc="http://purl.org/dc/elements/1.1/" xmlns:cc="http://creativecommons.org/ns#" xmlns:rdf="http://www.w3.org/1999/02/22-rdf-syntax-ns#">
   <cc:Work>
    <dc:type rdf:resource="http://purl.org/dc/dcmitype/StillImage"/>
    <dc:date>2025-06-07T13:28:06.212330</dc:date>
    <dc:format>image/svg+xml</dc:format>
    <dc:creator>
     <cc:Agent>
      <dc:title>Matplotlib v3.10.1, https://matplotlib.org/</dc:title>
     </cc:Agent>
    </dc:creator>
   </cc:Work>
  </rdf:RDF>
 </metadata>
 <defs>
  <style type="text/css">*{stroke-linejoin: round; stroke-linecap: butt}</style>
 </defs>
 <g id="figure_1">
  <g id="patch_1">
   <path d="M 0 432 
L 720 432 
L 720 0 
L 0 0 
z
" style="fill: #ffffff"/>
  </g>
  <g id="axes_1">
   <g id="patch_2">
    <path d="M 47.81 390.04 
L 709.2 390.04 
L 709.2 10.8 
L 47.81 10.8 
z
" style="fill: #ffffff"/>
   </g>
   <g id="matplotlib.axis_1">
    <g id="xtick_1">
     <g id="line2d_1">
      <path d="M 679.177048 390.04 
L 679.177048 10.8 
" clip-path="url(#p12155ef29e)" style="fill: none; stroke: #b0b0b0; stroke-width: 0.8; stroke-linecap: square"/>
     </g>
     <g id="line2d_2">
      <defs>
       <path id="m2be0f69a8c" d="M 0 0 
L 0 3.5 
" style="stroke: #000000; stroke-width: 0.8"/>
      </defs>
      <g>
       <use xlink:href="#m2be0f69a8c" x="679.177048" y="390.04" style="stroke: #000000; stroke-width: 0.8"/>
      </g>
     </g>
     <g id="text_1">
      <!-- 2600 -->
      <g transform="translate(666.452048 404.638438) scale(0.1 -0.1)">
       <defs>
        <path id="DejaVuSans-32" d="M 1228 531 
L 3431 531 
L 3431 0 
L 469 0 
L 469 531 
Q 828 903 1448 1529 
Q 2069 2156 2228 2338 
Q 2531 2678 2651 2914 
Q 2772 3150 2772 3378 
Q 2772 3750 2511 3984 
Q 2250 4219 1831 4219 
Q 1534 4219 1204 4116 
Q 875 4013 500 3803 
L 500 4441 
Q 881 4594 1212 4672 
Q 1544 4750 1819 4750 
Q 2544 4750 2975 4387 
Q 3406 4025 3406 3419 
Q 3406 3131 3298 2873 
Q 3191 2616 2906 2266 
Q 2828 2175 2409 1742 
Q 1991 1309 1228 531 
z
" transform="scale(0.015625)"/>
        <path id="DejaVuSans-36" d="M 2113 2584 
Q 1688 2584 1439 2293 
Q 1191 2003 1191 1497 
Q 1191 994 1439 701 
Q 1688 409 2113 409 
Q 2538 409 2786 701 
Q 3034 994 3034 1497 
Q 3034 2003 2786 2293 
Q 2538 2584 2113 2584 
z
M 3366 4563 
L 3366 3988 
Q 3128 4100 2886 4159 
Q 2644 4219 2406 4219 
Q 1781 4219 1451 3797 
Q 1122 3375 1075 2522 
Q 1259 2794 1537 2939 
Q 1816 3084 2150 3084 
Q 2853 3084 3261 2657 
Q 3669 2231 3669 1497 
Q 3669 778 3244 343 
Q 2819 -91 2113 -91 
Q 1303 -91 875 529 
Q 447 1150 447 2328 
Q 447 3434 972 4092 
Q 1497 4750 2381 4750 
Q 2619 4750 2861 4703 
Q 3103 4656 3366 4563 
z
" transform="scale(0.015625)"/>
        <path id="DejaVuSans-30" d="M 2034 4250 
Q 1547 4250 1301 3770 
Q 1056 3291 1056 2328 
Q 1056 1369 1301 889 
Q 1547 409 2034 409 
Q 2525 409 2770 889 
Q 3016 1369 3016 2328 
Q 3016 3291 2770 3770 
Q 2525 4250 2034 4250 
z
M 2034 4750 
Q 2819 4750 3233 4129 
Q 3647 3509 3647 2328 
Q 3647 1150 3233 529 
Q 2819 -91 2034 -91 
Q 1250 -91 836 529 
Q 422 1150 422 2328 
Q 422 3509 836 4129 
Q 1250 4750 2034 4750 
z
" transform="scale(0.015625)"/>
       </defs>
       <use xlink:href="#DejaVuSans-32"/>
       <use xlink:href="#DejaVuSans-36" transform="translate(63.623047 0)"/>
       <use xlink:href="#DejaVuSans-30" transform="translate(127.246094 0)"/>
       <use xlink:href="#DejaVuSans-30" transform="translate(190.869141 0)"/>
      </g>
     </g>
    </g>
    <g id="xtick_2">
     <g id="line2d_3">
      <path d="M 569.647284 390.04 
L 569.647284 10.8 
" clip-path="url(#p12155ef29e)" style="fill: none; stroke: #b0b0b0; stroke-width: 0.8; stroke-linecap: square"/>
     </g>
     <g id="line2d_4">
      <g>
       <use xlink:href="#m2be0f69a8c" x="569.647284" y="390.04" style="stroke: #000000; stroke-width: 0.8"/>
      </g>
     </g>
     <g id="text_2">
      <!-- 2800 -->
      <g transform="translate(556.922284 404.638438) scale(0.1 -0.1)">
       <defs>
        <path id="DejaVuSans-38" d="M 2034 2216 
Q 1584 2216 1326 1975 
Q 1069 1734 1069 1313 
Q 1069 891 1326 650 
Q 1584 409 2034 409 
Q 2484 409 2743 651 
Q 3003 894 3003 1313 
Q 3003 1734 2745 1975 
Q 2488 2216 2034 2216 
z
M 1403 2484 
Q 997 2584 770 2862 
Q 544 3141 544 3541 
Q 544 4100 942 4425 
Q 1341 4750 2034 4750 
Q 2731 4750 3128 4425 
Q 3525 4100 3525 3541 
Q 3525 3141 3298 2862 
Q 3072 2584 2669 2484 
Q 3125 2378 3379 2068 
Q 3634 1759 3634 1313 
Q 3634 634 3220 271 
Q 2806 -91 2034 -91 
Q 1263 -91 848 271 
Q 434 634 434 1313 
Q 434 1759 690 2068 
Q 947 2378 1403 2484 
z
M 1172 3481 
Q 1172 3119 1398 2916 
Q 1625 2713 2034 2713 
Q 2441 2713 2670 2916 
Q 2900 3119 2900 3481 
Q 2900 3844 2670 4047 
Q 2441 4250 2034 4250 
Q 1625 4250 1398 4047 
Q 1172 3844 1172 3481 
z
" transform="scale(0.015625)"/>
       </defs>
       <use xlink:href="#DejaVuSans-32"/>
       <use xlink:href="#DejaVuSans-38" transform="translate(63.623047 0)"/>
       <use xlink:href="#DejaVuSans-30" transform="translate(127.246094 0)"/>
       <use xlink:href="#DejaVuSans-30" transform="translate(190.869141 0)"/>
      </g>
     </g>
    </g>
    <g id="xtick_3">
     <g id="line2d_5">
      <path d="M 460.11752 390.04 
L 460.11752 10.8 
" clip-path="url(#p12155ef29e)" style="fill: none; stroke: #b0b0b0; stroke-width: 0.8; stroke-linecap: square"/>
     </g>
     <g id="line2d_6">
      <g>
       <use xlink:href="#m2be0f69a8c" x="460.11752" y="390.04" style="stroke: #000000; stroke-width: 0.8"/>
      </g>
     </g>
     <g id="text_3">
      <!-- 3000 -->
      <g transform="translate(447.39252 404.638438) scale(0.1 -0.1)">
       <defs>
        <path id="DejaVuSans-33" d="M 2597 2516 
Q 3050 2419 3304 2112 
Q 3559 1806 3559 1356 
Q 3559 666 3084 287 
Q 2609 -91 1734 -91 
Q 1441 -91 1130 -33 
Q 819 25 488 141 
L 488 750 
Q 750 597 1062 519 
Q 1375 441 1716 441 
Q 2309 441 2620 675 
Q 2931 909 2931 1356 
Q 2931 1769 2642 2001 
Q 2353 2234 1838 2234 
L 1294 2234 
L 1294 2753 
L 1863 2753 
Q 2328 2753 2575 2939 
Q 2822 3125 2822 3475 
Q 2822 3834 2567 4026 
Q 2313 4219 1838 4219 
Q 1578 4219 1281 4162 
Q 984 4106 628 3988 
L 628 4550 
Q 988 4650 1302 4700 
Q 1616 4750 1894 4750 
Q 2613 4750 3031 4423 
Q 3450 4097 3450 3541 
Q 3450 3153 3228 2886 
Q 3006 2619 2597 2516 
z
" transform="scale(0.015625)"/>
       </defs>
       <use xlink:href="#DejaVuSans-33"/>
       <use xlink:href="#DejaVuSans-30" transform="translate(63.623047 0)"/>
       <use xlink:href="#DejaVuSans-30" transform="translate(127.246094 0)"/>
       <use xlink:href="#DejaVuSans-30" transform="translate(190.869141 0)"/>
      </g>
     </g>
    </g>
    <g id="xtick_4">
     <g id="line2d_7">
      <path d="M 350.587755 390.04 
L 350.587755 10.8 
" clip-path="url(#p12155ef29e)" style="fill: none; stroke: #b0b0b0; stroke-width: 0.8; stroke-linecap: square"/>
     </g>
     <g id="line2d_8">
      <g>
       <use xlink:href="#m2be0f69a8c" x="350.587755" y="390.04" style="stroke: #000000; stroke-width: 0.8"/>
      </g>
     </g>
     <g id="text_4">
      <!-- 3200 -->
      <g transform="translate(337.862755 404.638438) scale(0.1 -0.1)">
       <use xlink:href="#DejaVuSans-33"/>
       <use xlink:href="#DejaVuSans-32" transform="translate(63.623047 0)"/>
       <use xlink:href="#DejaVuSans-30" transform="translate(127.246094 0)"/>
       <use xlink:href="#DejaVuSans-30" transform="translate(190.869141 0)"/>
      </g>
     </g>
    </g>
    <g id="xtick_5">
     <g id="line2d_9">
      <path d="M 241.057991 390.04 
L 241.057991 10.8 
" clip-path="url(#p12155ef29e)" style="fill: none; stroke: #b0b0b0; stroke-width: 0.8; stroke-linecap: square"/>
     </g>
     <g id="line2d_10">
      <g>
       <use xlink:href="#m2be0f69a8c" x="241.057991" y="390.04" style="stroke: #000000; stroke-width: 0.8"/>
      </g>
     </g>
     <g id="text_5">
      <!-- 3400 -->
      <g transform="translate(228.332991 404.638438) scale(0.1 -0.1)">
       <defs>
        <path id="DejaVuSans-34" d="M 2419 4116 
L 825 1625 
L 2419 1625 
L 2419 4116 
z
M 2253 4666 
L 3047 4666 
L 3047 1625 
L 3713 1625 
L 3713 1100 
L 3047 1100 
L 3047 0 
L 2419 0 
L 2419 1100 
L 313 1100 
L 313 1709 
L 2253 4666 
z
" transform="scale(0.015625)"/>
       </defs>
       <use xlink:href="#DejaVuSans-33"/>
       <use xlink:href="#DejaVuSans-34" transform="translate(63.623047 0)"/>
       <use xlink:href="#DejaVuSans-30" transform="translate(127.246094 0)"/>
       <use xlink:href="#DejaVuSans-30" transform="translate(190.869141 0)"/>
      </g>
     </g>
    </g>
    <g id="xtick_6">
     <g id="line2d_11">
      <path d="M 131.528226 390.04 
L 131.528226 10.8 
" clip-path="url(#p12155ef29e)" style="fill: none; stroke: #b0b0b0; stroke-width: 0.8; stroke-linecap: square"/>
     </g>
     <g id="line2d_12">
      <g>
       <use xlink:href="#m2be0f69a8c" x="131.528226" y="390.04" style="stroke: #000000; stroke-width: 0.8"/>
      </g>
     </g>
     <g id="text_6">
      <!-- 3600 -->
      <g transform="translate(118.803226 404.638438) scale(0.1 -0.1)">
       <use xlink:href="#DejaVuSans-33"/>
       <use xlink:href="#DejaVuSans-36" transform="translate(63.623047 0)"/>
       <use xlink:href="#DejaVuSans-30" transform="translate(127.246094 0)"/>
       <use xlink:href="#DejaVuSans-30" transform="translate(190.869141 0)"/>
      </g>
     </g>
    </g>
    <g id="text_7">
     <!-- Wavenumber (cm⁻¹) -->
     <g transform="translate(327.512031 418.316562) scale(0.1 -0.1)">
      <defs>
       <path id="DejaVuSans-57" d="M 213 4666 
L 850 4666 
L 1831 722 
L 2809 4666 
L 3519 4666 
L 4500 722 
L 5478 4666 
L 6119 4666 
L 4947 0 
L 4153 0 
L 3169 4050 
L 2175 0 
L 1381 0 
L 213 4666 
z
" transform="scale(0.015625)"/>
       <path id="DejaVuSans-61" d="M 2194 1759 
Q 1497 1759 1228 1600 
Q 959 1441 959 1056 
Q 959 750 1161 570 
Q 1363 391 1709 391 
Q 2188 391 2477 730 
Q 2766 1069 2766 1631 
L 2766 1759 
L 2194 1759 
z
M 3341 1997 
L 3341 0 
L 2766 0 
L 2766 531 
Q 2569 213 2275 61 
Q 1981 -91 1556 -91 
Q 1019 -91 701 211 
Q 384 513 384 1019 
Q 384 1609 779 1909 
Q 1175 2209 1959 2209 
L 2766 2209 
L 2766 2266 
Q 2766 2663 2505 2880 
Q 2244 3097 1772 3097 
Q 1472 3097 1187 3025 
Q 903 2953 641 2809 
L 641 3341 
Q 956 3463 1253 3523 
Q 1550 3584 1831 3584 
Q 2591 3584 2966 3190 
Q 3341 2797 3341 1997 
z
" transform="scale(0.015625)"/>
       <path id="DejaVuSans-76" d="M 191 3500 
L 800 3500 
L 1894 563 
L 2988 3500 
L 3597 3500 
L 2284 0 
L 1503 0 
L 191 3500 
z
" transform="scale(0.015625)"/>
       <path id="DejaVuSans-65" d="M 3597 1894 
L 3597 1613 
L 953 1613 
Q 991 1019 1311 708 
Q 1631 397 2203 397 
Q 2534 397 2845 478 
Q 3156 559 3463 722 
L 3463 178 
Q 3153 47 2828 -22 
Q 2503 -91 2169 -91 
Q 1331 -91 842 396 
Q 353 884 353 1716 
Q 353 2575 817 3079 
Q 1281 3584 2069 3584 
Q 2775 3584 3186 3129 
Q 3597 2675 3597 1894 
z
M 3022 2063 
Q 3016 2534 2758 2815 
Q 2500 3097 2075 3097 
Q 1594 3097 1305 2825 
Q 1016 2553 972 2059 
L 3022 2063 
z
" transform="scale(0.015625)"/>
       <path id="DejaVuSans-6e" d="M 3513 2113 
L 3513 0 
L 2938 0 
L 2938 2094 
Q 2938 2591 2744 2837 
Q 2550 3084 2163 3084 
Q 1697 3084 1428 2787 
Q 1159 2491 1159 1978 
L 1159 0 
L 581 0 
L 581 3500 
L 1159 3500 
L 1159 2956 
Q 1366 3272 1645 3428 
Q 1925 3584 2291 3584 
Q 2894 3584 3203 3211 
Q 3513 2838 3513 2113 
z
" transform="scale(0.015625)"/>
       <path id="DejaVuSans-75" d="M 544 1381 
L 544 3500 
L 1119 3500 
L 1119 1403 
Q 1119 906 1312 657 
Q 1506 409 1894 409 
Q 2359 409 2629 706 
Q 2900 1003 2900 1516 
L 2900 3500 
L 3475 3500 
L 3475 0 
L 2900 0 
L 2900 538 
Q 2691 219 2414 64 
Q 2138 -91 1772 -91 
Q 1169 -91 856 284 
Q 544 659 544 1381 
z
M 1991 3584 
L 1991 3584 
z
" transform="scale(0.015625)"/>
       <path id="DejaVuSans-6d" d="M 3328 2828 
Q 3544 3216 3844 3400 
Q 4144 3584 4550 3584 
Q 5097 3584 5394 3201 
Q 5691 2819 5691 2113 
L 5691 0 
L 5113 0 
L 5113 2094 
Q 5113 2597 4934 2840 
Q 4756 3084 4391 3084 
Q 3944 3084 3684 2787 
Q 3425 2491 3425 1978 
L 3425 0 
L 2847 0 
L 2847 2094 
Q 2847 2600 2669 2842 
Q 2491 3084 2119 3084 
Q 1678 3084 1418 2786 
Q 1159 2488 1159 1978 
L 1159 0 
L 581 0 
L 581 3500 
L 1159 3500 
L 1159 2956 
Q 1356 3278 1631 3431 
Q 1906 3584 2284 3584 
Q 2666 3584 2933 3390 
Q 3200 3197 3328 2828 
z
" transform="scale(0.015625)"/>
       <path id="DejaVuSans-62" d="M 3116 1747 
Q 3116 2381 2855 2742 
Q 2594 3103 2138 3103 
Q 1681 3103 1420 2742 
Q 1159 2381 1159 1747 
Q 1159 1113 1420 752 
Q 1681 391 2138 391 
Q 2594 391 2855 752 
Q 3116 1113 3116 1747 
z
M 1159 2969 
Q 1341 3281 1617 3432 
Q 1894 3584 2278 3584 
Q 2916 3584 3314 3078 
Q 3713 2572 3713 1747 
Q 3713 922 3314 415 
Q 2916 -91 2278 -91 
Q 1894 -91 1617 61 
Q 1341 213 1159 525 
L 1159 0 
L 581 0 
L 581 4863 
L 1159 4863 
L 1159 2969 
z
" transform="scale(0.015625)"/>
       <path id="DejaVuSans-72" d="M 2631 2963 
Q 2534 3019 2420 3045 
Q 2306 3072 2169 3072 
Q 1681 3072 1420 2755 
Q 1159 2438 1159 1844 
L 1159 0 
L 581 0 
L 581 3500 
L 1159 3500 
L 1159 2956 
Q 1341 3275 1631 3429 
Q 1922 3584 2338 3584 
Q 2397 3584 2469 3576 
Q 2541 3569 2628 3553 
L 2631 2963 
z
" transform="scale(0.015625)"/>
       <path id="DejaVuSans-20" transform="scale(0.015625)"/>
       <path id="DejaVuSans-28" d="M 1984 4856 
Q 1566 4138 1362 3434 
Q 1159 2731 1159 2009 
Q 1159 1288 1364 580 
Q 1569 -128 1984 -844 
L 1484 -844 
Q 1016 -109 783 600 
Q 550 1309 550 2009 
Q 550 2706 781 3412 
Q 1013 4119 1484 4856 
L 1984 4856 
z
" transform="scale(0.015625)"/>
       <path id="DejaVuSans-63" d="M 3122 3366 
L 3122 2828 
Q 2878 2963 2633 3030 
Q 2388 3097 2138 3097 
Q 1578 3097 1268 2742 
Q 959 2388 959 1747 
Q 959 1106 1268 751 
Q 1578 397 2138 397 
Q 2388 397 2633 464 
Q 2878 531 3122 666 
L 3122 134 
Q 2881 22 2623 -34 
Q 2366 -91 2075 -91 
Q 1284 -91 818 406 
Q 353 903 353 1747 
Q 353 2603 823 3093 
Q 1294 3584 2113 3584 
Q 2378 3584 2631 3529 
Q 2884 3475 3122 3366 
z
" transform="scale(0.015625)"/>
       <path id="DejaVuSans-207b" d="M 428 3359 
L 2950 3359 
L 2950 3063 
L 428 3063 
L 428 3359 
z
" transform="scale(0.015625)"/>
       <path id="DejaVuSans-b9" d="M 488 2431 
L 1125 2431 
L 1125 4341 
L 428 4213 
L 428 4575 
L 1147 4697 
L 1575 4697 
L 1575 2431 
L 2216 2431 
L 2216 2088 
L 488 2088 
L 488 2431 
z
" transform="scale(0.015625)"/>
       <path id="DejaVuSans-29" d="M 513 4856 
L 1013 4856 
Q 1481 4119 1714 3412 
Q 1947 2706 1947 2009 
Q 1947 1309 1714 600 
Q 1481 -109 1013 -844 
L 513 -844 
Q 928 -128 1133 580 
Q 1338 1288 1338 2009 
Q 1338 2731 1133 3434 
Q 928 4138 513 4856 
z
" transform="scale(0.015625)"/>
      </defs>
      <use xlink:href="#DejaVuSans-57"/>
      <use xlink:href="#DejaVuSans-61" transform="translate(92.501953 0)"/>
      <use xlink:href="#DejaVuSans-76" transform="translate(153.78125 0)"/>
      <use xlink:href="#DejaVuSans-65" transform="translate(212.960938 0)"/>
      <use xlink:href="#DejaVuSans-6e" transform="translate(274.484375 0)"/>
      <use xlink:href="#DejaVuSans-75" transform="translate(337.863281 0)"/>
      <use xlink:href="#DejaVuSans-6d" transform="translate(401.242188 0)"/>
      <use xlink:href="#DejaVuSans-62" transform="translate(498.654297 0)"/>
      <use xlink:href="#DejaVuSans-65" transform="translate(562.130859 0)"/>
      <use xlink:href="#DejaVuSans-72" transform="translate(623.654297 0)"/>
      <use xlink:href="#DejaVuSans-20" transform="translate(664.767578 0)"/>
      <use xlink:href="#DejaVuSans-28" transform="translate(696.554688 0)"/>
      <use xlink:href="#DejaVuSans-63" transform="translate(735.568359 0)"/>
      <use xlink:href="#DejaVuSans-6d" transform="translate(790.548828 0)"/>
      <use xlink:href="#DejaVuSans-207b" transform="translate(887.960938 0)"/>
      <use xlink:href="#DejaVuSans-b9" transform="translate(940.744141 0)"/>
      <use xlink:href="#DejaVuSans-29" transform="translate(980.832031 0)"/>
     </g>
    </g>
   </g>
   <g id="matplotlib.axis_2">
    <g id="ytick_1">
     <g id="line2d_13">
      <path d="M 47.81 363.025039 
L 709.2 363.025039 
" clip-path="url(#p12155ef29e)" style="fill: none; stroke: #b0b0b0; stroke-width: 0.8; stroke-linecap: square"/>
     </g>
     <g id="line2d_14">
      <defs>
       <path id="m4a2e7bec96" d="M 0 0 
L -3.5 0 
" style="stroke: #000000; stroke-width: 0.8"/>
      </defs>
      <g>
       <use xlink:href="#m4a2e7bec96" x="47.81" y="363.025039" style="stroke: #000000; stroke-width: 0.8"/>
      </g>
     </g>
     <g id="text_8">
      <!-- 0.6 -->
      <g transform="translate(24.906875 366.824258) scale(0.1 -0.1)">
       <defs>
        <path id="DejaVuSans-2e" d="M 684 794 
L 1344 794 
L 1344 0 
L 684 0 
L 684 794 
z
" transform="scale(0.015625)"/>
       </defs>
       <use xlink:href="#DejaVuSans-30"/>
       <use xlink:href="#DejaVuSans-2e" transform="translate(63.623047 0)"/>
       <use xlink:href="#DejaVuSans-36" transform="translate(95.410156 0)"/>
      </g>
     </g>
    </g>
    <g id="ytick_2">
     <g id="line2d_15">
      <path d="M 47.81 279.104189 
L 709.2 279.104189 
" clip-path="url(#p12155ef29e)" style="fill: none; stroke: #b0b0b0; stroke-width: 0.8; stroke-linecap: square"/>
     </g>
     <g id="line2d_16">
      <g>
       <use xlink:href="#m4a2e7bec96" x="47.81" y="279.104189" style="stroke: #000000; stroke-width: 0.8"/>
      </g>
     </g>
     <g id="text_9">
      <!-- 0.7 -->
      <g transform="translate(24.906875 282.903408) scale(0.1 -0.1)">
       <defs>
        <path id="DejaVuSans-37" d="M 525 4666 
L 3525 4666 
L 3525 4397 
L 1831 0 
L 1172 0 
L 2766 4134 
L 525 4134 
L 525 4666 
z
" transform="scale(0.015625)"/>
       </defs>
       <use xlink:href="#DejaVuSans-30"/>
       <use xlink:href="#DejaVuSans-2e" transform="translate(63.623047 0)"/>
       <use xlink:href="#DejaVuSans-37" transform="translate(95.410156 0)"/>
      </g>
     </g>
    </g>
    <g id="ytick_3">
     <g id="line2d_17">
      <path d="M 47.81 195.183339 
L 709.2 195.183339 
" clip-path="url(#p12155ef29e)" style="fill: none; stroke: #b0b0b0; stroke-width: 0.8; stroke-linecap: square"/>
     </g>
     <g id="line2d_18">
      <g>
       <use xlink:href="#m4a2e7bec96" x="47.81" y="195.183339" style="stroke: #000000; stroke-width: 0.8"/>
      </g>
     </g>
     <g id="text_10">
      <!-- 0.8 -->
      <g transform="translate(24.906875 198.982558) scale(0.1 -0.1)">
       <use xlink:href="#DejaVuSans-30"/>
       <use xlink:href="#DejaVuSans-2e" transform="translate(63.623047 0)"/>
       <use xlink:href="#DejaVuSans-38" transform="translate(95.410156 0)"/>
      </g>
     </g>
    </g>
    <g id="ytick_4">
     <g id="line2d_19">
      <path d="M 47.81 111.262489 
L 709.2 111.262489 
" clip-path="url(#p12155ef29e)" style="fill: none; stroke: #b0b0b0; stroke-width: 0.8; stroke-linecap: square"/>
     </g>
     <g id="line2d_20">
      <g>
       <use xlink:href="#m4a2e7bec96" x="47.81" y="111.262489" style="stroke: #000000; stroke-width: 0.8"/>
      </g>
     </g>
     <g id="text_11">
      <!-- 0.9 -->
      <g transform="translate(24.906875 115.061708) scale(0.1 -0.1)">
       <defs>
        <path id="DejaVuSans-39" d="M 703 97 
L 703 672 
Q 941 559 1184 500 
Q 1428 441 1663 441 
Q 2288 441 2617 861 
Q 2947 1281 2994 2138 
Q 2813 1869 2534 1725 
Q 2256 1581 1919 1581 
Q 1219 1581 811 2004 
Q 403 2428 403 3163 
Q 403 3881 828 4315 
Q 1253 4750 1959 4750 
Q 2769 4750 3195 4129 
Q 3622 3509 3622 2328 
Q 3622 1225 3098 567 
Q 2575 -91 1691 -91 
Q 1453 -91 1209 -44 
Q 966 3 703 97 
z
M 1959 2075 
Q 2384 2075 2632 2365 
Q 2881 2656 2881 3163 
Q 2881 3666 2632 3958 
Q 2384 4250 1959 4250 
Q 1534 4250 1286 3958 
Q 1038 3666 1038 3163 
Q 1038 2656 1286 2365 
Q 1534 2075 1959 2075 
z
" transform="scale(0.015625)"/>
       </defs>
       <use xlink:href="#DejaVuSans-30"/>
       <use xlink:href="#DejaVuSans-2e" transform="translate(63.623047 0)"/>
       <use xlink:href="#DejaVuSans-39" transform="translate(95.410156 0)"/>
      </g>
     </g>
    </g>
    <g id="ytick_5">
     <g id="line2d_21">
      <path d="M 47.81 27.341639 
L 709.2 27.341639 
" clip-path="url(#p12155ef29e)" style="fill: none; stroke: #b0b0b0; stroke-width: 0.8; stroke-linecap: square"/>
     </g>
     <g id="line2d_22">
      <g>
       <use xlink:href="#m4a2e7bec96" x="47.81" y="27.341639" style="stroke: #000000; stroke-width: 0.8"/>
      </g>
     </g>
     <g id="text_12">
      <!-- 1.0 -->
      <g transform="translate(24.906875 31.140858) scale(0.1 -0.1)">
       <defs>
        <path id="DejaVuSans-31" d="M 794 531 
L 1825 531 
L 1825 4091 
L 703 3866 
L 703 4441 
L 1819 4666 
L 2450 4666 
L 2450 531 
L 3481 531 
L 3481 0 
L 794 0 
L 794 531 
z
" transform="scale(0.015625)"/>
       </defs>
       <use xlink:href="#DejaVuSans-31"/>
       <use xlink:href="#DejaVuSans-2e" transform="translate(63.623047 0)"/>
       <use xlink:href="#DejaVuSans-30" transform="translate(95.410156 0)"/>
      </g>
     </g>
    </g>
    <g id="text_13">
     <!-- Intensity -->
     <g transform="translate(18.827187 222.1825) rotate(-90) scale(0.1 -0.1)">
      <defs>
       <path id="DejaVuSans-49" d="M 628 4666 
L 1259 4666 
L 1259 0 
L 628 0 
L 628 4666 
z
" transform="scale(0.015625)"/>
       <path id="DejaVuSans-74" d="M 1172 4494 
L 1172 3500 
L 2356 3500 
L 2356 3053 
L 1172 3053 
L 1172 1153 
Q 1172 725 1289 603 
Q 1406 481 1766 481 
L 2356 481 
L 2356 0 
L 1766 0 
Q 1100 0 847 248 
Q 594 497 594 1153 
L 594 3053 
L 172 3053 
L 172 3500 
L 594 3500 
L 594 4494 
L 1172 4494 
z
" transform="scale(0.015625)"/>
       <path id="DejaVuSans-73" d="M 2834 3397 
L 2834 2853 
Q 2591 2978 2328 3040 
Q 2066 3103 1784 3103 
Q 1356 3103 1142 2972 
Q 928 2841 928 2578 
Q 928 2378 1081 2264 
Q 1234 2150 1697 2047 
L 1894 2003 
Q 2506 1872 2764 1633 
Q 3022 1394 3022 966 
Q 3022 478 2636 193 
Q 2250 -91 1575 -91 
Q 1294 -91 989 -36 
Q 684 19 347 128 
L 347 722 
Q 666 556 975 473 
Q 1284 391 1588 391 
Q 1994 391 2212 530 
Q 2431 669 2431 922 
Q 2431 1156 2273 1281 
Q 2116 1406 1581 1522 
L 1381 1569 
Q 847 1681 609 1914 
Q 372 2147 372 2553 
Q 372 3047 722 3315 
Q 1072 3584 1716 3584 
Q 2034 3584 2315 3537 
Q 2597 3491 2834 3397 
z
" transform="scale(0.015625)"/>
       <path id="DejaVuSans-69" d="M 603 3500 
L 1178 3500 
L 1178 0 
L 603 0 
L 603 3500 
z
M 603 4863 
L 1178 4863 
L 1178 4134 
L 603 4134 
L 603 4863 
z
" transform="scale(0.015625)"/>
       <path id="DejaVuSans-79" d="M 2059 -325 
Q 1816 -950 1584 -1140 
Q 1353 -1331 966 -1331 
L 506 -1331 
L 506 -850 
L 844 -850 
Q 1081 -850 1212 -737 
Q 1344 -625 1503 -206 
L 1606 56 
L 191 3500 
L 800 3500 
L 1894 763 
L 2988 3500 
L 3597 3500 
L 2059 -325 
z
" transform="scale(0.015625)"/>
      </defs>
      <use xlink:href="#DejaVuSans-49"/>
      <use xlink:href="#DejaVuSans-6e" transform="translate(29.492188 0)"/>
      <use xlink:href="#DejaVuSans-74" transform="translate(92.871094 0)"/>
      <use xlink:href="#DejaVuSans-65" transform="translate(132.080078 0)"/>
      <use xlink:href="#DejaVuSans-6e" transform="translate(193.603516 0)"/>
      <use xlink:href="#DejaVuSans-73" transform="translate(256.982422 0)"/>
      <use xlink:href="#DejaVuSans-69" transform="translate(309.082031 0)"/>
      <use xlink:href="#DejaVuSans-74" transform="translate(336.865234 0)"/>
      <use xlink:href="#DejaVuSans-79" transform="translate(376.074219 0)"/>
     </g>
    </g>
   </g>
   <g id="line2d_23">
    <path d="M 77.873182 28.27316 
L 78.997034 28.801862 
L 80.120891 29.003272 
L 86.864037 28.910959 
L 87.987894 28.726333 
L 89.111752 28.701157 
L 91.359467 29.313779 
L 92.483324 29.364131 
L 93.607182 29.003272 
L 94.731039 28.482962 
L 95.854897 28.415826 
L 98.102612 28.894174 
L 99.226469 29.03684 
L 101.474184 29.531973 
L 102.598037 29.741775 
L 104.845752 31.193606 
L 105.969609 31.235566 
L 107.093467 31.025764 
L 108.217324 31.00898 
L 109.341182 31.185214 
L 113.836612 32.469203 
L 116.084327 33.325195 
L 118.332042 33.409116 
L 119.455899 33.560174 
L 120.579757 33.862289 
L 121.703615 34.625969 
L 122.827472 35.633019 
L 123.95133 36.438659 
L 126.199045 37.621943 
L 127.322897 38.377231 
L 130.694469 39.610867 
L 134.066042 41.423557 
L 137.437614 43.865654 
L 138.561472 44.85592 
L 140.809187 46.22383 
L 141.933045 47.222488 
L 145.304617 50.990534 
L 146.428475 51.964016 
L 152.047757 58.023102 
L 154.295472 60.607864 
L 155.41933 61.757579 
L 156.543187 63.192626 
L 158.790902 66.650165 
L 159.91476 68.286622 
L 161.038617 70.233585 
L 162.162475 71.920394 
L 163.286332 73.095286 
L 164.41019 74.43802 
L 165.534047 76.384984 
L 167.781762 80.908317 
L 171.153335 87.042932 
L 173.40105 90.718665 
L 175.64876 95.753916 
L 176.772617 98.355462 
L 179.020332 102.677386 
L 180.14419 104.918073 
L 182.391905 109.961716 
L 184.63962 114.501834 
L 186.887335 119.864376 
L 189.13505 125.377976 
L 192.506623 133.216183 
L 199.249762 150.915091 
L 203.745192 163.167535 
L 205.992907 168.899329 
L 213.85991 191.281019 
L 216.107625 197.692572 
L 219.479198 207.729506 
L 236.337055 255.11961 
L 241.956343 270.527478 
L 245.327916 279.926613 
L 252.071055 298.10387 
L 255.442628 307.494613 
L 258.8142 315.827953 
L 261.061915 321.660452 
L 270.052776 341.860201 
L 272.300485 346.173732 
L 276.795915 354.003548 
L 279.04363 357.461087 
L 283.539061 363.637661 
L 284.662918 365.12306 
L 285.786776 366.281168 
L 286.910633 367.120377 
L 290.282206 369.285535 
L 291.406063 370.158311 
L 292.529921 370.821286 
L 295.901488 372.289901 
L 297.025345 372.533271 
L 299.273061 372.692721 
L 302.644633 372.734682 
L 304.892348 372.357038 
L 306.016206 372.021354 
L 307.140063 371.484261 
L 310.511636 369.042164 
L 315.007066 365.718898 
L 316.130923 364.728632 
L 318.378633 362.009597 
L 320.626348 358.904525 
L 323.997921 354.045508 
L 328.493351 346.643689 
L 334.112639 335.61649 
L 338.608069 325.831318 
L 343.103493 314.191496 
L 345.351208 307.956177 
L 347.598923 301.578193 
L 349.846638 295.443579 
L 361.085214 260.851404 
L 365.580644 246.945719 
L 368.952211 236.757728 
L 372.323784 225.873194 
L 374.571499 218.865803 
L 381.314644 199.295461 
L 383.562359 192.909084 
L 392.553214 169.663008 
L 397.048644 158.467967 
L 398.172501 156.151752 
L 399.296359 154.104083 
L 401.544074 149.287026 
L 404.915646 142.22089 
L 407.163362 137.87379 
L 412.782649 127.484389 
L 415.030359 124.052026 
L 421.773504 114.023485 
L 429.640507 104.30545 
L 431.888222 101.938882 
L 434.135937 99.521962 
L 437.507509 96.618301 
L 439.755219 94.671337 
L 440.879077 93.647502 
L 442.002934 92.850254 
L 444.250649 91.482344 
L 445.374507 90.743841 
L 447.622222 89.510205 
L 449.869937 88.066766 
L 450.993794 87.705906 
L 457.736939 87.126852 
L 459.984655 87.588417 
L 461.108512 88.133903 
L 462.232364 89.157737 
L 463.356222 90.466902 
L 464.480079 92.036222 
L 465.603937 94.209772 
L 466.727794 97.063081 
L 467.851652 100.621325 
L 468.975509 105.052346 
L 470.099367 110.482025 
L 471.223224 116.952322 
L 472.347082 124.530375 
L 474.594797 142.606926 
L 482.4618 211.531121 
L 486.957224 248.682881 
L 488.081082 256.655362 
L 489.204939 263.343853 
L 490.328797 268.043421 
L 491.452654 270.435165 
L 492.576512 270.854769 
L 493.700369 269.872896 
L 494.824227 268.135734 
L 495.948085 266.180378 
L 497.071942 263.855771 
L 498.1958 260.750699 
L 499.319657 256.839988 
L 501.567372 247.625478 
L 504.938945 232.771488 
L 506.062802 228.810424 
L 507.18666 225.688568 
L 508.310517 223.061845 
L 509.434375 220.795982 
L 510.558227 219.100781 
L 511.682084 218.118907 
L 512.805942 217.976242 
L 513.9298 219.01686 
L 515.053657 221.576446 
L 516.177515 225.621431 
L 517.301372 230.950405 
L 518.42523 237.361958 
L 521.796802 258.896048 
L 522.92066 264.73694 
L 524.044517 269.008511 
L 525.168375 271.316334 
L 526.292232 271.467392 
L 527.41609 269.747014 
L 528.539947 266.633551 
L 529.663805 262.353587 
L 530.787663 256.965869 
L 533.035378 243.974921 
L 535.283087 229.918179 
L 536.406945 223.640899 
L 538.65466 213.150793 
L 542.026232 198.615702 
L 544.273947 187.831872 
L 546.521662 176.972514 
L 548.769378 167.556595 
L 551.017093 159.449841 
L 553.264808 152.249432 
L 555.512523 145.594509 
L 558.88409 134.995305 
L 562.255662 125.570994 
L 564.503377 119.814023 
L 566.751093 114.795557 
L 568.998808 110.129557 
L 570.122665 108.073497 
L 572.37038 104.657918 
L 574.618095 101.880138 
L 576.86581 99.186279 
L 577.989668 97.776408 
L 579.113525 96.601516 
L 583.60895 93.278251 
L 585.856665 91.801244 
L 588.10438 90.760625 
L 590.352095 89.761967 
L 594.847525 88.394057 
L 600.466813 85.826079 
L 602.714528 84.785461 
L 604.962243 83.921076 
L 611.705383 80.287303 
L 617.32467 75.04225 
L 620.696243 71.937179 
L 624.067816 69.746844 
L 625.191673 69.050301 
L 628.563246 67.480981 
L 631.934813 66.1886 
L 636.430243 64.115755 
L 637.554101 63.77168 
L 644.297246 62.621964 
L 645.421103 62.504475 
L 648.792676 61.673659 
L 651.040391 61.027468 
L 652.164248 60.683393 
L 655.535816 60.02881 
L 664.526676 57.351735 
L 666.774391 56.948915 
L 669.022106 56.319508 
L 671.269821 55.88312 
L 672.393678 55.597789 
L 675.765251 54.431289 
L 676.889109 54.221487 
L 679.136818 53.415847 
L 679.136818 53.415847 
" clip-path="url(#p12155ef29e)" style="fill: none; stroke: #1f77b4; stroke-width: 1.5; stroke-linecap: square"/>
   </g>
   <g id="line2d_24">
    <path d="M 77.873182 30.471886 
L 78.997034 30.765609 
L 80.120891 30.790786 
L 82.368606 29.103977 
L 83.492464 29.3977 
L 84.616322 30.346005 
L 85.740179 30.967019 
L 86.864037 31.034156 
L 87.987894 30.933451 
L 89.111752 30.958627 
L 91.359467 31.218782 
L 92.483324 31.000588 
L 93.607182 31.025764 
L 94.731039 31.4118 
L 96.978754 31.755875 
L 99.226469 32.485987 
L 101.474184 32.645436 
L 102.598037 32.536339 
L 103.721894 32.099951 
L 104.845752 32.125127 
L 105.969609 32.846847 
L 107.093467 33.34198 
L 112.712754 34.701497 
L 114.960469 34.760242 
L 116.084327 35.39804 
L 117.208184 36.589716 
L 118.332042 37.336612 
L 119.455899 37.554806 
L 120.579757 37.605159 
L 121.703615 38.217781 
L 122.827472 39.241615 
L 123.95133 39.86263 
L 125.075187 40.106 
L 126.199045 40.525604 
L 127.322897 41.499086 
L 128.446754 42.632018 
L 129.570612 43.177503 
L 130.694469 43.219464 
L 131.818327 43.48801 
L 132.942184 44.419532 
L 135.189899 46.870021 
L 136.313757 47.650484 
L 137.437614 48.086873 
L 138.561472 48.783416 
L 141.933045 52.324876 
L 149.800047 60.02881 
L 152.047757 63.058353 
L 154.295472 66.314482 
L 155.41933 67.766312 
L 156.543187 68.974772 
L 157.667045 70.351074 
L 159.91476 73.623988 
L 161.038617 75.109387 
L 163.286332 78.82708 
L 165.534047 82.955986 
L 167.781762 87.093284 
L 171.153335 92.63206 
L 172.277192 94.730081 
L 174.524902 99.664627 
L 177.896475 106.873428 
L 182.391905 116.373269 
L 189.13505 131.999331 
L 191.382765 137.496147 
L 193.63048 142.98457 
L 205.992907 175.134648 
L 209.36448 184.500215 
L 212.736053 193.387433 
L 214.983768 199.631144 
L 221.726913 218.605648 
L 228.470053 236.623455 
L 231.841625 245.728867 
L 236.337055 257.175671 
L 239.708628 266.029321 
L 244.204058 277.148833 
L 246.451768 283.182742 
L 250.947198 294.436528 
L 253.194913 299.564092 
L 256.566485 307.612102 
L 264.433488 324.698387 
L 270.052776 335.146533 
L 272.300485 338.864226 
L 276.795915 345.645031 
L 277.919773 347.214351 
L 280.167488 349.681624 
L 284.662918 353.953195 
L 285.786776 354.767227 
L 289.158348 356.83168 
L 291.406063 357.712849 
L 293.653778 358.350648 
L 295.901488 358.770252 
L 297.025345 358.887741 
L 299.273061 358.669547 
L 301.520776 358.367432 
L 302.644633 358.082101 
L 304.892348 357.075051 
L 309.387778 354.21335 
L 311.635493 352.064976 
L 313.883208 350.151581 
L 316.130923 348.019991 
L 317.254781 346.660473 
L 319.502491 343.614147 
L 321.750206 340.551035 
L 326.245636 333.233137 
L 330.741066 325.042462 
L 332.988781 320.149877 
L 335.236496 315.29086 
L 337.484211 310.305961 
L 341.979636 299.773894 
L 345.351208 290.727227 
L 346.475066 287.899094 
L 357.713641 256.420383 
L 362.209071 242.808421 
L 364.456786 236.195458 
L 367.828353 226.435464 
L 371.199926 216.574764 
L 373.447641 209.961801 
L 376.819214 200.730507 
L 379.066929 194.889616 
L 381.314644 189.031941 
L 383.562359 183.023208 
L 388.057789 172.079929 
L 391.429356 164.132624 
L 398.172501 149.320594 
L 404.915646 136.346431 
L 409.411077 128.483047 
L 412.782649 123.347091 
L 416.154216 118.295056 
L 418.401931 115.240337 
L 421.773504 110.725395 
L 424.021219 107.788166 
L 426.268934 105.304109 
L 429.640507 101.813001 
L 430.764364 100.831127 
L 435.259794 96.358146 
L 437.507509 94.646161 
L 439.755219 92.606884 
L 442.002934 91.238974 
L 445.374507 89.308794 
L 446.498364 88.654212 
L 447.622222 88.217823 
L 448.746079 87.915708 
L 452.117652 86.531014 
L 454.365367 86.019097 
L 455.489224 85.901608 
L 458.860797 86.539406 
L 459.984655 86.933834 
L 461.108512 87.647162 
L 462.232364 88.729741 
L 463.356222 90.122827 
L 464.480079 91.708931 
L 465.603937 93.681071 
L 466.727794 96.324578 
L 467.851652 99.723372 
L 468.975509 103.944591 
L 470.099367 109.206428 
L 471.223224 115.576021 
L 472.347082 122.919095 
L 473.470939 131.227259 
L 475.718654 150.143019 
L 479.090227 180.161507 
L 485.833367 235.893343 
L 486.957224 244.671464 
L 488.081082 252.392182 
L 489.204939 258.434484 
L 490.328797 262.571782 
L 491.452654 264.73694 
L 492.576512 265.089407 
L 493.700369 264.17467 
L 494.824227 262.554997 
L 495.948085 260.515721 
L 497.071942 258.0988 
L 498.1958 255.086042 
L 499.319657 251.267643 
L 501.567372 241.8769 
L 503.815087 232.494549 
L 504.938945 228.298506 
L 506.062802 224.555636 
L 507.18666 221.358252 
L 508.310517 218.639217 
L 509.434375 216.247472 
L 510.558227 214.308901 
L 511.682084 213.184361 
L 512.805942 213.243106 
L 513.9298 214.66976 
L 515.053657 217.44754 
L 516.177515 221.526094 
L 517.301372 226.955773 
L 518.42523 233.560344 
L 521.796802 255.07765 
L 522.92066 260.943717 
L 524.044517 265.34117 
L 525.168375 268.102166 
L 526.292232 269.142784 
L 527.41609 268.404281 
L 528.539947 266.104849 
L 529.663805 262.64731 
L 530.787663 258.140761 
L 531.91152 252.652337 
L 534.15923 239.74531 
L 536.406945 226.594913 
L 538.65466 215.164893 
L 542.026232 198.993346 
L 547.64552 170.527393 
L 548.769378 165.878178 
L 551.017093 157.830169 
L 554.388665 146.903674 
L 557.760232 136.573017 
L 561.131805 127.669015 
L 563.37952 122.05471 
L 565.627235 117.053028 
L 567.87495 112.428989 
L 570.122665 108.618982 
L 572.37038 104.918073 
L 574.618095 101.93049 
L 576.86581 99.001653 
L 580.237383 95.141294 
L 581.36124 94.025146 
L 582.485092 93.177546 
L 585.856665 91.113093 
L 586.980523 90.41655 
L 588.10438 89.887848 
L 590.352095 88.998287 
L 591.475953 88.469586 
L 592.59981 88.100334 
L 594.847525 87.672338 
L 599.342955 86.153371 
L 604.962243 83.090259 
L 607.209953 82.225875 
L 608.33381 81.890191 
L 609.457668 81.36149 
L 615.076955 77.442386 
L 616.200813 76.401768 
L 618.448528 74.018416 
L 620.696243 72.138589 
L 621.820101 71.391693 
L 624.067816 70.351074 
L 631.934813 66.440363 
L 633.05867 65.693467 
L 634.182528 65.189942 
L 636.430243 64.728377 
L 638.677958 63.889169 
L 640.925673 63.595446 
L 642.049531 63.461173 
L 653.288106 61.019076 
L 654.411958 60.851234 
L 657.783531 59.634382 
L 658.907388 59.391011 
L 663.402818 57.964357 
L 666.774391 57.083188 
L 667.898248 56.537703 
L 669.022106 56.185235 
L 671.269821 56.151667 
L 673.517536 55.270498 
L 675.765251 54.951598 
L 679.136818 53.575297 
L 679.136818 53.575297 
" clip-path="url(#p12155ef29e)" style="fill: none; stroke: #ff7f0e; stroke-width: 1.5; stroke-linecap: square"/>
   </g>
   <g id="line2d_25">
    <path d="M 77.873182 30.513847 
L 78.997034 30.983804 
L 80.120891 30.790786 
L 81.244749 29.657854 
L 82.368606 28.843822 
L 83.492464 29.540365 
L 84.616322 30.438318 
L 85.740179 30.774002 
L 87.987894 30.782394 
L 90.235609 30.681689 
L 91.359467 30.883099 
L 92.483324 30.547415 
L 93.607182 30.337613 
L 95.854897 31.604818 
L 96.978754 31.923717 
L 98.102612 32.024422 
L 100.350327 32.074775 
L 101.474184 32.183872 
L 102.598037 31.764268 
L 103.721894 30.874707 
L 104.845752 30.916667 
L 105.969609 32.133519 
L 107.093467 32.964336 
L 109.341182 33.811936 
L 112.712754 34.768634 
L 113.836612 34.75185 
L 114.960469 34.18958 
L 116.084327 34.483303 
L 117.208184 35.893173 
L 118.332042 36.757558 
L 119.455899 36.908616 
L 120.579757 36.816303 
L 121.703615 37.261083 
L 122.827472 38.007979 
L 125.075187 39.048597 
L 126.199045 39.761925 
L 129.570612 42.942525 
L 131.818327 43.865654 
L 132.942184 44.344003 
L 134.066042 45.158035 
L 135.189899 46.38328 
L 136.313757 47.323193 
L 137.437614 47.759582 
L 138.561472 48.766632 
L 139.68533 50.344344 
L 140.809187 51.359786 
L 141.933045 52.198995 
L 144.18076 54.406113 
L 146.428475 56.68876 
L 147.552332 57.569929 
L 148.67619 58.283256 
L 149.800047 59.273522 
L 152.047757 62.319849 
L 154.295472 65.668291 
L 156.543187 68.471247 
L 161.038617 75.075818 
L 162.162475 76.729059 
L 164.41019 80.874749 
L 167.781762 87.084892 
L 171.153335 92.514571 
L 173.40105 97.021121 
L 182.391905 116.171859 
L 184.63962 120.795897 
L 188.011192 128.953004 
L 189.13505 131.95737 
L 192.506623 139.468287 
L 194.754338 145.485412 
L 197.002053 150.780817 
L 199.249762 156.017478 
L 204.86905 170.43508 
L 208.240622 178.72646 
L 211.612195 187.546542 
L 213.85991 193.244767 
L 216.107625 198.582133 
L 221.726913 213.01652 
L 228.470053 229.03701 
L 231.841625 237.336782 
L 236.337055 247.575126 
L 237.460913 250.352906 
L 239.708628 255.002121 
L 241.956343 259.861138 
L 244.204058 264.946742 
L 256.566485 290.433504 
L 258.8142 294.184766 
L 261.061915 298.162614 
L 263.309631 301.804779 
L 264.433488 303.827271 
L 265.557346 305.606394 
L 267.805061 308.577192 
L 270.052776 312.059907 
L 277.919773 320.275758 
L 280.167488 322.01292 
L 283.539061 324.169686 
L 284.662918 324.731955 
L 286.910633 325.59634 
L 289.158348 326.099865 
L 290.282206 326.217354 
L 293.653778 326.091473 
L 294.77763 326.125041 
L 297.025345 325.697045 
L 298.149203 325.43689 
L 299.273061 325.008894 
L 303.768491 322.65911 
L 306.016206 321.08979 
L 308.263921 319.176395 
L 309.387778 318.295226 
L 310.511636 317.187471 
L 316.130923 310.633252 
L 319.502491 306.185447 
L 322.874063 301.376783 
L 325.121778 297.34019 
L 327.369493 293.505007 
L 329.617208 289.241828 
L 336.360354 275.04242 
L 344.227351 256.915516 
L 348.722781 245.947061 
L 359.961356 216.39853 
L 362.209071 210.490502 
L 364.456786 204.825845 
L 366.704496 199.01013 
L 372.323784 185.238718 
L 375.695356 176.930554 
L 382.438501 161.766056 
L 390.305499 145.745566 
L 392.553214 141.490779 
L 394.800929 136.984229 
L 406.039504 118.806973 
L 408.287219 116.004017 
L 410.534934 113.175884 
L 412.782649 109.9785 
L 418.401931 103.331969 
L 419.525789 102.350095 
L 420.649646 101.108066 
L 421.773504 99.647843 
L 422.897361 98.380638 
L 426.268934 95.309135 
L 429.640507 92.380298 
L 431.888222 90.542431 
L 434.135937 88.704564 
L 436.383652 87.235949 
L 438.631361 85.834471 
L 442.002934 84.130878 
L 444.250649 82.754576 
L 445.374507 82.242659 
L 447.622222 81.697173 
L 448.746079 81.445411 
L 450.993794 80.681731 
L 452.117652 80.513889 
L 455.489224 80.35444 
L 458.860797 81.101335 
L 459.984655 81.596468 
L 461.108512 82.234267 
L 462.232364 83.090259 
L 463.356222 84.441385 
L 464.480079 86.195331 
L 465.603937 88.335313 
L 466.727794 91.079524 
L 467.851652 94.503495 
L 468.975509 98.74989 
L 470.099367 104.10404 
L 471.223224 110.406496 
L 472.347082 117.497808 
L 474.594797 134.122528 
L 476.842512 153.256482 
L 480.214085 182.410586 
L 484.709515 219.318975 
L 486.957224 236.304556 
L 488.081082 243.530141 
L 489.204939 249.119269 
L 490.328797 252.811787 
L 491.452654 254.548948 
L 492.576512 254.523772 
L 493.700369 253.474761 
L 494.824227 252.056499 
L 495.948085 250.352906 
L 497.071942 248.338805 
L 498.1958 245.896709 
L 499.319657 242.825206 
L 500.443515 239.090728 
L 502.69123 230.329391 
L 504.938945 221.442173 
L 506.062802 217.60699 
L 508.310517 211.220613 
L 509.434375 208.593891 
L 510.558227 206.604967 
L 511.682084 205.564348 
L 512.805942 205.715406 
L 513.9298 207.175628 
L 515.053657 209.953409 
L 516.177515 213.990001 
L 517.301372 219.21827 
L 518.42523 225.604647 
L 522.92066 254.381107 
L 524.044517 259.634552 
L 525.168375 263.797026 
L 526.292232 266.692295 
L 527.41609 268.127342 
L 528.539947 268.186086 
L 529.663805 266.977626 
L 530.787663 264.434824 
L 531.91152 260.683562 
L 533.035378 255.933642 
L 535.283087 244.419702 
L 540.902375 212.328369 
L 546.521662 176.427029 
L 547.64552 170.158141 
L 549.893235 159.52537 
L 552.14095 150.738857 
L 554.388665 142.934218 
L 556.63638 136.069492 
L 557.760232 132.981205 
L 560.007947 127.702583 
L 562.255662 122.902311 
L 573.494238 102.836836 
L 575.741953 99.026829 
L 576.86581 97.398764 
L 579.113525 94.696513 
L 581.36124 92.22924 
L 582.485092 91.205406 
L 584.732808 89.887848 
L 588.10438 87.974453 
L 589.228238 87.462536 
L 591.475953 86.128194 
L 592.59981 85.758943 
L 594.847525 85.414867 
L 597.09524 84.642795 
L 599.342955 84.164446 
L 606.086095 80.874749 
L 609.457668 79.63272 
L 610.581525 79.104019 
L 611.705383 78.415868 
L 616.200813 74.907977 
L 618.448528 72.885484 
L 622.943958 69.570611 
L 624.067816 69.033517 
L 626.315531 68.211093 
L 628.563246 67.086553 
L 630.810955 66.129856 
L 633.05867 64.862651 
L 634.182528 64.468223 
L 635.306385 64.233244 
L 636.430243 63.838816 
L 638.677958 62.697493 
L 639.801816 62.44573 
L 640.925673 62.336633 
L 642.049531 62.101655 
L 644.297246 61.430288 
L 646.544961 61.094605 
L 651.040391 59.718303 
L 653.288106 59.273522 
L 654.411958 59.147641 
L 655.535816 58.845526 
L 657.783531 58.081846 
L 662.278961 56.923738 
L 664.526676 56.369861 
L 665.650533 56.076138 
L 667.898248 55.144616 
L 669.022106 55.027127 
L 670.145963 55.11944 
L 671.269821 54.959991 
L 673.517536 53.936156 
L 674.641394 53.650825 
L 675.765251 53.482984 
L 679.136818 52.526286 
L 679.136818 52.526286 
" clip-path="url(#p12155ef29e)" style="fill: none; stroke: #2ca02c; stroke-width: 1.5; stroke-linecap: square"/>
   </g>
   <g id="line2d_26">
    <path d="M 77.873182 29.808912 
L 78.997034 30.127811 
L 80.120891 30.119419 
L 82.368606 29.095585 
L 83.492464 29.137545 
L 85.740179 30.027106 
L 87.987894 30.220124 
L 89.111752 30.270476 
L 91.359467 30.866314 
L 92.483324 30.673297 
L 93.607182 30.622944 
L 94.731039 31.151645 
L 95.854897 31.462153 
L 99.226469 31.982462 
L 102.598037 31.65517 
L 103.721894 30.916667 
L 104.845752 30.925059 
L 105.969609 32.116735 
L 107.093467 32.972728 
L 109.341182 33.635703 
L 111.588897 34.206364 
L 112.712754 34.332246 
L 113.836612 34.18958 
L 114.960469 33.895857 
L 116.084327 34.508479 
L 117.208184 35.893173 
L 118.332042 36.749166 
L 119.455899 36.799519 
L 120.579757 36.421875 
L 121.703615 36.698814 
L 123.95133 38.469543 
L 125.075187 39.082166 
L 126.199045 39.560515 
L 127.322897 40.290626 
L 128.446754 41.322852 
L 129.570612 42.07814 
L 131.818327 42.917349 
L 132.942184 43.80691 
L 135.189899 46.131517 
L 136.313757 46.844844 
L 137.437614 47.02947 
L 138.561472 47.549779 
L 140.809187 50.075797 
L 141.933045 51.015711 
L 145.304617 54.691444 
L 147.552332 56.537703 
L 148.67619 57.368519 
L 149.800047 58.560195 
L 153.171614 63.738111 
L 154.295472 65.173158 
L 156.543187 67.581686 
L 157.667045 69.092262 
L 158.790902 70.8546 
L 161.038617 73.984847 
L 167.781762 85.851255 
L 170.029477 89.325579 
L 172.277192 93.404132 
L 173.40105 95.720347 
L 175.64876 100.789167 
L 185.763477 122.843566 
L 197.002053 149.991961 
L 199.249762 155.757324 
L 201.497477 161.220571 
L 211.612195 187.857049 
L 219.479198 208.30856 
L 221.726913 214.42639 
L 226.222337 225.327708 
L 229.59391 233.996732 
L 232.965483 242.632188 
L 237.460913 253.390841 
L 243.0802 266.356612 
L 247.575625 276.829934 
L 249.82334 281.72252 
L 259.938058 302.795045 
L 261.061915 304.951811 
L 263.309631 308.820562 
L 264.433488 310.98572 
L 265.557346 312.857155 
L 267.805061 316.071324 
L 270.052776 319.663136 
L 273.424343 324.203254 
L 276.795915 328.147534 
L 279.04363 330.54767 
L 281.291346 332.385537 
L 284.662918 334.508734 
L 285.786776 335.09618 
L 288.034491 335.952173 
L 289.158348 336.212328 
L 292.529921 335.985741 
L 294.77763 336.757813 
L 295.901488 336.62354 
L 299.273061 335.591313 
L 300.396918 335.087788 
L 302.644633 334.49195 
L 303.768491 333.963249 
L 304.892348 333.291882 
L 306.016206 332.393929 
L 308.263921 330.228771 
L 312.759351 325.604732 
L 313.883208 324.555721 
L 316.130923 321.85347 
L 318.378633 318.681262 
L 323.997921 309.844396 
L 328.493351 301.695682 
L 329.617208 299.580876 
L 334.112639 289.762137 
L 338.608069 279.565754 
L 340.855784 274.085722 
L 343.103493 268.286791 
L 345.351208 262.328411 
L 347.598923 256.974261 
L 358.837499 225.973899 
L 361.085214 219.277015 
L 363.332929 213.192753 
L 370.076069 195.435102 
L 373.447641 186.472355 
L 375.695356 181.143381 
L 379.066929 172.524709 
L 382.438501 164.652934 
L 389.181647 149.958393 
L 391.429356 145.544156 
L 394.800929 138.43606 
L 397.048644 134.256802 
L 400.420216 128.592144 
L 403.791789 122.801606 
L 407.163362 117.162125 
L 408.287219 115.559236 
L 411.658792 111.413546 
L 416.154216 105.144659 
L 417.278074 103.768357 
L 419.525789 101.762649 
L 420.649646 100.377955 
L 421.773504 98.74989 
L 422.897361 97.38198 
L 425.145077 95.351096 
L 433.012079 88.738133 
L 435.259794 87.068108 
L 439.755219 84.114094 
L 443.126792 82.141954 
L 444.250649 81.705565 
L 446.498364 80.59781 
L 449.869937 79.649505 
L 450.993794 79.196332 
L 452.117652 79.020098 
L 454.365367 79.062059 
L 455.489224 78.969746 
L 456.613082 79.036882 
L 457.736939 79.372566 
L 461.108512 80.866357 
L 462.232364 81.898583 
L 464.480079 85.020439 
L 465.603937 87.059716 
L 466.727794 89.871064 
L 467.851652 93.429308 
L 468.975509 97.7848 
L 470.099367 103.113774 
L 471.223224 109.340701 
L 472.347082 116.381661 
L 473.470939 124.303789 
L 475.718654 142.665671 
L 480.214085 181.957413 
L 485.833367 229.011834 
L 486.957224 237.538192 
L 488.081082 245.040716 
L 489.204939 251.049449 
L 490.328797 255.07765 
L 491.452654 256.957477 
L 492.576512 257.13371 
L 493.700369 256.344855 
L 494.824227 255.035689 
L 495.948085 253.298528 
L 497.071942 251.141762 
L 498.1958 248.515039 
L 499.319657 245.292479 
L 500.443515 241.415335 
L 502.69123 232.561686 
L 504.938945 223.405921 
L 506.062802 219.394504 
L 507.18666 215.903397 
L 508.310517 212.831894 
L 509.434375 210.205171 
L 510.558227 208.10715 
L 511.682084 206.865121 
L 512.805942 206.848337 
L 513.9298 208.140718 
L 515.053657 210.750657 
L 516.177515 214.753681 
L 517.301372 220.216929 
L 519.549087 234.298847 
L 521.796802 249.354248 
L 522.92066 255.983995 
L 524.044517 261.388498 
L 525.168375 265.441875 
L 526.292232 268.009853 
L 527.41609 269.033687 
L 528.539947 268.597299 
L 529.663805 266.851745 
L 530.787663 263.847379 
L 531.91152 259.701689 
L 533.035378 254.624477 
L 535.283087 242.422385 
L 542.026232 203.457935 
L 547.64552 169.243404 
L 548.769378 163.754981 
L 551.017093 154.490119 
L 553.264808 146.181955 
L 555.512523 138.973154 
L 557.760232 132.376975 
L 560.007947 126.620004 
L 563.37952 119.209793 
L 567.87495 110.683435 
L 572.37038 102.509544 
L 574.618095 98.791851 
L 577.989668 93.79856 
L 579.113525 92.489395 
L 581.36124 90.382981 
L 582.485092 89.443068 
L 588.10438 85.86804 
L 590.352095 84.751892 
L 591.475953 84.34068 
L 599.342955 82.427285 
L 604.962243 79.63272 
L 607.209953 78.634062 
L 609.457668 78.071793 
L 610.581525 77.551483 
L 616.200813 73.405793 
L 619.572386 69.998607 
L 621.820101 68.286622 
L 622.943958 67.648823 
L 626.315531 66.34805 
L 628.563246 65.173158 
L 630.810955 64.182892 
L 633.05867 62.64714 
L 634.182528 62.303065 
L 635.306385 62.252712 
L 636.430243 61.950597 
L 638.677958 60.79249 
L 639.801816 60.557511 
L 642.049531 60.347709 
L 647.668818 58.979799 
L 649.916533 58.786781 
L 651.040391 58.425922 
L 652.164248 57.930789 
L 655.535816 57.200677 
L 656.659673 56.680368 
L 662.278961 55.564221 
L 664.526676 54.599131 
L 666.774391 54.196311 
L 669.022106 53.432631 
L 671.269821 53.256397 
L 672.393678 52.912322 
L 673.517536 52.38362 
L 674.641394 52.131858 
L 675.765251 52.031153 
L 678.012961 51.225513 
L 679.136818 51.082847 
L 679.136818 51.082847 
" clip-path="url(#p12155ef29e)" style="fill: none; stroke: #d62728; stroke-width: 1.5; stroke-linecap: square"/>
   </g>
   <g id="line2d_27">
    <path d="M 77.873182 30.111027 
L 78.997034 30.211732 
L 80.120891 30.010322 
L 81.244749 29.338955 
L 82.368606 29.03684 
L 84.616322 30.522239 
L 85.740179 30.908275 
L 86.864037 30.723649 
L 87.987894 30.144595 
L 89.111752 29.733383 
L 90.235609 30.052282 
L 91.359467 30.774002 
L 92.483324 30.933451 
L 93.607182 30.950235 
L 94.731039 31.269135 
L 95.854897 31.36984 
L 98.102612 30.941843 
L 99.226469 30.992196 
L 100.350327 31.185214 
L 101.474184 31.260742 
L 102.598037 30.925059 
L 103.721894 30.169771 
L 104.845752 30.178163 
L 105.969609 31.604818 
L 107.093467 32.737749 
L 108.217324 33.107001 
L 109.341182 33.073433 
L 110.465039 33.241275 
L 111.588897 33.660879 
L 112.712754 33.904249 
L 113.836612 33.736408 
L 114.960469 33.325195 
L 116.084327 33.887465 
L 117.208184 35.280551 
L 118.332042 35.884781 
L 120.579757 35.633019 
L 121.703615 35.985486 
L 126.199045 38.167428 
L 127.322897 38.998245 
L 128.446754 40.156353 
L 129.570612 40.928424 
L 131.818327 41.180187 
L 132.942184 41.616575 
L 134.066042 42.464176 
L 135.189899 43.454442 
L 136.313757 44.05028 
L 137.437614 44.327219 
L 138.561472 45.233564 
L 139.68533 46.718963 
L 140.809187 47.79315 
L 145.304617 51.024103 
L 146.428475 52.291307 
L 147.552332 53.248005 
L 148.67619 53.894196 
L 149.800047 54.985167 
L 154.295472 61.170133 
L 155.41933 62.412162 
L 156.543187 63.326899 
L 157.667045 64.652849 
L 158.790902 66.423579 
L 163.286332 72.684074 
L 165.534047 76.45212 
L 167.781762 80.15303 
L 170.029477 83.820371 
L 172.277192 87.546457 
L 179.020332 100.646501 
L 185.763477 114.602539 
L 186.887335 116.910362 
L 191.382765 127.148706 
L 193.63048 131.797921 
L 199.249762 144.981886 
L 204.86905 155.715363 
L 209.36448 164.929872 
L 216.107625 178.197759 
L 217.231483 179.968489 
L 219.479198 184.248452 
L 223.974622 192.514656 
L 228.470053 199.438126 
L 230.717768 203.390798 
L 232.965483 206.680495 
L 235.213198 209.819135 
L 236.337055 211.564689 
L 237.460913 213.066872 
L 238.58477 214.26694 
L 239.708628 215.676811 
L 241.956343 219.025252 
L 246.451768 224.698302 
L 249.82334 228.390819 
L 252.071055 230.799348 
L 256.566485 235.079311 
L 258.8142 236.581494 
L 261.061915 238.687908 
L 264.433488 240.836281 
L 265.557346 241.549609 
L 268.928918 243.093752 
L 270.052776 243.479788 
L 272.300485 243.991705 
L 273.424343 244.386133 
L 274.5482 244.604328 
L 275.672058 244.570759 
L 276.795915 244.663072 
L 277.919773 244.948403 
L 279.04363 245.01554 
L 283.539061 244.226684 
L 288.034491 242.64058 
L 289.158348 241.935645 
L 291.406063 239.971897 
L 293.653778 238.755044 
L 294.77763 238.117246 
L 299.273061 234.533826 
L 301.520776 232.570078 
L 302.644633 231.672125 
L 303.768491 230.614722 
L 306.016206 227.895686 
L 308.263921 225.025593 
L 310.511636 222.272989 
L 316.130923 214.795642 
L 317.254781 213.377379 
L 319.502491 209.861096 
L 321.750206 206.168578 
L 323.997921 202.669079 
L 329.617208 193.118886 
L 331.864923 188.813746 
L 336.360354 180.824482 
L 343.103493 167.85871 
L 345.351208 163.645883 
L 347.598923 159.735172 
L 355.465926 144.839221 
L 365.580644 127.215842 
L 370.076069 120.28398 
L 372.323784 116.750912 
L 375.695356 111.866719 
L 379.066929 107.209112 
L 384.686216 100.193329 
L 389.181647 94.889531 
L 392.553214 91.087916 
L 394.800929 88.754917 
L 399.296359 84.651187 
L 401.544074 82.460853 
L 403.791789 80.857965 
L 407.163362 78.080185 
L 408.287219 77.450778 
L 409.411077 76.955645 
L 410.534934 76.284279 
L 412.782649 74.421236 
L 420.649646 69.721668 
L 421.773504 68.983165 
L 426.268934 67.120122 
L 430.764364 65.248687 
L 433.012079 64.317165 
L 435.259794 63.637406 
L 442.002934 61.917029 
L 444.250649 61.472248 
L 448.746079 61.296015 
L 453.241509 61.413504 
L 455.489224 61.824716 
L 458.860797 63.04996 
L 459.984655 63.578662 
L 461.108512 64.426262 
L 462.232364 65.760604 
L 464.480079 69.050301 
L 465.603937 71.114754 
L 466.727794 73.858966 
L 467.851652 77.291329 
L 468.975509 81.470587 
L 470.099367 86.556191 
L 471.223224 92.506179 
L 473.470939 106.39508 
L 474.594797 114.552186 
L 476.842512 133.056734 
L 485.833367 210.020545 
L 486.957224 218.555296 
L 488.081082 225.69696 
L 489.204939 230.8497 
L 490.328797 233.963164 
L 491.452654 235.205192 
L 492.576512 234.978606 
L 493.700369 233.971556 
L 495.948085 231.688909 
L 498.1958 229.817474 
L 499.319657 228.315291 
L 500.443515 226.124956 
L 501.567372 223.271647 
L 502.69123 219.797324 
L 503.815087 215.63485 
L 508.310517 196.67713 
L 509.434375 192.766418 
L 510.558227 189.694915 
L 511.682084 187.764736 
L 512.805942 187.403876 
L 513.9298 188.763394 
L 515.053657 191.650271 
L 516.177515 195.963803 
L 517.301372 201.645244 
L 518.42523 208.434441 
L 520.672945 224.312266 
L 524.044517 249.673147 
L 526.292232 264.384472 
L 527.41609 270.443557 
L 528.539947 275.512377 
L 529.663805 279.515401 
L 530.787663 282.259613 
L 531.91152 283.661091 
L 533.035378 283.711444 
L 534.15923 282.385494 
L 535.283087 279.439872 
L 536.406945 274.924931 
L 537.530802 269.075647 
L 538.65466 261.866846 
L 539.778517 253.281743 
L 542.026232 232.729527 
L 547.64552 177.366942 
L 548.769378 168.177609 
L 549.893235 160.112816 
L 552.14095 146.333012 
L 553.264808 140.525689 
L 554.388665 135.507222 
L 555.512523 131.101378 
L 556.63638 127.199058 
L 557.760232 123.951321 
L 558.88409 121.442088 
L 560.007947 119.520301 
L 561.131805 118.06847 
L 562.255662 117.027851 
L 563.37952 116.314524 
L 565.627235 115.072495 
L 566.751093 114.16615 
L 567.87495 112.949298 
L 568.998808 111.354802 
L 570.122665 109.281957 
L 571.246523 106.663626 
L 576.86581 91.818028 
L 577.989668 89.300402 
L 579.113525 87.160421 
L 580.237383 85.297378 
L 581.36124 83.652529 
L 582.485092 82.360148 
L 583.60895 81.437019 
L 586.980523 79.255077 
L 589.228238 78.105361 
L 593.723668 76.61157 
L 597.09524 75.990556 
L 599.342955 75.344365 
L 608.33381 72.088236 
L 610.581525 71.240635 
L 612.82924 69.990215 
L 616.200813 67.816665 
L 619.572386 65.265471 
L 621.820101 63.721327 
L 622.943958 62.84855 
L 624.067816 62.336633 
L 625.191673 62.068087 
L 626.315531 61.556169 
L 628.563246 60.221828 
L 630.810955 59.323875 
L 634.182528 57.334951 
L 636.430243 56.48735 
L 639.801816 54.632699 
L 644.297246 53.264789 
L 647.668818 52.433973 
L 648.792676 52.115074 
L 651.040391 51.729038 
L 653.288106 51.141592 
L 654.411958 50.93179 
L 656.659673 50.310775 
L 658.907388 50.100973 
L 660.031246 49.698153 
L 661.155103 49.437999 
L 662.278961 49.345686 
L 665.650533 48.422556 
L 667.898248 47.767974 
L 669.022106 47.658877 
L 671.269821 47.75119 
L 672.393678 47.482643 
L 673.517536 47.021078 
L 674.641394 46.752531 
L 676.889109 46.475593 
L 678.012961 46.274183 
L 679.136818 46.198654 
L 679.136818 46.198654 
" clip-path="url(#p12155ef29e)" style="fill: none; stroke: #9467bd; stroke-width: 1.5; stroke-linecap: square"/>
   </g>
   <g id="line2d_28">
    <path d="M 77.873182 28.810254 
L 78.997034 29.221466 
L 80.120891 29.448052 
L 82.368606 28.692764 
L 83.492464 28.810254 
L 86.864037 29.867656 
L 89.111752 29.901225 
L 90.235609 30.060674 
L 91.359467 30.463494 
L 92.483324 30.522239 
L 93.607182 30.253692 
L 94.731039 30.40475 
L 95.854897 30.799178 
L 100.350327 31.478937 
L 101.474184 31.588034 
L 103.721894 31.395016 
L 104.845752 31.663563 
L 105.969609 32.402066 
L 107.093467 32.964336 
L 109.341182 33.560174 
L 111.588897 34.307069 
L 112.712754 34.718281 
L 113.836612 34.869339 
L 114.960469 34.75185 
L 116.084327 35.246983 
L 117.208184 36.354738 
L 118.332042 37.076457 
L 119.455899 37.244299 
L 120.579757 37.261083 
L 121.703615 37.966018 
L 122.827472 38.872364 
L 126.199045 40.257058 
L 130.694469 43.613892 
L 132.942184 44.788783 
L 134.066042 45.703521 
L 135.189899 46.777708 
L 136.313757 47.667269 
L 137.437614 48.405772 
L 138.561472 49.286941 
L 141.933045 52.652167 
L 143.056902 53.676002 
L 147.552332 58.442706 
L 148.67619 59.550461 
L 152.047757 63.738111 
L 154.295472 66.826399 
L 156.543187 69.604179 
L 157.667045 71.29938 
L 161.038617 77.039566 
L 164.41019 81.932152 
L 170.029477 92.313161 
L 171.153335 94.260125 
L 173.40105 98.808635 
L 175.64876 103.827102 
L 179.020332 110.74218 
L 181.268047 116.331308 
L 183.515762 120.779113 
L 189.13505 134.105744 
L 191.382765 139.661305 
L 193.63048 145.166512 
L 199.249762 159.265215 
L 201.497477 164.569013 
L 207.116765 179.154457 
L 209.36448 184.903035 
L 211.612195 190.693573 
L 214.983768 199.874514 
L 225.09848 226.670442 
L 229.59391 238.100462 
L 231.841625 243.932961 
L 236.337055 254.985337 
L 238.58477 260.364663 
L 240.832485 265.618108 
L 244.204058 273.892704 
L 246.451768 279.238462 
L 248.699483 284.726886 
L 252.071055 291.776237 
L 254.31877 296.887017 
L 261.061915 310.507371 
L 265.557346 318.689654 
L 267.805061 322.440916 
L 270.052776 326.301275 
L 272.300485 329.406347 
L 274.5482 332.209303 
L 277.919773 336.170367 
L 280.167488 338.268388 
L 282.415203 340.055902 
L 285.786776 342.531568 
L 286.910633 343.077053 
L 289.158348 343.681283 
L 295.901488 344.436571 
L 297.025345 344.419787 
L 298.149203 344.235161 
L 303.768491 342.153924 
L 304.892348 341.558086 
L 306.016206 340.76923 
L 310.511636 336.757813 
L 312.759351 335.087788 
L 313.883208 333.904504 
L 318.378633 328.348944 
L 320.626348 325.159952 
L 322.874063 322.172369 
L 327.369493 314.418083 
L 330.741066 307.922609 
L 336.360354 295.930319 
L 339.731926 287.706076 
L 343.103493 279.716811 
L 348.722781 265.215288 
L 354.342069 249.824204 
L 357.713641 240.676832 
L 361.085214 230.656682 
L 364.456786 221.425389 
L 370.076069 206.126618 
L 373.447641 196.794619 
L 376.819214 188.167556 
L 379.066929 182.561643 
L 382.438501 174.505241 
L 385.810074 166.213862 
L 389.181647 158.652593 
L 397.048644 142.187322 
L 401.544074 133.828805 
L 403.791789 130.085936 
L 406.039504 126.443771 
L 408.287219 122.583412 
L 410.534934 119.251754 
L 416.154216 111.287665 
L 417.278074 109.609248 
L 421.773504 104.011727 
L 426.268934 99.303768 
L 428.516649 97.096649 
L 430.764364 94.956668 
L 433.012079 92.984528 
L 437.507509 89.45146 
L 442.002934 86.128194 
L 443.126792 85.398083 
L 445.374507 84.458169 
L 447.622222 83.610569 
L 450.993794 82.679047 
L 452.117652 82.200698 
L 453.241509 81.873407 
L 455.489224 81.705565 
L 456.613082 81.856623 
L 459.984655 82.838497 
L 461.108512 83.300062 
L 462.232364 84.214799 
L 463.356222 85.624669 
L 464.480079 87.328262 
L 465.603937 89.45146 
L 466.727794 92.128535 
L 467.851652 95.460193 
L 468.975509 99.689804 
L 470.099367 105.052346 
L 471.223224 111.455507 
L 472.347082 118.664308 
L 473.470939 126.687141 
L 475.718654 145.35953 
L 480.214085 184.483431 
L 486.957224 239.350882 
L 488.081082 246.794662 
L 489.204939 252.38379 
L 490.328797 255.975603 
L 491.452654 257.771509 
L 492.576512 258.115584 
L 493.700369 257.393865 
L 494.824227 255.807761 
L 497.071942 251.309603 
L 498.1958 248.657705 
L 499.319657 245.284086 
L 501.567372 236.732552 
L 504.938945 223.087022 
L 506.062802 219.142742 
L 507.18666 215.701987 
L 508.310517 212.714405 
L 509.434375 210.238739 
L 510.558227 208.442833 
L 511.682084 207.578449 
L 512.805942 207.805035 
L 513.9298 209.214905 
L 515.053657 211.875196 
L 516.177515 215.911789 
L 517.301372 221.408605 
L 519.549087 235.35625 
L 521.796802 249.866165 
L 522.92066 256.067916 
L 524.044517 260.910149 
L 525.168375 264.300551 
L 526.292232 266.239123 
L 527.41609 266.625159 
L 528.539947 265.525796 
L 529.663805 263.176012 
L 530.787663 259.62616 
L 531.91152 254.926592 
L 533.035378 249.371032 
L 536.406945 230.480449 
L 539.778517 212.168919 
L 542.026232 199.61436 
L 546.521662 173.758346 
L 548.769378 162.789891 
L 549.893235 158.107107 
L 552.14095 150.151411 
L 554.388665 142.632103 
L 557.760232 132.611953 
L 560.007947 126.712317 
L 562.255662 121.45048 
L 568.998808 108.090281 
L 571.246523 104.255098 
L 574.618095 98.817027 
L 576.86581 95.72874 
L 579.113525 93.076841 
L 582.485092 89.761967 
L 583.60895 88.989895 
L 585.856665 87.873748 
L 588.10438 86.656896 
L 592.59981 84.90295 
L 595.971383 83.97982 
L 597.09524 83.509864 
L 599.342955 82.880457 
L 601.59067 81.680389 
L 603.838386 80.463537 
L 606.086095 79.624328 
L 607.209953 79.246685 
L 609.457668 78.172498 
L 611.705383 76.737451 
L 616.200813 73.372225 
L 618.448528 71.198675 
L 619.572386 70.267154 
L 622.943958 68.018075 
L 624.067816 67.548118 
L 625.191673 67.279571 
L 626.315531 66.75087 
L 627.439388 65.962014 
L 628.563246 65.341 
L 630.810955 64.459831 
L 633.05867 62.949255 
L 634.182528 62.630356 
L 635.306385 62.529651 
L 636.430243 62.24432 
L 639.801816 60.733745 
L 642.049531 60.733745 
L 643.173388 60.448414 
L 644.297246 59.986849 
L 645.421103 59.684734 
L 648.792676 59.130857 
L 655.535816 57.645458 
L 660.031246 56.101314 
L 661.155103 55.958649 
L 662.278961 55.958649 
L 663.402818 55.673318 
L 666.774391 54.246663 
L 667.898248 53.801883 
L 669.022106 53.625649 
L 670.145963 53.659217 
L 671.269821 53.55012 
L 673.517536 52.685735 
L 674.641394 52.54307 
L 675.765251 52.534678 
L 678.012961 51.947232 
L 679.136818 51.661901 
L 679.136818 51.661901 
" clip-path="url(#p12155ef29e)" style="fill: none; stroke: #8c564b; stroke-width: 1.5; stroke-linecap: square"/>
   </g>
   <g id="line2d_29">
    <path d="M 77.873182 29.313779 
L 78.997034 29.632678 
L 80.120891 29.548757 
L 82.368606 28.038182 
L 83.492464 28.449394 
L 84.616322 29.338955 
L 85.740179 29.892833 
L 86.864037 29.909617 
L 87.987894 29.80052 
L 91.359467 30.169771 
L 92.483324 29.834088 
L 93.607182 29.724991 
L 98.102612 31.319487 
L 99.226469 31.646778 
L 100.350327 31.730699 
L 101.474184 31.520897 
L 102.598037 30.983804 
L 103.721894 30.304045 
L 104.845752 30.429926 
L 105.969609 31.520897 
L 107.093467 32.326537 
L 109.341182 33.232882 
L 110.465039 33.62731 
L 113.836612 34.332246 
L 114.960469 34.206364 
L 116.084327 34.508479 
L 117.208184 35.574274 
L 118.332042 36.379914 
L 119.455899 36.598109 
L 120.579757 36.631677 
L 121.703615 37.286259 
L 122.827472 38.125468 
L 125.075187 39.006637 
L 126.199045 39.468202 
L 127.322897 40.240273 
L 128.446754 41.339637 
L 129.570612 42.245982 
L 132.942184 43.790125 
L 134.066042 44.637726 
L 135.189899 45.879755 
L 136.313757 46.886805 
L 137.437614 47.398722 
L 138.561472 48.204362 
L 139.68533 49.429607 
L 141.933045 51.544412 
L 143.056902 52.719304 
L 145.304617 54.683052 
L 147.552332 57.108364 
L 148.67619 58.006317 
L 149.800047 59.248346 
L 152.047757 62.496083 
L 155.41933 66.985848 
L 156.543187 68.11878 
L 157.667045 69.537042 
L 161.038617 74.866016 
L 162.162475 76.343023 
L 163.286332 78.029832 
L 165.534047 82.284619 
L 167.781762 86.589759 
L 171.153335 92.287985 
L 180.14419 110.591122 
L 184.63962 121.131581 
L 190.258907 134.24841 
L 197.002053 150.386389 
L 200.37362 159.013453 
L 204.86905 169.956731 
L 207.116765 175.764054 
L 211.612195 187.026232 
L 214.983768 195.703648 
L 222.850765 215.660026 
L 225.09848 220.602964 
L 227.346195 226.317974 
L 229.59391 231.680517 
L 231.841625 237.278037 
L 234.08934 242.27972 
L 237.460913 250.268985 
L 240.832485 257.536531 
L 243.0802 262.748015 
L 250.947198 279.557362 
L 257.690343 292.497957 
L 261.061915 298.229751 
L 262.185773 300.025657 
L 264.433488 304.10421 
L 265.557346 305.824588 
L 267.805061 308.85413 
L 270.052776 312.068299 
L 273.424343 316.113284 
L 276.795915 319.63796 
L 279.04363 321.677236 
L 281.291346 323.229772 
L 283.539061 324.656426 
L 285.786776 325.83971 
L 286.910633 326.208962 
L 289.158348 326.544646 
L 292.529921 326.56143 
L 293.653778 326.636959 
L 295.901488 326.418764 
L 297.025345 326.150218 
L 300.396918 325.084423 
L 302.644633 324.329135 
L 303.768491 323.800434 
L 304.892348 323.01997 
L 309.387778 318.991769 
L 317.254781 310.188472 
L 319.502491 306.991088 
L 323.997921 299.966912 
L 329.617208 289.946763 
L 336.360354 276.015902 
L 340.855784 265.349562 
L 343.103493 260.389839 
L 356.589784 226.183701 
L 359.961356 217.086681 
L 362.209071 211.027595 
L 365.580644 202.585158 
L 370.076069 191.138354 
L 374.571499 180.25382 
L 379.066929 169.579088 
L 386.933931 152.450842 
L 397.048644 133.32528 
L 399.296359 129.49849 
L 404.915646 120.544135 
L 408.287219 115.659941 
L 417.278074 103.944591 
L 420.649646 100.294034 
L 421.773504 98.926124 
L 425.145077 95.552506 
L 426.268934 94.503495 
L 430.764364 90.869722 
L 431.888222 89.913025 
L 438.631361 85.50718 
L 442.002934 83.37559 
L 445.374507 81.713958 
L 446.498364 81.285961 
L 448.746079 80.774044 
L 450.993794 79.867699 
L 452.117652 79.649505 
L 454.365367 79.532015 
L 455.489224 79.439703 
L 456.613082 79.615936 
L 459.984655 80.824397 
L 461.108512 81.36149 
L 462.232364 82.318188 
L 463.356222 83.744842 
L 464.480079 85.398083 
L 465.603937 87.428967 
L 466.727794 90.223532 
L 467.851652 93.790168 
L 468.975509 98.061739 
L 470.099367 103.264832 
L 471.223224 109.433014 
L 472.347082 116.457189 
L 473.470939 124.38771 
L 475.718654 142.883865 
L 480.214085 181.806355 
L 485.833367 227.568395 
L 486.957224 235.96048 
L 488.081082 243.060184 
L 489.204939 248.39755 
L 490.328797 251.855089 
L 491.452654 253.491546 
L 492.576512 253.575466 
L 493.700369 252.677513 
L 494.824227 251.368348 
L 495.948085 249.790636 
L 497.071942 247.826888 
L 498.1958 245.309263 
L 499.319657 242.179015 
L 500.443515 238.520066 
L 502.69123 229.867826 
L 504.938945 220.913472 
L 506.062802 216.994368 
L 507.18666 213.528437 
L 508.310517 210.423365 
L 509.434375 207.771466 
L 510.558227 205.782542 
L 511.682084 204.72514 
L 512.805942 204.851021 
L 513.9298 206.319636 
L 515.053657 209.181337 
L 516.177515 213.352203 
L 517.301372 218.765098 
L 518.42523 225.285748 
L 522.92066 253.541898 
L 524.044517 258.938009 
L 525.168375 263.05013 
L 526.292232 265.78595 
L 527.41609 267.061547 
L 528.539947 266.95245 
L 529.663805 265.592932 
L 530.787663 262.974602 
L 531.91152 259.172987 
L 533.035378 254.431459 
L 534.15923 248.909467 
L 539.778517 217.439148 
L 542.026232 203.676129 
L 546.521662 175.14304 
L 547.64552 168.916113 
L 549.893235 158.308517 
L 552.14095 149.547181 
L 554.388665 141.918775 
L 556.63638 135.381341 
L 558.88409 129.204767 
L 560.007947 126.452163 
L 561.131805 124.010066 
L 564.503377 117.774747 
L 568.998808 109.61764 
L 576.86581 96.274225 
L 577.989668 94.755258 
L 580.237383 92.287985 
L 582.485092 89.954985 
L 583.60895 89.157737 
L 585.856665 87.991237 
L 586.980523 87.27791 
L 588.10438 86.698856 
L 590.352095 85.926784 
L 592.59981 84.995263 
L 595.971383 84.088918 
L 597.09524 83.652529 
L 599.342955 83.115436 
L 608.33381 78.911001 
L 609.457668 78.508181 
L 610.581525 77.945911 
L 612.82924 76.45212 
L 615.076955 74.832448 
L 618.448528 71.7022 
L 620.696243 70.183233 
L 622.943958 68.748186 
L 627.439388 66.5075 
L 628.563246 65.911661 
L 630.810955 64.93818 
L 633.05867 63.528309 
L 634.182528 63.201018 
L 635.306385 63.083529 
L 636.430243 62.840158 
L 639.801816 61.296015 
L 653.288106 58.425922 
L 654.411958 58.249688 
L 657.783531 56.906954 
L 662.278961 56.218803 
L 663.402818 55.891512 
L 666.774391 54.55717 
L 667.898248 53.919372 
L 669.022106 53.575297 
L 671.269821 53.566904 
L 673.517536 52.987851 
L 675.765251 52.366836 
L 676.889109 51.955624 
L 679.136818 51.586372 
L 679.136818 51.586372 
" clip-path="url(#p12155ef29e)" style="fill: none; stroke: #e377c2; stroke-width: 1.5; stroke-linecap: square"/>
   </g>
   <g id="line2d_30">
    <path d="M 77.873182 30.757217 
L 78.997034 30.975412 
L 80.120891 30.925059 
L 81.244749 30.471886 
L 82.368606 30.220124 
L 83.492464 30.329221 
L 84.616322 30.656512 
L 85.740179 31.176822 
L 86.864037 31.4118 
L 89.111752 31.478937 
L 91.359467 31.890149 
L 93.607182 31.378232 
L 96.978754 32.276185 
L 99.226469 32.351714 
L 103.721894 31.890149 
L 104.845752 32.200656 
L 105.969609 32.98112 
L 108.217324 34.072091 
L 109.341182 34.500087 
L 112.712754 35.095925 
L 114.960469 35.028789 
L 116.084327 35.406432 
L 117.208184 36.144936 
L 118.332042 36.631677 
L 120.579757 36.556148 
L 121.703615 37.219123 
L 122.827472 38.0919 
L 123.95133 38.637385 
L 126.199045 39.359104 
L 127.322897 39.996903 
L 129.570612 41.792809 
L 131.818327 43.034838 
L 134.066042 44.427924 
L 137.437614 46.433632 
L 138.561472 47.339977 
L 140.809187 49.614232 
L 143.056902 51.460491 
L 145.304617 53.021419 
L 150.923899 58.86231 
L 153.171614 61.614914 
L 154.295472 63.20941 
L 155.41933 64.459831 
L 156.543187 65.458489 
L 157.667045 66.927104 
L 159.91476 70.552484 
L 164.41019 77.005998 
L 171.153335 88.612251 
L 173.40105 93.261467 
L 176.772617 100.050663 
L 179.020332 104.322235 
L 183.515762 113.96474 
L 191.382765 131.948978 
L 192.506623 134.08896 
L 193.63048 136.816388 
L 195.878195 142.791552 
L 199.249762 150.764033 
L 209.36448 174.530418 
L 212.736053 182.645564 
L 214.983768 187.680815 
L 217.231483 192.791595 
L 222.850765 204.876197 
L 225.09848 209.483452 
L 227.346195 214.46835 
L 229.59391 219.058821 
L 231.841625 224.035327 
L 234.08934 228.306898 
L 237.460913 234.617746 
L 239.708628 238.369008 
L 244.204058 246.685565 
L 248.699483 254.053815 
L 250.947198 257.746333 
L 253.194913 261.405282 
L 255.442628 264.728547 
L 258.8142 269.411331 
L 259.938058 271.05618 
L 265.557346 277.643966 
L 270.052776 282.12534 
L 272.300485 283.912854 
L 275.672058 285.901778 
L 277.919773 286.91722 
L 280.167488 287.714468 
L 284.662918 288.604029 
L 285.786776 288.578853 
L 286.910633 288.360659 
L 288.034491 288.008191 
L 292.529921 286.212285 
L 293.653778 285.985699 
L 294.77763 285.599663 
L 297.025345 284.156224 
L 299.273061 282.654041 
L 302.644633 280.086063 
L 303.768491 279.02866 
L 306.016206 276.443898 
L 309.387778 272.415697 
L 312.759351 268.454633 
L 313.883208 266.935666 
L 316.130923 263.511695 
L 318.378633 260.146469 
L 321.750206 254.339146 
L 322.874063 252.526456 
L 329.617208 239.619429 
L 339.731926 217.724479 
L 345.351208 204.708355 
L 347.598923 199.41295 
L 349.846638 194.176289 
L 352.094354 189.023549 
L 354.342069 183.568693 
L 356.589784 178.709676 
L 362.209071 165.265556 
L 364.456786 160.364578 
L 367.828353 153.390756 
L 371.199926 145.930192 
L 372.323784 143.613977 
L 375.695356 137.395442 
L 377.943071 132.972813 
L 381.314644 127.241019 
L 382.438501 125.117821 
L 384.686216 121.542793 
L 391.429356 110.98555 
L 393.677071 107.679069 
L 394.800929 105.958691 
L 397.048644 103.105382 
L 400.420216 99.144318 
L 401.544074 97.566606 
L 403.791789 95.183254 
L 408.287219 90.189963 
L 410.534934 88.318528 
L 412.782649 86.170155 
L 417.278074 82.376932 
L 419.525789 80.925102 
L 422.897361 78.096969 
L 425.145077 76.301063 
L 428.516649 74.555509 
L 433.012079 72.365175 
L 435.259794 71.232243 
L 442.002934 68.72301 
L 443.126792 68.395719 
L 450.993794 67.036201 
L 453.241509 67.103338 
L 454.365367 67.187258 
L 455.489224 67.413845 
L 457.736939 68.093604 
L 458.860797 68.56356 
L 461.108512 70.216801 
L 462.232364 71.307772 
L 463.356222 72.742819 
L 464.480079 74.396059 
L 465.603937 76.334631 
L 466.727794 78.952962 
L 467.851652 82.469245 
L 468.975509 86.799561 
L 470.099367 92.044614 
L 471.223224 98.170836 
L 472.347082 105.052346 
L 473.470939 112.680751 
L 474.594797 121.08962 
L 476.842512 140.231966 
L 482.4618 189.325664 
L 485.833367 217.724479 
L 486.957224 226.435464 
L 488.081082 233.803714 
L 489.204939 239.34249 
L 490.328797 243.060184 
L 491.452654 244.872874 
L 492.576512 244.889658 
L 493.700369 243.823864 
L 495.948085 241.348199 
L 497.071942 240.156523 
L 498.1958 238.49489 
L 499.319657 236.111538 
L 500.443515 233.216268 
L 501.567372 229.84265 
L 502.69123 225.780881 
L 507.18666 207.796643 
L 508.310517 203.96146 
L 509.434375 200.587842 
L 510.558227 197.944335 
L 511.682084 196.383407 
L 512.805942 196.181997 
L 513.9298 197.314929 
L 515.053657 199.765417 
L 516.177515 203.785226 
L 517.301372 209.458276 
L 518.42523 216.339785 
L 520.672945 232.0162 
L 522.92066 248.162572 
L 524.044517 255.472078 
L 525.168375 261.967551 
L 526.292232 267.414015 
L 527.41609 271.618449 
L 528.539947 274.572463 
L 529.663805 276.292841 
L 530.787663 276.771189 
L 531.91152 275.931981 
L 533.035378 273.666118 
L 534.15923 270.023953 
L 535.283087 265.190112 
L 536.406945 259.382789 
L 537.530802 252.761434 
L 539.778517 237.57176 
L 542.026232 219.864461 
L 546.521662 181.66369 
L 548.769378 165.231988 
L 549.893235 158.392438 
L 552.14095 147.105084 
L 554.388665 137.58846 
L 555.512523 133.64418 
L 557.760232 126.997648 
L 558.88409 124.144339 
L 560.007947 121.760987 
L 561.131805 119.788847 
L 563.37952 116.574679 
L 567.87495 110.74218 
L 568.998808 108.862353 
L 571.246523 104.414547 
L 574.618095 96.77775 
L 575.741953 94.310477 
L 576.86581 92.128535 
L 579.113525 88.452802 
L 581.36124 85.414867 
L 582.485092 84.273543 
L 583.60895 83.451119 
L 588.10438 80.866357 
L 591.475953 79.364174 
L 592.59981 78.961354 
L 598.219098 77.635404 
L 599.342955 77.442386 
L 604.962243 75.151347 
L 607.209953 74.144297 
L 609.457668 73.556851 
L 610.581525 73.086894 
L 612.82924 71.760945 
L 616.200813 69.243319 
L 618.448528 67.254395 
L 622.943958 64.258421 
L 624.067816 63.780072 
L 625.191673 63.435996 
L 626.315531 62.974432 
L 629.687098 61.161741 
L 630.810955 60.725353 
L 634.182528 58.837134 
L 636.430243 58.140591 
L 639.801816 56.671976 
L 645.421103 55.312458 
L 652.164248 53.617257 
L 654.411958 53.373886 
L 655.535816 53.264789 
L 658.907388 52.442365 
L 661.155103 51.720646 
L 662.278961 51.527628 
L 665.650533 50.394696 
L 670.145963 49.698153 
L 671.269821 49.672977 
L 673.517536 49.295333 
L 674.641394 49.102315 
L 675.765251 48.766632 
L 676.889109 48.263107 
L 678.012961 47.969384 
L 679.136818 47.919031 
L 679.136818 47.919031 
" clip-path="url(#p12155ef29e)" style="fill: none; stroke: #7f7f7f; stroke-width: 1.5; stroke-linecap: square"/>
   </g>
   <g id="line2d_31">
    <path d="M 77.873182 29.976753 
L 78.997034 30.094243 
L 80.120891 30.069066 
L 82.368606 29.129153 
L 83.492464 29.414484 
L 84.616322 30.077458 
L 85.740179 30.413142 
L 90.235609 30.463494 
L 91.359467 30.723649 
L 93.607182 30.228516 
L 95.854897 30.866314 
L 96.978754 30.975412 
L 100.350327 32.032814 
L 101.474184 31.864973 
L 102.598037 31.395016 
L 103.721894 30.732041 
L 104.845752 30.698473 
L 105.969609 31.621602 
L 107.093467 32.309753 
L 111.588897 33.778368 
L 112.712754 33.78676 
L 114.960469 32.964336 
L 116.084327 33.551782 
L 117.208184 35.045573 
L 118.332042 35.935134 
L 119.455899 35.826037 
L 120.579757 35.330904 
L 121.703615 35.666587 
L 122.827472 36.405091 
L 125.075187 37.261083 
L 126.199045 37.93245 
L 128.446754 39.719964 
L 129.570612 40.26545 
L 131.818327 40.408115 
L 132.942184 40.802543 
L 134.066042 41.885122 
L 135.189899 43.253032 
L 136.313757 43.924399 
L 137.437614 43.932791 
L 138.561472 44.377571 
L 140.809187 46.995902 
L 141.933045 47.960992 
L 145.304617 50.109365 
L 150.923899 55.270498 
L 152.047757 56.436997 
L 155.41933 60.47359 
L 156.543187 61.447072 
L 157.667045 62.96604 
L 158.790902 64.77873 
L 162.162475 69.117438 
L 164.41019 72.726034 
L 166.657905 76.712275 
L 168.90562 80.001972 
L 170.029477 81.529332 
L 172.277192 85.129536 
L 173.40105 87.110068 
L 180.14419 100.738814 
L 181.268047 103.130558 
L 184.63962 109.592464 
L 186.887335 114.308816 
L 189.13505 119.621006 
L 190.258907 121.912045 
L 192.506623 126.032558 
L 197.002053 135.81773 
L 198.12591 138.419276 
L 200.37362 142.749592 
L 204.86905 151.468968 
L 209.36448 160.297442 
L 212.736053 166.331351 
L 216.107625 172.071537 
L 218.35534 175.453547 
L 222.850765 182.863758 
L 226.222337 187.613678 
L 228.470053 191.129962 
L 230.717768 194.016839 
L 231.841625 195.628119 
L 235.213198 199.731849 
L 236.337055 201.317953 
L 237.460913 202.685863 
L 238.58477 203.80201 
L 241.956343 207.721114 
L 244.204058 209.626117 
L 248.699483 214.199804 
L 253.194913 217.96785 
L 254.31877 219.092389 
L 255.442628 219.948382 
L 264.433488 224.706694 
L 266.681203 225.361277 
L 267.805061 225.671784 
L 270.052776 226.603305 
L 271.176628 226.796323 
L 273.424343 226.787931 
L 274.5482 226.796323 
L 276.795915 226.544561 
L 279.04363 226.510992 
L 280.167488 226.292798 
L 282.415203 225.503942 
L 286.910633 223.666075 
L 291.406063 220.359594 
L 293.653778 218.798666 
L 295.901488 216.969192 
L 299.273061 213.788591 
L 301.520776 211.782883 
L 303.768491 209.449883 
L 306.016206 207.150452 
L 315.007066 195.87149 
L 319.502491 189.292095 
L 322.874063 184.894643 
L 329.617208 173.691209 
L 331.864923 170.158141 
L 335.236496 163.973175 
L 337.484211 160.121208 
L 345.351208 146.408541 
L 347.598923 142.900649 
L 353.218211 133.300104 
L 354.342069 131.579727 
L 356.589784 128.516616 
L 358.837499 124.488415 
L 361.085214 120.586095 
L 363.332929 117.279614 
L 371.199926 106.772723 
L 375.695356 101.057713 
L 377.943071 98.1037 
L 381.314644 94.394398 
L 383.562359 91.717323 
L 388.057789 86.992579 
L 395.924786 80.320871 
L 398.172501 78.650847 
L 404.915646 73.775045 
L 406.039504 73.095286 
L 408.287219 71.525966 
L 410.534934 70.325898 
L 412.782649 69.109046 
L 415.030359 68.11878 
L 417.278074 66.700517 
L 418.401931 66.280913 
L 419.525789 65.995582 
L 420.649646 65.433313 
L 421.773504 64.719985 
L 422.897361 64.157716 
L 426.268934 62.957648 
L 428.516649 61.900245 
L 429.640507 61.589738 
L 430.764364 61.430288 
L 431.888222 61.061036 
L 433.012079 60.574295 
L 434.135937 60.213436 
L 436.383652 59.793831 
L 438.631361 59.206386 
L 445.374507 58.224512 
L 447.622222 58.325217 
L 455.489224 59.105681 
L 456.613082 59.42458 
L 457.736939 59.902929 
L 459.984655 61.287623 
L 461.108512 62.152007 
L 462.232364 63.276547 
L 464.480079 66.306089 
L 465.603937 68.295014 
L 466.727794 71.081186 
L 467.851652 74.63943 
L 468.975509 78.818688 
L 470.099367 83.770018 
L 471.223224 89.65287 
L 473.470939 103.726397 
L 475.718654 120.351117 
L 477.96637 139.182956 
L 485.833367 207.158844 
L 486.957224 215.534145 
L 488.081082 222.549928 
L 489.204939 227.769805 
L 490.328797 230.967189 
L 491.452654 232.108513 
L 492.576512 231.680517 
L 495.948085 228.499916 
L 498.1958 226.913812 
L 499.319657 225.646608 
L 500.443515 223.733212 
L 501.567372 221.240763 
L 502.69123 218.051771 
L 503.815087 214.006786 
L 506.062802 204.213222 
L 508.310517 194.109152 
L 509.434375 189.820797 
L 510.558227 186.598236 
L 511.682084 184.819114 
L 512.805942 184.701625 
L 513.9298 186.195416 
L 515.053657 189.073901 
L 516.177515 193.219591 
L 517.301372 198.674446 
L 518.42523 205.37133 
L 519.549087 213.050088 
L 526.292232 263.906123 
L 527.41609 270.879946 
L 528.539947 276.771189 
L 529.663805 281.537894 
L 530.787663 285.188451 
L 531.91152 287.748037 
L 533.035378 289.006849 
L 534.15923 288.654382 
L 535.283087 286.5144 
L 536.406945 282.670825 
L 537.530802 277.25793 
L 538.65466 270.284108 
L 539.778517 261.774534 
L 540.902375 251.745992 
L 543.15009 228.701326 
L 547.64552 181.160165 
L 548.769378 171.047702 
L 549.893235 161.959074 
L 551.017093 153.927849 
L 552.14095 146.769401 
L 553.264808 140.391416 
L 554.388665 134.902992 
L 555.512523 130.34609 
L 556.63638 126.443771 
L 557.760232 122.969447 
L 558.88409 120.183275 
L 560.007947 118.31184 
L 561.131805 117.153733 
L 562.255662 116.49915 
L 563.37952 116.188643 
L 565.627235 115.777431 
L 566.751093 115.248729 
L 567.87495 114.216503 
L 568.998808 112.722712 
L 570.122665 110.725395 
L 571.246523 108.123849 
L 573.494238 101.578023 
L 575.741953 94.76365 
L 576.86581 91.725715 
L 577.989668 89.04864 
L 579.113525 86.682072 
L 580.237383 84.642795 
L 581.36124 82.939202 
L 582.485092 81.554508 
L 583.60895 80.488713 
L 585.856665 78.978138 
L 588.10438 77.786462 
L 591.475953 76.376591 
L 597.09524 74.756919 
L 599.342955 74.471588 
L 601.59067 73.565243 
L 606.086095 72.10502 
L 607.209953 71.66024 
L 609.457668 71.123146 
L 610.581525 70.636405 
L 612.82924 69.318848 
L 615.076955 68.202701 
L 621.820101 62.915687 
L 622.943958 62.227536 
L 626.315531 60.859626 
L 628.563246 59.525285 
L 630.810955 58.70286 
L 631.934813 58.031494 
L 633.05867 57.217461 
L 634.182528 56.68876 
L 635.306385 56.344685 
L 636.430243 55.849552 
L 639.801816 53.75153 
L 644.297246 52.249347 
L 653.288106 50.470225 
L 654.411958 50.361128 
L 657.783531 49.303725 
L 658.907388 49.236589 
L 663.402818 48.363812 
L 665.650533 47.734405 
L 667.898248 46.937157 
L 669.022106 46.903589 
L 670.145963 47.121783 
L 671.269821 47.18892 
L 673.517536 46.26579 
L 674.641394 46.18187 
L 675.765251 46.215438 
L 679.136818 45.393014 
L 679.136818 45.393014 
" clip-path="url(#p12155ef29e)" style="fill: none; stroke: #bcbd22; stroke-width: 1.5; stroke-linecap: square"/>
   </g>
   <g id="line2d_32">
    <path d="M 295.822873 390.04 
L 295.822873 10.8 
" clip-path="url(#p12155ef29e)" style="fill: none; stroke-dasharray: 5.55,2.4; stroke-dashoffset: 0; stroke: #808080; stroke-width: 1.5"/>
   </g>
   <g id="line2d_33">
    <path d="M 533.502462 390.04 
L 533.502462 10.8 
" clip-path="url(#p12155ef29e)" style="fill: none; stroke-dasharray: 5.55,2.4; stroke-dashoffset: 0; stroke: #808080; stroke-width: 1.5"/>
   </g>
   <g id="patch_3">
    <path d="M 47.81 390.04 
L 47.81 10.8 
" style="fill: none; stroke: #000000; stroke-width: 0.8; stroke-linejoin: miter; stroke-linecap: square"/>
   </g>
   <g id="patch_4">
    <path d="M 709.2 390.04 
L 709.2 10.8 
" style="fill: none; stroke: #000000; stroke-width: 0.8; stroke-linejoin: miter; stroke-linecap: square"/>
   </g>
   <g id="patch_5">
    <path d="M 47.81 390.04 
L 709.2 390.04 
" style="fill: none; stroke: #000000; stroke-width: 0.8; stroke-linejoin: miter; stroke-linecap: square"/>
   </g>
   <g id="patch_6">
    <path d="M 47.81 10.8 
L 709.2 10.8 
" style="fill: none; stroke: #000000; stroke-width: 0.8; stroke-linejoin: miter; stroke-linecap: square"/>
   </g>
   <g id="text_14">
    <!-- 3300 cm⁻¹ -->
    <g style="fill: #808080" transform="translate(293.743185 101.878688) rotate(-90) scale(0.1 -0.1)">
     <use xlink:href="#DejaVuSans-33"/>
     <use xlink:href="#DejaVuSans-33" transform="translate(63.623047 0)"/>
     <use xlink:href="#DejaVuSans-30" transform="translate(127.246094 0)"/>
     <use xlink:href="#DejaVuSans-30" transform="translate(190.869141 0)"/>
     <use xlink:href="#DejaVuSans-20" transform="translate(254.492188 0)"/>
     <use xlink:href="#DejaVuSans-63" transform="translate(286.279297 0)"/>
     <use xlink:href="#DejaVuSans-6d" transform="translate(341.259766 0)"/>
     <use xlink:href="#DejaVuSans-207b" transform="translate(438.671875 0)"/>
     <use xlink:href="#DejaVuSans-b9" transform="translate(491.455078 0)"/>
    </g>
   </g>
   <g id="text_15">
    <!-- 2866 cm⁻¹ -->
    <g style="fill: #808080" transform="translate(531.422774 101.878688) rotate(-90) scale(0.1 -0.1)">
     <use xlink:href="#DejaVuSans-32"/>
     <use xlink:href="#DejaVuSans-38" transform="translate(63.623047 0)"/>
     <use xlink:href="#DejaVuSans-36" transform="translate(127.246094 0)"/>
     <use xlink:href="#DejaVuSans-36" transform="translate(190.869141 0)"/>
     <use xlink:href="#DejaVuSans-20" transform="translate(254.492188 0)"/>
     <use xlink:href="#DejaVuSans-63" transform="translate(286.279297 0)"/>
     <use xlink:href="#DejaVuSans-6d" transform="translate(341.259766 0)"/>
     <use xlink:href="#DejaVuSans-207b" transform="translate(438.671875 0)"/>
     <use xlink:href="#DejaVuSans-b9" transform="translate(491.455078 0)"/>
    </g>
   </g>
  </g>
 </g>
 <defs>
  <clipPath id="p12155ef29e">
   <rect x="47.81" y="10.8" width="661.39" height="379.24"/>
  </clipPath>
 </defs>
</svg>
