<?xml version="1.0" encoding="utf-8" standalone="no"?>
<!DOCTYPE svg PUBLIC "-//W3C//DTD SVG 1.1//EN"
  "http://www.w3.org/Graphics/SVG/1.1/DTD/svg11.dtd">
<svg xmlns:xlink="http://www.w3.org/1999/xlink" width="720pt" height="432pt" viewBox="0 0 720 432" xmlns="http://www.w3.org/2000/svg" version="1.1">
 <metadata>
  <rdf:RDF xmlns:dc="http://purl.org/dc/elements/1.1/" xmlns:cc="http://creativecommons.org/ns#" xmlns:rdf="http://www.w3.org/1999/02/22-rdf-syntax-ns#">
   <cc:Work>
    <dc:type rdf:resource="http://purl.org/dc/dcmitype/StillImage"/>
    <dc:date>2025-06-06T16:35:45.632937</dc:date>
    <dc:format>image/svg+xml</dc:format>
    <dc:creator>
     <cc:Agent>
      <dc:title>Matplotlib v3.9.2, https://matplotlib.org/</dc:title>
     </cc:Agent>
    </dc:creator>
   </cc:Work>
  </rdf:RDF>
 </metadata>
 <defs>
  <style type="text/css">*{stroke-linejoin: round; stroke-linecap: butt}</style>
 </defs>
 <g id="figure_1">
  <g id="patch_1">
   <path d="M 0 432 
L 720 432 
L 720 0 
L 0 0 
z
" style="fill: #ffffff"/>
  </g>
  <g id="axes_1">
   <g id="patch_2">
    <path d="M 47.81 390.04 
L 709.2 390.04 
L 709.2 25.44 
L 47.81 25.44 
z
" style="fill: #ffffff"/>
   </g>
   <g id="matplotlib.axis_1">
    <g id="xtick_1">
     <g id="line2d_1">
      <path d="M 680.450329 390.04 
L 680.450329 25.44 
" clip-path="url(#p0198b04cfd)" style="fill: none; stroke: #b0b0b0; stroke-width: 0.8; stroke-linecap: square"/>
     </g>
     <g id="line2d_2">
      <defs>
       <path id="mdfefa60ed3" d="M 0 0 
L 0 3.5 
" style="stroke: #000000; stroke-width: 0.8"/>
      </defs>
      <g>
       <use xlink:href="#mdfefa60ed3" x="680.450329" y="390.04" style="stroke: #000000; stroke-width: 0.8"/>
      </g>
     </g>
     <g id="text_1">
      <!-- 2900 -->
      <g transform="translate(667.725329 404.638438) scale(0.1 -0.1)">
       <defs>
        <path id="DejaVuSans-32" d="M 1228 531 
L 3431 531 
L 3431 0 
L 469 0 
L 469 531 
Q 828 903 1448 1529 
Q 2069 2156 2228 2338 
Q 2531 2678 2651 2914 
Q 2772 3150 2772 3378 
Q 2772 3750 2511 3984 
Q 2250 4219 1831 4219 
Q 1534 4219 1204 4116 
Q 875 4013 500 3803 
L 500 4441 
Q 881 4594 1212 4672 
Q 1544 4750 1819 4750 
Q 2544 4750 2975 4387 
Q 3406 4025 3406 3419 
Q 3406 3131 3298 2873 
Q 3191 2616 2906 2266 
Q 2828 2175 2409 1742 
Q 1991 1309 1228 531 
z
" transform="scale(0.015625)"/>
        <path id="DejaVuSans-39" d="M 703 97 
L 703 672 
Q 941 559 1184 500 
Q 1428 441 1663 441 
Q 2288 441 2617 861 
Q 2947 1281 2994 2138 
Q 2813 1869 2534 1725 
Q 2256 1581 1919 1581 
Q 1219 1581 811 2004 
Q 403 2428 403 3163 
Q 403 3881 828 4315 
Q 1253 4750 1959 4750 
Q 2769 4750 3195 4129 
Q 3622 3509 3622 2328 
Q 3622 1225 3098 567 
Q 2575 -91 1691 -91 
Q 1453 -91 1209 -44 
Q 966 3 703 97 
z
M 1959 2075 
Q 2384 2075 2632 2365 
Q 2881 2656 2881 3163 
Q 2881 3666 2632 3958 
Q 2384 4250 1959 4250 
Q 1534 4250 1286 3958 
Q 1038 3666 1038 3163 
Q 1038 2656 1286 2365 
Q 1534 2075 1959 2075 
z
" transform="scale(0.015625)"/>
        <path id="DejaVuSans-30" d="M 2034 4250 
Q 1547 4250 1301 3770 
Q 1056 3291 1056 2328 
Q 1056 1369 1301 889 
Q 1547 409 2034 409 
Q 2525 409 2770 889 
Q 3016 1369 3016 2328 
Q 3016 3291 2770 3770 
Q 2525 4250 2034 4250 
z
M 2034 4750 
Q 2819 4750 3233 4129 
Q 3647 3509 3647 2328 
Q 3647 1150 3233 529 
Q 2819 -91 2034 -91 
Q 1250 -91 836 529 
Q 422 1150 422 2328 
Q 422 3509 836 4129 
Q 1250 4750 2034 4750 
z
" transform="scale(0.015625)"/>
       </defs>
       <use xlink:href="#DejaVuSans-32"/>
       <use xlink:href="#DejaVuSans-39" x="63.623047"/>
       <use xlink:href="#DejaVuSans-30" x="127.246094"/>
       <use xlink:href="#DejaVuSans-30" x="190.869141"/>
      </g>
     </g>
    </g>
    <g id="xtick_2">
     <g id="line2d_3">
      <path d="M 604.936896 390.04 
L 604.936896 25.44 
" clip-path="url(#p0198b04cfd)" style="fill: none; stroke: #b0b0b0; stroke-width: 0.8; stroke-linecap: square"/>
     </g>
     <g id="line2d_4">
      <g>
       <use xlink:href="#mdfefa60ed3" x="604.936896" y="390.04" style="stroke: #000000; stroke-width: 0.8"/>
      </g>
     </g>
     <g id="text_2">
      <!-- 3000 -->
      <g transform="translate(592.211896 404.638438) scale(0.1 -0.1)">
       <defs>
        <path id="DejaVuSans-33" d="M 2597 2516 
Q 3050 2419 3304 2112 
Q 3559 1806 3559 1356 
Q 3559 666 3084 287 
Q 2609 -91 1734 -91 
Q 1441 -91 1130 -33 
Q 819 25 488 141 
L 488 750 
Q 750 597 1062 519 
Q 1375 441 1716 441 
Q 2309 441 2620 675 
Q 2931 909 2931 1356 
Q 2931 1769 2642 2001 
Q 2353 2234 1838 2234 
L 1294 2234 
L 1294 2753 
L 1863 2753 
Q 2328 2753 2575 2939 
Q 2822 3125 2822 3475 
Q 2822 3834 2567 4026 
Q 2313 4219 1838 4219 
Q 1578 4219 1281 4162 
Q 984 4106 628 3988 
L 628 4550 
Q 988 4650 1302 4700 
Q 1616 4750 1894 4750 
Q 2613 4750 3031 4423 
Q 3450 4097 3450 3541 
Q 3450 3153 3228 2886 
Q 3006 2619 2597 2516 
z
" transform="scale(0.015625)"/>
       </defs>
       <use xlink:href="#DejaVuSans-33"/>
       <use xlink:href="#DejaVuSans-30" x="63.623047"/>
       <use xlink:href="#DejaVuSans-30" x="127.246094"/>
       <use xlink:href="#DejaVuSans-30" x="190.869141"/>
      </g>
     </g>
    </g>
    <g id="xtick_3">
     <g id="line2d_5">
      <path d="M 529.423463 390.04 
L 529.423463 25.44 
" clip-path="url(#p0198b04cfd)" style="fill: none; stroke: #b0b0b0; stroke-width: 0.8; stroke-linecap: square"/>
     </g>
     <g id="line2d_6">
      <g>
       <use xlink:href="#mdfefa60ed3" x="529.423463" y="390.04" style="stroke: #000000; stroke-width: 0.8"/>
      </g>
     </g>
     <g id="text_3">
      <!-- 3100 -->
      <g transform="translate(516.698463 404.638438) scale(0.1 -0.1)">
       <defs>
        <path id="DejaVuSans-31" d="M 794 531 
L 1825 531 
L 1825 4091 
L 703 3866 
L 703 4441 
L 1819 4666 
L 2450 4666 
L 2450 531 
L 3481 531 
L 3481 0 
L 794 0 
L 794 531 
z
" transform="scale(0.015625)"/>
       </defs>
       <use xlink:href="#DejaVuSans-33"/>
       <use xlink:href="#DejaVuSans-31" x="63.623047"/>
       <use xlink:href="#DejaVuSans-30" x="127.246094"/>
       <use xlink:href="#DejaVuSans-30" x="190.869141"/>
      </g>
     </g>
    </g>
    <g id="xtick_4">
     <g id="line2d_7">
      <path d="M 453.91003 390.04 
L 453.91003 25.44 
" clip-path="url(#p0198b04cfd)" style="fill: none; stroke: #b0b0b0; stroke-width: 0.8; stroke-linecap: square"/>
     </g>
     <g id="line2d_8">
      <g>
       <use xlink:href="#mdfefa60ed3" x="453.91003" y="390.04" style="stroke: #000000; stroke-width: 0.8"/>
      </g>
     </g>
     <g id="text_4">
      <!-- 3200 -->
      <g transform="translate(441.18503 404.638438) scale(0.1 -0.1)">
       <use xlink:href="#DejaVuSans-33"/>
       <use xlink:href="#DejaVuSans-32" x="63.623047"/>
       <use xlink:href="#DejaVuSans-30" x="127.246094"/>
       <use xlink:href="#DejaVuSans-30" x="190.869141"/>
      </g>
     </g>
    </g>
    <g id="xtick_5">
     <g id="line2d_9">
      <path d="M 378.396597 390.04 
L 378.396597 25.44 
" clip-path="url(#p0198b04cfd)" style="fill: none; stroke: #b0b0b0; stroke-width: 0.8; stroke-linecap: square"/>
     </g>
     <g id="line2d_10">
      <g>
       <use xlink:href="#mdfefa60ed3" x="378.396597" y="390.04" style="stroke: #000000; stroke-width: 0.8"/>
      </g>
     </g>
     <g id="text_5">
      <!-- 3300 -->
      <g transform="translate(365.671597 404.638438) scale(0.1 -0.1)">
       <use xlink:href="#DejaVuSans-33"/>
       <use xlink:href="#DejaVuSans-33" x="63.623047"/>
       <use xlink:href="#DejaVuSans-30" x="127.246094"/>
       <use xlink:href="#DejaVuSans-30" x="190.869141"/>
      </g>
     </g>
    </g>
    <g id="xtick_6">
     <g id="line2d_11">
      <path d="M 302.883164 390.04 
L 302.883164 25.44 
" clip-path="url(#p0198b04cfd)" style="fill: none; stroke: #b0b0b0; stroke-width: 0.8; stroke-linecap: square"/>
     </g>
     <g id="line2d_12">
      <g>
       <use xlink:href="#mdfefa60ed3" x="302.883164" y="390.04" style="stroke: #000000; stroke-width: 0.8"/>
      </g>
     </g>
     <g id="text_6">
      <!-- 3400 -->
      <g transform="translate(290.158164 404.638438) scale(0.1 -0.1)">
       <defs>
        <path id="DejaVuSans-34" d="M 2419 4116 
L 825 1625 
L 2419 1625 
L 2419 4116 
z
M 2253 4666 
L 3047 4666 
L 3047 1625 
L 3713 1625 
L 3713 1100 
L 3047 1100 
L 3047 0 
L 2419 0 
L 2419 1100 
L 313 1100 
L 313 1709 
L 2253 4666 
z
" transform="scale(0.015625)"/>
       </defs>
       <use xlink:href="#DejaVuSans-33"/>
       <use xlink:href="#DejaVuSans-34" x="63.623047"/>
       <use xlink:href="#DejaVuSans-30" x="127.246094"/>
       <use xlink:href="#DejaVuSans-30" x="190.869141"/>
      </g>
     </g>
    </g>
    <g id="xtick_7">
     <g id="line2d_13">
      <path d="M 227.369731 390.04 
L 227.369731 25.44 
" clip-path="url(#p0198b04cfd)" style="fill: none; stroke: #b0b0b0; stroke-width: 0.8; stroke-linecap: square"/>
     </g>
     <g id="line2d_14">
      <g>
       <use xlink:href="#mdfefa60ed3" x="227.369731" y="390.04" style="stroke: #000000; stroke-width: 0.8"/>
      </g>
     </g>
     <g id="text_7">
      <!-- 3500 -->
      <g transform="translate(214.644731 404.638438) scale(0.1 -0.1)">
       <defs>
        <path id="DejaVuSans-35" d="M 691 4666 
L 3169 4666 
L 3169 4134 
L 1269 4134 
L 1269 2991 
Q 1406 3038 1543 3061 
Q 1681 3084 1819 3084 
Q 2600 3084 3056 2656 
Q 3513 2228 3513 1497 
Q 3513 744 3044 326 
Q 2575 -91 1722 -91 
Q 1428 -91 1123 -41 
Q 819 9 494 109 
L 494 744 
Q 775 591 1075 516 
Q 1375 441 1709 441 
Q 2250 441 2565 725 
Q 2881 1009 2881 1497 
Q 2881 1984 2565 2268 
Q 2250 2553 1709 2553 
Q 1456 2553 1204 2497 
Q 953 2441 691 2322 
L 691 4666 
z
" transform="scale(0.015625)"/>
       </defs>
       <use xlink:href="#DejaVuSans-33"/>
       <use xlink:href="#DejaVuSans-35" x="63.623047"/>
       <use xlink:href="#DejaVuSans-30" x="127.246094"/>
       <use xlink:href="#DejaVuSans-30" x="190.869141"/>
      </g>
     </g>
    </g>
    <g id="xtick_8">
     <g id="line2d_15">
      <path d="M 151.856297 390.04 
L 151.856297 25.44 
" clip-path="url(#p0198b04cfd)" style="fill: none; stroke: #b0b0b0; stroke-width: 0.8; stroke-linecap: square"/>
     </g>
     <g id="line2d_16">
      <g>
       <use xlink:href="#mdfefa60ed3" x="151.856297" y="390.04" style="stroke: #000000; stroke-width: 0.8"/>
      </g>
     </g>
     <g id="text_8">
      <!-- 3600 -->
      <g transform="translate(139.131297 404.638438) scale(0.1 -0.1)">
       <defs>
        <path id="DejaVuSans-36" d="M 2113 2584 
Q 1688 2584 1439 2293 
Q 1191 2003 1191 1497 
Q 1191 994 1439 701 
Q 1688 409 2113 409 
Q 2538 409 2786 701 
Q 3034 994 3034 1497 
Q 3034 2003 2786 2293 
Q 2538 2584 2113 2584 
z
M 3366 4563 
L 3366 3988 
Q 3128 4100 2886 4159 
Q 2644 4219 2406 4219 
Q 1781 4219 1451 3797 
Q 1122 3375 1075 2522 
Q 1259 2794 1537 2939 
Q 1816 3084 2150 3084 
Q 2853 3084 3261 2657 
Q 3669 2231 3669 1497 
Q 3669 778 3244 343 
Q 2819 -91 2113 -91 
Q 1303 -91 875 529 
Q 447 1150 447 2328 
Q 447 3434 972 4092 
Q 1497 4750 2381 4750 
Q 2619 4750 2861 4703 
Q 3103 4656 3366 4563 
z
" transform="scale(0.015625)"/>
       </defs>
       <use xlink:href="#DejaVuSans-33"/>
       <use xlink:href="#DejaVuSans-36" x="63.623047"/>
       <use xlink:href="#DejaVuSans-30" x="127.246094"/>
       <use xlink:href="#DejaVuSans-30" x="190.869141"/>
      </g>
     </g>
    </g>
    <g id="xtick_9">
     <g id="line2d_17">
      <path d="M 76.342864 390.04 
L 76.342864 25.44 
" clip-path="url(#p0198b04cfd)" style="fill: none; stroke: #b0b0b0; stroke-width: 0.8; stroke-linecap: square"/>
     </g>
     <g id="line2d_18">
      <g>
       <use xlink:href="#mdfefa60ed3" x="76.342864" y="390.04" style="stroke: #000000; stroke-width: 0.8"/>
      </g>
     </g>
     <g id="text_9">
      <!-- 3700 -->
      <g transform="translate(63.617864 404.638438) scale(0.1 -0.1)">
       <defs>
        <path id="DejaVuSans-37" d="M 525 4666 
L 3525 4666 
L 3525 4397 
L 1831 0 
L 1172 0 
L 2766 4134 
L 525 4134 
L 525 4666 
z
" transform="scale(0.015625)"/>
       </defs>
       <use xlink:href="#DejaVuSans-33"/>
       <use xlink:href="#DejaVuSans-37" x="63.623047"/>
       <use xlink:href="#DejaVuSans-30" x="127.246094"/>
       <use xlink:href="#DejaVuSans-30" x="190.869141"/>
      </g>
     </g>
    </g>
    <g id="text_10">
     <!-- Wavenumber (cm⁻¹) -->
     <g transform="translate(327.512031 418.316562) scale(0.1 -0.1)">
      <defs>
       <path id="DejaVuSans-57" d="M 213 4666 
L 850 4666 
L 1831 722 
L 2809 4666 
L 3519 4666 
L 4500 722 
L 5478 4666 
L 6119 4666 
L 4947 0 
L 4153 0 
L 3169 4050 
L 2175 0 
L 1381 0 
L 213 4666 
z
" transform="scale(0.015625)"/>
       <path id="DejaVuSans-61" d="M 2194 1759 
Q 1497 1759 1228 1600 
Q 959 1441 959 1056 
Q 959 750 1161 570 
Q 1363 391 1709 391 
Q 2188 391 2477 730 
Q 2766 1069 2766 1631 
L 2766 1759 
L 2194 1759 
z
M 3341 1997 
L 3341 0 
L 2766 0 
L 2766 531 
Q 2569 213 2275 61 
Q 1981 -91 1556 -91 
Q 1019 -91 701 211 
Q 384 513 384 1019 
Q 384 1609 779 1909 
Q 1175 2209 1959 2209 
L 2766 2209 
L 2766 2266 
Q 2766 2663 2505 2880 
Q 2244 3097 1772 3097 
Q 1472 3097 1187 3025 
Q 903 2953 641 2809 
L 641 3341 
Q 956 3463 1253 3523 
Q 1550 3584 1831 3584 
Q 2591 3584 2966 3190 
Q 3341 2797 3341 1997 
z
" transform="scale(0.015625)"/>
       <path id="DejaVuSans-76" d="M 191 3500 
L 800 3500 
L 1894 563 
L 2988 3500 
L 3597 3500 
L 2284 0 
L 1503 0 
L 191 3500 
z
" transform="scale(0.015625)"/>
       <path id="DejaVuSans-65" d="M 3597 1894 
L 3597 1613 
L 953 1613 
Q 991 1019 1311 708 
Q 1631 397 2203 397 
Q 2534 397 2845 478 
Q 3156 559 3463 722 
L 3463 178 
Q 3153 47 2828 -22 
Q 2503 -91 2169 -91 
Q 1331 -91 842 396 
Q 353 884 353 1716 
Q 353 2575 817 3079 
Q 1281 3584 2069 3584 
Q 2775 3584 3186 3129 
Q 3597 2675 3597 1894 
z
M 3022 2063 
Q 3016 2534 2758 2815 
Q 2500 3097 2075 3097 
Q 1594 3097 1305 2825 
Q 1016 2553 972 2059 
L 3022 2063 
z
" transform="scale(0.015625)"/>
       <path id="DejaVuSans-6e" d="M 3513 2113 
L 3513 0 
L 2938 0 
L 2938 2094 
Q 2938 2591 2744 2837 
Q 2550 3084 2163 3084 
Q 1697 3084 1428 2787 
Q 1159 2491 1159 1978 
L 1159 0 
L 581 0 
L 581 3500 
L 1159 3500 
L 1159 2956 
Q 1366 3272 1645 3428 
Q 1925 3584 2291 3584 
Q 2894 3584 3203 3211 
Q 3513 2838 3513 2113 
z
" transform="scale(0.015625)"/>
       <path id="DejaVuSans-75" d="M 544 1381 
L 544 3500 
L 1119 3500 
L 1119 1403 
Q 1119 906 1312 657 
Q 1506 409 1894 409 
Q 2359 409 2629 706 
Q 2900 1003 2900 1516 
L 2900 3500 
L 3475 3500 
L 3475 0 
L 2900 0 
L 2900 538 
Q 2691 219 2414 64 
Q 2138 -91 1772 -91 
Q 1169 -91 856 284 
Q 544 659 544 1381 
z
M 1991 3584 
L 1991 3584 
z
" transform="scale(0.015625)"/>
       <path id="DejaVuSans-6d" d="M 3328 2828 
Q 3544 3216 3844 3400 
Q 4144 3584 4550 3584 
Q 5097 3584 5394 3201 
Q 5691 2819 5691 2113 
L 5691 0 
L 5113 0 
L 5113 2094 
Q 5113 2597 4934 2840 
Q 4756 3084 4391 3084 
Q 3944 3084 3684 2787 
Q 3425 2491 3425 1978 
L 3425 0 
L 2847 0 
L 2847 2094 
Q 2847 2600 2669 2842 
Q 2491 3084 2119 3084 
Q 1678 3084 1418 2786 
Q 1159 2488 1159 1978 
L 1159 0 
L 581 0 
L 581 3500 
L 1159 3500 
L 1159 2956 
Q 1356 3278 1631 3431 
Q 1906 3584 2284 3584 
Q 2666 3584 2933 3390 
Q 3200 3197 3328 2828 
z
" transform="scale(0.015625)"/>
       <path id="DejaVuSans-62" d="M 3116 1747 
Q 3116 2381 2855 2742 
Q 2594 3103 2138 3103 
Q 1681 3103 1420 2742 
Q 1159 2381 1159 1747 
Q 1159 1113 1420 752 
Q 1681 391 2138 391 
Q 2594 391 2855 752 
Q 3116 1113 3116 1747 
z
M 1159 2969 
Q 1341 3281 1617 3432 
Q 1894 3584 2278 3584 
Q 2916 3584 3314 3078 
Q 3713 2572 3713 1747 
Q 3713 922 3314 415 
Q 2916 -91 2278 -91 
Q 1894 -91 1617 61 
Q 1341 213 1159 525 
L 1159 0 
L 581 0 
L 581 4863 
L 1159 4863 
L 1159 2969 
z
" transform="scale(0.015625)"/>
       <path id="DejaVuSans-72" d="M 2631 2963 
Q 2534 3019 2420 3045 
Q 2306 3072 2169 3072 
Q 1681 3072 1420 2755 
Q 1159 2438 1159 1844 
L 1159 0 
L 581 0 
L 581 3500 
L 1159 3500 
L 1159 2956 
Q 1341 3275 1631 3429 
Q 1922 3584 2338 3584 
Q 2397 3584 2469 3576 
Q 2541 3569 2628 3553 
L 2631 2963 
z
" transform="scale(0.015625)"/>
       <path id="DejaVuSans-20" transform="scale(0.015625)"/>
       <path id="DejaVuSans-28" d="M 1984 4856 
Q 1566 4138 1362 3434 
Q 1159 2731 1159 2009 
Q 1159 1288 1364 580 
Q 1569 -128 1984 -844 
L 1484 -844 
Q 1016 -109 783 600 
Q 550 1309 550 2009 
Q 550 2706 781 3412 
Q 1013 4119 1484 4856 
L 1984 4856 
z
" transform="scale(0.015625)"/>
       <path id="DejaVuSans-63" d="M 3122 3366 
L 3122 2828 
Q 2878 2963 2633 3030 
Q 2388 3097 2138 3097 
Q 1578 3097 1268 2742 
Q 959 2388 959 1747 
Q 959 1106 1268 751 
Q 1578 397 2138 397 
Q 2388 397 2633 464 
Q 2878 531 3122 666 
L 3122 134 
Q 2881 22 2623 -34 
Q 2366 -91 2075 -91 
Q 1284 -91 818 406 
Q 353 903 353 1747 
Q 353 2603 823 3093 
Q 1294 3584 2113 3584 
Q 2378 3584 2631 3529 
Q 2884 3475 3122 3366 
z
" transform="scale(0.015625)"/>
       <path id="DejaVuSans-207b" d="M 428 3359 
L 2950 3359 
L 2950 3063 
L 428 3063 
L 428 3359 
z
" transform="scale(0.015625)"/>
       <path id="DejaVuSans-b9" d="M 488 2431 
L 1125 2431 
L 1125 4341 
L 428 4213 
L 428 4575 
L 1147 4697 
L 1575 4697 
L 1575 2431 
L 2216 2431 
L 2216 2088 
L 488 2088 
L 488 2431 
z
" transform="scale(0.015625)"/>
       <path id="DejaVuSans-29" d="M 513 4856 
L 1013 4856 
Q 1481 4119 1714 3412 
Q 1947 2706 1947 2009 
Q 1947 1309 1714 600 
Q 1481 -109 1013 -844 
L 513 -844 
Q 928 -128 1133 580 
Q 1338 1288 1338 2009 
Q 1338 2731 1133 3434 
Q 928 4138 513 4856 
z
" transform="scale(0.015625)"/>
      </defs>
      <use xlink:href="#DejaVuSans-57"/>
      <use xlink:href="#DejaVuSans-61" x="92.501953"/>
      <use xlink:href="#DejaVuSans-76" x="153.78125"/>
      <use xlink:href="#DejaVuSans-65" x="212.960938"/>
      <use xlink:href="#DejaVuSans-6e" x="274.484375"/>
      <use xlink:href="#DejaVuSans-75" x="337.863281"/>
      <use xlink:href="#DejaVuSans-6d" x="401.242188"/>
      <use xlink:href="#DejaVuSans-62" x="498.654297"/>
      <use xlink:href="#DejaVuSans-65" x="562.130859"/>
      <use xlink:href="#DejaVuSans-72" x="623.654297"/>
      <use xlink:href="#DejaVuSans-20" x="664.767578"/>
      <use xlink:href="#DejaVuSans-28" x="696.554688"/>
      <use xlink:href="#DejaVuSans-63" x="735.568359"/>
      <use xlink:href="#DejaVuSans-6d" x="790.548828"/>
      <use xlink:href="#DejaVuSans-207b" x="887.960938"/>
      <use xlink:href="#DejaVuSans-b9" x="940.744141"/>
      <use xlink:href="#DejaVuSans-29" x="980.832031"/>
     </g>
    </g>
   </g>
   <g id="matplotlib.axis_2">
    <g id="ytick_1">
     <g id="line2d_19">
      <path d="M 47.81 364.067912 
L 709.2 364.067912 
" clip-path="url(#p0198b04cfd)" style="fill: none; stroke: #b0b0b0; stroke-width: 0.8; stroke-linecap: square"/>
     </g>
     <g id="line2d_20">
      <defs>
       <path id="m7f56ae3c3d" d="M 0 0 
L -3.5 0 
" style="stroke: #000000; stroke-width: 0.8"/>
      </defs>
      <g>
       <use xlink:href="#m7f56ae3c3d" x="47.81" y="364.067912" style="stroke: #000000; stroke-width: 0.8"/>
      </g>
     </g>
     <g id="text_11">
      <!-- 0.6 -->
      <g transform="translate(24.906875 367.867131) scale(0.1 -0.1)">
       <defs>
        <path id="DejaVuSans-2e" d="M 684 794 
L 1344 794 
L 1344 0 
L 684 0 
L 684 794 
z
" transform="scale(0.015625)"/>
       </defs>
       <use xlink:href="#DejaVuSans-30"/>
       <use xlink:href="#DejaVuSans-2e" x="63.623047"/>
       <use xlink:href="#DejaVuSans-36" x="95.410156"/>
      </g>
     </g>
    </g>
    <g id="ytick_2">
     <g id="line2d_21">
      <path d="M 47.81 283.386702 
L 709.2 283.386702 
" clip-path="url(#p0198b04cfd)" style="fill: none; stroke: #b0b0b0; stroke-width: 0.8; stroke-linecap: square"/>
     </g>
     <g id="line2d_22">
      <g>
       <use xlink:href="#m7f56ae3c3d" x="47.81" y="283.386702" style="stroke: #000000; stroke-width: 0.8"/>
      </g>
     </g>
     <g id="text_12">
      <!-- 0.7 -->
      <g transform="translate(24.906875 287.185921) scale(0.1 -0.1)">
       <use xlink:href="#DejaVuSans-30"/>
       <use xlink:href="#DejaVuSans-2e" x="63.623047"/>
       <use xlink:href="#DejaVuSans-37" x="95.410156"/>
      </g>
     </g>
    </g>
    <g id="ytick_3">
     <g id="line2d_23">
      <path d="M 47.81 202.705493 
L 709.2 202.705493 
" clip-path="url(#p0198b04cfd)" style="fill: none; stroke: #b0b0b0; stroke-width: 0.8; stroke-linecap: square"/>
     </g>
     <g id="line2d_24">
      <g>
       <use xlink:href="#m7f56ae3c3d" x="47.81" y="202.705493" style="stroke: #000000; stroke-width: 0.8"/>
      </g>
     </g>
     <g id="text_13">
      <!-- 0.8 -->
      <g transform="translate(24.906875 206.504711) scale(0.1 -0.1)">
       <defs>
        <path id="DejaVuSans-38" d="M 2034 2216 
Q 1584 2216 1326 1975 
Q 1069 1734 1069 1313 
Q 1069 891 1326 650 
Q 1584 409 2034 409 
Q 2484 409 2743 651 
Q 3003 894 3003 1313 
Q 3003 1734 2745 1975 
Q 2488 2216 2034 2216 
z
M 1403 2484 
Q 997 2584 770 2862 
Q 544 3141 544 3541 
Q 544 4100 942 4425 
Q 1341 4750 2034 4750 
Q 2731 4750 3128 4425 
Q 3525 4100 3525 3541 
Q 3525 3141 3298 2862 
Q 3072 2584 2669 2484 
Q 3125 2378 3379 2068 
Q 3634 1759 3634 1313 
Q 3634 634 3220 271 
Q 2806 -91 2034 -91 
Q 1263 -91 848 271 
Q 434 634 434 1313 
Q 434 1759 690 2068 
Q 947 2378 1403 2484 
z
M 1172 3481 
Q 1172 3119 1398 2916 
Q 1625 2713 2034 2713 
Q 2441 2713 2670 2916 
Q 2900 3119 2900 3481 
Q 2900 3844 2670 4047 
Q 2441 4250 2034 4250 
Q 1625 4250 1398 4047 
Q 1172 3844 1172 3481 
z
" transform="scale(0.015625)"/>
       </defs>
       <use xlink:href="#DejaVuSans-30"/>
       <use xlink:href="#DejaVuSans-2e" x="63.623047"/>
       <use xlink:href="#DejaVuSans-38" x="95.410156"/>
      </g>
     </g>
    </g>
    <g id="ytick_4">
     <g id="line2d_25">
      <path d="M 47.81 122.024283 
L 709.2 122.024283 
" clip-path="url(#p0198b04cfd)" style="fill: none; stroke: #b0b0b0; stroke-width: 0.8; stroke-linecap: square"/>
     </g>
     <g id="line2d_26">
      <g>
       <use xlink:href="#m7f56ae3c3d" x="47.81" y="122.024283" style="stroke: #000000; stroke-width: 0.8"/>
      </g>
     </g>
     <g id="text_14">
      <!-- 0.9 -->
      <g transform="translate(24.906875 125.823502) scale(0.1 -0.1)">
       <use xlink:href="#DejaVuSans-30"/>
       <use xlink:href="#DejaVuSans-2e" x="63.623047"/>
       <use xlink:href="#DejaVuSans-39" x="95.410156"/>
      </g>
     </g>
    </g>
    <g id="ytick_5">
     <g id="line2d_27">
      <path d="M 47.81 41.343073 
L 709.2 41.343073 
" clip-path="url(#p0198b04cfd)" style="fill: none; stroke: #b0b0b0; stroke-width: 0.8; stroke-linecap: square"/>
     </g>
     <g id="line2d_28">
      <g>
       <use xlink:href="#m7f56ae3c3d" x="47.81" y="41.343073" style="stroke: #000000; stroke-width: 0.8"/>
      </g>
     </g>
     <g id="text_15">
      <!-- 1.0 -->
      <g transform="translate(24.906875 45.142292) scale(0.1 -0.1)">
       <use xlink:href="#DejaVuSans-31"/>
       <use xlink:href="#DejaVuSans-2e" x="63.623047"/>
       <use xlink:href="#DejaVuSans-30" x="95.410156"/>
      </g>
     </g>
    </g>
    <g id="text_16">
     <!-- Intensity -->
     <g transform="translate(18.827187 229.5025) rotate(-90) scale(0.1 -0.1)">
      <defs>
       <path id="DejaVuSans-49" d="M 628 4666 
L 1259 4666 
L 1259 0 
L 628 0 
L 628 4666 
z
" transform="scale(0.015625)"/>
       <path id="DejaVuSans-74" d="M 1172 4494 
L 1172 3500 
L 2356 3500 
L 2356 3053 
L 1172 3053 
L 1172 1153 
Q 1172 725 1289 603 
Q 1406 481 1766 481 
L 2356 481 
L 2356 0 
L 1766 0 
Q 1100 0 847 248 
Q 594 497 594 1153 
L 594 3053 
L 172 3053 
L 172 3500 
L 594 3500 
L 594 4494 
L 1172 4494 
z
" transform="scale(0.015625)"/>
       <path id="DejaVuSans-73" d="M 2834 3397 
L 2834 2853 
Q 2591 2978 2328 3040 
Q 2066 3103 1784 3103 
Q 1356 3103 1142 2972 
Q 928 2841 928 2578 
Q 928 2378 1081 2264 
Q 1234 2150 1697 2047 
L 1894 2003 
Q 2506 1872 2764 1633 
Q 3022 1394 3022 966 
Q 3022 478 2636 193 
Q 2250 -91 1575 -91 
Q 1294 -91 989 -36 
Q 684 19 347 128 
L 347 722 
Q 666 556 975 473 
Q 1284 391 1588 391 
Q 1994 391 2212 530 
Q 2431 669 2431 922 
Q 2431 1156 2273 1281 
Q 2116 1406 1581 1522 
L 1381 1569 
Q 847 1681 609 1914 
Q 372 2147 372 2553 
Q 372 3047 722 3315 
Q 1072 3584 1716 3584 
Q 2034 3584 2315 3537 
Q 2597 3491 2834 3397 
z
" transform="scale(0.015625)"/>
       <path id="DejaVuSans-69" d="M 603 3500 
L 1178 3500 
L 1178 0 
L 603 0 
L 603 3500 
z
M 603 4863 
L 1178 4863 
L 1178 4134 
L 603 4134 
L 603 4863 
z
" transform="scale(0.015625)"/>
       <path id="DejaVuSans-79" d="M 2059 -325 
Q 1816 -950 1584 -1140 
Q 1353 -1331 966 -1331 
L 506 -1331 
L 506 -850 
L 844 -850 
Q 1081 -850 1212 -737 
Q 1344 -625 1503 -206 
L 1606 56 
L 191 3500 
L 800 3500 
L 1894 763 
L 2988 3500 
L 3597 3500 
L 2059 -325 
z
" transform="scale(0.015625)"/>
      </defs>
      <use xlink:href="#DejaVuSans-49"/>
      <use xlink:href="#DejaVuSans-6e" x="29.492188"/>
      <use xlink:href="#DejaVuSans-74" x="92.871094"/>
      <use xlink:href="#DejaVuSans-65" x="132.080078"/>
      <use xlink:href="#DejaVuSans-6e" x="193.603516"/>
      <use xlink:href="#DejaVuSans-73" x="256.982422"/>
      <use xlink:href="#DejaVuSans-69" x="309.082031"/>
      <use xlink:href="#DejaVuSans-74" x="336.865234"/>
      <use xlink:href="#DejaVuSans-79" x="376.074219"/>
     </g>
    </g>
   </g>
   <g id="line2d_29">
    <path d="M 77.873182 42.238635 
L 79.422823 42.746926 
L 80.972472 42.940561 
L 90.270366 42.851812 
L 91.820015 42.674313 
L 93.369663 42.650109 
L 96.468961 43.239082 
L 98.01861 43.28749 
L 99.568259 42.940561 
L 101.117908 42.440338 
L 102.667557 42.375793 
L 105.766855 42.835676 
L 107.316504 42.972834 
L 110.415802 43.448853 
L 111.965443 43.650556 
L 113.515092 44.287937 
L 115.064741 45.046341 
L 116.61439 45.086681 
L 118.164039 44.884978 
L 119.713687 44.868842 
L 121.263336 45.038273 
L 127.461932 46.272695 
L 130.56123 47.095643 
L 133.660528 47.176325 
L 135.210177 47.321551 
L 136.759826 47.612003 
L 138.309474 48.346202 
L 139.859123 49.314377 
L 141.408772 50.088916 
L 144.50807 51.226521 
L 146.057712 51.952652 
L 150.706658 53.138666 
L 155.355605 54.88138 
L 160.004552 57.229203 
L 161.554201 58.181242 
L 164.653499 59.496345 
L 166.203147 60.456452 
L 170.852094 64.079038 
L 172.401743 65.01494 
L 175.501041 67.459581 
L 184.798927 74.430437 
L 186.348576 75.810086 
L 189.447874 79.134152 
L 190.997523 80.707435 
L 192.547171 82.579239 
L 194.09682 84.200932 
L 195.646469 85.330469 
L 197.196118 86.621368 
L 198.745767 88.493172 
L 201.845065 92.841889 
L 206.494012 98.739686 
L 209.59331 102.273523 
L 211.142951 104.572937 
L 214.242249 109.615513 
L 215.791898 111.801974 
L 217.341547 113.770595 
L 218.891196 115.924783 
L 221.990493 120.773724 
L 225.089791 125.138578 
L 228.189089 130.294107 
L 231.288387 135.594862 
L 235.937334 143.130487 
L 242.135929 154.514606 
L 246.784868 163.139427 
L 249.884166 169.150177 
L 254.533113 177.436138 
L 265.380655 198.953816 
L 266.930304 201.914817 
L 274.678549 217.825151 
L 280.877137 229.983809 
L 283.976435 236.16399 
L 287.075733 242.102127 
L 294.823977 257.568715 
L 297.923275 263.25674 
L 301.022573 269.404649 
L 304.121871 275.141083 
L 307.221169 281.264786 
L 319.618352 304.767223 
L 321.168001 307.865381 
L 324.267299 313.27909 
L 327.366597 318.6928 
L 330.465895 324.300144 
L 342.863086 343.720111 
L 345.962377 347.867125 
L 352.160972 355.394682 
L 355.26027 358.718748 
L 361.458866 364.656885 
L 363.008515 366.084942 
L 364.558164 367.198343 
L 366.107812 368.005155 
L 370.756759 370.08673 
L 372.306408 370.925815 
L 373.856057 371.563196 
L 378.504996 372.975117 
L 380.054645 373.209093 
L 383.153943 373.362387 
L 387.80289 373.402728 
L 390.902188 373.039662 
L 392.451836 372.716937 
L 394.001485 372.200578 
L 398.650432 369.852755 
L 404.849028 366.657779 
L 406.398677 365.70574 
L 409.497967 363.091669 
L 412.597265 360.106464 
L 417.246212 355.435022 
L 421.895158 350.303697 
L 426.544105 344.171926 
L 429.643403 339.928094 
L 432.742701 335.385742 
L 437.391648 328.31 
L 443.590236 317.119516 
L 445.139885 314.255333 
L 449.788831 304.99313 
L 452.888129 299.095334 
L 466.834969 269.22715 
L 474.583214 252.469663 
L 479.232153 242.674964 
L 482.331451 235.599222 
L 486.980398 225.47373 
L 491.629345 216.009824 
L 496.278291 206.658872 
L 499.377589 200.519032 
L 507.125834 186.238458 
L 508.675475 183.30973 
L 516.42372 170.086079 
L 517.973369 167.407463 
L 519.523017 165.180662 
L 521.072666 163.21204 
L 524.171964 158.580939 
L 527.271262 154.014382 
L 530.37056 149.609188 
L 539.668453 137.619961 
L 541.218095 135.885315 
L 545.867042 131.05251 
L 550.515988 126.11482 
L 553.615286 123.32325 
L 556.714584 120.668839 
L 559.813882 117.820792 
L 562.91318 115.335811 
L 566.012477 113.0606 
L 569.111775 110.736982 
L 573.760722 107.945412 
L 576.860012 106.073608 
L 578.409661 105.089297 
L 579.95931 104.322825 
L 583.058608 103.007722 
L 584.608257 102.297727 
L 587.707555 101.111713 
L 590.806853 99.723997 
L 592.356501 99.377067 
L 601.654395 98.820367 
L 604.753693 99.264114 
L 606.303342 99.788541 
L 607.852983 100.772852 
L 609.402632 102.031479 
L 610.952281 103.540218 
L 612.50193 105.629861 
L 614.051579 108.373022 
L 615.601228 111.793905 
L 617.150877 116.053873 
L 618.700526 121.273948 
L 620.250174 127.494469 
L 621.799823 134.779982 
L 623.349472 143.07401 
L 626.44877 161.735574 
L 632.647366 200.252784 
L 640.395603 245.587555 
L 641.945252 254.139764 
L 643.494901 261.804479 
L 645.04455 268.234771 
L 646.594198 272.752919 
L 648.143847 275.052333 
L 649.693496 275.455739 
L 651.243145 274.511769 
L 652.792794 272.841668 
L 654.342443 270.961796 
L 655.892092 268.726926 
L 657.441741 265.741722 
L 658.99139 261.981977 
L 662.090688 253.12318 
L 666.739634 238.842606 
L 668.289283 235.034453 
L 669.838932 232.033112 
L 671.388581 229.50779 
L 672.93823 227.329398 
L 674.487871 225.699637 
L 676.03752 224.755667 
L 677.587169 224.618509 
L 679.136818 225.618956 
L 679.136818 225.618956 
" clip-path="url(#p0198b04cfd)" style="fill: none; stroke: #1f77b4; stroke-width: 1.5; stroke-linecap: square"/>
   </g>
   <g id="line2d_30">
    <path d="M 77.873182 44.352482 
L 79.422823 44.634867 
L 80.972472 44.659071 
L 84.07177 43.037379 
L 85.621419 43.319763 
L 87.171068 44.231461 
L 88.720717 44.828501 
L 90.270366 44.893046 
L 91.820015 44.796229 
L 93.369663 44.820433 
L 96.468961 45.070545 
L 98.01861 44.860774 
L 99.568259 44.884978 
L 101.117908 45.256112 
L 104.217206 45.586905 
L 107.316504 46.288831 
L 110.415802 46.442126 
L 111.965443 46.33724 
L 113.515092 45.917698 
L 115.064741 45.941902 
L 116.61439 46.635761 
L 118.164039 47.11178 
L 125.912283 48.418815 
L 129.011581 48.475292 
L 130.56123 49.088469 
L 132.110879 50.234143 
L 133.660528 50.952205 
L 135.210177 51.161976 
L 136.759826 51.210385 
L 138.309474 51.799358 
L 139.859123 52.783669 
L 141.408772 53.38071 
L 142.958421 53.614685 
L 144.50807 54.018091 
L 146.057712 54.953993 
L 147.60736 56.04319 
L 149.157009 56.567617 
L 150.706658 56.607958 
L 152.256307 56.866138 
L 153.805956 57.761699 
L 156.905254 60.117591 
L 158.454903 60.867926 
L 160.004552 61.287468 
L 161.554201 61.957122 
L 164.653499 64.313014 
L 177.05069 72.768404 
L 178.600331 74.148053 
L 184.798927 80.207212 
L 186.348576 81.369021 
L 187.898225 82.692193 
L 190.997523 85.83876 
L 192.547171 87.266818 
L 194.09682 88.961123 
L 197.196118 92.777344 
L 201.845065 98.788094 
L 206.494012 104.113054 
L 208.043661 106.130085 
L 209.59331 108.38109 
L 212.6926 113.254235 
L 221.990493 126.937769 
L 225.089791 132.044889 
L 226.63944 134.546007 
L 229.738738 139.201312 
L 232.838036 144.719907 
L 235.937334 149.778619 
L 242.135929 160.969103 
L 246.784868 169.392221 
L 251.433815 177.662045 
L 254.533113 183.430752 
L 259.18206 192.434775 
L 263.831007 200.978915 
L 266.930304 206.981597 
L 276.228198 225.223618 
L 282.426786 236.623873 
L 288.625382 248.516283 
L 293.274328 256.713494 
L 296.373626 262.304702 
L 299.472924 268.057272 
L 302.572222 273.430641 
L 305.67152 278.561966 
L 310.320459 287.307809 
L 314.969406 295.553429 
L 318.068704 300.531459 
L 328.916246 318.095759 
L 335.114842 327.220803 
L 338.214139 331.166115 
L 344.412728 339.105146 
L 347.512025 342.501824 
L 353.710621 348.867572 
L 355.26027 350.126199 
L 358.359568 352.256183 
L 361.458866 354.305485 
L 363.008515 355.346273 
L 364.558164 356.128881 
L 369.20711 358.113639 
L 372.306408 358.960791 
L 375.405706 359.573968 
L 378.504996 359.977374 
L 380.054645 360.090328 
L 383.153943 359.880557 
L 386.253241 359.590105 
L 387.80289 359.315789 
L 390.902188 358.347614 
L 397.100783 355.596385 
L 400.200081 353.530946 
L 403.299379 351.691414 
L 406.398677 349.642112 
L 407.948326 348.335076 
L 411.047616 345.406348 
L 412.597265 344.010563 
L 414.146914 342.461484 
L 418.795861 337.314023 
L 424.994456 329.600899 
L 426.544105 327.551596 
L 428.093754 325.316727 
L 431.193052 320.395173 
L 434.29235 315.877025 
L 442.040587 303.258484 
L 446.689533 294.56105 
L 448.239182 291.842093 
L 457.537076 273.60814 
L 460.636374 267.492504 
L 463.735672 261.578571 
L 468.384618 251.501488 
L 471.483916 245.418125 
L 474.583214 238.915219 
L 482.331451 223.271133 
L 485.430749 216.913454 
L 490.079696 208.03852 
L 493.178993 202.423108 
L 494.728642 199.728356 
L 499.377589 191.014785 
L 504.026536 183.027345 
L 514.874071 165.503387 
L 519.523017 158.613211 
L 528.820911 146.139896 
L 535.019507 138.580067 
L 539.668453 133.642377 
L 544.317393 128.785368 
L 547.41669 125.848572 
L 550.515988 123.000526 
L 553.615286 120.063729 
L 556.714584 117.44159 
L 562.91318 112.939579 
L 564.462829 111.995609 
L 570.661424 107.6953 
L 573.760722 106.049403 
L 576.860012 104.08885 
L 579.95931 102.773746 
L 584.608257 100.918078 
L 586.157906 100.288765 
L 587.707555 99.869223 
L 589.257204 99.57877 
L 593.90615 98.24753 
L 597.005448 97.755375 
L 598.555097 97.642421 
L 603.204044 98.255599 
L 604.753693 98.6348 
L 606.303342 99.32059 
L 607.852983 100.361378 
L 609.402632 101.700686 
L 610.952281 103.225561 
L 612.50193 105.121569 
L 614.051579 107.663028 
L 615.601228 110.930617 
L 617.150877 114.988881 
L 618.700526 120.047593 
L 620.250174 126.171297 
L 621.799823 133.230903 
L 623.349472 141.218343 
L 626.44877 159.403887 
L 631.097717 188.263556 
L 640.395603 241.843947 
L 641.945252 250.283202 
L 643.494901 257.705873 
L 645.04455 263.51492 
L 646.594198 267.492504 
L 648.143847 269.574079 
L 649.693496 269.91294 
L 651.243145 269.033515 
L 652.792794 267.476368 
L 654.342443 265.515814 
L 655.892092 263.192195 
L 657.441741 260.29574 
L 658.99139 256.624745 
L 662.090688 247.596518 
L 665.189985 238.576358 
L 666.739634 234.542298 
L 668.289283 230.943916 
L 669.838932 227.869962 
L 671.388581 225.255891 
L 672.93823 222.956476 
L 674.487871 221.09274 
L 676.03752 220.011612 
L 677.587169 220.068089 
L 679.136818 221.439669 
L 679.136818 221.439669 
" clip-path="url(#p0198b04cfd)" style="fill: none; stroke: #ff7f0e; stroke-width: 1.5; stroke-linecap: square"/>
   </g>
   <g id="line2d_31">
    <path d="M 77.873182 44.392823 
L 79.422823 44.844638 
L 80.972472 44.659071 
L 82.522121 43.569875 
L 84.07177 42.787267 
L 85.621419 43.456921 
L 87.171068 44.32021 
L 88.720717 44.642935 
L 91.820015 44.651003 
L 94.919312 44.554185 
L 96.468961 44.74782 
L 98.01861 44.425095 
L 99.568259 44.223392 
L 102.667557 45.441679 
L 104.217206 45.748267 
L 105.766855 45.845085 
L 108.866153 45.893493 
L 110.415802 45.998379 
L 111.965443 45.594973 
L 113.515092 44.739752 
L 115.064741 44.780093 
L 116.61439 45.94997 
L 118.164039 46.748714 
L 121.263336 47.563594 
L 125.912283 48.48336 
L 127.461932 48.467224 
L 129.011581 47.92666 
L 130.56123 48.209044 
L 132.110879 49.564488 
L 133.660528 50.395505 
L 135.210177 50.540731 
L 136.759826 50.451982 
L 138.309474 50.879592 
L 139.859123 51.597655 
L 142.958421 52.598102 
L 144.50807 53.283892 
L 149.157009 56.34171 
L 152.256307 57.229203 
L 153.805956 57.689086 
L 155.355605 58.471694 
L 156.905254 59.64964 
L 158.454903 60.553269 
L 160.004552 60.972812 
L 161.554201 61.940986 
L 163.10385 63.457793 
L 164.653499 64.434035 
L 166.203147 65.240848 
L 169.302445 67.362763 
L 172.401743 69.557292 
L 173.951392 70.404445 
L 175.501041 71.090235 
L 177.05069 72.042274 
L 180.14998 74.971001 
L 183.249278 78.190182 
L 186.348576 80.884934 
L 187.898225 82.514695 
L 189.447874 84.330022 
L 190.997523 85.879101 
L 192.547171 87.234545 
L 194.09682 88.823965 
L 197.196118 92.809617 
L 200.295416 96.843677 
L 203.394714 100.546945 
L 204.944363 102.152501 
L 206.494012 104.000101 
L 209.59331 108.332682 
L 220.440844 124.476992 
L 226.63944 133.739195 
L 228.189089 136.256448 
L 232.838036 144.372978 
L 234.387685 146.599779 
L 235.937334 149.141237 
L 239.036631 154.92608 
L 242.135929 160.017064 
L 245.23522 165.051572 
L 252.983464 178.912604 
L 256.082762 184.108474 
L 262.281358 195.363502 
L 263.831007 198.227685 
L 270.029602 208.772719 
L 273.1289 214.501085 
L 277.777839 222.375571 
L 280.877137 227.466556 
L 283.976435 232.710834 
L 287.075733 237.930909 
L 290.175031 243.231664 
L 296.373626 253.074772 
L 297.923275 255.74532 
L 299.472924 258.093143 
L 302.572222 262.457996 
L 308.770818 272.01872 
L 311.870108 276.714366 
L 316.519055 283.13659 
L 322.71765 292.382657 
L 324.267299 294.278665 
L 325.816948 295.989107 
L 330.465895 301.709405 
L 333.565193 305.210969 
L 335.114842 307.155387 
L 336.664491 308.865828 
L 339.763788 311.721943 
L 342.863086 315.070213 
L 353.710621 322.968904 
L 356.809919 324.639005 
L 359.909217 326.050926 
L 361.458866 326.712512 
L 363.008515 327.253076 
L 366.107812 328.084092 
L 369.20711 328.56818 
L 370.756759 328.681133 
L 375.405706 328.560111 
L 376.955347 328.592384 
L 380.054645 328.18091 
L 381.604294 327.930798 
L 383.153943 327.519324 
L 389.352539 325.26025 
L 392.451836 323.751511 
L 395.551134 321.91198 
L 397.100783 321.064827 
L 398.650432 319.999835 
L 406.398677 313.698633 
L 409.497967 310.898995 
L 414.146914 306.469596 
L 415.696563 304.799495 
L 418.795861 300.918729 
L 421.895158 297.231598 
L 424.994456 293.132992 
L 434.29235 279.481732 
L 443.590236 264.725138 
L 446.689533 259.440519 
L 449.788831 254.341467 
L 476.132855 206.384556 
L 483.8811 193.144769 
L 486.980398 187.682651 
L 491.629345 180.268048 
L 494.728642 175.540129 
L 497.82794 170.578235 
L 507.125834 157.29004 
L 514.874071 146.753074 
L 521.072666 139.806421 
L 525.721613 134.497598 
L 528.820911 130.899216 
L 530.37056 129.277524 
L 533.469858 126.582771 
L 536.569156 123.863814 
L 539.668453 120.78986 
L 547.41669 114.399909 
L 548.966339 113.455938 
L 550.515988 112.261857 
L 552.065637 110.858003 
L 553.615286 109.639717 
L 558.264233 106.686785 
L 562.91318 103.871011 
L 566.012477 102.104092 
L 569.111775 100.337174 
L 572.211073 98.925253 
L 575.310363 97.577876 
L 579.95931 95.940048 
L 583.058608 94.616876 
L 584.608257 94.124721 
L 587.707555 93.600293 
L 589.257204 93.358249 
L 592.356501 92.62405 
L 593.90615 92.462688 
L 598.555097 92.309393 
L 603.204044 93.027456 
L 604.753693 93.503475 
L 606.303342 94.116652 
L 607.852983 94.939601 
L 609.402632 96.238568 
L 610.952281 97.924806 
L 612.50193 99.982176 
L 614.051579 102.620452 
L 615.601228 105.912245 
L 617.150877 109.994715 
L 618.700526 115.142176 
L 620.250174 121.201335 
L 621.799823 128.018897 
L 623.349472 135.651339 
L 624.899121 144.001844 
L 627.998419 162.39716 
L 632.647366 190.425812 
L 638.845961 225.909408 
L 641.945252 242.239285 
L 643.494901 249.185937 
L 645.04455 254.559306 
L 646.594198 258.109279 
L 648.143847 259.77938 
L 649.693496 259.755176 
L 651.243145 258.746661 
L 652.792794 257.383148 
L 654.342443 255.74532 
L 655.892092 253.808971 
L 657.441741 251.461148 
L 658.99139 248.508215 
L 660.541039 244.917901 
L 663.640337 236.494783 
L 666.739634 227.950643 
L 668.289283 224.263512 
L 669.838932 221.036263 
L 671.388581 218.123672 
L 672.93823 215.59835 
L 674.487871 213.686205 
L 676.03752 212.685758 
L 677.587169 212.830984 
L 679.136818 214.234837 
L 679.136818 214.234837 
" clip-path="url(#p0198b04cfd)" style="fill: none; stroke: #2ca02c; stroke-width: 1.5; stroke-linecap: square"/>
   </g>
   <g id="line2d_32">
    <path d="M 77.873182 43.715101 
L 79.422823 44.021689 
L 80.972472 44.013621 
L 84.07177 43.029311 
L 85.621419 43.069651 
L 88.720717 43.924872 
L 91.820015 44.110439 
L 93.369663 44.158847 
L 96.468961 44.731684 
L 98.01861 44.546117 
L 99.568259 44.497709 
L 101.117908 45.006 
L 102.667557 45.304521 
L 107.316504 45.804744 
L 111.965443 45.490087 
L 113.515092 44.780093 
L 115.064741 44.788161 
L 116.61439 45.933834 
L 118.164039 46.756782 
L 121.263336 47.394164 
L 124.362634 47.942796 
L 125.912283 48.063818 
L 127.461932 47.92666 
L 129.011581 47.644276 
L 130.56123 48.233249 
L 132.110879 49.564488 
L 133.660528 50.387437 
L 135.210177 50.435846 
L 136.759826 50.07278 
L 138.309474 50.339028 
L 141.408772 52.041402 
L 142.958421 52.630374 
L 144.50807 53.090257 
L 146.057712 53.792184 
L 147.60736 54.784563 
L 149.157009 55.510694 
L 152.256307 56.317506 
L 153.805956 57.172727 
L 156.905254 59.407596 
L 158.454903 60.093386 
L 160.004552 60.270885 
L 161.554201 60.771109 
L 163.10385 62.062008 
L 164.653499 63.199613 
L 166.203147 64.103242 
L 170.852094 67.637079 
L 173.951392 69.412066 
L 175.501041 70.21081 
L 177.05069 71.356483 
L 181.699629 76.334514 
L 183.249278 77.714163 
L 186.348576 80.029713 
L 187.898225 81.481975 
L 189.447874 83.17628 
L 192.547171 86.18569 
L 198.745767 93.858473 
L 200.295416 95.867435 
L 206.494012 102.862496 
L 208.043661 104.855321 
L 209.59331 107.082123 
L 212.6926 111.955268 
L 225.089791 130.503878 
L 232.838036 143.67912 
L 235.937334 148.519992 
L 240.58628 156.563909 
L 249.884166 172.926058 
L 259.18206 190.159564 
L 265.380655 201.261299 
L 268.479953 207.05421 
L 271.579251 212.395306 
L 276.228198 221.205694 
L 282.426786 231.686183 
L 285.526084 237.309663 
L 296.373626 256.13259 
L 301.022573 263.539125 
L 304.121871 268.525223 
L 308.770818 276.238347 
L 313.419757 283.61261 
L 322.71765 297.344551 
L 325.816948 301.539974 
L 330.465895 308.236515 
L 333.565193 311.955918 
L 335.114842 314.037494 
L 336.664491 315.836685 
L 339.763788 318.926775 
L 342.863086 322.379931 
L 347.512025 326.744784 
L 350.611323 329.29431 
L 353.710621 331.755087 
L 355.26027 332.844284 
L 358.359568 334.611202 
L 363.008515 336.652437 
L 364.558164 337.217205 
L 367.657461 338.040154 
L 369.20711 338.290265 
L 373.856057 338.072426 
L 376.955347 338.814693 
L 378.504996 338.685603 
L 383.153943 337.693224 
L 384.703592 337.209137 
L 387.80289 336.636301 
L 389.352539 336.128009 
L 390.902188 335.482559 
L 392.451836 334.61927 
L 395.551134 332.537695 
L 401.74973 328.09216 
L 403.299379 327.083645 
L 406.398677 324.48571 
L 409.497967 321.435961 
L 412.597265 318.103827 
L 415.696563 314.82817 
L 420.345509 309.083667 
L 424.994456 303.072917 
L 429.643403 296.005243 
L 435.841999 286.371907 
L 440.490945 278.561966 
L 443.590236 272.986894 
L 446.689533 267.258528 
L 449.788831 262.111067 
L 457.537076 247.136635 
L 460.636374 241.295315 
L 463.735672 235.494336 
L 469.934267 222.867727 
L 485.430749 194.330783 
L 488.530047 189.207526 
L 491.629345 183.519501 
L 496.278291 175.757968 
L 505.576185 161.517735 
L 508.675475 157.120609 
L 510.225124 154.982557 
L 513.324422 150.319183 
L 516.42372 146.059215 
L 519.523017 142.372084 
L 522.622315 138.684953 
L 527.271262 133.117949 
L 531.920209 127.696172 
L 533.469858 126.155161 
L 538.118804 122.169509 
L 544.317393 116.142623 
L 545.867042 114.819451 
L 548.966339 112.89117 
L 550.515988 111.55993 
L 552.065637 109.994715 
L 553.615286 108.679611 
L 556.714584 106.727126 
L 566.012477 101.248871 
L 569.111775 99.546498 
L 575.310363 96.537089 
L 578.409661 95.278462 
L 579.95931 94.552331 
L 586.157906 92.543369 
L 590.806853 91.631671 
L 592.356501 91.195993 
L 593.90615 91.026562 
L 597.005448 91.066903 
L 598.555097 90.978153 
L 600.104746 91.042698 
L 601.654395 91.365423 
L 606.303342 92.801549 
L 607.852983 93.793928 
L 610.952281 96.795269 
L 612.50193 98.755822 
L 614.051579 101.458643 
L 615.601228 104.879526 
L 617.150877 109.066881 
L 618.700526 114.190137 
L 620.250174 120.176683 
L 621.799823 126.945837 
L 623.349472 134.562143 
L 624.899121 143.049806 
L 627.998419 161.832392 
L 631.097717 180.857021 
L 640.395603 235.228088 
L 641.945252 243.425299 
L 643.494901 250.638199 
L 645.04455 256.414974 
L 646.594198 260.287672 
L 648.143847 262.094931 
L 649.693496 262.264361 
L 651.243145 261.505958 
L 652.792794 260.247331 
L 654.342443 258.57723 
L 655.892092 256.503723 
L 657.441741 253.978401 
L 658.99139 250.880243 
L 660.541039 247.152771 
L 663.640337 238.640903 
L 666.739634 229.838583 
L 668.289283 225.982022 
L 669.838932 222.625683 
L 671.388581 219.672751 
L 672.93823 217.147429 
L 674.487871 215.130399 
L 676.03752 213.936317 
L 677.587169 213.920181 
L 679.136818 215.162671 
L 679.136818 215.162671 
" clip-path="url(#p0198b04cfd)" style="fill: none; stroke: #d62728; stroke-width: 1.5; stroke-linecap: square"/>
   </g>
   <g id="line2d_33">
    <path d="M 77.873182 44.005553 
L 79.422823 44.102371 
L 80.972472 43.908736 
L 82.522121 43.263286 
L 84.07177 42.972834 
L 87.171068 44.400891 
L 88.720717 44.772025 
L 90.270366 44.594526 
L 91.820015 44.037826 
L 93.369663 43.642488 
L 94.919312 43.949076 
L 96.468961 44.642935 
L 98.01861 44.796229 
L 99.568259 44.812365 
L 101.117908 45.118954 
L 102.667557 45.215771 
L 105.766855 44.804297 
L 107.316504 44.852706 
L 108.866153 45.038273 
L 110.415802 45.110886 
L 111.965443 44.788161 
L 113.515092 44.06203 
L 115.064741 44.070098 
L 116.61439 45.441679 
L 118.164039 46.530875 
L 119.713687 46.885872 
L 121.263336 46.8536 
L 122.812985 47.014962 
L 124.362634 47.418368 
L 125.912283 47.652344 
L 127.461932 47.490981 
L 129.011581 47.095643 
L 130.56123 47.636208 
L 132.110879 48.975516 
L 133.660528 49.55642 
L 136.759826 49.314377 
L 138.309474 49.653238 
L 144.50807 51.750949 
L 146.057712 52.549693 
L 147.60736 53.663094 
L 149.157009 54.405361 
L 152.256307 54.647405 
L 153.805956 55.066947 
L 155.355605 55.881827 
L 156.905254 56.833865 
L 158.454903 57.406702 
L 160.004552 57.67295 
L 161.554201 58.544307 
L 163.10385 59.972365 
L 164.653499 61.005084 
L 170.852094 64.111311 
L 172.401743 65.329597 
L 173.951392 66.249363 
L 175.501041 66.870608 
L 177.05069 67.919464 
L 183.249278 73.865669 
L 184.798927 75.059751 
L 186.348576 75.939176 
L 187.898225 77.213939 
L 189.447874 78.916313 
L 190.997523 80.384711 
L 192.547171 81.691746 
L 194.09682 83.216621 
L 197.196118 86.806935 
L 208.043661 99.223773 
L 217.341547 111.81811 
L 225.089791 123.032798 
L 228.189089 127.454128 
L 234.387685 137.297236 
L 235.937334 139.42722 
L 237.486983 141.766975 
L 245.23522 154.441993 
L 252.983464 164.76112 
L 257.632411 171.449592 
L 266.930304 184.51188 
L 271.579251 190.030474 
L 274.678549 194.185557 
L 279.327488 200.13983 
L 285.526084 206.79603 
L 288.625382 210.596115 
L 291.72468 213.758818 
L 294.823977 216.776295 
L 296.373626 218.454465 
L 297.923275 219.898658 
L 299.472924 221.0524 
L 301.022573 222.407844 
L 304.121871 225.627024 
L 310.320459 231.081074 
L 314.969406 234.631047 
L 318.068704 236.946598 
L 324.267299 241.06134 
L 327.366597 242.505533 
L 330.465895 244.530632 
L 335.114842 246.596071 
L 336.664491 247.281861 
L 341.313437 248.766395 
L 342.863086 249.137529 
L 345.962377 249.629684 
L 347.512025 250.008886 
L 349.061674 250.218657 
L 350.611323 250.186384 
L 352.160972 250.275134 
L 353.710621 250.54945 
L 355.26027 250.613995 
L 361.458866 249.855591 
L 367.657461 248.330717 
L 369.20711 247.652994 
L 372.306408 245.765054 
L 373.856057 245.119604 
L 376.955347 243.981999 
L 383.153943 240.536912 
L 386.253241 238.648971 
L 387.80289 237.785682 
L 389.352539 236.769099 
L 392.451836 234.155028 
L 395.551134 231.395731 
L 398.650432 228.749387 
L 404.849028 222.787046 
L 407.948326 220.197179 
L 411.047616 216.816636 
L 414.146914 213.266663 
L 417.246212 209.902256 
L 424.994456 200.720735 
L 428.093754 196.581789 
L 434.29235 188.900938 
L 443.590236 176.435691 
L 445.139885 174.305707 
L 451.33848 166.552242 
L 460.636374 154.304835 
L 473.033565 139.144836 
L 476.132855 135.740089 
L 479.232153 132.432159 
L 483.8811 127.300834 
L 486.980398 124.218812 
L 490.079696 121.064176 
L 493.178993 118.12738 
L 500.927238 111.382431 
L 507.125834 106.283379 
L 510.225124 103.854874 
L 513.324422 101.434438 
L 516.42372 99.433544 
L 521.072666 96.440271 
L 524.171964 94.334492 
L 527.271262 92.793481 
L 530.37056 90.921677 
L 531.920209 90.122933 
L 533.469858 89.517824 
L 535.019507 89.041804 
L 536.569156 88.396355 
L 539.668453 86.605232 
L 550.515988 82.087084 
L 552.065637 81.377089 
L 558.264233 79.585967 
L 564.462829 77.786776 
L 567.562126 76.891214 
L 570.661424 76.237696 
L 579.95931 74.583732 
L 583.058608 74.156121 
L 589.257204 73.986691 
L 595.455799 74.099644 
L 598.555097 74.494982 
L 603.204044 75.672928 
L 604.753693 76.18122 
L 606.303342 76.9961 
L 607.852983 78.278931 
L 610.952281 81.441634 
L 612.50193 83.426392 
L 614.051579 86.064668 
L 615.601228 89.364529 
L 617.150877 93.382453 
L 618.700526 98.271735 
L 620.250174 103.992033 
L 621.799823 110.349712 
L 623.349472 117.344773 
L 624.899121 125.186986 
L 627.998419 142.977193 
L 640.395603 216.96993 
L 641.945252 225.175209 
L 643.494901 232.04118 
L 645.04455 236.995007 
L 646.594198 239.988279 
L 648.143847 241.182361 
L 649.693496 240.964522 
L 651.243145 239.996348 
L 652.792794 238.82647 
L 654.342443 237.801819 
L 657.441741 236.002628 
L 658.99139 234.558434 
L 660.541039 232.452655 
L 662.090688 229.709493 
L 663.640337 226.369291 
L 665.189985 222.367503 
L 668.289283 213.137573 
L 671.388581 204.141618 
L 672.93823 200.381874 
L 674.487871 197.428941 
L 676.03752 195.573274 
L 677.587169 195.226344 
L 679.136818 196.53338 
L 679.136818 196.53338 
" clip-path="url(#p0198b04cfd)" style="fill: none; stroke: #9467bd; stroke-width: 1.5; stroke-linecap: square"/>
   </g>
   <g id="line2d_34">
    <path d="M 77.873182 42.754994 
L 79.422823 43.150332 
L 80.972472 43.368172 
L 84.07177 42.642041 
L 85.621419 42.754994 
L 90.270366 43.771578 
L 93.369663 43.80385 
L 94.919312 43.957144 
L 96.468961 44.344414 
L 98.01861 44.400891 
L 99.568259 44.142711 
L 101.117908 44.287937 
L 102.667557 44.667139 
L 108.866153 45.320657 
L 110.415802 45.425542 
L 113.515092 45.239976 
L 115.064741 45.498156 
L 116.61439 46.20815 
L 118.164039 46.748714 
L 121.263336 47.321551 
L 124.362634 48.039614 
L 125.912283 48.434952 
L 127.461932 48.580178 
L 129.011581 48.467224 
L 130.56123 48.943243 
L 132.110879 50.008235 
L 133.660528 50.702094 
L 135.210177 50.863456 
L 136.759826 50.879592 
L 138.309474 51.557314 
L 139.859123 52.428671 
L 144.50807 53.759911 
L 146.057712 54.574792 
L 147.60736 55.518762 
L 149.157009 56.325574 
L 150.706658 56.98716 
L 153.805956 58.116697 
L 155.355605 58.996122 
L 156.905254 60.028841 
L 158.454903 60.884062 
L 160.004552 61.594057 
L 161.554201 62.44121 
L 166.203147 65.676526 
L 167.752796 66.660837 
L 173.951392 71.24353 
L 175.501041 72.308521 
L 178.600331 74.954865 
L 181.699629 77.843252 
L 184.798927 80.64289 
L 186.348576 81.97413 
L 187.898225 83.603891 
L 192.547171 89.122486 
L 194.09682 90.728042 
L 195.646469 92.172235 
L 197.196118 93.8262 
L 204.944363 103.806466 
L 206.494012 105.67827 
L 209.59331 110.051191 
L 212.6926 114.875928 
L 217.341547 121.524059 
L 220.440844 126.897428 
L 223.540142 131.173532 
L 228.189089 138.636544 
L 229.738738 141.113457 
L 232.838036 146.777278 
L 237.486983 154.619492 
L 243.685578 165.567932 
L 251.433815 178.743173 
L 254.533113 184.29404 
L 257.632411 190.167633 
L 260.731709 195.476456 
L 273.1289 218.6481 
L 276.228198 224.319989 
L 280.877137 232.977082 
L 287.075733 243.965863 
L 290.175031 249.573207 
L 294.823977 257.455761 
L 297.923275 262.853334 
L 302.572222 270.421232 
L 305.67152 275.826873 
L 310.320459 283.515792 
L 313.419757 288.792343 
L 318.068704 295.569565 
L 321.168001 300.48305 
L 330.465895 313.577611 
L 336.664491 321.444029 
L 339.763788 325.050479 
L 342.863086 328.761814 
L 345.962377 331.747019 
L 349.061674 334.441772 
L 353.710621 338.249925 
L 356.809919 340.266955 
L 359.909217 341.985465 
L 364.558164 344.36556 
L 366.107812 344.889988 
L 369.20711 345.470893 
L 378.504996 346.197024 
L 380.054645 346.180888 
L 381.604294 346.003389 
L 389.352539 344.002495 
L 390.902188 343.429658 
L 392.451836 342.671255 
L 398.650432 338.814693 
L 401.74973 337.209137 
L 403.299379 336.071532 
L 409.497967 330.730436 
L 412.597265 327.66455 
L 415.696563 324.792299 
L 421.895158 317.337355 
L 426.544105 311.09263 
L 434.29235 299.563285 
L 438.941296 291.656526 
L 443.590236 283.975675 
L 449.788831 273.011099 
L 460.636374 252.372845 
L 463.735672 246.442776 
L 468.384618 236.80944 
L 473.033565 227.934507 
L 480.781802 213.226322 
L 483.8811 207.086482 
L 486.980398 201.584024 
L 490.079696 195.960543 
L 491.629345 193.144769 
L 499.377589 180.098618 
L 502.476887 174.854339 
L 507.125834 167.584962 
L 517.973369 151.755309 
L 524.171964 143.71946 
L 527.271262 140.121078 
L 530.37056 136.619514 
L 533.469858 132.908178 
L 536.569156 129.705134 
L 544.317393 122.048487 
L 545.867042 120.434863 
L 552.065637 115.053426 
L 558.264233 110.527211 
L 561.363531 108.405295 
L 564.462829 106.347924 
L 567.562126 104.451915 
L 573.760722 101.055236 
L 579.95931 97.860261 
L 581.508959 97.158334 
L 584.608257 96.254705 
L 587.707555 95.439824 
L 592.356501 94.544263 
L 593.90615 94.08438 
L 595.455799 93.769723 
L 598.555097 93.608361 
L 600.104746 93.753587 
L 604.753693 94.697557 
L 606.303342 95.141304 
L 607.852983 96.020729 
L 609.402632 97.376173 
L 610.952281 99.014002 
L 612.50193 101.055236 
L 614.051579 103.628967 
L 615.601228 106.832011 
L 617.150877 110.898344 
L 618.700526 116.053873 
L 620.250174 122.20985 
L 621.799823 129.140366 
L 623.349472 136.853489 
L 624.899121 145.486379 
L 635.746664 210.208845 
L 640.395603 236.84978 
L 641.945252 245.168013 
L 643.494901 252.324436 
L 645.04455 257.697805 
L 646.594198 261.150961 
L 648.143847 262.877539 
L 649.693496 263.208332 
L 651.243145 262.514473 
L 652.792794 260.989598 
L 654.342443 258.932228 
L 655.892092 256.665086 
L 657.441741 254.115559 
L 658.99139 250.872175 
L 660.541039 246.918795 
L 663.640337 238.205225 
L 666.739634 229.531995 
L 668.289283 225.739978 
L 669.838932 222.432048 
L 671.388581 219.559797 
L 672.93823 217.179702 
L 674.487871 215.453124 
L 676.03752 214.622107 
L 677.587169 214.839946 
L 679.136818 216.195391 
L 679.136818 216.195391 
" clip-path="url(#p0198b04cfd)" style="fill: none; stroke: #8c564b; stroke-width: 1.5; stroke-linecap: square"/>
   </g>
   <g id="line2d_35">
    <path d="M 77.873182 43.239082 
L 79.422823 43.54567 
L 80.972472 43.464989 
L 84.07177 42.012727 
L 85.621419 42.408065 
L 87.171068 43.263286 
L 88.720717 43.795782 
L 90.270366 43.811918 
L 91.820015 43.707033 
L 96.468961 44.06203 
L 98.01861 43.739305 
L 99.568259 43.63442 
L 105.766855 45.167363 
L 107.316504 45.482019 
L 108.866153 45.5627 
L 110.415802 45.360997 
L 111.965443 44.844638 
L 113.515092 44.19112 
L 115.064741 44.312142 
L 116.61439 45.360997 
L 118.164039 46.135537 
L 121.263336 47.006894 
L 122.812985 47.386096 
L 127.461932 48.063818 
L 129.011581 47.942796 
L 130.56123 48.233249 
L 132.110879 49.2579 
L 133.660528 50.03244 
L 135.210177 50.242211 
L 136.759826 50.274483 
L 138.309474 50.903797 
L 139.859123 51.710609 
L 142.958421 52.557761 
L 144.50807 53.001508 
L 146.057712 53.743775 
L 147.60736 54.800699 
L 149.157009 55.672056 
L 153.805956 57.15659 
L 155.355605 57.971471 
L 156.905254 59.165552 
L 158.454903 60.133727 
L 160.004552 60.625882 
L 161.554201 61.400422 
L 163.10385 62.578368 
L 166.203147 64.611534 
L 167.752796 65.741071 
L 170.852094 67.629011 
L 172.401743 68.871502 
L 173.951392 69.960698 
L 175.501041 70.823987 
L 177.05069 72.018069 
L 180.14998 75.140432 
L 184.798927 79.456877 
L 186.348576 80.546073 
L 187.898225 81.909585 
L 190.997523 85.475695 
L 195.646469 90.074524 
L 197.196118 92.018941 
L 201.845065 98.304007 
L 206.494012 103.782261 
L 218.891196 121.378833 
L 223.540142 128.979003 
L 226.63944 133.981238 
L 229.738738 138.74143 
L 234.387685 146.680461 
L 242.135929 159.637863 
L 246.784868 167.931891 
L 252.983464 178.452721 
L 256.082762 184.035861 
L 262.281358 194.863279 
L 265.380655 200.502895 
L 273.1289 214.186429 
L 277.777839 222.391708 
L 279.327488 224.650782 
L 280.877137 227.143831 
L 283.976435 232.638221 
L 287.075733 237.793751 
L 288.625382 240.609525 
L 291.72468 245.547215 
L 294.823977 250.58979 
L 297.923275 255.664639 
L 302.572222 262.651631 
L 305.67152 267.661934 
L 314.969406 281.684329 
L 324.267299 294.391619 
L 330.465895 301.77395 
L 332.015544 303.500528 
L 335.114842 307.421635 
L 336.664491 309.075599 
L 339.763788 311.988191 
L 342.863086 315.078281 
L 345.962377 317.732693 
L 349.061674 320.112789 
L 353.710621 323.388446 
L 355.26027 324.31628 
L 358.359568 325.808882 
L 361.458866 327.180463 
L 364.558164 328.318068 
L 366.107812 328.673065 
L 369.20711 328.99579 
L 373.856057 329.011926 
L 375.405706 329.084539 
L 378.504996 328.874768 
L 380.054645 328.616588 
L 384.703592 327.591937 
L 387.80289 326.865806 
L 389.352539 326.357514 
L 390.902188 325.607179 
L 397.100783 321.734481 
L 407.948326 313.271022 
L 409.497967 311.810692 
L 415.696563 305.340059 
L 424.994456 293.810714 
L 428.093754 289.260294 
L 431.193052 284.94385 
L 432.742701 282.821934 
L 434.29235 280.417634 
L 440.490945 270.163052 
L 443.590236 265.394792 
L 448.239182 257.455761 
L 452.888129 249.234346 
L 455.987427 243.772228 
L 460.636374 235.228088 
L 463.735672 229.685289 
L 466.834969 223.763288 
L 469.934267 217.938105 
L 474.583214 209.821575 
L 479.232153 201.495274 
L 485.430749 190.95024 
L 493.178993 178.089655 
L 504.026536 161.622621 
L 517.973369 143.235373 
L 521.072666 139.55631 
L 528.820911 130.947625 
L 533.469858 126.251978 
L 545.867042 114.988881 
L 550.515988 111.479249 
L 552.065637 110.164145 
L 556.714584 106.92076 
L 558.264233 105.912245 
L 564.462829 102.418749 
L 566.012477 101.498983 
L 575.310363 97.26322 
L 579.95931 95.213917 
L 584.608257 93.616429 
L 586.157906 93.204955 
L 589.257204 92.712799 
L 592.356501 91.841442 
L 593.90615 91.631671 
L 597.005448 91.518718 
L 598.555097 91.429968 
L 600.104746 91.599399 
L 604.753693 92.761208 
L 606.303342 93.277568 
L 607.852983 94.197334 
L 609.402632 95.568914 
L 610.952281 97.158334 
L 612.50193 99.110819 
L 614.051579 101.797504 
L 615.601228 105.226455 
L 617.150877 109.333129 
L 618.700526 114.335364 
L 620.250174 120.265433 
L 621.799823 127.01845 
L 623.349472 134.642824 
L 624.899121 143.186964 
L 637.296313 216.453571 
L 640.395603 233.840371 
L 641.945252 241.908492 
L 643.494901 248.734123 
L 645.04455 253.865448 
L 646.594198 257.189513 
L 648.143847 258.762797 
L 649.693496 258.843478 
L 651.243145 257.980189 
L 652.792794 256.721562 
L 654.342443 255.204756 
L 655.892092 253.316815 
L 657.441741 250.896379 
L 658.99139 247.88697 
L 660.541039 244.369269 
L 662.090688 240.391686 
L 666.739634 227.442351 
L 668.289283 223.674539 
L 669.838932 220.342405 
L 671.388581 217.3572 
L 672.93823 214.807674 
L 674.487871 212.895529 
L 676.03752 211.878946 
L 677.587169 211.999968 
L 679.136818 213.411889 
L 679.136818 213.411889 
" clip-path="url(#p0198b04cfd)" style="fill: none; stroke: #e377c2; stroke-width: 1.5; stroke-linecap: square"/>
   </g>
   <g id="line2d_36">
    <path d="M 77.873182 44.626798 
L 79.422823 44.83657 
L 80.972472 44.788161 
L 82.522121 44.352482 
L 84.07177 44.110439 
L 85.621419 44.215324 
L 87.171068 44.529981 
L 88.720717 45.030205 
L 90.270366 45.256112 
L 93.369663 45.320657 
L 96.468961 45.715995 
L 99.568259 45.223839 
L 104.217206 46.087128 
L 107.316504 46.159741 
L 113.515092 45.715995 
L 115.064741 46.014515 
L 116.61439 46.764851 
L 119.713687 47.813706 
L 121.263336 48.22518 
L 125.912283 48.798017 
L 129.011581 48.733472 
L 130.56123 49.096537 
L 132.110879 49.806532 
L 133.660528 50.274483 
L 136.759826 50.20187 
L 138.309474 50.839252 
L 139.859123 51.678336 
L 141.408772 52.202764 
L 144.50807 52.896622 
L 146.057712 53.5098 
L 149.157009 55.236378 
L 152.256307 56.430459 
L 155.355605 57.769768 
L 160.004552 59.698048 
L 161.554201 60.569405 
L 164.653499 62.755866 
L 167.752796 64.530853 
L 170.852094 66.031523 
L 178.600331 71.646936 
L 180.14998 72.889426 
L 184.798927 77.028372 
L 186.348576 77.988479 
L 187.898225 79.4004 
L 190.997523 82.885828 
L 197.196118 89.090213 
L 206.494012 100.248424 
L 209.59331 104.718163 
L 212.6926 109.107221 
L 218.891196 117.651361 
L 229.738738 134.505666 
L 232.838036 139.822558 
L 235.937334 143.969572 
L 237.486983 146.591711 
L 240.58628 152.336213 
L 243.685578 157.515947 
L 252.983464 172.506516 
L 256.082762 177.791135 
L 259.18206 182.849847 
L 262.281358 188.215147 
L 273.1289 205.07752 
L 288.625382 228.103937 
L 290.175031 230.443692 
L 293.274328 234.550366 
L 297.923275 240.617593 
L 301.022573 244.224043 
L 307.221169 252.219551 
L 311.870108 257.63326 
L 314.969406 261.005735 
L 318.068704 264.660593 
L 321.168001 267.984659 
L 324.267299 271.010205 
L 325.816948 272.44633 
L 328.916246 275.649374 
L 330.465895 276.916069 
L 332.015544 278.021402 
L 336.664491 281.982849 
L 342.863086 286.291226 
L 344.412728 287.21906 
L 347.512025 288.67939 
L 350.611323 289.92188 
L 353.710621 290.898123 
L 356.809919 291.664594 
L 363.008515 292.519815 
L 364.558164 292.495611 
L 366.107812 292.28584 
L 369.20711 291.495164 
L 372.306408 290.510853 
L 376.955347 289.631428 
L 380.054645 288.243711 
L 383.153943 286.799517 
L 387.80289 284.330672 
L 389.352539 283.314089 
L 392.451836 280.829108 
L 397.100783 276.95641 
L 401.74973 273.148257 
L 403.299379 271.687927 
L 406.398677 268.396133 
L 407.948326 266.86319 
L 409.497967 265.160817 
L 414.146914 259.577677 
L 415.696563 257.834963 
L 418.795861 253.574995 
L 421.895158 249.565139 
L 423.444807 247.588449 
L 426.544105 243.102574 
L 432.742701 233.896848 
L 435.841999 229.402905 
L 440.490945 221.826939 
L 449.788831 206.771825 
L 452.888129 201.737318 
L 455.987427 196.783492 
L 459.086725 191.539213 
L 462.186023 186.867771 
L 469.934267 173.942641 
L 473.033565 169.230859 
L 477.682504 162.52625 
L 482.331451 155.353691 
L 483.8811 153.126889 
L 488.530047 147.148412 
L 491.629345 142.896512 
L 494.728642 139.378811 
L 499.377589 133.54556 
L 502.476887 130.189221 
L 505.576185 126.703793 
L 514.874071 116.92523 
L 517.973369 114.182069 
L 521.072666 111.769701 
L 525.721613 107.638823 
L 528.820911 105.363613 
L 531.920209 102.830223 
L 533.469858 101.765231 
L 536.569156 99.96604 
L 539.668453 97.900601 
L 545.867042 94.253811 
L 548.966339 92.858026 
L 552.065637 91.026562 
L 556.714584 88.412491 
L 561.363531 86.734322 
L 567.562126 84.628542 
L 570.661424 83.539346 
L 579.95931 81.126978 
L 581.508959 80.812321 
L 592.356501 79.505285 
L 595.455799 79.56983 
L 597.005448 79.650512 
L 598.555097 79.868351 
L 603.204044 80.973683 
L 606.303342 82.563103 
L 607.852983 83.611959 
L 609.402632 84.991608 
L 610.952281 86.581027 
L 612.50193 88.444763 
L 614.051579 90.962017 
L 615.601228 94.34256 
L 617.150877 98.50571 
L 618.700526 103.548286 
L 620.250174 109.438014 
L 621.799823 116.053873 
L 623.349472 123.387795 
L 624.899121 131.472053 
L 627.998419 149.875436 
L 634.197015 187.690719 
L 638.845961 215.428919 
L 641.945252 232.751175 
L 643.494901 239.834985 
L 645.04455 245.159945 
L 646.594198 248.734123 
L 648.143847 250.476837 
L 649.693496 250.492973 
L 651.243145 249.468322 
L 654.342443 247.088226 
L 655.892092 245.942553 
L 657.441741 244.345065 
L 658.99139 242.053718 
L 660.541039 239.270217 
L 662.090688 236.026832 
L 663.640337 232.121862 
L 668.289283 218.865939 
L 669.838932 214.831878 
L 671.388581 211.144747 
L 672.93823 207.901362 
L 674.487871 205.359904 
L 676.03752 203.859234 
L 677.587169 203.665599 
L 679.136818 204.754795 
L 679.136818 204.754795 
" clip-path="url(#p0198b04cfd)" style="fill: none; stroke: #7f7f7f; stroke-width: 1.5; stroke-linecap: square"/>
   </g>
   <g id="line2d_37">
    <path d="M 77.873182 43.876463 
L 79.422823 43.989417 
L 80.972472 43.965213 
L 84.07177 43.061583 
L 85.621419 43.335899 
L 87.171068 43.973281 
L 88.720717 44.296006 
L 94.919312 44.344414 
L 96.468961 44.594526 
L 99.568259 44.118507 
L 102.667557 44.731684 
L 104.217206 44.83657 
L 108.866153 45.853153 
L 110.415802 45.69179 
L 111.965443 45.239976 
L 113.515092 44.602594 
L 115.064741 44.570322 
L 116.61439 45.457815 
L 118.164039 46.119401 
L 124.362634 47.531322 
L 125.912283 47.53939 
L 129.011581 46.748714 
L 130.56123 47.313483 
L 132.110879 48.749608 
L 133.660528 49.604829 
L 135.210177 49.499944 
L 136.759826 49.023924 
L 138.309474 49.346649 
L 139.859123 50.056644 
L 142.958421 50.879592 
L 144.50807 51.525042 
L 147.60736 53.243552 
L 149.157009 53.76798 
L 152.256307 53.905138 
L 153.805956 54.284339 
L 155.355605 55.325127 
L 156.905254 56.640231 
L 158.454903 57.28568 
L 160.004552 57.293748 
L 161.554201 57.721359 
L 164.653499 60.238613 
L 166.203147 61.166446 
L 170.852094 63.231885 
L 178.600331 68.19378 
L 180.14998 69.315249 
L 184.798927 73.196015 
L 186.348576 74.131917 
L 187.898225 75.592247 
L 189.447874 77.334961 
L 194.09682 81.506179 
L 197.196118 84.975471 
L 200.295416 88.807829 
L 203.394714 91.970532 
L 204.944363 93.43893 
L 208.043661 96.900154 
L 209.59331 98.804231 
L 218.891196 111.906859 
L 220.440844 114.206274 
L 225.089791 120.418727 
L 228.189089 124.953011 
L 231.288387 130.060131 
L 232.838036 132.262728 
L 235.937334 136.224176 
L 242.135929 145.631605 
L 243.685578 148.132722 
L 245.23522 150.311115 
L 249.884166 156.346069 
L 252.983464 160.67865 
L 257.632411 167.028262 
L 260.731709 171.15914 
L 266.930304 178.735105 
L 268.479953 180.485887 
L 271.579251 183.73734 
L 277.777839 190.861491 
L 282.426786 195.428047 
L 283.976435 197.21917 
L 285.526084 198.80859 
L 288.625382 201.584024 
L 290.175031 203.133103 
L 294.823977 207.078414 
L 296.373626 208.603289 
L 297.923275 209.918393 
L 299.472924 210.991453 
L 301.022573 212.25008 
L 302.572222 213.653933 
L 304.121871 214.759265 
L 307.221169 216.590729 
L 313.419757 220.987855 
L 318.068704 223.545449 
L 321.168001 225.691569 
L 322.71765 226.514517 
L 335.114842 231.089142 
L 344.412728 233.098104 
L 347.512025 233.090036 
L 349.061674 233.098104 
L 352.160972 232.856061 
L 355.26027 232.823788 
L 356.809919 232.614017 
L 359.909217 231.855614 
L 366.107812 230.088695 
L 372.306408 226.909855 
L 375.405706 225.409185 
L 376.955347 224.594305 
L 380.054645 222.585343 
L 383.153943 220.592517 
L 386.253241 218.664236 
L 389.352539 216.421298 
L 390.902188 215.388579 
L 392.451836 214.210633 
L 401.74973 206.134444 
L 404.849028 203.367078 
L 409.497967 198.453593 
L 415.696563 192.813976 
L 418.795861 189.030027 
L 421.895158 185.447782 
L 428.093754 178.646356 
L 432.742701 172.700151 
L 435.841999 168.996883 
L 445.139885 157.620833 
L 446.689533 155.813573 
L 449.788831 152.441099 
L 455.987427 145.0507 
L 457.537076 143.211169 
L 459.086725 141.557204 
L 462.186023 138.61234 
L 463.735672 136.780876 
L 466.834969 132.779088 
L 469.934267 129.350137 
L 473.033565 126.348796 
L 482.331451 117.707838 
L 485.430749 114.924336 
L 491.629345 109.373469 
L 496.278291 105.80736 
L 499.377589 103.233629 
L 505.576185 98.691277 
L 514.874071 92.979047 
L 517.973369 91.526786 
L 521.072666 89.880889 
L 524.171964 88.283401 
L 527.271262 86.637504 
L 530.37056 85.330469 
L 533.469858 83.82173 
L 536.569156 82.667989 
L 538.118804 82.022539 
L 544.317393 79.876419 
L 545.867042 79.182561 
L 547.41669 78.779155 
L 548.966339 78.504838 
L 550.515988 77.964274 
L 552.065637 77.278484 
L 553.615286 76.73792 
L 558.264233 75.584179 
L 561.363531 74.567595 
L 562.91318 74.269075 
L 564.462829 74.115781 
L 570.661424 72.768404 
L 573.760722 72.219772 
L 576.860012 71.816366 
L 579.95931 71.453301 
L 583.058608 71.098303 
L 586.157906 71.033758 
L 598.555097 71.880911 
L 600.104746 72.1875 
L 601.654395 72.647383 
L 603.204044 73.252492 
L 606.303342 74.809639 
L 607.852983 75.890767 
L 609.402632 77.270416 
L 610.952281 78.803359 
L 612.50193 80.715504 
L 614.051579 83.39412 
L 615.601228 86.815003 
L 617.150877 90.832927 
L 618.700526 95.593119 
L 620.250174 101.248871 
L 621.799823 107.711436 
L 623.349472 114.77911 
L 624.899121 122.451893 
L 627.998419 139.612787 
L 634.197015 177.218298 
L 638.845961 205.384109 
L 640.395603 214.218701 
L 641.945252 222.270686 
L 643.494901 229.015635 
L 645.04455 234.034006 
L 646.594198 237.10796 
L 648.143847 238.205225 
L 649.693496 237.793751 
L 654.342443 234.735933 
L 657.441741 233.211058 
L 658.99139 231.992772 
L 660.541039 230.15324 
L 662.090688 227.757008 
L 663.640337 224.691122 
L 665.189985 220.802288 
L 668.289283 211.386791 
L 671.388581 201.672773 
L 672.93823 197.549963 
L 674.487871 194.451805 
L 676.03752 192.741363 
L 677.587169 192.628409 
L 679.136818 194.064535 
L 679.136818 194.064535 
" clip-path="url(#p0198b04cfd)" style="fill: none; stroke: #bcbd22; stroke-width: 1.5; stroke-linecap: square"/>
   </g>
   <g id="line2d_38">
    <path d="M 378.396597 390.04 
L 378.396597 25.44 
" clip-path="url(#p0198b04cfd)" style="fill: none; stroke-dasharray: 5.55,2.4; stroke-dashoffset: 0; stroke: #808080; stroke-width: 1.5"/>
   </g>
   <g id="patch_3">
    <path d="M 47.81 390.04 
L 47.81 25.44 
" style="fill: none; stroke: #000000; stroke-width: 0.8; stroke-linejoin: miter; stroke-linecap: square"/>
   </g>
   <g id="patch_4">
    <path d="M 709.2 390.04 
L 709.2 25.44 
" style="fill: none; stroke: #000000; stroke-width: 0.8; stroke-linejoin: miter; stroke-linecap: square"/>
   </g>
   <g id="patch_5">
    <path d="M 47.81 390.04 
L 709.2 390.04 
" style="fill: none; stroke: #000000; stroke-width: 0.8; stroke-linejoin: miter; stroke-linecap: square"/>
   </g>
   <g id="patch_6">
    <path d="M 47.81 25.44 
L 709.2 25.44 
" style="fill: none; stroke: #000000; stroke-width: 0.8; stroke-linejoin: miter; stroke-linecap: square"/>
   </g>
   <g id="text_17">
    <!-- 3300 cm⁻¹ -->
    <g style="fill: #808080" transform="translate(376.316909 151.514687) rotate(-90) scale(0.1 -0.1)">
     <use xlink:href="#DejaVuSans-33"/>
     <use xlink:href="#DejaVuSans-33" x="63.623047"/>
     <use xlink:href="#DejaVuSans-30" x="127.246094"/>
     <use xlink:href="#DejaVuSans-30" x="190.869141"/>
     <use xlink:href="#DejaVuSans-20" x="254.492188"/>
     <use xlink:href="#DejaVuSans-63" x="286.279297"/>
     <use xlink:href="#DejaVuSans-6d" x="341.259766"/>
     <use xlink:href="#DejaVuSans-207b" x="438.671875"/>
     <use xlink:href="#DejaVuSans-b9" x="491.455078"/>
    </g>
   </g>
   <g id="text_18">
    <!-- FTIR Spectrum -->
    <g transform="translate(334.57375 19.44) scale(0.12 -0.12)">
     <defs>
      <path id="DejaVuSans-46" d="M 628 4666 
L 3309 4666 
L 3309 4134 
L 1259 4134 
L 1259 2759 
L 3109 2759 
L 3109 2228 
L 1259 2228 
L 1259 0 
L 628 0 
L 628 4666 
z
" transform="scale(0.015625)"/>
      <path id="DejaVuSans-54" d="M -19 4666 
L 3928 4666 
L 3928 4134 
L 2272 4134 
L 2272 0 
L 1638 0 
L 1638 4134 
L -19 4134 
L -19 4666 
z
" transform="scale(0.015625)"/>
      <path id="DejaVuSans-52" d="M 2841 2188 
Q 3044 2119 3236 1894 
Q 3428 1669 3622 1275 
L 4263 0 
L 3584 0 
L 2988 1197 
Q 2756 1666 2539 1819 
Q 2322 1972 1947 1972 
L 1259 1972 
L 1259 0 
L 628 0 
L 628 4666 
L 2053 4666 
Q 2853 4666 3247 4331 
Q 3641 3997 3641 3322 
Q 3641 2881 3436 2590 
Q 3231 2300 2841 2188 
z
M 1259 4147 
L 1259 2491 
L 2053 2491 
Q 2509 2491 2742 2702 
Q 2975 2913 2975 3322 
Q 2975 3731 2742 3939 
Q 2509 4147 2053 4147 
L 1259 4147 
z
" transform="scale(0.015625)"/>
      <path id="DejaVuSans-53" d="M 3425 4513 
L 3425 3897 
Q 3066 4069 2747 4153 
Q 2428 4238 2131 4238 
Q 1616 4238 1336 4038 
Q 1056 3838 1056 3469 
Q 1056 3159 1242 3001 
Q 1428 2844 1947 2747 
L 2328 2669 
Q 3034 2534 3370 2195 
Q 3706 1856 3706 1288 
Q 3706 609 3251 259 
Q 2797 -91 1919 -91 
Q 1588 -91 1214 -16 
Q 841 59 441 206 
L 441 856 
Q 825 641 1194 531 
Q 1563 422 1919 422 
Q 2459 422 2753 634 
Q 3047 847 3047 1241 
Q 3047 1584 2836 1778 
Q 2625 1972 2144 2069 
L 1759 2144 
Q 1053 2284 737 2584 
Q 422 2884 422 3419 
Q 422 4038 858 4394 
Q 1294 4750 2059 4750 
Q 2388 4750 2728 4690 
Q 3069 4631 3425 4513 
z
" transform="scale(0.015625)"/>
      <path id="DejaVuSans-70" d="M 1159 525 
L 1159 -1331 
L 581 -1331 
L 581 3500 
L 1159 3500 
L 1159 2969 
Q 1341 3281 1617 3432 
Q 1894 3584 2278 3584 
Q 2916 3584 3314 3078 
Q 3713 2572 3713 1747 
Q 3713 922 3314 415 
Q 2916 -91 2278 -91 
Q 1894 -91 1617 61 
Q 1341 213 1159 525 
z
M 3116 1747 
Q 3116 2381 2855 2742 
Q 2594 3103 2138 3103 
Q 1681 3103 1420 2742 
Q 1159 2381 1159 1747 
Q 1159 1113 1420 752 
Q 1681 391 2138 391 
Q 2594 391 2855 752 
Q 3116 1113 3116 1747 
z
" transform="scale(0.015625)"/>
     </defs>
     <use xlink:href="#DejaVuSans-46"/>
     <use xlink:href="#DejaVuSans-54" x="55.769531"/>
     <use xlink:href="#DejaVuSans-49" x="116.853516"/>
     <use xlink:href="#DejaVuSans-52" x="146.345703"/>
     <use xlink:href="#DejaVuSans-20" x="215.828125"/>
     <use xlink:href="#DejaVuSans-53" x="247.615234"/>
     <use xlink:href="#DejaVuSans-70" x="311.091797"/>
     <use xlink:href="#DejaVuSans-65" x="374.568359"/>
     <use xlink:href="#DejaVuSans-63" x="436.091797"/>
     <use xlink:href="#DejaVuSans-74" x="491.072266"/>
     <use xlink:href="#DejaVuSans-72" x="530.28125"/>
     <use xlink:href="#DejaVuSans-75" x="571.394531"/>
     <use xlink:href="#DejaVuSans-6d" x="634.773438"/>
    </g>
   </g>
   <g id="legend_1">
    <g id="patch_7">
     <path d="M 54.81 385.04 
L 160.492813 385.04 
Q 162.492813 385.04 162.492813 383.04 
L 162.492813 251.936875 
Q 162.492813 249.936875 160.492813 249.936875 
L 54.81 249.936875 
Q 52.81 249.936875 52.81 251.936875 
L 52.81 383.04 
Q 52.81 385.04 54.81 385.04 
z
" style="fill: #ffffff; opacity: 0.8; stroke: #cccccc; stroke-linejoin: miter"/>
    </g>
    <g id="line2d_39">
     <path d="M 56.81 258.035313 
L 66.81 258.035313 
L 76.81 258.035313 
" style="fill: none; stroke: #1f77b4; stroke-width: 1.5; stroke-linecap: square"/>
    </g>
    <g id="text_19">
     <!-- 1,3-PDO -->
     <g transform="translate(84.81 261.535313) scale(0.1 -0.1)">
      <defs>
       <path id="DejaVuSans-2c" d="M 750 794 
L 1409 794 
L 1409 256 
L 897 -744 
L 494 -744 
L 750 256 
L 750 794 
z
" transform="scale(0.015625)"/>
       <path id="DejaVuSans-2d" d="M 313 2009 
L 1997 2009 
L 1997 1497 
L 313 1497 
L 313 2009 
z
" transform="scale(0.015625)"/>
       <path id="DejaVuSans-50" d="M 1259 4147 
L 1259 2394 
L 2053 2394 
Q 2494 2394 2734 2622 
Q 2975 2850 2975 3272 
Q 2975 3691 2734 3919 
Q 2494 4147 2053 4147 
L 1259 4147 
z
M 628 4666 
L 2053 4666 
Q 2838 4666 3239 4311 
Q 3641 3956 3641 3272 
Q 3641 2581 3239 2228 
Q 2838 1875 2053 1875 
L 1259 1875 
L 1259 0 
L 628 0 
L 628 4666 
z
" transform="scale(0.015625)"/>
       <path id="DejaVuSans-44" d="M 1259 4147 
L 1259 519 
L 2022 519 
Q 2988 519 3436 956 
Q 3884 1394 3884 2338 
Q 3884 3275 3436 3711 
Q 2988 4147 2022 4147 
L 1259 4147 
z
M 628 4666 
L 1925 4666 
Q 3281 4666 3915 4102 
Q 4550 3538 4550 2338 
Q 4550 1131 3912 565 
Q 3275 0 1925 0 
L 628 0 
L 628 4666 
z
" transform="scale(0.015625)"/>
       <path id="DejaVuSans-4f" d="M 2522 4238 
Q 1834 4238 1429 3725 
Q 1025 3213 1025 2328 
Q 1025 1447 1429 934 
Q 1834 422 2522 422 
Q 3209 422 3611 934 
Q 4013 1447 4013 2328 
Q 4013 3213 3611 3725 
Q 3209 4238 2522 4238 
z
M 2522 4750 
Q 3503 4750 4090 4092 
Q 4678 3434 4678 2328 
Q 4678 1225 4090 567 
Q 3503 -91 2522 -91 
Q 1538 -91 948 565 
Q 359 1222 359 2328 
Q 359 3434 948 4092 
Q 1538 4750 2522 4750 
z
" transform="scale(0.015625)"/>
      </defs>
      <use xlink:href="#DejaVuSans-31"/>
      <use xlink:href="#DejaVuSans-2c" x="63.623047"/>
      <use xlink:href="#DejaVuSans-33" x="95.410156"/>
      <use xlink:href="#DejaVuSans-2d" x="159.033203"/>
      <use xlink:href="#DejaVuSans-50" x="195.117188"/>
      <use xlink:href="#DejaVuSans-44" x="255.419922"/>
      <use xlink:href="#DejaVuSans-4f" x="332.421875"/>
     </g>
    </g>
    <g id="line2d_40">
     <path d="M 56.81 272.713437 
L 66.81 272.713437 
L 76.81 272.713437 
" style="fill: none; stroke: #ff7f0e; stroke-width: 1.5; stroke-linecap: square"/>
    </g>
    <g id="text_20">
     <!-- Experiment 01 -->
     <g transform="translate(84.81 276.213437) scale(0.1 -0.1)">
      <defs>
       <path id="DejaVuSans-45" d="M 628 4666 
L 3578 4666 
L 3578 4134 
L 1259 4134 
L 1259 2753 
L 3481 2753 
L 3481 2222 
L 1259 2222 
L 1259 531 
L 3634 531 
L 3634 0 
L 628 0 
L 628 4666 
z
" transform="scale(0.015625)"/>
       <path id="DejaVuSans-78" d="M 3513 3500 
L 2247 1797 
L 3578 0 
L 2900 0 
L 1881 1375 
L 863 0 
L 184 0 
L 1544 1831 
L 300 3500 
L 978 3500 
L 1906 2253 
L 2834 3500 
L 3513 3500 
z
" transform="scale(0.015625)"/>
      </defs>
      <use xlink:href="#DejaVuSans-45"/>
      <use xlink:href="#DejaVuSans-78" x="63.183594"/>
      <use xlink:href="#DejaVuSans-70" x="122.363281"/>
      <use xlink:href="#DejaVuSans-65" x="185.839844"/>
      <use xlink:href="#DejaVuSans-72" x="247.363281"/>
      <use xlink:href="#DejaVuSans-69" x="288.476562"/>
      <use xlink:href="#DejaVuSans-6d" x="316.259766"/>
      <use xlink:href="#DejaVuSans-65" x="413.671875"/>
      <use xlink:href="#DejaVuSans-6e" x="475.195312"/>
      <use xlink:href="#DejaVuSans-74" x="538.574219"/>
      <use xlink:href="#DejaVuSans-20" x="577.783203"/>
      <use xlink:href="#DejaVuSans-30" x="609.570312"/>
      <use xlink:href="#DejaVuSans-31" x="673.193359"/>
     </g>
    </g>
    <g id="line2d_41">
     <path d="M 56.81 287.391563 
L 66.81 287.391563 
L 76.81 287.391563 
" style="fill: none; stroke: #2ca02c; stroke-width: 1.5; stroke-linecap: square"/>
    </g>
    <g id="text_21">
     <!-- Experiment 02 -->
     <g transform="translate(84.81 290.891563) scale(0.1 -0.1)">
      <use xlink:href="#DejaVuSans-45"/>
      <use xlink:href="#DejaVuSans-78" x="63.183594"/>
      <use xlink:href="#DejaVuSans-70" x="122.363281"/>
      <use xlink:href="#DejaVuSans-65" x="185.839844"/>
      <use xlink:href="#DejaVuSans-72" x="247.363281"/>
      <use xlink:href="#DejaVuSans-69" x="288.476562"/>
      <use xlink:href="#DejaVuSans-6d" x="316.259766"/>
      <use xlink:href="#DejaVuSans-65" x="413.671875"/>
      <use xlink:href="#DejaVuSans-6e" x="475.195312"/>
      <use xlink:href="#DejaVuSans-74" x="538.574219"/>
      <use xlink:href="#DejaVuSans-20" x="577.783203"/>
      <use xlink:href="#DejaVuSans-30" x="609.570312"/>
      <use xlink:href="#DejaVuSans-32" x="673.193359"/>
     </g>
    </g>
    <g id="line2d_42">
     <path d="M 56.81 302.069687 
L 66.81 302.069687 
L 76.81 302.069687 
" style="fill: none; stroke: #d62728; stroke-width: 1.5; stroke-linecap: square"/>
    </g>
    <g id="text_22">
     <!-- Experiment 03 -->
     <g transform="translate(84.81 305.569687) scale(0.1 -0.1)">
      <use xlink:href="#DejaVuSans-45"/>
      <use xlink:href="#DejaVuSans-78" x="63.183594"/>
      <use xlink:href="#DejaVuSans-70" x="122.363281"/>
      <use xlink:href="#DejaVuSans-65" x="185.839844"/>
      <use xlink:href="#DejaVuSans-72" x="247.363281"/>
      <use xlink:href="#DejaVuSans-69" x="288.476562"/>
      <use xlink:href="#DejaVuSans-6d" x="316.259766"/>
      <use xlink:href="#DejaVuSans-65" x="413.671875"/>
      <use xlink:href="#DejaVuSans-6e" x="475.195312"/>
      <use xlink:href="#DejaVuSans-74" x="538.574219"/>
      <use xlink:href="#DejaVuSans-20" x="577.783203"/>
      <use xlink:href="#DejaVuSans-30" x="609.570312"/>
      <use xlink:href="#DejaVuSans-33" x="673.193359"/>
     </g>
    </g>
    <g id="line2d_43">
     <path d="M 56.81 316.747813 
L 66.81 316.747813 
L 76.81 316.747813 
" style="fill: none; stroke: #9467bd; stroke-width: 1.5; stroke-linecap: square"/>
    </g>
    <g id="text_23">
     <!-- Experiment 04 -->
     <g transform="translate(84.81 320.247813) scale(0.1 -0.1)">
      <use xlink:href="#DejaVuSans-45"/>
      <use xlink:href="#DejaVuSans-78" x="63.183594"/>
      <use xlink:href="#DejaVuSans-70" x="122.363281"/>
      <use xlink:href="#DejaVuSans-65" x="185.839844"/>
      <use xlink:href="#DejaVuSans-72" x="247.363281"/>
      <use xlink:href="#DejaVuSans-69" x="288.476562"/>
      <use xlink:href="#DejaVuSans-6d" x="316.259766"/>
      <use xlink:href="#DejaVuSans-65" x="413.671875"/>
      <use xlink:href="#DejaVuSans-6e" x="475.195312"/>
      <use xlink:href="#DejaVuSans-74" x="538.574219"/>
      <use xlink:href="#DejaVuSans-20" x="577.783203"/>
      <use xlink:href="#DejaVuSans-30" x="609.570312"/>
      <use xlink:href="#DejaVuSans-34" x="673.193359"/>
     </g>
    </g>
    <g id="line2d_44">
     <path d="M 56.81 331.425938 
L 66.81 331.425938 
L 76.81 331.425938 
" style="fill: none; stroke: #8c564b; stroke-width: 1.5; stroke-linecap: square"/>
    </g>
    <g id="text_24">
     <!-- Experiment 05 -->
     <g transform="translate(84.81 334.925938) scale(0.1 -0.1)">
      <use xlink:href="#DejaVuSans-45"/>
      <use xlink:href="#DejaVuSans-78" x="63.183594"/>
      <use xlink:href="#DejaVuSans-70" x="122.363281"/>
      <use xlink:href="#DejaVuSans-65" x="185.839844"/>
      <use xlink:href="#DejaVuSans-72" x="247.363281"/>
      <use xlink:href="#DejaVuSans-69" x="288.476562"/>
      <use xlink:href="#DejaVuSans-6d" x="316.259766"/>
      <use xlink:href="#DejaVuSans-65" x="413.671875"/>
      <use xlink:href="#DejaVuSans-6e" x="475.195312"/>
      <use xlink:href="#DejaVuSans-74" x="538.574219"/>
      <use xlink:href="#DejaVuSans-20" x="577.783203"/>
      <use xlink:href="#DejaVuSans-30" x="609.570312"/>
      <use xlink:href="#DejaVuSans-35" x="673.193359"/>
     </g>
    </g>
    <g id="line2d_45">
     <path d="M 56.81 346.104062 
L 66.81 346.104062 
L 76.81 346.104062 
" style="fill: none; stroke: #e377c2; stroke-width: 1.5; stroke-linecap: square"/>
    </g>
    <g id="text_25">
     <!-- Experiment 06 -->
     <g transform="translate(84.81 349.604062) scale(0.1 -0.1)">
      <use xlink:href="#DejaVuSans-45"/>
      <use xlink:href="#DejaVuSans-78" x="63.183594"/>
      <use xlink:href="#DejaVuSans-70" x="122.363281"/>
      <use xlink:href="#DejaVuSans-65" x="185.839844"/>
      <use xlink:href="#DejaVuSans-72" x="247.363281"/>
      <use xlink:href="#DejaVuSans-69" x="288.476562"/>
      <use xlink:href="#DejaVuSans-6d" x="316.259766"/>
      <use xlink:href="#DejaVuSans-65" x="413.671875"/>
      <use xlink:href="#DejaVuSans-6e" x="475.195312"/>
      <use xlink:href="#DejaVuSans-74" x="538.574219"/>
      <use xlink:href="#DejaVuSans-20" x="577.783203"/>
      <use xlink:href="#DejaVuSans-30" x="609.570312"/>
      <use xlink:href="#DejaVuSans-36" x="673.193359"/>
     </g>
    </g>
    <g id="line2d_46">
     <path d="M 56.81 360.782187 
L 66.81 360.782187 
L 76.81 360.782187 
" style="fill: none; stroke: #7f7f7f; stroke-width: 1.5; stroke-linecap: square"/>
    </g>
    <g id="text_26">
     <!-- Experiment 07 -->
     <g transform="translate(84.81 364.282187) scale(0.1 -0.1)">
      <use xlink:href="#DejaVuSans-45"/>
      <use xlink:href="#DejaVuSans-78" x="63.183594"/>
      <use xlink:href="#DejaVuSans-70" x="122.363281"/>
      <use xlink:href="#DejaVuSans-65" x="185.839844"/>
      <use xlink:href="#DejaVuSans-72" x="247.363281"/>
      <use xlink:href="#DejaVuSans-69" x="288.476562"/>
      <use xlink:href="#DejaVuSans-6d" x="316.259766"/>
      <use xlink:href="#DejaVuSans-65" x="413.671875"/>
      <use xlink:href="#DejaVuSans-6e" x="475.195312"/>
      <use xlink:href="#DejaVuSans-74" x="538.574219"/>
      <use xlink:href="#DejaVuSans-20" x="577.783203"/>
      <use xlink:href="#DejaVuSans-30" x="609.570312"/>
      <use xlink:href="#DejaVuSans-37" x="673.193359"/>
     </g>
    </g>
    <g id="line2d_47">
     <path d="M 56.81 375.460312 
L 66.81 375.460312 
L 76.81 375.460312 
" style="fill: none; stroke: #bcbd22; stroke-width: 1.5; stroke-linecap: square"/>
    </g>
    <g id="text_27">
     <!-- Experiment 08 -->
     <g transform="translate(84.81 378.960312) scale(0.1 -0.1)">
      <use xlink:href="#DejaVuSans-45"/>
      <use xlink:href="#DejaVuSans-78" x="63.183594"/>
      <use xlink:href="#DejaVuSans-70" x="122.363281"/>
      <use xlink:href="#DejaVuSans-65" x="185.839844"/>
      <use xlink:href="#DejaVuSans-72" x="247.363281"/>
      <use xlink:href="#DejaVuSans-69" x="288.476562"/>
      <use xlink:href="#DejaVuSans-6d" x="316.259766"/>
      <use xlink:href="#DejaVuSans-65" x="413.671875"/>
      <use xlink:href="#DejaVuSans-6e" x="475.195312"/>
      <use xlink:href="#DejaVuSans-74" x="538.574219"/>
      <use xlink:href="#DejaVuSans-20" x="577.783203"/>
      <use xlink:href="#DejaVuSans-30" x="609.570312"/>
      <use xlink:href="#DejaVuSans-38" x="673.193359"/>
     </g>
    </g>
   </g>
  </g>
 </g>
 <defs>
  <clipPath id="p0198b04cfd">
   <rect x="47.81" y="25.44" width="661.39" height="364.6"/>
  </clipPath>
 </defs>
</svg>
