<?xml version="1.0" encoding="utf-8" standalone="no"?>
<!DOCTYPE svg PUBLIC "-//W3C//DTD SVG 1.1//EN"
  "http://www.w3.org/Graphics/SVG/1.1/DTD/svg11.dtd">
<svg xmlns:xlink="http://www.w3.org/1999/xlink" width="720pt" height="432pt" viewBox="0 0 720 432" xmlns="http://www.w3.org/2000/svg" version="1.1">
 <metadata>
  <rdf:RDF xmlns:dc="http://purl.org/dc/elements/1.1/" xmlns:cc="http://creativecommons.org/ns#" xmlns:rdf="http://www.w3.org/1999/02/22-rdf-syntax-ns#">
   <cc:Work>
    <dc:type rdf:resource="http://purl.org/dc/dcmitype/StillImage"/>
    <dc:date>2025-06-06T16:29:42.793563</dc:date>
    <dc:format>image/svg+xml</dc:format>
    <dc:creator>
     <cc:Agent>
      <dc:title>Matplotlib v3.9.2, https://matplotlib.org/</dc:title>
     </cc:Agent>
    </dc:creator>
   </cc:Work>
  </rdf:RDF>
 </metadata>
 <defs>
  <style type="text/css">*{stroke-linejoin: round; stroke-linecap: butt}</style>
 </defs>
 <g id="figure_1">
  <g id="patch_1">
   <path d="M 0 432 
L 720 432 
L 720 0 
L 0 0 
z
" style="fill: #ffffff"/>
  </g>
  <g id="axes_1">
   <g id="patch_2">
    <path d="M 47.81 390.04 
L 709.2 390.04 
L 709.2 25.44 
L 47.81 25.44 
z
" style="fill: #ffffff"/>
   </g>
   <g id="matplotlib.axis_1">
    <g id="xtick_1">
     <g id="line2d_1">
      <path d="M 679.177048 390.04 
L 679.177048 25.44 
" clip-path="url(#p5276bbfe01)" style="fill: none; stroke: #b0b0b0; stroke-width: 0.8; stroke-linecap: square"/>
     </g>
     <g id="line2d_2">
      <defs>
       <path id="m4bec99e660" d="M 0 0 
L 0 3.5 
" style="stroke: #000000; stroke-width: 0.8"/>
      </defs>
      <g>
       <use xlink:href="#m4bec99e660" x="679.177048" y="390.04" style="stroke: #000000; stroke-width: 0.8"/>
      </g>
     </g>
     <g id="text_1">
      <!-- 2600 -->
      <g transform="translate(666.452048 404.638438) scale(0.1 -0.1)">
       <defs>
        <path id="DejaVuSans-32" d="M 1228 531 
L 3431 531 
L 3431 0 
L 469 0 
L 469 531 
Q 828 903 1448 1529 
Q 2069 2156 2228 2338 
Q 2531 2678 2651 2914 
Q 2772 3150 2772 3378 
Q 2772 3750 2511 3984 
Q 2250 4219 1831 4219 
Q 1534 4219 1204 4116 
Q 875 4013 500 3803 
L 500 4441 
Q 881 4594 1212 4672 
Q 1544 4750 1819 4750 
Q 2544 4750 2975 4387 
Q 3406 4025 3406 3419 
Q 3406 3131 3298 2873 
Q 3191 2616 2906 2266 
Q 2828 2175 2409 1742 
Q 1991 1309 1228 531 
z
" transform="scale(0.015625)"/>
        <path id="DejaVuSans-36" d="M 2113 2584 
Q 1688 2584 1439 2293 
Q 1191 2003 1191 1497 
Q 1191 994 1439 701 
Q 1688 409 2113 409 
Q 2538 409 2786 701 
Q 3034 994 3034 1497 
Q 3034 2003 2786 2293 
Q 2538 2584 2113 2584 
z
M 3366 4563 
L 3366 3988 
Q 3128 4100 2886 4159 
Q 2644 4219 2406 4219 
Q 1781 4219 1451 3797 
Q 1122 3375 1075 2522 
Q 1259 2794 1537 2939 
Q 1816 3084 2150 3084 
Q 2853 3084 3261 2657 
Q 3669 2231 3669 1497 
Q 3669 778 3244 343 
Q 2819 -91 2113 -91 
Q 1303 -91 875 529 
Q 447 1150 447 2328 
Q 447 3434 972 4092 
Q 1497 4750 2381 4750 
Q 2619 4750 2861 4703 
Q 3103 4656 3366 4563 
z
" transform="scale(0.015625)"/>
        <path id="DejaVuSans-30" d="M 2034 4250 
Q 1547 4250 1301 3770 
Q 1056 3291 1056 2328 
Q 1056 1369 1301 889 
Q 1547 409 2034 409 
Q 2525 409 2770 889 
Q 3016 1369 3016 2328 
Q 3016 3291 2770 3770 
Q 2525 4250 2034 4250 
z
M 2034 4750 
Q 2819 4750 3233 4129 
Q 3647 3509 3647 2328 
Q 3647 1150 3233 529 
Q 2819 -91 2034 -91 
Q 1250 -91 836 529 
Q 422 1150 422 2328 
Q 422 3509 836 4129 
Q 1250 4750 2034 4750 
z
" transform="scale(0.015625)"/>
       </defs>
       <use xlink:href="#DejaVuSans-32"/>
       <use xlink:href="#DejaVuSans-36" x="63.623047"/>
       <use xlink:href="#DejaVuSans-30" x="127.246094"/>
       <use xlink:href="#DejaVuSans-30" x="190.869141"/>
      </g>
     </g>
    </g>
    <g id="xtick_2">
     <g id="line2d_3">
      <path d="M 569.647284 390.04 
L 569.647284 25.44 
" clip-path="url(#p5276bbfe01)" style="fill: none; stroke: #b0b0b0; stroke-width: 0.8; stroke-linecap: square"/>
     </g>
     <g id="line2d_4">
      <g>
       <use xlink:href="#m4bec99e660" x="569.647284" y="390.04" style="stroke: #000000; stroke-width: 0.8"/>
      </g>
     </g>
     <g id="text_2">
      <!-- 2800 -->
      <g transform="translate(556.922284 404.638438) scale(0.1 -0.1)">
       <defs>
        <path id="DejaVuSans-38" d="M 2034 2216 
Q 1584 2216 1326 1975 
Q 1069 1734 1069 1313 
Q 1069 891 1326 650 
Q 1584 409 2034 409 
Q 2484 409 2743 651 
Q 3003 894 3003 1313 
Q 3003 1734 2745 1975 
Q 2488 2216 2034 2216 
z
M 1403 2484 
Q 997 2584 770 2862 
Q 544 3141 544 3541 
Q 544 4100 942 4425 
Q 1341 4750 2034 4750 
Q 2731 4750 3128 4425 
Q 3525 4100 3525 3541 
Q 3525 3141 3298 2862 
Q 3072 2584 2669 2484 
Q 3125 2378 3379 2068 
Q 3634 1759 3634 1313 
Q 3634 634 3220 271 
Q 2806 -91 2034 -91 
Q 1263 -91 848 271 
Q 434 634 434 1313 
Q 434 1759 690 2068 
Q 947 2378 1403 2484 
z
M 1172 3481 
Q 1172 3119 1398 2916 
Q 1625 2713 2034 2713 
Q 2441 2713 2670 2916 
Q 2900 3119 2900 3481 
Q 2900 3844 2670 4047 
Q 2441 4250 2034 4250 
Q 1625 4250 1398 4047 
Q 1172 3844 1172 3481 
z
" transform="scale(0.015625)"/>
       </defs>
       <use xlink:href="#DejaVuSans-32"/>
       <use xlink:href="#DejaVuSans-38" x="63.623047"/>
       <use xlink:href="#DejaVuSans-30" x="127.246094"/>
       <use xlink:href="#DejaVuSans-30" x="190.869141"/>
      </g>
     </g>
    </g>
    <g id="xtick_3">
     <g id="line2d_5">
      <path d="M 460.11752 390.04 
L 460.11752 25.44 
" clip-path="url(#p5276bbfe01)" style="fill: none; stroke: #b0b0b0; stroke-width: 0.8; stroke-linecap: square"/>
     </g>
     <g id="line2d_6">
      <g>
       <use xlink:href="#m4bec99e660" x="460.11752" y="390.04" style="stroke: #000000; stroke-width: 0.8"/>
      </g>
     </g>
     <g id="text_3">
      <!-- 3000 -->
      <g transform="translate(447.39252 404.638438) scale(0.1 -0.1)">
       <defs>
        <path id="DejaVuSans-33" d="M 2597 2516 
Q 3050 2419 3304 2112 
Q 3559 1806 3559 1356 
Q 3559 666 3084 287 
Q 2609 -91 1734 -91 
Q 1441 -91 1130 -33 
Q 819 25 488 141 
L 488 750 
Q 750 597 1062 519 
Q 1375 441 1716 441 
Q 2309 441 2620 675 
Q 2931 909 2931 1356 
Q 2931 1769 2642 2001 
Q 2353 2234 1838 2234 
L 1294 2234 
L 1294 2753 
L 1863 2753 
Q 2328 2753 2575 2939 
Q 2822 3125 2822 3475 
Q 2822 3834 2567 4026 
Q 2313 4219 1838 4219 
Q 1578 4219 1281 4162 
Q 984 4106 628 3988 
L 628 4550 
Q 988 4650 1302 4700 
Q 1616 4750 1894 4750 
Q 2613 4750 3031 4423 
Q 3450 4097 3450 3541 
Q 3450 3153 3228 2886 
Q 3006 2619 2597 2516 
z
" transform="scale(0.015625)"/>
       </defs>
       <use xlink:href="#DejaVuSans-33"/>
       <use xlink:href="#DejaVuSans-30" x="63.623047"/>
       <use xlink:href="#DejaVuSans-30" x="127.246094"/>
       <use xlink:href="#DejaVuSans-30" x="190.869141"/>
      </g>
     </g>
    </g>
    <g id="xtick_4">
     <g id="line2d_7">
      <path d="M 350.587755 390.04 
L 350.587755 25.44 
" clip-path="url(#p5276bbfe01)" style="fill: none; stroke: #b0b0b0; stroke-width: 0.8; stroke-linecap: square"/>
     </g>
     <g id="line2d_8">
      <g>
       <use xlink:href="#m4bec99e660" x="350.587755" y="390.04" style="stroke: #000000; stroke-width: 0.8"/>
      </g>
     </g>
     <g id="text_4">
      <!-- 3200 -->
      <g transform="translate(337.862755 404.638438) scale(0.1 -0.1)">
       <use xlink:href="#DejaVuSans-33"/>
       <use xlink:href="#DejaVuSans-32" x="63.623047"/>
       <use xlink:href="#DejaVuSans-30" x="127.246094"/>
       <use xlink:href="#DejaVuSans-30" x="190.869141"/>
      </g>
     </g>
    </g>
    <g id="xtick_5">
     <g id="line2d_9">
      <path d="M 241.057991 390.04 
L 241.057991 25.44 
" clip-path="url(#p5276bbfe01)" style="fill: none; stroke: #b0b0b0; stroke-width: 0.8; stroke-linecap: square"/>
     </g>
     <g id="line2d_10">
      <g>
       <use xlink:href="#m4bec99e660" x="241.057991" y="390.04" style="stroke: #000000; stroke-width: 0.8"/>
      </g>
     </g>
     <g id="text_5">
      <!-- 3400 -->
      <g transform="translate(228.332991 404.638438) scale(0.1 -0.1)">
       <defs>
        <path id="DejaVuSans-34" d="M 2419 4116 
L 825 1625 
L 2419 1625 
L 2419 4116 
z
M 2253 4666 
L 3047 4666 
L 3047 1625 
L 3713 1625 
L 3713 1100 
L 3047 1100 
L 3047 0 
L 2419 0 
L 2419 1100 
L 313 1100 
L 313 1709 
L 2253 4666 
z
" transform="scale(0.015625)"/>
       </defs>
       <use xlink:href="#DejaVuSans-33"/>
       <use xlink:href="#DejaVuSans-34" x="63.623047"/>
       <use xlink:href="#DejaVuSans-30" x="127.246094"/>
       <use xlink:href="#DejaVuSans-30" x="190.869141"/>
      </g>
     </g>
    </g>
    <g id="xtick_6">
     <g id="line2d_11">
      <path d="M 131.528226 390.04 
L 131.528226 25.44 
" clip-path="url(#p5276bbfe01)" style="fill: none; stroke: #b0b0b0; stroke-width: 0.8; stroke-linecap: square"/>
     </g>
     <g id="line2d_12">
      <g>
       <use xlink:href="#m4bec99e660" x="131.528226" y="390.04" style="stroke: #000000; stroke-width: 0.8"/>
      </g>
     </g>
     <g id="text_6">
      <!-- 3600 -->
      <g transform="translate(118.803226 404.638438) scale(0.1 -0.1)">
       <use xlink:href="#DejaVuSans-33"/>
       <use xlink:href="#DejaVuSans-36" x="63.623047"/>
       <use xlink:href="#DejaVuSans-30" x="127.246094"/>
       <use xlink:href="#DejaVuSans-30" x="190.869141"/>
      </g>
     </g>
    </g>
    <g id="text_7">
     <!-- Wavenumber (cm⁻¹) -->
     <g transform="translate(327.512031 418.316562) scale(0.1 -0.1)">
      <defs>
       <path id="DejaVuSans-57" d="M 213 4666 
L 850 4666 
L 1831 722 
L 2809 4666 
L 3519 4666 
L 4500 722 
L 5478 4666 
L 6119 4666 
L 4947 0 
L 4153 0 
L 3169 4050 
L 2175 0 
L 1381 0 
L 213 4666 
z
" transform="scale(0.015625)"/>
       <path id="DejaVuSans-61" d="M 2194 1759 
Q 1497 1759 1228 1600 
Q 959 1441 959 1056 
Q 959 750 1161 570 
Q 1363 391 1709 391 
Q 2188 391 2477 730 
Q 2766 1069 2766 1631 
L 2766 1759 
L 2194 1759 
z
M 3341 1997 
L 3341 0 
L 2766 0 
L 2766 531 
Q 2569 213 2275 61 
Q 1981 -91 1556 -91 
Q 1019 -91 701 211 
Q 384 513 384 1019 
Q 384 1609 779 1909 
Q 1175 2209 1959 2209 
L 2766 2209 
L 2766 2266 
Q 2766 2663 2505 2880 
Q 2244 3097 1772 3097 
Q 1472 3097 1187 3025 
Q 903 2953 641 2809 
L 641 3341 
Q 956 3463 1253 3523 
Q 1550 3584 1831 3584 
Q 2591 3584 2966 3190 
Q 3341 2797 3341 1997 
z
" transform="scale(0.015625)"/>
       <path id="DejaVuSans-76" d="M 191 3500 
L 800 3500 
L 1894 563 
L 2988 3500 
L 3597 3500 
L 2284 0 
L 1503 0 
L 191 3500 
z
" transform="scale(0.015625)"/>
       <path id="DejaVuSans-65" d="M 3597 1894 
L 3597 1613 
L 953 1613 
Q 991 1019 1311 708 
Q 1631 397 2203 397 
Q 2534 397 2845 478 
Q 3156 559 3463 722 
L 3463 178 
Q 3153 47 2828 -22 
Q 2503 -91 2169 -91 
Q 1331 -91 842 396 
Q 353 884 353 1716 
Q 353 2575 817 3079 
Q 1281 3584 2069 3584 
Q 2775 3584 3186 3129 
Q 3597 2675 3597 1894 
z
M 3022 2063 
Q 3016 2534 2758 2815 
Q 2500 3097 2075 3097 
Q 1594 3097 1305 2825 
Q 1016 2553 972 2059 
L 3022 2063 
z
" transform="scale(0.015625)"/>
       <path id="DejaVuSans-6e" d="M 3513 2113 
L 3513 0 
L 2938 0 
L 2938 2094 
Q 2938 2591 2744 2837 
Q 2550 3084 2163 3084 
Q 1697 3084 1428 2787 
Q 1159 2491 1159 1978 
L 1159 0 
L 581 0 
L 581 3500 
L 1159 3500 
L 1159 2956 
Q 1366 3272 1645 3428 
Q 1925 3584 2291 3584 
Q 2894 3584 3203 3211 
Q 3513 2838 3513 2113 
z
" transform="scale(0.015625)"/>
       <path id="DejaVuSans-75" d="M 544 1381 
L 544 3500 
L 1119 3500 
L 1119 1403 
Q 1119 906 1312 657 
Q 1506 409 1894 409 
Q 2359 409 2629 706 
Q 2900 1003 2900 1516 
L 2900 3500 
L 3475 3500 
L 3475 0 
L 2900 0 
L 2900 538 
Q 2691 219 2414 64 
Q 2138 -91 1772 -91 
Q 1169 -91 856 284 
Q 544 659 544 1381 
z
M 1991 3584 
L 1991 3584 
z
" transform="scale(0.015625)"/>
       <path id="DejaVuSans-6d" d="M 3328 2828 
Q 3544 3216 3844 3400 
Q 4144 3584 4550 3584 
Q 5097 3584 5394 3201 
Q 5691 2819 5691 2113 
L 5691 0 
L 5113 0 
L 5113 2094 
Q 5113 2597 4934 2840 
Q 4756 3084 4391 3084 
Q 3944 3084 3684 2787 
Q 3425 2491 3425 1978 
L 3425 0 
L 2847 0 
L 2847 2094 
Q 2847 2600 2669 2842 
Q 2491 3084 2119 3084 
Q 1678 3084 1418 2786 
Q 1159 2488 1159 1978 
L 1159 0 
L 581 0 
L 581 3500 
L 1159 3500 
L 1159 2956 
Q 1356 3278 1631 3431 
Q 1906 3584 2284 3584 
Q 2666 3584 2933 3390 
Q 3200 3197 3328 2828 
z
" transform="scale(0.015625)"/>
       <path id="DejaVuSans-62" d="M 3116 1747 
Q 3116 2381 2855 2742 
Q 2594 3103 2138 3103 
Q 1681 3103 1420 2742 
Q 1159 2381 1159 1747 
Q 1159 1113 1420 752 
Q 1681 391 2138 391 
Q 2594 391 2855 752 
Q 3116 1113 3116 1747 
z
M 1159 2969 
Q 1341 3281 1617 3432 
Q 1894 3584 2278 3584 
Q 2916 3584 3314 3078 
Q 3713 2572 3713 1747 
Q 3713 922 3314 415 
Q 2916 -91 2278 -91 
Q 1894 -91 1617 61 
Q 1341 213 1159 525 
L 1159 0 
L 581 0 
L 581 4863 
L 1159 4863 
L 1159 2969 
z
" transform="scale(0.015625)"/>
       <path id="DejaVuSans-72" d="M 2631 2963 
Q 2534 3019 2420 3045 
Q 2306 3072 2169 3072 
Q 1681 3072 1420 2755 
Q 1159 2438 1159 1844 
L 1159 0 
L 581 0 
L 581 3500 
L 1159 3500 
L 1159 2956 
Q 1341 3275 1631 3429 
Q 1922 3584 2338 3584 
Q 2397 3584 2469 3576 
Q 2541 3569 2628 3553 
L 2631 2963 
z
" transform="scale(0.015625)"/>
       <path id="DejaVuSans-20" transform="scale(0.015625)"/>
       <path id="DejaVuSans-28" d="M 1984 4856 
Q 1566 4138 1362 3434 
Q 1159 2731 1159 2009 
Q 1159 1288 1364 580 
Q 1569 -128 1984 -844 
L 1484 -844 
Q 1016 -109 783 600 
Q 550 1309 550 2009 
Q 550 2706 781 3412 
Q 1013 4119 1484 4856 
L 1984 4856 
z
" transform="scale(0.015625)"/>
       <path id="DejaVuSans-63" d="M 3122 3366 
L 3122 2828 
Q 2878 2963 2633 3030 
Q 2388 3097 2138 3097 
Q 1578 3097 1268 2742 
Q 959 2388 959 1747 
Q 959 1106 1268 751 
Q 1578 397 2138 397 
Q 2388 397 2633 464 
Q 2878 531 3122 666 
L 3122 134 
Q 2881 22 2623 -34 
Q 2366 -91 2075 -91 
Q 1284 -91 818 406 
Q 353 903 353 1747 
Q 353 2603 823 3093 
Q 1294 3584 2113 3584 
Q 2378 3584 2631 3529 
Q 2884 3475 3122 3366 
z
" transform="scale(0.015625)"/>
       <path id="DejaVuSans-207b" d="M 428 3359 
L 2950 3359 
L 2950 3063 
L 428 3063 
L 428 3359 
z
" transform="scale(0.015625)"/>
       <path id="DejaVuSans-b9" d="M 488 2431 
L 1125 2431 
L 1125 4341 
L 428 4213 
L 428 4575 
L 1147 4697 
L 1575 4697 
L 1575 2431 
L 2216 2431 
L 2216 2088 
L 488 2088 
L 488 2431 
z
" transform="scale(0.015625)"/>
       <path id="DejaVuSans-29" d="M 513 4856 
L 1013 4856 
Q 1481 4119 1714 3412 
Q 1947 2706 1947 2009 
Q 1947 1309 1714 600 
Q 1481 -109 1013 -844 
L 513 -844 
Q 928 -128 1133 580 
Q 1338 1288 1338 2009 
Q 1338 2731 1133 3434 
Q 928 4138 513 4856 
z
" transform="scale(0.015625)"/>
      </defs>
      <use xlink:href="#DejaVuSans-57"/>
      <use xlink:href="#DejaVuSans-61" x="92.501953"/>
      <use xlink:href="#DejaVuSans-76" x="153.78125"/>
      <use xlink:href="#DejaVuSans-65" x="212.960938"/>
      <use xlink:href="#DejaVuSans-6e" x="274.484375"/>
      <use xlink:href="#DejaVuSans-75" x="337.863281"/>
      <use xlink:href="#DejaVuSans-6d" x="401.242188"/>
      <use xlink:href="#DejaVuSans-62" x="498.654297"/>
      <use xlink:href="#DejaVuSans-65" x="562.130859"/>
      <use xlink:href="#DejaVuSans-72" x="623.654297"/>
      <use xlink:href="#DejaVuSans-20" x="664.767578"/>
      <use xlink:href="#DejaVuSans-28" x="696.554688"/>
      <use xlink:href="#DejaVuSans-63" x="735.568359"/>
      <use xlink:href="#DejaVuSans-6d" x="790.548828"/>
      <use xlink:href="#DejaVuSans-207b" x="887.960938"/>
      <use xlink:href="#DejaVuSans-b9" x="940.744141"/>
      <use xlink:href="#DejaVuSans-29" x="980.832031"/>
     </g>
    </g>
   </g>
   <g id="matplotlib.axis_2">
    <g id="ytick_1">
     <g id="line2d_13">
      <path d="M 47.81 364.067912 
L 709.2 364.067912 
" clip-path="url(#p5276bbfe01)" style="fill: none; stroke: #b0b0b0; stroke-width: 0.8; stroke-linecap: square"/>
     </g>
     <g id="line2d_14">
      <defs>
       <path id="me057fe3066" d="M 0 0 
L -3.5 0 
" style="stroke: #000000; stroke-width: 0.8"/>
      </defs>
      <g>
       <use xlink:href="#me057fe3066" x="47.81" y="364.067912" style="stroke: #000000; stroke-width: 0.8"/>
      </g>
     </g>
     <g id="text_8">
      <!-- 0.6 -->
      <g transform="translate(24.906875 367.867131) scale(0.1 -0.1)">
       <defs>
        <path id="DejaVuSans-2e" d="M 684 794 
L 1344 794 
L 1344 0 
L 684 0 
L 684 794 
z
" transform="scale(0.015625)"/>
       </defs>
       <use xlink:href="#DejaVuSans-30"/>
       <use xlink:href="#DejaVuSans-2e" x="63.623047"/>
       <use xlink:href="#DejaVuSans-36" x="95.410156"/>
      </g>
     </g>
    </g>
    <g id="ytick_2">
     <g id="line2d_15">
      <path d="M 47.81 283.386702 
L 709.2 283.386702 
" clip-path="url(#p5276bbfe01)" style="fill: none; stroke: #b0b0b0; stroke-width: 0.8; stroke-linecap: square"/>
     </g>
     <g id="line2d_16">
      <g>
       <use xlink:href="#me057fe3066" x="47.81" y="283.386702" style="stroke: #000000; stroke-width: 0.8"/>
      </g>
     </g>
     <g id="text_9">
      <!-- 0.7 -->
      <g transform="translate(24.906875 287.185921) scale(0.1 -0.1)">
       <defs>
        <path id="DejaVuSans-37" d="M 525 4666 
L 3525 4666 
L 3525 4397 
L 1831 0 
L 1172 0 
L 2766 4134 
L 525 4134 
L 525 4666 
z
" transform="scale(0.015625)"/>
       </defs>
       <use xlink:href="#DejaVuSans-30"/>
       <use xlink:href="#DejaVuSans-2e" x="63.623047"/>
       <use xlink:href="#DejaVuSans-37" x="95.410156"/>
      </g>
     </g>
    </g>
    <g id="ytick_3">
     <g id="line2d_17">
      <path d="M 47.81 202.705493 
L 709.2 202.705493 
" clip-path="url(#p5276bbfe01)" style="fill: none; stroke: #b0b0b0; stroke-width: 0.8; stroke-linecap: square"/>
     </g>
     <g id="line2d_18">
      <g>
       <use xlink:href="#me057fe3066" x="47.81" y="202.705493" style="stroke: #000000; stroke-width: 0.8"/>
      </g>
     </g>
     <g id="text_10">
      <!-- 0.8 -->
      <g transform="translate(24.906875 206.504711) scale(0.1 -0.1)">
       <use xlink:href="#DejaVuSans-30"/>
       <use xlink:href="#DejaVuSans-2e" x="63.623047"/>
       <use xlink:href="#DejaVuSans-38" x="95.410156"/>
      </g>
     </g>
    </g>
    <g id="ytick_4">
     <g id="line2d_19">
      <path d="M 47.81 122.024283 
L 709.2 122.024283 
" clip-path="url(#p5276bbfe01)" style="fill: none; stroke: #b0b0b0; stroke-width: 0.8; stroke-linecap: square"/>
     </g>
     <g id="line2d_20">
      <g>
       <use xlink:href="#me057fe3066" x="47.81" y="122.024283" style="stroke: #000000; stroke-width: 0.8"/>
      </g>
     </g>
     <g id="text_11">
      <!-- 0.9 -->
      <g transform="translate(24.906875 125.823502) scale(0.1 -0.1)">
       <defs>
        <path id="DejaVuSans-39" d="M 703 97 
L 703 672 
Q 941 559 1184 500 
Q 1428 441 1663 441 
Q 2288 441 2617 861 
Q 2947 1281 2994 2138 
Q 2813 1869 2534 1725 
Q 2256 1581 1919 1581 
Q 1219 1581 811 2004 
Q 403 2428 403 3163 
Q 403 3881 828 4315 
Q 1253 4750 1959 4750 
Q 2769 4750 3195 4129 
Q 3622 3509 3622 2328 
Q 3622 1225 3098 567 
Q 2575 -91 1691 -91 
Q 1453 -91 1209 -44 
Q 966 3 703 97 
z
M 1959 2075 
Q 2384 2075 2632 2365 
Q 2881 2656 2881 3163 
Q 2881 3666 2632 3958 
Q 2384 4250 1959 4250 
Q 1534 4250 1286 3958 
Q 1038 3666 1038 3163 
Q 1038 2656 1286 2365 
Q 1534 2075 1959 2075 
z
" transform="scale(0.015625)"/>
       </defs>
       <use xlink:href="#DejaVuSans-30"/>
       <use xlink:href="#DejaVuSans-2e" x="63.623047"/>
       <use xlink:href="#DejaVuSans-39" x="95.410156"/>
      </g>
     </g>
    </g>
    <g id="ytick_5">
     <g id="line2d_21">
      <path d="M 47.81 41.343073 
L 709.2 41.343073 
" clip-path="url(#p5276bbfe01)" style="fill: none; stroke: #b0b0b0; stroke-width: 0.8; stroke-linecap: square"/>
     </g>
     <g id="line2d_22">
      <g>
       <use xlink:href="#me057fe3066" x="47.81" y="41.343073" style="stroke: #000000; stroke-width: 0.8"/>
      </g>
     </g>
     <g id="text_12">
      <!-- 1.0 -->
      <g transform="translate(24.906875 45.142292) scale(0.1 -0.1)">
       <defs>
        <path id="DejaVuSans-31" d="M 794 531 
L 1825 531 
L 1825 4091 
L 703 3866 
L 703 4441 
L 1819 4666 
L 2450 4666 
L 2450 531 
L 3481 531 
L 3481 0 
L 794 0 
L 794 531 
z
" transform="scale(0.015625)"/>
       </defs>
       <use xlink:href="#DejaVuSans-31"/>
       <use xlink:href="#DejaVuSans-2e" x="63.623047"/>
       <use xlink:href="#DejaVuSans-30" x="95.410156"/>
      </g>
     </g>
    </g>
    <g id="text_13">
     <!-- Intensity -->
     <g transform="translate(18.827187 229.5025) rotate(-90) scale(0.1 -0.1)">
      <defs>
       <path id="DejaVuSans-49" d="M 628 4666 
L 1259 4666 
L 1259 0 
L 628 0 
L 628 4666 
z
" transform="scale(0.015625)"/>
       <path id="DejaVuSans-74" d="M 1172 4494 
L 1172 3500 
L 2356 3500 
L 2356 3053 
L 1172 3053 
L 1172 1153 
Q 1172 725 1289 603 
Q 1406 481 1766 481 
L 2356 481 
L 2356 0 
L 1766 0 
Q 1100 0 847 248 
Q 594 497 594 1153 
L 594 3053 
L 172 3053 
L 172 3500 
L 594 3500 
L 594 4494 
L 1172 4494 
z
" transform="scale(0.015625)"/>
       <path id="DejaVuSans-73" d="M 2834 3397 
L 2834 2853 
Q 2591 2978 2328 3040 
Q 2066 3103 1784 3103 
Q 1356 3103 1142 2972 
Q 928 2841 928 2578 
Q 928 2378 1081 2264 
Q 1234 2150 1697 2047 
L 1894 2003 
Q 2506 1872 2764 1633 
Q 3022 1394 3022 966 
Q 3022 478 2636 193 
Q 2250 -91 1575 -91 
Q 1294 -91 989 -36 
Q 684 19 347 128 
L 347 722 
Q 666 556 975 473 
Q 1284 391 1588 391 
Q 1994 391 2212 530 
Q 2431 669 2431 922 
Q 2431 1156 2273 1281 
Q 2116 1406 1581 1522 
L 1381 1569 
Q 847 1681 609 1914 
Q 372 2147 372 2553 
Q 372 3047 722 3315 
Q 1072 3584 1716 3584 
Q 2034 3584 2315 3537 
Q 2597 3491 2834 3397 
z
" transform="scale(0.015625)"/>
       <path id="DejaVuSans-69" d="M 603 3500 
L 1178 3500 
L 1178 0 
L 603 0 
L 603 3500 
z
M 603 4863 
L 1178 4863 
L 1178 4134 
L 603 4134 
L 603 4863 
z
" transform="scale(0.015625)"/>
       <path id="DejaVuSans-79" d="M 2059 -325 
Q 1816 -950 1584 -1140 
Q 1353 -1331 966 -1331 
L 506 -1331 
L 506 -850 
L 844 -850 
Q 1081 -850 1212 -737 
Q 1344 -625 1503 -206 
L 1606 56 
L 191 3500 
L 800 3500 
L 1894 763 
L 2988 3500 
L 3597 3500 
L 2059 -325 
z
" transform="scale(0.015625)"/>
      </defs>
      <use xlink:href="#DejaVuSans-49"/>
      <use xlink:href="#DejaVuSans-6e" x="29.492188"/>
      <use xlink:href="#DejaVuSans-74" x="92.871094"/>
      <use xlink:href="#DejaVuSans-65" x="132.080078"/>
      <use xlink:href="#DejaVuSans-6e" x="193.603516"/>
      <use xlink:href="#DejaVuSans-73" x="256.982422"/>
      <use xlink:href="#DejaVuSans-69" x="309.082031"/>
      <use xlink:href="#DejaVuSans-74" x="336.865234"/>
      <use xlink:href="#DejaVuSans-79" x="376.074219"/>
     </g>
    </g>
   </g>
   <g id="line2d_23">
    <path d="M 77.873182 42.238635 
L 78.997034 42.746926 
L 80.120891 42.940561 
L 86.864037 42.851812 
L 87.987894 42.674313 
L 89.111752 42.650109 
L 91.359467 43.239082 
L 92.483324 43.28749 
L 93.607182 42.940561 
L 94.731039 42.440338 
L 95.854897 42.375793 
L 98.102612 42.835676 
L 99.226469 42.972834 
L 101.474184 43.448853 
L 102.598037 43.650556 
L 104.845752 45.046341 
L 105.969609 45.086681 
L 107.093467 44.884978 
L 108.217324 44.868842 
L 109.341182 45.038273 
L 113.836612 46.272695 
L 116.084327 47.095643 
L 118.332042 47.176325 
L 119.455899 47.321551 
L 120.579757 47.612003 
L 121.703615 48.346202 
L 122.827472 49.314377 
L 123.95133 50.088916 
L 126.199045 51.226521 
L 127.322897 51.952652 
L 130.694469 53.138666 
L 134.066042 54.88138 
L 137.437614 57.229203 
L 138.561472 58.181242 
L 140.809187 59.496345 
L 141.933045 60.456452 
L 145.304617 64.079038 
L 146.428475 65.01494 
L 152.047757 70.840123 
L 154.295472 73.325105 
L 155.41933 74.430437 
L 156.543187 75.810086 
L 158.790902 79.134152 
L 159.91476 80.707435 
L 161.038617 82.579239 
L 162.162475 84.200932 
L 163.286332 85.330469 
L 164.41019 86.621368 
L 165.534047 88.493172 
L 167.781762 92.841889 
L 171.153335 98.739686 
L 173.40105 102.273523 
L 175.64876 107.114395 
L 176.772617 109.615513 
L 179.020332 113.770595 
L 180.14419 115.924783 
L 182.391905 120.773724 
L 184.63962 125.138578 
L 186.887335 130.294107 
L 189.13505 135.594862 
L 192.506623 143.130487 
L 199.249762 160.146154 
L 203.745192 171.925611 
L 205.992907 177.436138 
L 213.85991 198.953816 
L 216.107625 205.117861 
L 219.479198 214.767333 
L 236.337055 260.328012 
L 241.956343 275.141083 
L 245.327916 284.177378 
L 252.071055 301.652928 
L 255.442628 310.681155 
L 258.8142 318.6928 
L 261.061915 324.300144 
L 270.052776 343.720111 
L 272.300485 347.867125 
L 276.795915 355.394682 
L 279.04363 358.718748 
L 283.539061 364.656885 
L 284.662918 366.084942 
L 285.786776 367.198343 
L 286.910633 368.005155 
L 290.282206 370.08673 
L 291.406063 370.925815 
L 292.529921 371.563196 
L 295.901488 372.975117 
L 297.025345 373.209093 
L 299.273061 373.362387 
L 302.644633 373.402728 
L 304.892348 373.039662 
L 306.016206 372.716937 
L 307.140063 372.200578 
L 310.511636 369.852755 
L 315.007066 366.657779 
L 316.130923 365.70574 
L 318.378633 363.091669 
L 320.626348 360.106464 
L 323.997921 355.435022 
L 328.493351 348.31894 
L 334.112639 337.717429 
L 338.608069 328.31 
L 343.103493 317.119516 
L 345.351208 311.124902 
L 347.598923 304.99313 
L 349.846638 299.095334 
L 361.085214 265.838539 
L 365.580644 252.469663 
L 368.952211 242.674964 
L 372.323784 232.210611 
L 374.571499 225.47373 
L 381.314644 206.658872 
L 383.562359 200.519032 
L 392.553214 178.170337 
L 397.048644 167.407463 
L 398.172501 165.180662 
L 399.296359 163.21204 
L 401.544074 158.580939 
L 404.915646 151.787581 
L 407.163362 147.608294 
L 412.782649 137.619961 
L 415.030359 134.320099 
L 421.773504 124.678695 
L 429.640507 115.335811 
L 431.888222 113.0606 
L 434.135937 110.736982 
L 437.507509 107.945412 
L 439.755219 106.073608 
L 440.879077 105.089297 
L 442.002934 104.322825 
L 444.250649 103.007722 
L 445.374507 102.297727 
L 447.622222 101.111713 
L 449.869937 99.723997 
L 450.993794 99.377067 
L 457.736939 98.820367 
L 459.984655 99.264114 
L 461.108512 99.788541 
L 462.232364 100.772852 
L 463.356222 102.031479 
L 464.480079 103.540218 
L 465.603937 105.629861 
L 466.727794 108.373022 
L 467.851652 111.793905 
L 468.975509 116.053873 
L 470.099367 121.273948 
L 471.223224 127.494469 
L 472.347082 134.779982 
L 474.594797 152.158715 
L 482.4618 218.422192 
L 486.957224 254.139764 
L 488.081082 261.804479 
L 489.204939 268.234771 
L 490.328797 272.752919 
L 491.452654 275.052333 
L 492.576512 275.455739 
L 493.700369 274.511769 
L 494.824227 272.841668 
L 495.948085 270.961796 
L 497.071942 268.726926 
L 498.1958 265.741722 
L 499.319657 261.981977 
L 501.567372 253.12318 
L 504.938945 238.842606 
L 506.062802 235.034453 
L 507.18666 232.033112 
L 508.310517 229.50779 
L 509.434375 227.329398 
L 510.558227 225.699637 
L 511.682084 224.755667 
L 512.805942 224.618509 
L 513.9298 225.618956 
L 515.053657 228.079733 
L 516.177515 231.968567 
L 517.301372 237.091824 
L 518.42523 243.255868 
L 521.796802 263.958667 
L 522.92066 269.574079 
L 524.044517 273.680753 
L 525.168375 275.899486 
L 526.292232 276.044712 
L 527.41609 274.390747 
L 528.539947 271.397474 
L 529.663805 267.282733 
L 530.787663 262.102999 
L 533.035378 249.613548 
L 535.283087 236.099445 
L 536.406945 230.064491 
L 538.65466 219.97934 
L 542.026232 206.005354 
L 544.273947 195.637819 
L 546.521662 185.19767 
L 548.769378 176.145238 
L 551.017093 168.351433 
L 553.264808 161.428986 
L 555.512523 155.030966 
L 558.88409 144.840929 
L 562.255662 135.780429 
L 564.503377 130.245698 
L 566.751093 125.420962 
L 568.998808 120.935087 
L 570.122665 118.958397 
L 572.37038 115.674672 
L 574.618095 113.004124 
L 576.86581 110.414257 
L 577.989668 109.058812 
L 579.113525 107.929276 
L 583.60895 104.7343 
L 585.856665 103.31431 
L 588.10438 102.313863 
L 590.352095 101.353757 
L 594.847525 100.038653 
L 600.466813 97.569808 
L 602.714528 96.569361 
L 604.962243 95.738345 
L 611.705383 92.244848 
L 617.32467 87.202273 
L 620.696243 84.217068 
L 624.067816 82.111288 
L 626.315531 80.90107 
L 629.687098 79.52949 
L 631.934813 78.690405 
L 636.430243 76.697579 
L 637.554101 76.366786 
L 644.297246 75.261454 
L 645.421103 75.1485 
L 648.792676 74.349756 
L 651.040391 73.728511 
L 652.164248 73.397718 
L 656.659673 72.44568 
L 660.031246 71.54205 
L 662.278961 70.8966 
L 664.526676 70.194674 
L 666.774391 69.807404 
L 669.022106 69.202295 
L 671.269821 68.782753 
L 672.393678 68.508437 
L 675.765251 67.386968 
L 676.889109 67.185265 
L 679.136818 66.410725 
L 679.136818 66.410725 
" clip-path="url(#p5276bbfe01)" style="fill: none; stroke: #1f77b4; stroke-width: 1.5; stroke-linecap: square"/>
   </g>
   <g id="line2d_24">
    <path d="M 77.873182 44.352482 
L 78.997034 44.634867 
L 80.120891 44.659071 
L 82.368606 43.037379 
L 83.492464 43.319763 
L 84.616322 44.231461 
L 85.740179 44.828501 
L 86.864037 44.893046 
L 87.987894 44.796229 
L 89.111752 44.820433 
L 91.359467 45.070545 
L 92.483324 44.860774 
L 93.607182 44.884978 
L 94.731039 45.256112 
L 96.978754 45.586905 
L 99.226469 46.288831 
L 101.474184 46.442126 
L 102.598037 46.33724 
L 103.721894 45.917698 
L 104.845752 45.941902 
L 105.969609 46.635761 
L 107.093467 47.11178 
L 112.712754 48.418815 
L 114.960469 48.475292 
L 116.084327 49.088469 
L 117.208184 50.234143 
L 118.332042 50.952205 
L 119.455899 51.161976 
L 120.579757 51.210385 
L 121.703615 51.799358 
L 122.827472 52.783669 
L 123.95133 53.38071 
L 125.075187 53.614685 
L 126.199045 54.018091 
L 127.322897 54.953993 
L 128.446754 56.04319 
L 129.570612 56.567617 
L 130.694469 56.607958 
L 131.818327 56.866138 
L 132.942184 57.761699 
L 135.189899 60.117591 
L 136.313757 60.867926 
L 137.437614 61.287468 
L 138.561472 61.957122 
L 141.933045 65.361869 
L 149.800047 72.768404 
L 152.047757 75.680996 
L 154.295472 78.811427 
L 155.41933 80.207212 
L 156.543187 81.369021 
L 157.667045 82.692193 
L 159.91476 85.83876 
L 161.038617 87.266818 
L 163.286332 90.840995 
L 165.534047 94.810511 
L 167.781762 98.788094 
L 171.153335 104.113054 
L 172.277192 106.130085 
L 174.524902 110.87414 
L 177.896475 117.804656 
L 182.391905 126.937769 
L 189.13505 141.96061 
L 191.382765 147.245229 
L 193.63048 152.52178 
L 205.992907 183.430752 
L 209.36448 192.434775 
L 212.736053 200.978915 
L 214.983768 206.981597 
L 221.726913 225.223618 
L 228.470053 242.545874 
L 231.841625 251.299785 
L 236.337055 262.304702 
L 239.708628 270.81657 
L 244.204058 281.50683 
L 246.451768 287.307809 
L 250.947198 298.127159 
L 253.194913 303.056781 
L 256.566485 310.794109 
L 264.433488 327.220803 
L 270.052776 337.265614 
L 272.300485 340.839792 
L 276.795915 347.358833 
L 277.919773 348.867572 
L 280.167488 351.239599 
L 284.662918 355.346273 
L 285.786776 356.128881 
L 289.158348 358.113639 
L 291.406063 358.960791 
L 293.653778 359.573968 
L 295.901488 359.977374 
L 297.025345 360.090328 
L 299.273061 359.880557 
L 301.520776 359.590105 
L 302.644633 359.315789 
L 304.892348 358.347614 
L 309.387778 355.596385 
L 311.635493 353.530946 
L 313.883208 351.691414 
L 316.130923 349.642112 
L 317.254781 348.335076 
L 319.502491 345.406348 
L 321.750206 342.461484 
L 326.245636 335.426082 
L 330.741066 327.551596 
L 332.988781 322.847882 
L 335.236496 318.17644 
L 337.484211 313.383976 
L 341.979636 303.258484 
L 345.351208 294.56105 
L 347.598923 288.832684 
L 349.846638 282.813866 
L 350.970496 279.990023 
L 356.589784 264.596048 
L 357.713641 261.578571 
L 362.209071 248.492079 
L 364.456786 242.1344 
L 367.828353 232.751175 
L 371.199926 223.271133 
L 373.447641 216.913454 
L 376.819214 208.03852 
L 379.066929 202.423108 
L 381.314644 196.79156 
L 383.562359 191.014785 
L 388.057789 180.493956 
L 391.429356 172.853445 
L 398.172501 158.613211 
L 404.915646 146.139896 
L 409.411077 138.580067 
L 412.782649 133.642377 
L 416.154216 128.785368 
L 418.401931 125.848572 
L 421.773504 121.507923 
L 424.021219 118.684081 
L 426.268934 116.295917 
L 429.640507 112.939579 
L 430.764364 111.995609 
L 435.259794 107.6953 
L 437.507509 106.049403 
L 439.755219 104.08885 
L 442.002934 102.773746 
L 445.374507 100.918078 
L 446.498364 100.288765 
L 447.622222 99.869223 
L 448.746079 99.57877 
L 452.117652 98.24753 
L 454.365367 97.755375 
L 455.489224 97.642421 
L 458.860797 98.255599 
L 459.984655 98.6348 
L 461.108512 99.32059 
L 462.232364 100.361378 
L 463.356222 101.700686 
L 464.480079 103.225561 
L 465.603937 105.121569 
L 466.727794 107.663028 
L 467.851652 110.930617 
L 468.975509 114.988881 
L 470.099367 120.047593 
L 471.223224 126.171297 
L 472.347082 133.230903 
L 473.470939 141.218343 
L 475.718654 159.403887 
L 479.090227 188.263556 
L 485.833367 241.843947 
L 486.957224 250.283202 
L 488.081082 257.705873 
L 489.204939 263.51492 
L 490.328797 267.492504 
L 491.452654 269.574079 
L 492.576512 269.91294 
L 493.700369 269.033515 
L 494.824227 267.476368 
L 495.948085 265.515814 
L 497.071942 263.192195 
L 498.1958 260.29574 
L 499.319657 256.624745 
L 501.567372 247.596518 
L 503.815087 238.576358 
L 504.938945 234.542298 
L 506.062802 230.943916 
L 507.18666 227.869962 
L 508.310517 225.255891 
L 509.434375 222.956476 
L 510.558227 221.09274 
L 511.682084 220.011612 
L 512.805942 220.068089 
L 513.9298 221.439669 
L 515.053657 224.110217 
L 516.177515 228.031324 
L 517.301372 233.251398 
L 518.42523 239.60101 
L 521.796802 260.287672 
L 522.92066 265.927288 
L 524.044517 270.154984 
L 525.168375 272.809396 
L 526.292232 273.809843 
L 527.41609 273.099848 
L 528.539947 270.889183 
L 529.663805 267.565117 
L 530.787663 263.232536 
L 531.91152 257.955985 
L 534.15923 245.547215 
L 536.406945 232.904469 
L 538.65466 221.915689 
L 542.026232 206.368419 
L 547.64552 179.001353 
L 548.769378 174.531614 
L 551.017093 166.794286 
L 554.388665 156.289593 
L 557.760232 146.357736 
L 561.131805 137.797459 
L 563.37952 132.399886 
L 565.627235 127.591286 
L 567.87495 123.145752 
L 570.122665 119.482825 
L 572.37038 115.924783 
L 574.618095 113.052532 
L 577.989668 108.970063 
L 581.36124 105.452362 
L 582.485092 104.637482 
L 585.856665 102.652724 
L 586.980523 101.98307 
L 589.228238 101.087509 
L 592.59981 99.756269 
L 594.847525 99.344795 
L 599.342955 97.884465 
L 604.962243 94.939601 
L 607.209953 94.108584 
L 608.33381 93.78586 
L 609.457668 93.277568 
L 615.076955 89.509755 
L 616.200813 88.509308 
L 618.448528 86.217962 
L 620.696243 84.410703 
L 621.820101 83.69264 
L 624.067816 82.692193 
L 631.934813 78.932449 
L 633.05867 78.214386 
L 634.182528 77.730299 
L 636.430243 77.286552 
L 638.677958 76.47974 
L 640.925673 76.197356 
L 642.049531 76.068266 
L 653.288106 73.720443 
L 654.411958 73.55908 
L 657.783531 72.389203 
L 658.907388 72.155227 
L 663.402818 70.783647 
L 666.774391 69.936494 
L 667.898248 69.412066 
L 669.022106 69.073205 
L 671.269821 69.040933 
L 673.517536 68.19378 
L 675.765251 67.887191 
L 679.136818 66.564019 
L 679.136818 66.564019 
" clip-path="url(#p5276bbfe01)" style="fill: none; stroke: #ff7f0e; stroke-width: 1.5; stroke-linecap: square"/>
   </g>
   <g id="line2d_25">
    <path d="M 77.873182 44.392823 
L 78.997034 44.844638 
L 80.120891 44.659071 
L 81.244749 43.569875 
L 82.368606 42.787267 
L 83.492464 43.456921 
L 84.616322 44.32021 
L 85.740179 44.642935 
L 87.987894 44.651003 
L 90.235609 44.554185 
L 91.359467 44.74782 
L 92.483324 44.425095 
L 93.607182 44.223392 
L 95.854897 45.441679 
L 96.978754 45.748267 
L 98.102612 45.845085 
L 100.350327 45.893493 
L 101.474184 45.998379 
L 102.598037 45.594973 
L 103.721894 44.739752 
L 104.845752 44.780093 
L 105.969609 45.94997 
L 107.093467 46.748714 
L 109.341182 47.563594 
L 112.712754 48.48336 
L 113.836612 48.467224 
L 114.960469 47.92666 
L 116.084327 48.209044 
L 117.208184 49.564488 
L 118.332042 50.395505 
L 119.455899 50.540731 
L 120.579757 50.451982 
L 121.703615 50.879592 
L 122.827472 51.597655 
L 125.075187 52.598102 
L 126.199045 53.283892 
L 129.570612 56.34171 
L 131.818327 57.229203 
L 132.942184 57.689086 
L 134.066042 58.471694 
L 135.189899 59.64964 
L 136.313757 60.553269 
L 137.437614 60.972812 
L 138.561472 61.940986 
L 139.68533 63.457793 
L 140.809187 64.434035 
L 141.933045 65.240848 
L 144.18076 67.362763 
L 146.428475 69.557292 
L 147.552332 70.404445 
L 148.67619 71.090235 
L 149.800047 72.042274 
L 152.047757 74.971001 
L 154.295472 78.190182 
L 156.543187 80.884934 
L 161.038617 87.234545 
L 162.162475 88.823965 
L 164.41019 92.809617 
L 167.781762 98.780026 
L 171.153335 104.000101 
L 173.40105 108.332682 
L 182.391905 126.744134 
L 184.63962 131.189668 
L 188.011192 139.031882 
L 189.13505 141.920269 
L 192.506623 149.141237 
L 194.754338 154.92608 
L 197.002053 160.017064 
L 199.249762 165.051572 
L 204.86905 178.912604 
L 208.240622 186.883907 
L 211.612195 195.363502 
L 213.85991 200.841757 
L 216.107625 205.973082 
L 221.726913 219.85025 
L 228.470053 235.252292 
L 231.841625 243.231664 
L 236.337055 253.074772 
L 237.460913 255.74532 
L 239.708628 260.215059 
L 241.956343 264.886501 
L 244.204058 269.775782 
L 256.566485 294.278665 
L 258.8142 297.885116 
L 261.061915 301.709405 
L 263.309631 305.210969 
L 264.433488 307.155387 
L 265.557346 308.865828 
L 267.805061 311.721943 
L 270.052776 315.070213 
L 277.919773 322.968904 
L 280.167488 324.639005 
L 283.539061 326.712512 
L 285.786776 327.672618 
L 286.910633 328.084092 
L 289.158348 328.56818 
L 290.282206 328.681133 
L 293.653778 328.560111 
L 294.77763 328.592384 
L 297.025345 328.18091 
L 298.149203 327.930798 
L 299.273061 327.519324 
L 303.768491 325.26025 
L 306.016206 323.751511 
L 308.263921 321.91198 
L 309.387778 321.064827 
L 310.511636 319.999835 
L 316.130923 313.698633 
L 319.502491 309.422529 
L 322.874063 304.799495 
L 325.121778 300.918729 
L 327.369493 297.231598 
L 329.617208 293.132992 
L 336.360354 279.481732 
L 344.227351 262.05459 
L 348.722781 251.509556 
L 359.961356 223.101702 
L 362.209071 217.421745 
L 364.456786 211.975764 
L 366.704496 206.384556 
L 372.323784 193.144769 
L 375.695356 185.157329 
L 382.438501 170.578235 
L 390.305499 155.176192 
L 392.553214 151.085655 
L 394.800929 146.753074 
L 406.039504 129.277524 
L 408.287219 126.582771 
L 410.534934 123.863814 
L 412.782649 120.78986 
L 418.401931 114.399909 
L 419.525789 113.455938 
L 420.649646 112.261857 
L 421.773504 110.858003 
L 422.897361 109.639717 
L 426.268934 106.686785 
L 429.640507 103.871011 
L 431.888222 102.104092 
L 434.135937 100.337174 
L 436.383652 98.925253 
L 438.631361 97.577876 
L 442.002934 95.940048 
L 444.250649 94.616876 
L 445.374507 94.124721 
L 447.622222 93.600293 
L 448.746079 93.358249 
L 450.993794 92.62405 
L 452.117652 92.462688 
L 455.489224 92.309393 
L 458.860797 93.027456 
L 459.984655 93.503475 
L 461.108512 94.116652 
L 462.232364 94.939601 
L 463.356222 96.238568 
L 464.480079 97.924806 
L 465.603937 99.982176 
L 466.727794 102.620452 
L 467.851652 105.912245 
L 468.975509 109.994715 
L 470.099367 115.142176 
L 471.223224 121.201335 
L 472.347082 128.018897 
L 474.594797 144.001844 
L 476.842512 162.39716 
L 480.214085 190.425812 
L 484.709515 225.909408 
L 486.957224 242.239285 
L 488.081082 249.185937 
L 489.204939 254.559306 
L 490.328797 258.109279 
L 491.452654 259.77938 
L 492.576512 259.755176 
L 493.700369 258.746661 
L 494.824227 257.383148 
L 495.948085 255.74532 
L 497.071942 253.808971 
L 498.1958 251.461148 
L 499.319657 248.508215 
L 500.443515 244.917901 
L 502.69123 236.494783 
L 504.938945 227.950643 
L 506.062802 224.263512 
L 508.310517 218.123672 
L 509.434375 215.59835 
L 510.558227 213.686205 
L 511.682084 212.685758 
L 512.805942 212.830984 
L 513.9298 214.234837 
L 515.053657 216.905385 
L 516.177515 220.786152 
L 517.301372 225.812591 
L 518.42523 231.952431 
L 522.92066 259.618018 
L 524.044517 264.668662 
L 525.168375 268.67045 
L 526.292232 271.453951 
L 527.41609 272.8336 
L 528.539947 272.890077 
L 529.663805 271.728267 
L 530.787663 269.283627 
L 531.91152 265.677177 
L 533.035378 261.11062 
L 535.283087 250.041158 
L 540.902375 219.188664 
L 546.521662 184.673242 
L 547.64552 178.646356 
L 549.893235 168.424047 
L 552.14095 159.976724 
L 554.388665 152.473371 
L 556.63638 145.873648 
L 557.760232 142.90458 
L 560.007947 137.829732 
L 562.255662 133.214767 
L 573.494238 113.923889 
L 575.741953 110.260963 
L 576.86581 108.695747 
L 579.113525 106.097812 
L 581.36124 103.725785 
L 582.485092 102.741474 
L 584.732808 101.474779 
L 588.10438 99.635247 
L 589.228238 99.143092 
L 591.475953 97.860261 
L 592.59981 97.505263 
L 594.847525 97.17447 
L 597.09524 96.432203 
L 599.342955 95.97232 
L 606.086095 92.809617 
L 609.457668 91.615535 
L 610.581525 91.107243 
L 611.705383 90.445657 
L 616.200813 87.073183 
L 618.448528 85.128766 
L 622.943958 81.941858 
L 624.067816 81.425498 
L 626.315531 80.634822 
L 628.563246 79.553694 
L 630.810955 78.633928 
L 633.05867 77.415642 
L 634.182528 77.03644 
L 635.306385 76.810533 
L 636.430243 76.431331 
L 638.677958 75.334067 
L 639.801816 75.092023 
L 640.925673 74.987138 
L 642.049531 74.76123 
L 644.297246 74.115781 
L 646.544961 73.793056 
L 651.040391 72.469884 
L 653.288106 72.042274 
L 654.411958 71.921252 
L 655.535816 71.630799 
L 657.783531 70.8966 
L 666.774391 68.540709 
L 667.898248 68.072758 
L 669.022106 67.959804 
L 670.145963 68.048554 
L 671.269821 67.895259 
L 673.517536 66.910949 
L 679.136818 65.555504 
L 679.136818 65.555504 
" clip-path="url(#p5276bbfe01)" style="fill: none; stroke: #2ca02c; stroke-width: 1.5; stroke-linecap: square"/>
   </g>
   <g id="line2d_26">
    <path d="M 77.873182 43.715101 
L 78.997034 44.021689 
L 80.120891 44.013621 
L 82.368606 43.029311 
L 83.492464 43.069651 
L 85.740179 43.924872 
L 87.987894 44.110439 
L 89.111752 44.158847 
L 91.359467 44.731684 
L 92.483324 44.546117 
L 93.607182 44.497709 
L 94.731039 45.006 
L 95.854897 45.304521 
L 99.226469 45.804744 
L 102.598037 45.490087 
L 103.721894 44.780093 
L 104.845752 44.788161 
L 105.969609 45.933834 
L 107.093467 46.756782 
L 109.341182 47.394164 
L 111.588897 47.942796 
L 112.712754 48.063818 
L 113.836612 47.92666 
L 114.960469 47.644276 
L 116.084327 48.233249 
L 117.208184 49.564488 
L 118.332042 50.387437 
L 119.455899 50.435846 
L 120.579757 50.07278 
L 121.703615 50.339028 
L 123.95133 52.041402 
L 125.075187 52.630374 
L 126.199045 53.090257 
L 127.322897 53.792184 
L 128.446754 54.784563 
L 129.570612 55.510694 
L 131.818327 56.317506 
L 132.942184 57.172727 
L 135.189899 59.407596 
L 136.313757 60.093386 
L 137.437614 60.270885 
L 138.561472 60.771109 
L 140.809187 63.199613 
L 141.933045 64.103242 
L 145.304617 67.637079 
L 147.552332 69.412066 
L 148.67619 70.21081 
L 149.800047 71.356483 
L 153.171614 76.334514 
L 154.295472 77.714163 
L 156.543187 80.029713 
L 157.667045 81.481975 
L 158.790902 83.17628 
L 161.038617 86.18569 
L 167.781762 97.594013 
L 170.029477 100.934215 
L 172.277192 104.855321 
L 173.40105 107.082123 
L 175.64876 111.955268 
L 185.763477 133.15829 
L 197.002053 159.258661 
L 199.249762 164.80146 
L 201.497477 170.053807 
L 211.612195 195.662023 
L 219.479198 215.324034 
L 221.726913 221.205694 
L 226.222337 231.686183 
L 229.59391 240.020552 
L 232.965483 248.322648 
L 237.460913 258.66598 
L 243.0802 271.131226 
L 247.575625 281.200241 
L 249.82334 285.903956 
L 259.938058 306.163008 
L 261.061915 308.236515 
L 263.309631 311.955918 
L 264.433488 314.037494 
L 265.557346 315.836685 
L 267.805061 318.926775 
L 270.052776 322.379931 
L 273.424343 326.744784 
L 276.795915 330.536801 
L 279.04363 332.844284 
L 281.291346 334.611202 
L 284.662918 336.652437 
L 285.786776 337.217205 
L 288.034491 338.040154 
L 289.158348 338.290265 
L 292.529921 338.072426 
L 294.77763 338.814693 
L 295.901488 338.685603 
L 299.273061 337.693224 
L 300.396918 337.209137 
L 302.644633 336.636301 
L 303.768491 336.128009 
L 304.892348 335.482559 
L 306.016206 334.61927 
L 308.263921 332.537695 
L 312.759351 328.09216 
L 313.883208 327.083645 
L 316.130923 324.48571 
L 318.378633 321.435961 
L 323.997921 312.940229 
L 328.493351 305.106084 
L 329.617208 303.072917 
L 334.112639 293.633216 
L 338.608069 283.830449 
L 340.855784 278.561966 
L 343.103493 272.986894 
L 345.351208 267.258528 
L 347.598923 262.111067 
L 358.837499 232.307428 
L 361.085214 225.869068 
L 363.332929 220.01968 
L 370.076069 202.947536 
L 373.447641 194.330783 
L 375.695356 189.207526 
L 379.066929 180.921566 
L 382.438501 173.353668 
L 389.181647 159.226389 
L 391.429356 154.982557 
L 394.800929 148.148859 
L 397.048644 144.130934 
L 400.420216 138.684953 
L 403.791789 133.117949 
L 407.163362 127.696172 
L 408.287219 126.155161 
L 411.658792 122.169509 
L 416.154216 116.142623 
L 417.278074 114.819451 
L 419.525789 112.89117 
L 420.649646 111.55993 
L 421.773504 109.994715 
L 422.897361 108.679611 
L 425.145077 106.727126 
L 433.012079 100.369446 
L 436.383652 98.037759 
L 438.631361 96.537089 
L 440.879077 95.278462 
L 442.002934 94.552331 
L 446.498364 92.543369 
L 449.869937 91.631671 
L 450.993794 91.195993 
L 452.117652 91.026562 
L 454.365367 91.066903 
L 455.489224 90.978153 
L 456.613082 91.042698 
L 457.736939 91.365423 
L 461.108512 92.801549 
L 462.232364 93.793928 
L 464.480079 96.795269 
L 465.603937 98.755822 
L 466.727794 101.458643 
L 467.851652 104.879526 
L 468.975509 109.066881 
L 470.099367 114.190137 
L 471.223224 120.176683 
L 472.347082 126.945837 
L 473.470939 134.562143 
L 475.718654 152.215192 
L 480.214085 189.990134 
L 485.833367 235.228088 
L 486.957224 243.425299 
L 488.081082 250.638199 
L 489.204939 256.414974 
L 490.328797 260.287672 
L 491.452654 262.094931 
L 492.576512 262.264361 
L 493.700369 261.505958 
L 494.824227 260.247331 
L 495.948085 258.57723 
L 497.071942 256.503723 
L 498.1958 253.978401 
L 499.319657 250.880243 
L 500.443515 247.152771 
L 502.69123 238.640903 
L 504.938945 229.838583 
L 506.062802 225.982022 
L 507.18666 222.625683 
L 508.310517 219.672751 
L 509.434375 217.147429 
L 510.558227 215.130399 
L 511.682084 213.936317 
L 512.805942 213.920181 
L 513.9298 215.162671 
L 515.053657 217.671857 
L 516.177515 221.520351 
L 517.301372 226.772697 
L 519.549087 240.311004 
L 521.796802 254.785213 
L 522.92066 261.159029 
L 524.044517 266.354899 
L 525.168375 270.251801 
L 526.292232 272.720646 
L 527.41609 273.704957 
L 528.539947 273.285415 
L 529.663805 271.607246 
L 530.787663 268.718858 
L 531.91152 264.733206 
L 533.035378 259.851993 
L 535.283087 248.120945 
L 542.026232 210.66066 
L 547.64552 177.766931 
L 548.769378 172.49038 
L 551.017093 163.583174 
L 553.264808 155.595734 
L 555.512523 148.665218 
L 557.760232 142.323675 
L 560.007947 136.788944 
L 563.37952 129.664793 
L 567.87495 121.467583 
L 572.37038 113.609233 
L 574.618095 110.035055 
L 577.989668 105.234523 
L 579.113525 103.975896 
L 581.36124 101.950798 
L 582.485092 101.047168 
L 588.10438 97.610149 
L 590.352095 96.537089 
L 591.475953 96.141751 
L 599.342955 94.302219 
L 604.962243 91.615535 
L 607.209953 90.655429 
L 609.457668 90.114864 
L 610.581525 89.614641 
L 616.200813 85.628989 
L 619.572386 82.353332 
L 621.820101 80.707435 
L 622.943958 80.094258 
L 626.315531 78.843699 
L 628.563246 77.714163 
L 630.810955 76.762124 
L 633.05867 75.285658 
L 634.182528 74.954865 
L 635.306385 74.906456 
L 636.430243 74.616004 
L 638.677958 73.502603 
L 639.801816 73.276696 
L 642.049531 73.074993 
L 647.668818 71.759889 
L 649.916533 71.574322 
L 651.040391 71.227393 
L 652.164248 70.751374 
L 655.535816 70.049448 
L 656.659673 69.549224 
L 662.278961 68.476164 
L 664.526676 67.54833 
L 666.774391 67.16106 
L 669.022106 66.426861 
L 671.269821 66.257431 
L 672.393678 65.926638 
L 673.517536 65.418346 
L 674.641394 65.176303 
L 675.765251 65.079485 
L 678.012961 64.304945 
L 679.136818 64.167787 
L 679.136818 64.167787 
" clip-path="url(#p5276bbfe01)" style="fill: none; stroke: #d62728; stroke-width: 1.5; stroke-linecap: square"/>
   </g>
   <g id="line2d_27">
    <path d="M 77.873182 44.005553 
L 78.997034 44.102371 
L 80.120891 43.908736 
L 81.244749 43.263286 
L 82.368606 42.972834 
L 84.616322 44.400891 
L 85.740179 44.772025 
L 86.864037 44.594526 
L 87.987894 44.037826 
L 89.111752 43.642488 
L 90.235609 43.949076 
L 91.359467 44.642935 
L 92.483324 44.796229 
L 93.607182 44.812365 
L 94.731039 45.118954 
L 95.854897 45.215771 
L 98.102612 44.804297 
L 99.226469 44.852706 
L 100.350327 45.038273 
L 101.474184 45.110886 
L 102.598037 44.788161 
L 103.721894 44.06203 
L 104.845752 44.070098 
L 105.969609 45.441679 
L 107.093467 46.530875 
L 108.217324 46.885872 
L 109.341182 46.8536 
L 110.465039 47.014962 
L 111.588897 47.418368 
L 112.712754 47.652344 
L 113.836612 47.490981 
L 114.960469 47.095643 
L 116.084327 47.636208 
L 117.208184 48.975516 
L 118.332042 49.55642 
L 120.579757 49.314377 
L 121.703615 49.653238 
L 126.199045 51.750949 
L 127.322897 52.549693 
L 128.446754 53.663094 
L 129.570612 54.405361 
L 131.818327 54.647405 
L 132.942184 55.066947 
L 136.313757 57.406702 
L 137.437614 57.67295 
L 138.561472 58.544307 
L 139.68533 59.972365 
L 140.809187 61.005084 
L 145.304617 64.111311 
L 146.428475 65.329597 
L 147.552332 66.249363 
L 148.67619 66.870608 
L 149.800047 67.919464 
L 154.295472 73.865669 
L 155.41933 75.059751 
L 156.543187 75.939176 
L 157.667045 77.213939 
L 158.790902 78.916313 
L 163.286332 84.935131 
L 165.534047 88.557717 
L 167.781762 92.115758 
L 170.029477 95.641527 
L 172.277192 99.223773 
L 179.020332 111.81811 
L 185.763477 125.235395 
L 186.887335 127.454128 
L 191.382765 137.297236 
L 193.63048 141.766975 
L 199.249762 154.441993 
L 204.86905 164.76112 
L 209.36448 173.619916 
L 216.107625 186.375616 
L 217.231483 188.077989 
L 219.479198 192.192731 
L 223.974622 200.13983 
L 228.470053 206.79603 
L 230.717768 210.596115 
L 232.965483 213.758818 
L 235.213198 216.776295 
L 236.337055 218.454465 
L 237.460913 219.898658 
L 238.58477 221.0524 
L 239.708628 222.407844 
L 241.956343 225.627024 
L 246.451768 231.081074 
L 249.82334 234.631047 
L 252.071055 236.946598 
L 256.566485 241.06134 
L 258.8142 242.505533 
L 261.061915 244.530632 
L 264.433488 246.596071 
L 265.557346 247.281861 
L 268.928918 248.766395 
L 270.052776 249.137529 
L 272.300485 249.629684 
L 273.424343 250.008886 
L 274.5482 250.218657 
L 275.672058 250.186384 
L 276.795915 250.275134 
L 277.919773 250.54945 
L 279.04363 250.613995 
L 283.539061 249.855591 
L 288.034491 248.330717 
L 289.158348 247.652994 
L 291.406063 245.765054 
L 293.653778 244.595177 
L 294.77763 243.981999 
L 299.273061 240.536912 
L 301.520776 238.648971 
L 302.644633 237.785682 
L 303.768491 236.769099 
L 306.016206 234.155028 
L 308.263921 231.395731 
L 310.511636 228.749387 
L 316.130923 221.560691 
L 317.254781 220.197179 
L 319.502491 216.816636 
L 321.750206 213.266663 
L 323.997921 209.902256 
L 329.617208 200.720735 
L 331.864923 196.581789 
L 336.360354 188.900938 
L 343.103493 176.435691 
L 345.351208 172.385494 
L 347.598923 168.62575 
L 355.465926 154.304835 
L 365.580644 137.361781 
L 370.076069 130.697513 
L 372.323784 127.300834 
L 375.695356 122.605188 
L 379.066929 118.12738 
L 384.686216 111.382431 
L 390.305499 105.016684 
L 394.800929 100.385582 
L 399.296359 96.440271 
L 401.544074 94.334492 
L 403.791789 92.793481 
L 407.163362 90.122933 
L 408.287219 89.517824 
L 409.411077 89.041804 
L 410.534934 88.396355 
L 412.782649 86.605232 
L 420.649646 82.087084 
L 421.773504 81.377089 
L 426.268934 79.585967 
L 430.764364 77.786776 
L 433.012079 76.891214 
L 435.259794 76.237696 
L 444.250649 74.156121 
L 448.746079 73.986691 
L 453.241509 74.099644 
L 455.489224 74.494982 
L 458.860797 75.672928 
L 459.984655 76.18122 
L 461.108512 76.9961 
L 462.232364 78.278931 
L 464.480079 81.441634 
L 465.603937 83.426392 
L 466.727794 86.064668 
L 467.851652 89.364529 
L 468.975509 93.382453 
L 470.099367 98.271735 
L 471.223224 103.992033 
L 473.470939 117.344773 
L 474.594797 125.186986 
L 476.842512 142.977193 
L 485.833367 216.96993 
L 486.957224 225.175209 
L 488.081082 232.04118 
L 489.204939 236.995007 
L 490.328797 239.988279 
L 491.452654 241.182361 
L 492.576512 240.964522 
L 493.700369 239.996348 
L 495.948085 237.801819 
L 498.1958 236.002628 
L 499.319657 234.558434 
L 500.443515 232.452655 
L 501.567372 229.709493 
L 502.69123 226.369291 
L 503.815087 222.367503 
L 508.310517 204.141618 
L 509.434375 200.381874 
L 510.558227 197.428941 
L 511.682084 195.573274 
L 512.805942 195.226344 
L 513.9298 196.53338 
L 515.053657 199.308814 
L 516.177515 203.455828 
L 517.301372 208.917946 
L 518.42523 215.445056 
L 520.672945 230.70994 
L 524.044517 255.091802 
L 526.292232 269.235218 
L 527.41609 275.060401 
L 528.539947 279.933546 
L 529.663805 283.78204 
L 530.787663 286.420316 
L 531.91152 287.767692 
L 533.035378 287.816101 
L 534.15923 286.541337 
L 535.283087 283.709427 
L 536.406945 279.368778 
L 537.530802 273.745298 
L 538.65466 266.814782 
L 539.778517 258.561094 
L 542.026232 238.802266 
L 547.64552 185.576872 
L 548.769378 176.742279 
L 549.893235 168.988815 
L 552.14095 155.74096 
L 553.264808 150.157821 
L 554.388665 145.333084 
L 555.512523 141.097321 
L 556.63638 137.345645 
L 557.760232 134.223282 
L 558.88409 131.810914 
L 560.007947 129.963314 
L 561.131805 128.567529 
L 562.255662 127.567082 
L 564.503377 126.324591 
L 565.627235 125.68721 
L 566.751093 124.815853 
L 567.87495 123.645975 
L 568.998808 122.113032 
L 570.122665 120.120206 
L 571.246523 117.602953 
L 576.86581 103.330447 
L 577.989668 100.91001 
L 579.113525 98.852639 
L 580.237383 97.061517 
L 581.36124 95.480165 
L 582.485092 94.237674 
L 583.60895 93.350181 
L 586.980523 91.25247 
L 589.228238 90.147137 
L 593.723668 88.711011 
L 597.09524 88.11397 
L 599.342955 87.492725 
L 608.33381 84.362294 
L 610.581525 83.547414 
L 612.82924 82.345264 
L 616.200813 80.255621 
L 619.572386 77.802912 
L 621.820101 76.318378 
L 622.943958 75.479293 
L 624.067816 74.987138 
L 625.191673 74.728958 
L 626.315531 74.236802 
L 628.563246 72.953971 
L 630.810955 72.090682 
L 634.182528 70.178538 
L 636.430243 69.363657 
L 639.801816 67.580603 
L 644.297246 66.265499 
L 647.668818 65.466755 
L 648.792676 65.160166 
L 651.040391 64.789033 
L 653.288106 64.224264 
L 654.411958 64.022561 
L 656.659673 63.42552 
L 658.907388 63.223817 
L 660.031246 62.836547 
L 661.155103 62.586436 
L 662.278961 62.497686 
L 666.774391 61.319741 
L 667.898248 60.98088 
L 669.022106 60.875994 
L 671.269821 60.964743 
L 672.393678 60.706564 
L 673.517536 60.262817 
L 674.641394 60.004637 
L 676.889109 59.738389 
L 678.012961 59.544754 
L 679.136818 59.472141 
L 679.136818 59.472141 
" clip-path="url(#p5276bbfe01)" style="fill: none; stroke: #9467bd; stroke-width: 1.5; stroke-linecap: square"/>
   </g>
   <g id="line2d_28">
    <path d="M 77.873182 42.754994 
L 78.997034 43.150332 
L 80.120891 43.368172 
L 82.368606 42.642041 
L 83.492464 42.754994 
L 86.864037 43.771578 
L 89.111752 43.80385 
L 90.235609 43.957144 
L 91.359467 44.344414 
L 92.483324 44.400891 
L 93.607182 44.142711 
L 94.731039 44.287937 
L 95.854897 44.667139 
L 100.350327 45.320657 
L 101.474184 45.425542 
L 103.721894 45.239976 
L 104.845752 45.498156 
L 105.969609 46.20815 
L 107.093467 46.748714 
L 109.341182 47.321551 
L 111.588897 48.039614 
L 112.712754 48.434952 
L 113.836612 48.580178 
L 114.960469 48.467224 
L 116.084327 48.943243 
L 117.208184 50.008235 
L 118.332042 50.702094 
L 119.455899 50.863456 
L 120.579757 50.879592 
L 121.703615 51.557314 
L 122.827472 52.428671 
L 126.199045 53.759911 
L 130.694469 56.98716 
L 132.942184 58.116697 
L 134.066042 58.996122 
L 135.189899 60.028841 
L 136.313757 60.884062 
L 137.437614 61.594057 
L 138.561472 62.44121 
L 141.933045 65.676526 
L 143.056902 66.660837 
L 147.552332 71.24353 
L 148.67619 72.308521 
L 152.047757 76.334514 
L 154.295472 79.303582 
L 156.543187 81.97413 
L 157.667045 83.603891 
L 161.038617 89.122486 
L 164.41019 93.8262 
L 170.029477 103.806466 
L 171.153335 105.67827 
L 173.40105 110.051191 
L 175.64876 114.875928 
L 179.020332 121.524059 
L 181.268047 126.897428 
L 183.515762 131.173532 
L 189.13505 143.985708 
L 191.382765 149.326804 
L 193.63048 154.619492 
L 199.249762 168.173935 
L 201.497477 173.272987 
L 207.116765 187.295381 
L 209.36448 192.822044 
L 211.612195 198.389048 
L 214.983768 207.215572 
L 225.09848 232.977082 
L 229.59391 243.965863 
L 231.841625 249.573207 
L 236.337055 260.198923 
L 238.58477 265.370588 
L 240.832485 270.421232 
L 244.204058 278.376399 
L 246.451768 283.515792 
L 248.699483 288.792343 
L 252.071055 295.569565 
L 254.31877 300.48305 
L 261.061915 313.577611 
L 265.557346 321.444029 
L 267.805061 325.050479 
L 270.052776 328.761814 
L 272.300485 331.747019 
L 274.5482 334.441772 
L 277.919773 338.249925 
L 280.167488 340.266955 
L 282.415203 341.985465 
L 285.786776 344.36556 
L 286.910633 344.889988 
L 289.158348 345.470893 
L 295.901488 346.197024 
L 297.025345 346.180888 
L 298.149203 346.003389 
L 303.768491 344.002495 
L 304.892348 343.429658 
L 306.016206 342.671255 
L 310.511636 338.814693 
L 312.759351 337.209137 
L 313.883208 336.071532 
L 318.378633 330.730436 
L 320.626348 327.66455 
L 322.874063 324.792299 
L 327.369493 317.337355 
L 330.741066 311.09263 
L 336.360354 299.563285 
L 339.731926 291.656526 
L 343.103493 283.975675 
L 348.722781 270.033962 
L 354.342069 255.237028 
L 357.713641 246.442776 
L 361.085214 236.80944 
L 364.456786 227.934507 
L 370.076069 213.226322 
L 373.447641 204.254572 
L 376.819214 195.960543 
L 379.066929 190.571039 
L 382.438501 182.825642 
L 385.810074 174.854339 
L 389.181647 167.584962 
L 397.048644 151.755309 
L 401.544074 143.71946 
L 403.791789 140.121078 
L 406.039504 136.619514 
L 408.287219 132.908178 
L 410.534934 129.705134 
L 416.154216 122.048487 
L 417.278074 120.434863 
L 421.773504 115.053426 
L 426.268934 110.527211 
L 428.516649 108.405295 
L 430.764364 106.347924 
L 433.012079 104.451915 
L 437.507509 101.055236 
L 442.002934 97.860261 
L 443.126792 97.158334 
L 445.374507 96.254705 
L 447.622222 95.439824 
L 450.993794 94.544263 
L 452.117652 94.08438 
L 453.241509 93.769723 
L 455.489224 93.608361 
L 456.613082 93.753587 
L 459.984655 94.697557 
L 461.108512 95.141304 
L 462.232364 96.020729 
L 463.356222 97.376173 
L 464.480079 99.014002 
L 465.603937 101.055236 
L 466.727794 103.628967 
L 467.851652 106.832011 
L 468.975509 110.898344 
L 470.099367 116.053873 
L 471.223224 122.20985 
L 472.347082 129.140366 
L 473.470939 136.853489 
L 475.718654 154.805058 
L 480.214085 192.418638 
L 486.957224 245.168013 
L 488.081082 252.324436 
L 489.204939 257.697805 
L 490.328797 261.150961 
L 491.452654 262.877539 
L 492.576512 263.208332 
L 493.700369 262.514473 
L 494.824227 260.989598 
L 497.071942 256.665086 
L 498.1958 254.115559 
L 499.319657 250.872175 
L 501.567372 242.650759 
L 504.938945 229.531995 
L 506.062802 225.739978 
L 507.18666 222.432048 
L 508.310517 219.559797 
L 509.434375 217.179702 
L 510.558227 215.453124 
L 511.682084 214.622107 
L 512.805942 214.839946 
L 513.9298 216.195391 
L 515.053657 218.752985 
L 516.177515 222.633751 
L 517.301372 227.918371 
L 519.549087 241.327588 
L 521.796802 255.277369 
L 522.92066 261.23971 
L 524.044517 265.895016 
L 525.168375 269.154537 
L 526.292232 271.018273 
L 527.41609 271.389406 
L 528.539947 270.332482 
L 529.663805 268.073409 
L 530.787663 264.660593 
L 531.91152 260.142446 
L 533.035378 254.80135 
L 536.406945 236.640009 
L 539.778517 219.035369 
L 542.026232 206.96546 
L 546.521662 182.10758 
L 548.769378 171.562546 
L 549.893235 167.060534 
L 552.14095 159.411955 
L 554.388665 152.182919 
L 557.760232 142.549583 
L 560.007947 136.877694 
L 562.255662 131.818982 
L 568.998808 118.974533 
L 571.246523 115.287402 
L 574.618095 110.059259 
L 576.86581 107.090191 
L 579.113525 104.540665 
L 582.485092 101.353757 
L 583.60895 100.61149 
L 585.856665 99.53843 
L 588.10438 98.368552 
L 592.59981 96.682315 
L 597.09524 95.343007 
L 599.342955 94.737898 
L 601.59067 93.584156 
L 603.838386 92.414279 
L 606.086095 91.607467 
L 608.33381 90.768382 
L 610.581525 89.582368 
L 615.076955 86.548755 
L 617.32467 84.539793 
L 619.572386 82.611512 
L 622.943958 80.449256 
L 624.067816 79.997441 
L 625.191673 79.739261 
L 626.315531 79.230969 
L 627.439388 78.472566 
L 628.563246 77.875525 
L 630.810955 77.028372 
L 633.05867 75.57611 
L 634.182528 75.269522 
L 635.306385 75.172704 
L 636.430243 74.898388 
L 639.801816 73.446127 
L 642.049531 73.446127 
L 643.173388 73.17181 
L 644.297246 72.728064 
L 645.421103 72.437611 
L 648.792676 71.905115 
L 655.535816 70.477058 
L 660.031246 68.992524 
L 661.155103 68.855366 
L 662.278961 68.855366 
L 663.402818 68.58105 
L 666.774391 67.209469 
L 667.898248 66.781859 
L 669.022106 66.612428 
L 670.145963 66.644701 
L 671.269821 66.539815 
L 673.517536 65.708799 
L 674.641394 65.57164 
L 675.765251 65.563572 
L 678.012961 64.998804 
L 679.136818 64.724488 
L 679.136818 64.724488 
" clip-path="url(#p5276bbfe01)" style="fill: none; stroke: #8c564b; stroke-width: 1.5; stroke-linecap: square"/>
   </g>
   <g id="line2d_29">
    <path d="M 77.873182 43.239082 
L 78.997034 43.54567 
L 80.120891 43.464989 
L 82.368606 42.012727 
L 83.492464 42.408065 
L 84.616322 43.263286 
L 85.740179 43.795782 
L 86.864037 43.811918 
L 87.987894 43.707033 
L 91.359467 44.06203 
L 92.483324 43.739305 
L 93.607182 43.63442 
L 98.102612 45.167363 
L 99.226469 45.482019 
L 100.350327 45.5627 
L 101.474184 45.360997 
L 102.598037 44.844638 
L 103.721894 44.19112 
L 104.845752 44.312142 
L 105.969609 45.360997 
L 107.093467 46.135537 
L 109.341182 47.006894 
L 110.465039 47.386096 
L 113.836612 48.063818 
L 114.960469 47.942796 
L 116.084327 48.233249 
L 117.208184 49.2579 
L 118.332042 50.03244 
L 119.455899 50.242211 
L 120.579757 50.274483 
L 121.703615 50.903797 
L 122.827472 51.710609 
L 125.075187 52.557761 
L 126.199045 53.001508 
L 127.322897 53.743775 
L 128.446754 54.800699 
L 129.570612 55.672056 
L 132.942184 57.15659 
L 134.066042 57.971471 
L 135.189899 59.165552 
L 136.313757 60.133727 
L 137.437614 60.625882 
L 138.561472 61.400422 
L 139.68533 62.578368 
L 141.933045 64.611534 
L 143.056902 65.741071 
L 145.304617 67.629011 
L 147.552332 69.960698 
L 148.67619 70.823987 
L 149.800047 72.018069 
L 152.047757 75.140432 
L 155.41933 79.456877 
L 156.543187 80.546073 
L 157.667045 81.909585 
L 161.038617 87.032842 
L 162.162475 88.452832 
L 163.286332 90.074524 
L 165.534047 94.165061 
L 167.781762 98.304007 
L 171.153335 103.782261 
L 180.14419 121.378833 
L 184.63962 131.512393 
L 190.258907 144.122866 
L 197.002053 159.637863 
L 200.37362 167.931891 
L 204.86905 178.452721 
L 207.116765 184.035861 
L 211.612195 194.863279 
L 214.983768 203.205716 
L 222.850765 222.391708 
L 225.09848 227.143831 
L 227.346195 232.638221 
L 229.59391 237.793751 
L 231.841625 243.175187 
L 234.08934 247.983787 
L 237.460913 255.664639 
L 240.832485 262.651631 
L 243.0802 267.661934 
L 250.947198 283.822381 
L 257.690343 296.263423 
L 261.061915 301.77395 
L 262.185773 303.500528 
L 264.433488 307.421635 
L 265.557346 309.075599 
L 267.805061 311.988191 
L 270.052776 315.078281 
L 273.424343 318.967116 
L 276.795915 322.355726 
L 279.04363 324.31628 
L 281.291346 325.808882 
L 283.539061 327.180463 
L 285.786776 328.318068 
L 286.910633 328.673065 
L 289.158348 328.99579 
L 292.529921 329.011926 
L 293.653778 329.084539 
L 295.901488 328.874768 
L 298.149203 328.245455 
L 303.768491 326.357514 
L 304.892348 325.607179 
L 309.387778 321.734481 
L 317.254781 313.271022 
L 319.502491 310.197068 
L 323.997921 303.444051 
L 329.617208 293.810714 
L 336.360354 280.417634 
L 340.855784 270.163052 
L 343.103493 265.394792 
L 356.589784 232.509131 
L 359.961356 223.763288 
L 362.209071 217.938105 
L 365.580644 209.821575 
L 370.076069 198.816658 
L 374.571499 188.352305 
L 379.066929 178.089655 
L 386.933931 161.622621 
L 397.048644 143.235373 
L 399.296359 139.55631 
L 404.915646 130.947625 
L 408.287219 126.251978 
L 417.278074 114.988881 
L 420.649646 111.479249 
L 421.773504 110.164145 
L 425.145077 106.92076 
L 426.268934 105.912245 
L 433.012079 100.772852 
L 435.259794 99.393204 
L 439.755219 96.569361 
L 442.002934 95.213917 
L 445.374507 93.616429 
L 446.498364 93.204955 
L 448.746079 92.712799 
L 450.993794 91.841442 
L 452.117652 91.631671 
L 454.365367 91.518718 
L 455.489224 91.429968 
L 456.613082 91.599399 
L 459.984655 92.761208 
L 461.108512 93.277568 
L 462.232364 94.197334 
L 463.356222 95.568914 
L 464.480079 97.158334 
L 465.603937 99.110819 
L 466.727794 101.797504 
L 467.851652 105.226455 
L 468.975509 109.333129 
L 470.099367 114.335364 
L 471.223224 120.265433 
L 472.347082 127.01845 
L 473.470939 134.642824 
L 475.718654 152.424963 
L 480.214085 189.844908 
L 485.833367 233.840371 
L 486.957224 241.908492 
L 488.081082 248.734123 
L 489.204939 253.865448 
L 490.328797 257.189513 
L 491.452654 258.762797 
L 492.576512 258.843478 
L 493.700369 257.980189 
L 494.824227 256.721562 
L 495.948085 255.204756 
L 497.071942 253.316815 
L 498.1958 250.896379 
L 499.319657 247.88697 
L 500.443515 244.369269 
L 502.69123 236.051036 
L 504.938945 227.442351 
L 506.062802 223.674539 
L 508.310517 217.3572 
L 509.434375 214.807674 
L 510.558227 212.895529 
L 511.682084 211.878946 
L 512.805942 211.999968 
L 513.9298 213.411889 
L 515.053657 216.163118 
L 516.177515 220.172974 
L 517.301372 225.376912 
L 518.42523 231.645842 
L 522.92066 258.811206 
L 524.044517 263.999007 
L 525.168375 267.952387 
L 526.292232 270.582594 
L 527.41609 271.808949 
L 528.539947 271.704063 
L 529.663805 270.397027 
L 530.787663 267.879774 
L 531.91152 264.224915 
L 533.035378 259.666427 
L 534.15923 254.357603 
L 539.778517 224.102149 
L 542.026232 210.870431 
L 546.521662 183.43882 
L 547.64552 177.452274 
L 549.893235 167.254169 
L 552.14095 158.831051 
L 554.388665 151.497129 
L 556.63638 145.212063 
L 558.88409 139.273925 
L 560.007947 136.627582 
L 561.131805 134.279759 
L 564.503377 128.285145 
L 568.998808 120.442931 
L 576.86581 107.614619 
L 577.989668 106.154289 
L 580.237383 103.782261 
L 582.485092 101.539324 
L 583.60895 100.772852 
L 585.856665 99.651383 
L 588.10438 98.408893 
L 590.352095 97.666626 
L 592.59981 96.771064 
L 595.971383 95.899707 
L 597.09524 95.480165 
L 599.342955 94.963805 
L 608.33381 90.921677 
L 609.457668 90.534407 
L 610.581525 89.993843 
L 612.82924 88.557717 
L 615.076955 87.00057 
L 618.448528 83.991161 
L 620.696243 82.530831 
L 622.943958 81.151182 
L 627.439388 78.996994 
L 628.563246 78.424157 
L 630.810955 77.488255 
L 633.05867 76.132811 
L 634.182528 75.818154 
L 635.306385 75.7052 
L 636.430243 75.471225 
L 639.801816 73.986691 
L 655.535816 70.614216 
L 656.659673 70.08172 
L 657.783531 69.767063 
L 662.278961 69.105477 
L 663.402818 68.790821 
L 666.774391 67.50799 
L 667.898248 66.894812 
L 669.022106 66.564019 
L 671.269821 66.555951 
L 673.517536 65.999251 
L 675.765251 65.40221 
L 676.889109 65.006872 
L 679.136818 64.651875 
L 679.136818 64.651875 
" clip-path="url(#p5276bbfe01)" style="fill: none; stroke: #e377c2; stroke-width: 1.5; stroke-linecap: square"/>
   </g>
   <g id="line2d_30">
    <path d="M 77.873182 44.626798 
L 78.997034 44.83657 
L 80.120891 44.788161 
L 81.244749 44.352482 
L 82.368606 44.110439 
L 83.492464 44.215324 
L 84.616322 44.529981 
L 85.740179 45.030205 
L 86.864037 45.256112 
L 89.111752 45.320657 
L 91.359467 45.715995 
L 93.607182 45.223839 
L 96.978754 46.087128 
L 99.226469 46.159741 
L 103.721894 45.715995 
L 104.845752 46.014515 
L 105.969609 46.764851 
L 108.217324 47.813706 
L 109.341182 48.22518 
L 112.712754 48.798017 
L 114.960469 48.733472 
L 116.084327 49.096537 
L 117.208184 49.806532 
L 118.332042 50.274483 
L 120.579757 50.20187 
L 121.703615 50.839252 
L 122.827472 51.678336 
L 123.95133 52.202764 
L 126.199045 52.896622 
L 127.322897 53.5098 
L 129.570612 55.236378 
L 131.818327 56.430459 
L 134.066042 57.769768 
L 137.437614 59.698048 
L 138.561472 60.569405 
L 140.809187 62.755866 
L 143.056902 64.530853 
L 145.304617 66.031523 
L 150.923899 71.646936 
L 153.171614 74.293279 
L 154.295472 75.826222 
L 155.41933 77.028372 
L 156.543187 77.988479 
L 157.667045 79.4004 
L 159.91476 82.885828 
L 164.41019 89.090213 
L 171.153335 100.248424 
L 173.40105 104.718163 
L 176.772617 111.245273 
L 179.020332 115.351947 
L 183.515762 124.622218 
L 191.382765 141.912201 
L 192.506623 143.969572 
L 193.63048 146.591711 
L 195.878195 152.336213 
L 199.249762 160.000928 
L 209.36448 182.849847 
L 212.736053 190.65172 
L 214.983768 195.492592 
L 217.231483 200.406078 
L 222.850765 212.024172 
L 225.09848 216.453571 
L 227.346195 221.246034 
L 229.59391 225.659297 
L 231.841625 230.443692 
L 234.08934 234.550366 
L 237.460913 240.617593 
L 239.708628 244.224043 
L 244.204058 252.219551 
L 248.699483 259.303361 
L 250.947198 262.853334 
L 253.194913 266.371035 
L 255.442628 269.566011 
L 258.8142 274.068022 
L 259.938058 275.649374 
L 265.557346 281.982849 
L 270.052776 286.291226 
L 272.300485 288.009735 
L 275.672058 289.92188 
L 277.919773 290.898123 
L 280.167488 291.664594 
L 284.662918 292.519815 
L 285.786776 292.495611 
L 286.910633 292.28584 
L 289.158348 291.495164 
L 291.406063 290.510853 
L 294.77763 289.631428 
L 297.025345 288.243711 
L 299.273061 286.799517 
L 302.644633 284.330672 
L 303.768491 283.314089 
L 306.016206 280.829108 
L 309.387778 276.95641 
L 312.759351 273.148257 
L 313.883208 271.687927 
L 316.130923 268.396133 
L 318.378633 265.160817 
L 321.750206 259.577677 
L 322.874063 257.834963 
L 329.617208 245.426193 
L 339.731926 224.376465 
L 345.351208 211.86281 
L 347.598923 206.771825 
L 349.846638 201.737318 
L 352.094354 196.783492 
L 354.342069 191.539213 
L 356.589784 186.867771 
L 362.209071 173.942641 
L 364.456786 169.230859 
L 367.828353 162.52625 
L 371.199926 155.353691 
L 372.323784 153.126889 
L 375.695356 147.148412 
L 377.943071 142.896512 
L 381.314644 137.385985 
L 382.438501 135.344751 
L 384.686216 131.907731 
L 391.429356 121.758035 
L 393.677071 118.579195 
L 394.800929 116.92523 
L 397.048644 114.182069 
L 400.420216 110.373916 
L 401.544074 108.857109 
L 407.163362 102.830223 
L 408.287219 101.765231 
L 410.534934 99.96604 
L 412.782649 97.900601 
L 417.278074 94.253811 
L 419.525789 92.858026 
L 422.897361 90.139069 
L 425.145077 88.412491 
L 428.516649 86.734322 
L 433.012079 84.628542 
L 435.259794 83.539346 
L 442.002934 81.126978 
L 443.126792 80.812321 
L 450.993794 79.505285 
L 453.241509 79.56983 
L 454.365367 79.650512 
L 456.613082 80.199144 
L 457.736939 80.521869 
L 458.860797 80.973683 
L 461.108512 82.563103 
L 462.232364 83.611959 
L 463.356222 84.991608 
L 464.480079 86.581027 
L 465.603937 88.444763 
L 466.727794 90.962017 
L 467.851652 94.34256 
L 468.975509 98.50571 
L 470.099367 103.548286 
L 471.223224 109.438014 
L 472.347082 116.053873 
L 473.470939 123.387795 
L 475.718654 140.363122 
L 483.585657 206.295806 
L 485.833367 224.376465 
L 486.957224 232.751175 
L 488.081082 239.834985 
L 489.204939 245.159945 
L 490.328797 248.734123 
L 491.452654 250.476837 
L 492.576512 250.492973 
L 493.700369 249.468322 
L 495.948085 247.088226 
L 497.071942 245.942553 
L 498.1958 244.345065 
L 499.319657 242.053718 
L 500.443515 239.270217 
L 501.567372 236.026832 
L 502.69123 232.121862 
L 507.18666 214.831878 
L 508.310517 211.144747 
L 509.434375 207.901362 
L 510.558227 205.359904 
L 511.682084 203.859234 
L 512.805942 203.665599 
L 513.9298 204.754795 
L 515.053657 207.110687 
L 516.177515 210.975317 
L 517.301372 216.429366 
L 518.42523 223.045225 
L 520.672945 238.116475 
L 522.92066 253.63954 
L 524.044517 260.666874 
L 525.168375 266.911599 
L 526.292232 272.14781 
L 527.41609 276.189938 
L 528.539947 279.029917 
L 529.663805 280.683882 
L 530.787663 281.143765 
L 531.91152 280.336952 
L 533.035378 278.15856 
L 534.15923 274.656995 
L 535.283087 270.009758 
L 536.406945 264.426618 
L 537.530802 258.06087 
L 539.778517 243.457572 
L 542.026232 226.433836 
L 546.521662 189.70775 
L 548.769378 173.910369 
L 549.893235 167.33485 
L 552.14095 156.483228 
L 554.388665 147.333978 
L 555.512523 143.541961 
L 557.760232 137.15201 
L 558.88409 134.408849 
L 560.007947 132.117502 
L 561.131805 130.221494 
L 563.37952 127.131403 
L 567.87495 121.524059 
L 568.998808 119.7168 
L 571.246523 115.440696 
L 576.86581 103.628967 
L 579.113525 100.09513 
L 581.36124 97.17447 
L 582.485092 96.077206 
L 583.60895 95.28653 
L 588.10438 92.801549 
L 591.475953 91.357355 
L 592.59981 90.970085 
L 598.219098 89.695322 
L 599.342955 89.509755 
L 604.962243 87.307158 
L 607.209953 86.338984 
L 609.457668 85.774215 
L 610.581525 85.322401 
L 612.82924 84.047637 
L 616.200813 81.627201 
L 618.448528 79.715057 
L 622.943958 76.834737 
L 624.067816 76.374854 
L 626.315531 75.600315 
L 629.687098 73.857601 
L 630.810955 73.438058 
L 634.182528 71.622731 
L 636.430243 70.953077 
L 639.801816 69.541156 
L 645.421103 68.23412 
L 652.164248 66.60436 
L 654.411958 66.370384 
L 655.535816 66.265499 
L 658.907388 65.474823 
L 661.155103 64.780965 
L 662.278961 64.595398 
L 665.650533 63.506202 
L 670.145963 62.836547 
L 671.269821 62.812343 
L 673.517536 62.449278 
L 674.641394 62.263711 
L 675.765251 61.940986 
L 676.889109 61.456899 
L 678.012961 61.174515 
L 679.136818 61.126106 
L 679.136818 61.126106 
" clip-path="url(#p5276bbfe01)" style="fill: none; stroke: #7f7f7f; stroke-width: 1.5; stroke-linecap: square"/>
   </g>
   <g id="line2d_31">
    <path d="M 77.873182 43.876463 
L 78.997034 43.989417 
L 80.120891 43.965213 
L 82.368606 43.061583 
L 83.492464 43.335899 
L 84.616322 43.973281 
L 85.740179 44.296006 
L 90.235609 44.344414 
L 91.359467 44.594526 
L 93.607182 44.118507 
L 95.854897 44.731684 
L 96.978754 44.83657 
L 100.350327 45.853153 
L 101.474184 45.69179 
L 102.598037 45.239976 
L 103.721894 44.602594 
L 104.845752 44.570322 
L 105.969609 45.457815 
L 107.093467 46.119401 
L 111.588897 47.531322 
L 112.712754 47.53939 
L 114.960469 46.748714 
L 116.084327 47.313483 
L 117.208184 48.749608 
L 118.332042 49.604829 
L 119.455899 49.499944 
L 120.579757 49.023924 
L 121.703615 49.346649 
L 122.827472 50.056644 
L 125.075187 50.879592 
L 126.199045 51.525042 
L 128.446754 53.243552 
L 129.570612 53.76798 
L 131.818327 53.905138 
L 132.942184 54.284339 
L 134.066042 55.325127 
L 135.189899 56.640231 
L 136.313757 57.28568 
L 137.437614 57.293748 
L 138.561472 57.721359 
L 140.809187 60.238613 
L 141.933045 61.166446 
L 145.304617 63.231885 
L 150.923899 68.19378 
L 152.047757 69.315249 
L 155.41933 73.196015 
L 156.543187 74.131917 
L 157.667045 75.592247 
L 158.790902 77.334961 
L 162.162475 81.506179 
L 164.41019 84.975471 
L 166.657905 88.807829 
L 168.90562 91.970532 
L 170.029477 93.43893 
L 172.277192 96.900154 
L 173.40105 98.804231 
L 180.14419 111.906859 
L 181.268047 114.206274 
L 184.63962 120.418727 
L 186.887335 124.953011 
L 189.13505 130.060131 
L 190.258907 132.262728 
L 192.506623 136.224176 
L 197.002053 145.631605 
L 198.12591 148.132722 
L 200.37362 152.295873 
L 204.86905 160.67865 
L 209.36448 169.166314 
L 212.736053 174.967293 
L 216.107625 180.485887 
L 218.35534 183.73734 
L 222.850765 190.861491 
L 226.222337 195.428047 
L 228.470053 198.80859 
L 230.717768 201.584024 
L 231.841625 203.133103 
L 235.213198 207.078414 
L 236.337055 208.603289 
L 237.460913 209.918393 
L 238.58477 210.991453 
L 241.956343 214.759265 
L 244.204058 216.590729 
L 248.699483 220.987855 
L 253.194913 224.610441 
L 254.31877 225.691569 
L 255.442628 226.514517 
L 264.433488 231.089142 
L 271.176628 233.098104 
L 273.424343 233.090036 
L 274.5482 233.098104 
L 276.795915 232.856061 
L 279.04363 232.823788 
L 280.167488 232.614017 
L 282.415203 231.855614 
L 286.910633 230.088695 
L 291.406063 226.909855 
L 293.653778 225.409185 
L 295.901488 223.650335 
L 299.273061 220.592517 
L 301.520776 218.664236 
L 303.768491 216.421298 
L 306.016206 214.210633 
L 315.007066 203.367078 
L 319.502491 197.041672 
L 322.874063 192.813976 
L 329.617208 182.043035 
L 331.864923 178.646356 
L 335.236496 172.700151 
L 337.484211 168.996883 
L 345.351208 155.813573 
L 347.598923 152.441099 
L 353.218211 143.211169 
L 354.342069 141.557204 
L 356.589784 138.61234 
L 358.837499 134.739642 
L 361.085214 130.987965 
L 363.332929 127.809126 
L 371.199926 117.707838 
L 375.695356 112.213448 
L 377.943071 109.373469 
L 381.314644 105.80736 
L 383.562359 103.233629 
L 388.057789 98.691277 
L 395.924786 92.277121 
L 398.172501 90.671565 
L 404.915646 85.983987 
L 406.039504 85.330469 
L 408.287219 83.82173 
L 410.534934 82.667989 
L 412.782649 81.498111 
L 415.030359 80.546073 
L 417.278074 79.182561 
L 418.401931 78.779155 
L 419.525789 78.504838 
L 420.649646 77.964274 
L 421.773504 77.278484 
L 422.897361 76.73792 
L 426.268934 75.584179 
L 428.516649 74.567595 
L 429.640507 74.269075 
L 430.764364 74.115781 
L 435.259794 72.768404 
L 443.126792 71.235461 
L 445.374507 71.033758 
L 447.622222 71.130576 
L 455.489224 71.880911 
L 456.613082 72.1875 
L 457.736939 72.647383 
L 459.984655 73.978623 
L 461.108512 74.809639 
L 462.232364 75.890767 
L 464.480079 78.803359 
L 465.603937 80.715504 
L 466.727794 83.39412 
L 467.851652 86.815003 
L 468.975509 90.832927 
L 470.099367 95.593119 
L 471.223224 101.248871 
L 473.470939 114.77911 
L 475.718654 130.762058 
L 477.96637 148.866921 
L 485.833367 214.218701 
L 486.957224 222.270686 
L 488.081082 229.015635 
L 489.204939 234.034006 
L 490.328797 237.10796 
L 491.452654 238.205225 
L 492.576512 237.793751 
L 495.948085 234.735933 
L 498.1958 233.211058 
L 499.319657 231.992772 
L 500.443515 230.15324 
L 501.567372 227.757008 
L 502.69123 224.691122 
L 503.815087 220.802288 
L 506.062802 211.386791 
L 508.310517 201.672773 
L 509.434375 197.549963 
L 510.558227 194.451805 
L 511.682084 192.741363 
L 512.805942 192.628409 
L 513.9298 194.064535 
L 515.053657 196.8319 
L 516.177515 200.817552 
L 517.301372 206.061831 
L 518.42523 212.500191 
L 519.549087 219.882522 
L 526.292232 268.775335 
L 527.41609 275.479944 
L 528.539947 281.143765 
L 529.663805 285.726457 
L 530.787663 289.23609 
L 531.91152 291.696867 
L 533.035378 292.907085 
L 534.15923 292.568224 
L 535.283087 290.510853 
L 536.406945 286.815654 
L 537.530802 281.611716 
L 538.65466 274.907107 
L 539.778517 266.726032 
L 540.902375 257.084628 
L 543.15009 234.929568 
L 547.64552 189.223662 
L 548.769378 179.501577 
L 549.893235 170.763802 
L 551.017093 163.04261 
L 552.14095 156.160503 
L 553.264808 150.028731 
L 554.388665 144.75218 
L 555.512523 140.37119 
L 556.63638 136.619514 
L 557.760232 133.279312 
L 558.88409 130.600695 
L 560.007947 128.801504 
L 561.131805 127.688104 
L 562.255662 127.05879 
L 563.37952 126.76027 
L 565.627235 126.364932 
L 566.751093 125.85664 
L 567.87495 124.864261 
L 568.998808 123.428136 
L 570.122665 121.507923 
L 571.246523 119.006806 
L 573.494238 112.713671 
L 575.741953 106.162357 
L 576.86581 103.241697 
L 577.989668 100.667967 
L 579.113525 98.392757 
L 580.237383 96.432203 
L 581.36124 94.794375 
L 582.485092 93.463135 
L 583.60895 92.438483 
L 585.856665 90.986222 
L 588.10438 89.840548 
L 591.475953 88.485104 
L 597.09524 86.927957 
L 599.342955 86.653641 
L 601.59067 85.782284 
L 606.086095 84.37843 
L 607.209953 83.95082 
L 609.457668 83.43446 
L 610.581525 82.966509 
L 612.82924 81.699814 
L 615.076955 80.626754 
L 621.820101 75.543838 
L 622.943958 74.882252 
L 626.315531 73.567148 
L 628.563246 72.284317 
L 630.810955 71.493641 
L 631.934813 70.848192 
L 633.05867 70.065584 
L 634.182528 69.557292 
L 635.306385 69.226499 
L 636.430243 68.75048 
L 639.801816 66.73345 
L 644.297246 65.289256 
L 653.288106 63.578815 
L 654.411958 63.473929 
L 657.783531 62.457346 
L 658.907388 62.392801 
L 663.402818 61.553716 
L 665.650533 60.948607 
L 667.898248 60.182136 
L 669.022106 60.149863 
L 670.145963 60.359634 
L 671.269821 60.424179 
L 673.517536 59.536686 
L 674.641394 59.456005 
L 675.765251 59.488277 
L 679.136818 58.697601 
L 679.136818 58.697601 
" clip-path="url(#p5276bbfe01)" style="fill: none; stroke: #bcbd22; stroke-width: 1.5; stroke-linecap: square"/>
   </g>
   <g id="line2d_32">
    <path d="M 533.502462 390.04 
L 533.502462 25.44 
" clip-path="url(#p5276bbfe01)" style="fill: none; stroke-dasharray: 5.55,2.4; stroke-dashoffset: 0; stroke: #808080; stroke-width: 1.5"/>
   </g>
   <g id="line2d_33">
    <path d="M 490.238205 390.04 
L 490.238205 25.44 
" clip-path="url(#p5276bbfe01)" style="fill: none; stroke-dasharray: 5.55,2.4; stroke-dashoffset: 0; stroke: #808080; stroke-width: 1.5"/>
   </g>
   <g id="line2d_34">
    <path d="M 295.822873 390.04 
L 295.822873 25.44 
" clip-path="url(#p5276bbfe01)" style="fill: none; stroke-dasharray: 5.55,2.4; stroke-dashoffset: 0; stroke: #808080; stroke-width: 1.5"/>
   </g>
   <g id="patch_3">
    <path d="M 47.81 390.04 
L 47.81 25.44 
" style="fill: none; stroke: #000000; stroke-width: 0.8; stroke-linejoin: miter; stroke-linecap: square"/>
   </g>
   <g id="patch_4">
    <path d="M 709.2 390.04 
L 709.2 25.44 
" style="fill: none; stroke: #000000; stroke-width: 0.8; stroke-linejoin: miter; stroke-linecap: square"/>
   </g>
   <g id="patch_5">
    <path d="M 47.81 390.04 
L 709.2 390.04 
" style="fill: none; stroke: #000000; stroke-width: 0.8; stroke-linejoin: miter; stroke-linecap: square"/>
   </g>
   <g id="patch_6">
    <path d="M 47.81 25.44 
L 709.2 25.44 
" style="fill: none; stroke: #000000; stroke-width: 0.8; stroke-linejoin: miter; stroke-linecap: square"/>
   </g>
   <g id="text_14">
    <!-- 2866 cm⁻¹ -->
    <g style="fill: #808080" transform="translate(531.422774 115.054687) rotate(-90) scale(0.1 -0.1)">
     <use xlink:href="#DejaVuSans-32"/>
     <use xlink:href="#DejaVuSans-38" x="63.623047"/>
     <use xlink:href="#DejaVuSans-36" x="127.246094"/>
     <use xlink:href="#DejaVuSans-36" x="190.869141"/>
     <use xlink:href="#DejaVuSans-20" x="254.492188"/>
     <use xlink:href="#DejaVuSans-63" x="286.279297"/>
     <use xlink:href="#DejaVuSans-6d" x="341.259766"/>
     <use xlink:href="#DejaVuSans-207b" x="438.671875"/>
     <use xlink:href="#DejaVuSans-b9" x="491.455078"/>
    </g>
   </g>
   <g id="text_15">
    <!-- 2945 cm⁻¹ -->
    <g style="fill: #808080" transform="translate(488.158517 115.054687) rotate(-90) scale(0.1 -0.1)">
     <defs>
      <path id="DejaVuSans-35" d="M 691 4666 
L 3169 4666 
L 3169 4134 
L 1269 4134 
L 1269 2991 
Q 1406 3038 1543 3061 
Q 1681 3084 1819 3084 
Q 2600 3084 3056 2656 
Q 3513 2228 3513 1497 
Q 3513 744 3044 326 
Q 2575 -91 1722 -91 
Q 1428 -91 1123 -41 
Q 819 9 494 109 
L 494 744 
Q 775 591 1075 516 
Q 1375 441 1709 441 
Q 2250 441 2565 725 
Q 2881 1009 2881 1497 
Q 2881 1984 2565 2268 
Q 2250 2553 1709 2553 
Q 1456 2553 1204 2497 
Q 953 2441 691 2322 
L 691 4666 
z
" transform="scale(0.015625)"/>
     </defs>
     <use xlink:href="#DejaVuSans-32"/>
     <use xlink:href="#DejaVuSans-39" x="63.623047"/>
     <use xlink:href="#DejaVuSans-34" x="127.246094"/>
     <use xlink:href="#DejaVuSans-35" x="190.869141"/>
     <use xlink:href="#DejaVuSans-20" x="254.492188"/>
     <use xlink:href="#DejaVuSans-63" x="286.279297"/>
     <use xlink:href="#DejaVuSans-6d" x="341.259766"/>
     <use xlink:href="#DejaVuSans-207b" x="438.671875"/>
     <use xlink:href="#DejaVuSans-b9" x="491.455078"/>
    </g>
   </g>
   <g id="text_16">
    <!-- 3300 cm⁻¹ -->
    <g style="fill: #808080" transform="translate(293.743185 115.054687) rotate(-90) scale(0.1 -0.1)">
     <use xlink:href="#DejaVuSans-33"/>
     <use xlink:href="#DejaVuSans-33" x="63.623047"/>
     <use xlink:href="#DejaVuSans-30" x="127.246094"/>
     <use xlink:href="#DejaVuSans-30" x="190.869141"/>
     <use xlink:href="#DejaVuSans-20" x="254.492188"/>
     <use xlink:href="#DejaVuSans-63" x="286.279297"/>
     <use xlink:href="#DejaVuSans-6d" x="341.259766"/>
     <use xlink:href="#DejaVuSans-207b" x="438.671875"/>
     <use xlink:href="#DejaVuSans-b9" x="491.455078"/>
    </g>
   </g>
   <g id="text_17">
    <!-- FTIR Spectrum -->
    <g transform="translate(334.57375 19.44) scale(0.12 -0.12)">
     <defs>
      <path id="DejaVuSans-46" d="M 628 4666 
L 3309 4666 
L 3309 4134 
L 1259 4134 
L 1259 2759 
L 3109 2759 
L 3109 2228 
L 1259 2228 
L 1259 0 
L 628 0 
L 628 4666 
z
" transform="scale(0.015625)"/>
      <path id="DejaVuSans-54" d="M -19 4666 
L 3928 4666 
L 3928 4134 
L 2272 4134 
L 2272 0 
L 1638 0 
L 1638 4134 
L -19 4134 
L -19 4666 
z
" transform="scale(0.015625)"/>
      <path id="DejaVuSans-52" d="M 2841 2188 
Q 3044 2119 3236 1894 
Q 3428 1669 3622 1275 
L 4263 0 
L 3584 0 
L 2988 1197 
Q 2756 1666 2539 1819 
Q 2322 1972 1947 1972 
L 1259 1972 
L 1259 0 
L 628 0 
L 628 4666 
L 2053 4666 
Q 2853 4666 3247 4331 
Q 3641 3997 3641 3322 
Q 3641 2881 3436 2590 
Q 3231 2300 2841 2188 
z
M 1259 4147 
L 1259 2491 
L 2053 2491 
Q 2509 2491 2742 2702 
Q 2975 2913 2975 3322 
Q 2975 3731 2742 3939 
Q 2509 4147 2053 4147 
L 1259 4147 
z
" transform="scale(0.015625)"/>
      <path id="DejaVuSans-53" d="M 3425 4513 
L 3425 3897 
Q 3066 4069 2747 4153 
Q 2428 4238 2131 4238 
Q 1616 4238 1336 4038 
Q 1056 3838 1056 3469 
Q 1056 3159 1242 3001 
Q 1428 2844 1947 2747 
L 2328 2669 
Q 3034 2534 3370 2195 
Q 3706 1856 3706 1288 
Q 3706 609 3251 259 
Q 2797 -91 1919 -91 
Q 1588 -91 1214 -16 
Q 841 59 441 206 
L 441 856 
Q 825 641 1194 531 
Q 1563 422 1919 422 
Q 2459 422 2753 634 
Q 3047 847 3047 1241 
Q 3047 1584 2836 1778 
Q 2625 1972 2144 2069 
L 1759 2144 
Q 1053 2284 737 2584 
Q 422 2884 422 3419 
Q 422 4038 858 4394 
Q 1294 4750 2059 4750 
Q 2388 4750 2728 4690 
Q 3069 4631 3425 4513 
z
" transform="scale(0.015625)"/>
      <path id="DejaVuSans-70" d="M 1159 525 
L 1159 -1331 
L 581 -1331 
L 581 3500 
L 1159 3500 
L 1159 2969 
Q 1341 3281 1617 3432 
Q 1894 3584 2278 3584 
Q 2916 3584 3314 3078 
Q 3713 2572 3713 1747 
Q 3713 922 3314 415 
Q 2916 -91 2278 -91 
Q 1894 -91 1617 61 
Q 1341 213 1159 525 
z
M 3116 1747 
Q 3116 2381 2855 2742 
Q 2594 3103 2138 3103 
Q 1681 3103 1420 2742 
Q 1159 2381 1159 1747 
Q 1159 1113 1420 752 
Q 1681 391 2138 391 
Q 2594 391 2855 752 
Q 3116 1113 3116 1747 
z
" transform="scale(0.015625)"/>
     </defs>
     <use xlink:href="#DejaVuSans-46"/>
     <use xlink:href="#DejaVuSans-54" x="55.769531"/>
     <use xlink:href="#DejaVuSans-49" x="116.853516"/>
     <use xlink:href="#DejaVuSans-52" x="146.345703"/>
     <use xlink:href="#DejaVuSans-20" x="215.828125"/>
     <use xlink:href="#DejaVuSans-53" x="247.615234"/>
     <use xlink:href="#DejaVuSans-70" x="311.091797"/>
     <use xlink:href="#DejaVuSans-65" x="374.568359"/>
     <use xlink:href="#DejaVuSans-63" x="436.091797"/>
     <use xlink:href="#DejaVuSans-74" x="491.072266"/>
     <use xlink:href="#DejaVuSans-72" x="530.28125"/>
     <use xlink:href="#DejaVuSans-75" x="571.394531"/>
     <use xlink:href="#DejaVuSans-6d" x="634.773438"/>
    </g>
   </g>
   <g id="legend_1">
    <g id="patch_7">
     <path d="M 54.81 385.04 
L 160.492813 385.04 
Q 162.492813 385.04 162.492813 383.04 
L 162.492813 251.936875 
Q 162.492813 249.936875 160.492813 249.936875 
L 54.81 249.936875 
Q 52.81 249.936875 52.81 251.936875 
L 52.81 383.04 
Q 52.81 385.04 54.81 385.04 
z
" style="fill: #ffffff; opacity: 0.8; stroke: #cccccc; stroke-linejoin: miter"/>
    </g>
    <g id="line2d_35">
     <path d="M 56.81 258.035313 
L 66.81 258.035313 
L 76.81 258.035313 
" style="fill: none; stroke: #1f77b4; stroke-width: 1.5; stroke-linecap: square"/>
    </g>
    <g id="text_18">
     <!-- 1,3-PDO -->
     <g transform="translate(84.81 261.535313) scale(0.1 -0.1)">
      <defs>
       <path id="DejaVuSans-2c" d="M 750 794 
L 1409 794 
L 1409 256 
L 897 -744 
L 494 -744 
L 750 256 
L 750 794 
z
" transform="scale(0.015625)"/>
       <path id="DejaVuSans-2d" d="M 313 2009 
L 1997 2009 
L 1997 1497 
L 313 1497 
L 313 2009 
z
" transform="scale(0.015625)"/>
       <path id="DejaVuSans-50" d="M 1259 4147 
L 1259 2394 
L 2053 2394 
Q 2494 2394 2734 2622 
Q 2975 2850 2975 3272 
Q 2975 3691 2734 3919 
Q 2494 4147 2053 4147 
L 1259 4147 
z
M 628 4666 
L 2053 4666 
Q 2838 4666 3239 4311 
Q 3641 3956 3641 3272 
Q 3641 2581 3239 2228 
Q 2838 1875 2053 1875 
L 1259 1875 
L 1259 0 
L 628 0 
L 628 4666 
z
" transform="scale(0.015625)"/>
       <path id="DejaVuSans-44" d="M 1259 4147 
L 1259 519 
L 2022 519 
Q 2988 519 3436 956 
Q 3884 1394 3884 2338 
Q 3884 3275 3436 3711 
Q 2988 4147 2022 4147 
L 1259 4147 
z
M 628 4666 
L 1925 4666 
Q 3281 4666 3915 4102 
Q 4550 3538 4550 2338 
Q 4550 1131 3912 565 
Q 3275 0 1925 0 
L 628 0 
L 628 4666 
z
" transform="scale(0.015625)"/>
       <path id="DejaVuSans-4f" d="M 2522 4238 
Q 1834 4238 1429 3725 
Q 1025 3213 1025 2328 
Q 1025 1447 1429 934 
Q 1834 422 2522 422 
Q 3209 422 3611 934 
Q 4013 1447 4013 2328 
Q 4013 3213 3611 3725 
Q 3209 4238 2522 4238 
z
M 2522 4750 
Q 3503 4750 4090 4092 
Q 4678 3434 4678 2328 
Q 4678 1225 4090 567 
Q 3503 -91 2522 -91 
Q 1538 -91 948 565 
Q 359 1222 359 2328 
Q 359 3434 948 4092 
Q 1538 4750 2522 4750 
z
" transform="scale(0.015625)"/>
      </defs>
      <use xlink:href="#DejaVuSans-31"/>
      <use xlink:href="#DejaVuSans-2c" x="63.623047"/>
      <use xlink:href="#DejaVuSans-33" x="95.410156"/>
      <use xlink:href="#DejaVuSans-2d" x="159.033203"/>
      <use xlink:href="#DejaVuSans-50" x="195.117188"/>
      <use xlink:href="#DejaVuSans-44" x="255.419922"/>
      <use xlink:href="#DejaVuSans-4f" x="332.421875"/>
     </g>
    </g>
    <g id="line2d_36">
     <path d="M 56.81 272.713437 
L 66.81 272.713437 
L 76.81 272.713437 
" style="fill: none; stroke: #ff7f0e; stroke-width: 1.5; stroke-linecap: square"/>
    </g>
    <g id="text_19">
     <!-- Experiment 01 -->
     <g transform="translate(84.81 276.213437) scale(0.1 -0.1)">
      <defs>
       <path id="DejaVuSans-45" d="M 628 4666 
L 3578 4666 
L 3578 4134 
L 1259 4134 
L 1259 2753 
L 3481 2753 
L 3481 2222 
L 1259 2222 
L 1259 531 
L 3634 531 
L 3634 0 
L 628 0 
L 628 4666 
z
" transform="scale(0.015625)"/>
       <path id="DejaVuSans-78" d="M 3513 3500 
L 2247 1797 
L 3578 0 
L 2900 0 
L 1881 1375 
L 863 0 
L 184 0 
L 1544 1831 
L 300 3500 
L 978 3500 
L 1906 2253 
L 2834 3500 
L 3513 3500 
z
" transform="scale(0.015625)"/>
      </defs>
      <use xlink:href="#DejaVuSans-45"/>
      <use xlink:href="#DejaVuSans-78" x="63.183594"/>
      <use xlink:href="#DejaVuSans-70" x="122.363281"/>
      <use xlink:href="#DejaVuSans-65" x="185.839844"/>
      <use xlink:href="#DejaVuSans-72" x="247.363281"/>
      <use xlink:href="#DejaVuSans-69" x="288.476562"/>
      <use xlink:href="#DejaVuSans-6d" x="316.259766"/>
      <use xlink:href="#DejaVuSans-65" x="413.671875"/>
      <use xlink:href="#DejaVuSans-6e" x="475.195312"/>
      <use xlink:href="#DejaVuSans-74" x="538.574219"/>
      <use xlink:href="#DejaVuSans-20" x="577.783203"/>
      <use xlink:href="#DejaVuSans-30" x="609.570312"/>
      <use xlink:href="#DejaVuSans-31" x="673.193359"/>
     </g>
    </g>
    <g id="line2d_37">
     <path d="M 56.81 287.391563 
L 66.81 287.391563 
L 76.81 287.391563 
" style="fill: none; stroke: #2ca02c; stroke-width: 1.5; stroke-linecap: square"/>
    </g>
    <g id="text_20">
     <!-- Experiment 02 -->
     <g transform="translate(84.81 290.891563) scale(0.1 -0.1)">
      <use xlink:href="#DejaVuSans-45"/>
      <use xlink:href="#DejaVuSans-78" x="63.183594"/>
      <use xlink:href="#DejaVuSans-70" x="122.363281"/>
      <use xlink:href="#DejaVuSans-65" x="185.839844"/>
      <use xlink:href="#DejaVuSans-72" x="247.363281"/>
      <use xlink:href="#DejaVuSans-69" x="288.476562"/>
      <use xlink:href="#DejaVuSans-6d" x="316.259766"/>
      <use xlink:href="#DejaVuSans-65" x="413.671875"/>
      <use xlink:href="#DejaVuSans-6e" x="475.195312"/>
      <use xlink:href="#DejaVuSans-74" x="538.574219"/>
      <use xlink:href="#DejaVuSans-20" x="577.783203"/>
      <use xlink:href="#DejaVuSans-30" x="609.570312"/>
      <use xlink:href="#DejaVuSans-32" x="673.193359"/>
     </g>
    </g>
    <g id="line2d_38">
     <path d="M 56.81 302.069687 
L 66.81 302.069687 
L 76.81 302.069687 
" style="fill: none; stroke: #d62728; stroke-width: 1.5; stroke-linecap: square"/>
    </g>
    <g id="text_21">
     <!-- Experiment 03 -->
     <g transform="translate(84.81 305.569687) scale(0.1 -0.1)">
      <use xlink:href="#DejaVuSans-45"/>
      <use xlink:href="#DejaVuSans-78" x="63.183594"/>
      <use xlink:href="#DejaVuSans-70" x="122.363281"/>
      <use xlink:href="#DejaVuSans-65" x="185.839844"/>
      <use xlink:href="#DejaVuSans-72" x="247.363281"/>
      <use xlink:href="#DejaVuSans-69" x="288.476562"/>
      <use xlink:href="#DejaVuSans-6d" x="316.259766"/>
      <use xlink:href="#DejaVuSans-65" x="413.671875"/>
      <use xlink:href="#DejaVuSans-6e" x="475.195312"/>
      <use xlink:href="#DejaVuSans-74" x="538.574219"/>
      <use xlink:href="#DejaVuSans-20" x="577.783203"/>
      <use xlink:href="#DejaVuSans-30" x="609.570312"/>
      <use xlink:href="#DejaVuSans-33" x="673.193359"/>
     </g>
    </g>
    <g id="line2d_39">
     <path d="M 56.81 316.747813 
L 66.81 316.747813 
L 76.81 316.747813 
" style="fill: none; stroke: #9467bd; stroke-width: 1.5; stroke-linecap: square"/>
    </g>
    <g id="text_22">
     <!-- Experiment 04 -->
     <g transform="translate(84.81 320.247813) scale(0.1 -0.1)">
      <use xlink:href="#DejaVuSans-45"/>
      <use xlink:href="#DejaVuSans-78" x="63.183594"/>
      <use xlink:href="#DejaVuSans-70" x="122.363281"/>
      <use xlink:href="#DejaVuSans-65" x="185.839844"/>
      <use xlink:href="#DejaVuSans-72" x="247.363281"/>
      <use xlink:href="#DejaVuSans-69" x="288.476562"/>
      <use xlink:href="#DejaVuSans-6d" x="316.259766"/>
      <use xlink:href="#DejaVuSans-65" x="413.671875"/>
      <use xlink:href="#DejaVuSans-6e" x="475.195312"/>
      <use xlink:href="#DejaVuSans-74" x="538.574219"/>
      <use xlink:href="#DejaVuSans-20" x="577.783203"/>
      <use xlink:href="#DejaVuSans-30" x="609.570312"/>
      <use xlink:href="#DejaVuSans-34" x="673.193359"/>
     </g>
    </g>
    <g id="line2d_40">
     <path d="M 56.81 331.425938 
L 66.81 331.425938 
L 76.81 331.425938 
" style="fill: none; stroke: #8c564b; stroke-width: 1.5; stroke-linecap: square"/>
    </g>
    <g id="text_23">
     <!-- Experiment 05 -->
     <g transform="translate(84.81 334.925938) scale(0.1 -0.1)">
      <use xlink:href="#DejaVuSans-45"/>
      <use xlink:href="#DejaVuSans-78" x="63.183594"/>
      <use xlink:href="#DejaVuSans-70" x="122.363281"/>
      <use xlink:href="#DejaVuSans-65" x="185.839844"/>
      <use xlink:href="#DejaVuSans-72" x="247.363281"/>
      <use xlink:href="#DejaVuSans-69" x="288.476562"/>
      <use xlink:href="#DejaVuSans-6d" x="316.259766"/>
      <use xlink:href="#DejaVuSans-65" x="413.671875"/>
      <use xlink:href="#DejaVuSans-6e" x="475.195312"/>
      <use xlink:href="#DejaVuSans-74" x="538.574219"/>
      <use xlink:href="#DejaVuSans-20" x="577.783203"/>
      <use xlink:href="#DejaVuSans-30" x="609.570312"/>
      <use xlink:href="#DejaVuSans-35" x="673.193359"/>
     </g>
    </g>
    <g id="line2d_41">
     <path d="M 56.81 346.104062 
L 66.81 346.104062 
L 76.81 346.104062 
" style="fill: none; stroke: #e377c2; stroke-width: 1.5; stroke-linecap: square"/>
    </g>
    <g id="text_24">
     <!-- Experiment 06 -->
     <g transform="translate(84.81 349.604062) scale(0.1 -0.1)">
      <use xlink:href="#DejaVuSans-45"/>
      <use xlink:href="#DejaVuSans-78" x="63.183594"/>
      <use xlink:href="#DejaVuSans-70" x="122.363281"/>
      <use xlink:href="#DejaVuSans-65" x="185.839844"/>
      <use xlink:href="#DejaVuSans-72" x="247.363281"/>
      <use xlink:href="#DejaVuSans-69" x="288.476562"/>
      <use xlink:href="#DejaVuSans-6d" x="316.259766"/>
      <use xlink:href="#DejaVuSans-65" x="413.671875"/>
      <use xlink:href="#DejaVuSans-6e" x="475.195312"/>
      <use xlink:href="#DejaVuSans-74" x="538.574219"/>
      <use xlink:href="#DejaVuSans-20" x="577.783203"/>
      <use xlink:href="#DejaVuSans-30" x="609.570312"/>
      <use xlink:href="#DejaVuSans-36" x="673.193359"/>
     </g>
    </g>
    <g id="line2d_42">
     <path d="M 56.81 360.782187 
L 66.81 360.782187 
L 76.81 360.782187 
" style="fill: none; stroke: #7f7f7f; stroke-width: 1.5; stroke-linecap: square"/>
    </g>
    <g id="text_25">
     <!-- Experiment 07 -->
     <g transform="translate(84.81 364.282187) scale(0.1 -0.1)">
      <use xlink:href="#DejaVuSans-45"/>
      <use xlink:href="#DejaVuSans-78" x="63.183594"/>
      <use xlink:href="#DejaVuSans-70" x="122.363281"/>
      <use xlink:href="#DejaVuSans-65" x="185.839844"/>
      <use xlink:href="#DejaVuSans-72" x="247.363281"/>
      <use xlink:href="#DejaVuSans-69" x="288.476562"/>
      <use xlink:href="#DejaVuSans-6d" x="316.259766"/>
      <use xlink:href="#DejaVuSans-65" x="413.671875"/>
      <use xlink:href="#DejaVuSans-6e" x="475.195312"/>
      <use xlink:href="#DejaVuSans-74" x="538.574219"/>
      <use xlink:href="#DejaVuSans-20" x="577.783203"/>
      <use xlink:href="#DejaVuSans-30" x="609.570312"/>
      <use xlink:href="#DejaVuSans-37" x="673.193359"/>
     </g>
    </g>
    <g id="line2d_43">
     <path d="M 56.81 375.460312 
L 66.81 375.460312 
L 76.81 375.460312 
" style="fill: none; stroke: #bcbd22; stroke-width: 1.5; stroke-linecap: square"/>
    </g>
    <g id="text_26">
     <!-- Experiment 08 -->
     <g transform="translate(84.81 378.960312) scale(0.1 -0.1)">
      <use xlink:href="#DejaVuSans-45"/>
      <use xlink:href="#DejaVuSans-78" x="63.183594"/>
      <use xlink:href="#DejaVuSans-70" x="122.363281"/>
      <use xlink:href="#DejaVuSans-65" x="185.839844"/>
      <use xlink:href="#DejaVuSans-72" x="247.363281"/>
      <use xlink:href="#DejaVuSans-69" x="288.476562"/>
      <use xlink:href="#DejaVuSans-6d" x="316.259766"/>
      <use xlink:href="#DejaVuSans-65" x="413.671875"/>
      <use xlink:href="#DejaVuSans-6e" x="475.195312"/>
      <use xlink:href="#DejaVuSans-74" x="538.574219"/>
      <use xlink:href="#DejaVuSans-20" x="577.783203"/>
      <use xlink:href="#DejaVuSans-30" x="609.570312"/>
      <use xlink:href="#DejaVuSans-38" x="673.193359"/>
     </g>
    </g>
   </g>
  </g>
 </g>
 <defs>
  <clipPath id="p5276bbfe01">
   <rect x="47.81" y="25.44" width="661.39" height="364.6"/>
  </clipPath>
 </defs>
</svg>
